<svg width="138" height="169" viewBox="0 0 138 169" fill="none" xmlns="http://www.w3.org/2000/svg">
<g clip-path="url(#clip0)">
<path d="M0.979919 130.262C0.699944 130.262 0.475963 130.053 0.461964 129.773C0.447965 129.479 0.657947 129.228 0.951922 129.214L9.81315 128.613C10.1211 128.571 10.3451 128.808 10.3731 129.102C10.3871 129.396 10.1771 129.647 9.88314 129.661L1.02192 130.262C1.00792 130.262 0.993918 130.262 0.979919 130.262Z" fill="#070405"/>
<path d="M1.59589 139.405C1.31591 139.405 1.09193 139.195 1.07793 138.916C1.06393 138.622 1.27391 138.37 1.56789 138.357L7.1534 137.979C7.46138 137.937 7.68536 138.175 7.71336 138.468C7.72735 138.762 7.51737 139.014 7.2234 139.028L1.63788 139.405C1.62388 139.405 1.60988 139.405 1.59589 139.405Z" fill="#070405"/>
<path d="M7.68539 146.465C7.67139 146.465 7.65739 146.465 7.64339 146.465C7.47541 146.451 3.49975 146.073 1.56792 144.214C-0.321914 142.397 -0.0139406 127.075 0.0560533 124.013C0.0700521 123.72 0.336029 123.496 0.588007 123.496C0.881981 123.51 1.10596 123.748 1.10596 124.027C0.909979 131.437 1.14796 142.355 2.28186 143.445C3.94772 145.039 7.68539 145.402 7.71339 145.402C8.00736 145.43 8.21734 145.682 8.18935 145.975C8.18935 146.255 7.96536 146.465 7.68539 146.465Z" fill="#070405"/>
<path d="M20.8022 58.7145C20.8022 58.7145 31.9733 51.1095 41.3105 54.1851C50.6476 57.2606 55.6172 54.1851 55.6172 54.1851L58.067 60.4619L50.9276 68.8637C50.9276 68.8637 46.056 68.7938 39.4346 66.8646C32.8132 64.9354 24.4559 71.1424 24.4559 71.1424L20.8022 58.7145Z" fill="#3D6AB2"/>
<path d="M31.0029 65.2789C31.0029 63.9945 28.6329 62.9644 27.5687 62.9644C26.3674 62.9644 26.3674 67.6 27.5687 67.6C28.6329 67.6 31.0029 66.5699 31.0029 65.2789Z" fill="#F18E90"/>
<path d="M39.6166 62.4611C40.7925 61.2868 39.5746 58.1693 38.5947 57.2047C37.5028 56.1143 33.2472 60.3501 34.3531 61.4405C35.319 62.4051 38.4407 63.6354 39.6166 62.4611Z" fill="#FBDE5C"/>
<path d="M45.0061 66.4186C46.8404 66.8758 49.2943 64.3612 49.7437 63.0624C50.2418 61.5973 43.6334 59.9452 43.1354 61.4103C42.698 62.6987 43.1718 65.9614 45.0061 66.4186Z" fill="#8BCDC9"/>
<path d="M27.9276 60.8394C29.0475 61.119 30.6853 59.092 31.0073 58.0854C31.3853 56.9391 27.3536 55.9186 26.9757 57.0509C26.6397 58.0575 26.8077 60.5459 27.9276 60.8394Z" fill="#8BCDC9"/>
<path d="M24.4559 71.0725C24.3999 71.0725 24.3439 71.0585 24.2879 71.0446C24.134 70.9886 24.008 70.8628 23.952 70.709L20.3123 59.1199C20.2423 58.8962 20.3263 58.6446 20.5363 58.5188C20.9982 58.2252 32.0153 51.3332 41.4784 54.241C50.4517 56.995 55.3232 54.3109 55.3792 54.283C55.5052 54.2131 55.6592 54.1991 55.8132 54.241C55.9532 54.2829 56.0652 54.3948 56.1212 54.5346L58.571 60.3921C58.655 60.5738 58.613 60.7975 58.473 60.9512L51.3336 68.7799C51.2356 68.8917 51.0256 68.9616 50.9416 68.9476C50.7456 68.9476 45.9301 68.8498 39.3226 67.0604C33.0092 65.3409 24.8619 70.9187 24.7779 70.9747C24.6659 71.0446 24.5539 71.0725 24.4559 71.0725ZM21.4322 59.1898L24.7499 69.7305C26.8077 68.4304 33.7511 64.4741 39.5746 66.0538C45.2441 67.5916 49.6677 67.8572 50.7036 67.8991L57.4511 60.4899L55.3512 55.4572C53.8114 56.1283 48.9818 57.652 41.1565 55.2475C33.0652 52.7452 23.364 58.0575 21.4322 59.1898Z" fill="#070405"/>
<path d="M47.288 99.5769C47.288 99.5769 40.1346 106.105 30.7974 104.861C21.4602 103.617 14.1948 97.8714 10.2052 102.303C6.21553 106.734 13.3689 112.634 20.8443 112.941C28.3196 113.249 39.8266 111.39 45.7341 106.259" fill="white"/>
<path d="M22.5101 113.501C21.9361 113.501 21.3622 113.487 20.8162 113.473C15.6087 113.249 10.3871 110.383 8.93125 106.916C8.18932 105.141 8.48329 103.421 9.81318 101.953C12.5849 98.878 16.7846 100.29 21.6421 101.926C24.3999 102.848 27.5076 103.897 30.8673 104.344C39.8266 105.532 46.854 99.2554 46.9239 99.1995C47.1339 99.0038 47.4699 99.0178 47.6659 99.2275C47.8619 99.4371 47.8479 99.7727 47.6379 99.9684C47.3439 100.234 40.2045 106.637 30.7274 105.378C27.2837 104.917 24.1059 103.855 21.3062 102.918C16.6166 101.338 12.8929 100.094 10.5971 102.652C9.5472 103.813 9.30922 105.113 9.89717 106.497C11.1851 109.558 16.0986 112.215 20.8582 112.41C28.9075 112.746 39.9106 110.607 45.3841 105.854C45.6081 105.672 45.93 105.686 46.126 105.91C46.322 106.133 46.294 106.455 46.07 106.651C40.7785 111.25 30.5594 113.501 22.5101 113.501Z" fill="#070405"/>
<path d="M90.5021 56.2401C90.5021 56.2401 93.0499 67.8852 93.3579 83.7381C93.6658 99.591 86.7084 115.738 86.2885 121.022C85.8825 126.306 87.7304 151.861 88.1643 153.413C88.5983 154.964 92.406 155.51 91.79 158.613C91.1741 161.717 80.9129 162.961 77.4832 158.613C74.0535 154.265 69.4759 132.513 67.2501 130.961C65.0243 129.41 61.2867 129.717 61.2867 129.717C61.2867 129.717 46.5879 126.614 44.1242 116.982C41.6604 107.35 41.6464 90.8817 47.2599 76.2869C52.8734 61.6922 55.7711 56.7294 55.1832 56.2541C54.6372 55.7648 90.5021 56.2401 90.5021 56.2401Z" fill="white"/>
<path d="M84.9727 161.94C81.9209 161.94 78.7432 161.032 77.0773 158.935C75.2155 156.572 73.1577 149.68 71.1559 143.012C69.616 137.867 67.8661 132.024 66.9562 131.395C64.9124 129.969 61.3847 130.234 61.3427 130.248C61.2867 130.248 61.2447 130.248 61.1887 130.234C60.5728 130.109 46.14 126.949 43.6202 117.122C41.1145 107.308 41.1145 90.8119 46.784 76.1053C49.5137 69.0316 51.5856 64.2505 52.9434 61.0771C53.9653 58.7146 54.7073 56.9811 54.7493 56.5198C54.6653 56.38 54.6513 56.2122 54.7073 56.0584C54.8753 55.5971 55.0013 55.2616 90.5022 55.7369C90.7402 55.7369 90.9501 55.9047 91.0061 56.1423C91.0341 56.2542 93.5679 68.025 93.8759 83.7382C94.0859 94.5444 90.8941 105.672 88.7803 113.026C87.7584 116.59 86.9465 119.414 86.8205 121.064C86.4005 126.46 88.3184 151.987 88.6823 153.273C88.7943 153.664 89.3683 154.07 89.9702 154.489C91.1601 155.314 92.77 156.432 92.322 158.725C92.07 159.997 90.6002 161.032 88.3044 161.577C87.2685 161.815 86.1346 161.94 84.9727 161.94ZM62.1126 129.158C63.4005 129.158 65.8643 129.326 67.5722 130.528C68.7201 131.339 70.078 135.687 72.1778 142.704C74.0536 148.967 76.1814 156.083 77.9173 158.278C79.9331 160.836 84.6647 161.353 88.0664 160.542C89.8862 160.109 91.1321 159.326 91.2861 158.501C91.6081 156.894 90.5162 156.139 89.3683 155.342C88.5983 154.811 87.8844 154.307 87.6744 153.553C87.1705 151.749 85.3786 126.194 85.7846 120.98C85.9246 119.219 86.7505 116.353 87.7864 112.732C89.8862 105.435 93.05 94.3906 92.854 83.7521C92.574 69.7725 90.5442 58.9662 90.0962 56.7714C77.4413 56.6036 58.9489 56.4499 55.8132 56.6735C55.7012 57.4005 55.1272 58.7286 53.9373 61.4965C52.5655 64.6559 50.5076 69.423 47.7919 76.4827C42.2064 90.9796 42.2064 107.21 44.6702 116.856C46.938 125.719 60.2788 128.948 61.3707 129.2C61.4827 129.172 61.7487 129.158 62.1126 129.158Z" fill="#070405"/>
<path d="M90.0822 21.0255C90.0822 21.0255 91.86 12.0086 88.1783 8.19214C88.1783 8.19214 81.0529 10.2891 79.7791 15.811" fill="white"/>
<path d="M90.0822 21.5567C90.0542 21.5567 90.0122 21.5567 89.9842 21.5427C89.7042 21.4868 89.5082 21.2072 89.5642 20.9276C89.5782 20.8438 91.1741 12.5119 88.0103 8.80728C86.6665 9.28259 81.3329 11.4215 80.283 15.9369C80.213 16.2165 79.9331 16.3982 79.6531 16.3283C79.3731 16.2584 79.1911 15.9788 79.2611 15.6992C80.591 9.95361 87.7164 7.78677 88.0103 7.68891C88.2063 7.63299 88.4023 7.68891 88.5423 7.82871C92.378 11.7849 90.6561 20.7459 90.5861 21.1234C90.5441 21.375 90.3201 21.5567 90.0822 21.5567Z" fill="#070405"/>
<path d="M83.3347 17.4746C83.3347 17.4746 84.3566 11.002 88.1643 8.20605L83.3347 17.4746Z" fill="white"/>
<path d="M83.3347 17.9918C83.3067 17.9918 83.2788 17.9918 83.2508 17.9918C82.9568 17.9499 82.7748 17.6843 82.8168 17.3907C82.8588 17.1111 83.9087 10.6665 87.8563 7.77271C88.0943 7.60495 88.4163 7.64689 88.5843 7.88455C88.7523 8.1222 88.7103 8.44373 88.4723 8.61149C84.8746 11.2536 83.8667 17.4746 83.8527 17.5445C83.8107 17.8101 83.5867 17.9918 83.3347 17.9918Z" fill="#070405"/>
<path d="M47.3719 38.2763C46.056 52.2 58.8089 62.2933 72.8216 62.2933C86.8344 62.2933 99.7973 52.172 98.2854 38.2763C96.4376 21.3888 86.8344 11.645 72.8216 11.645C58.8089 11.645 48.8277 22.9406 47.3719 38.2763Z" fill="white"/>
<path d="M72.8217 62.8245C64.8844 62.8245 57.199 59.5952 52.2715 54.1851C48.1698 49.6836 46.294 44.1617 46.8539 38.2203C48.3658 22.2556 59.0469 11.1138 72.8217 11.1138C87.2404 11.1138 96.9556 21.249 98.8034 38.2203C99.4474 44.0638 97.6415 49.5159 93.6099 54.0173C88.6683 59.5393 80.885 62.8245 72.8217 62.8245ZM47.9039 38.3322C47.3719 43.966 49.1497 49.2083 53.0554 53.4861C57.787 58.6865 65.1783 61.776 72.8357 61.776C80.605 61.776 88.0944 58.6166 92.854 53.3183C96.6756 49.0545 98.3835 43.8821 97.7815 38.3322C95.9757 21.948 86.6525 12.1762 72.8217 12.1762C59.3969 12.1762 49.3737 22.6889 47.9039 38.3322Z" fill="#070405"/>
<path d="M65.9623 18.5789C65.9623 18.5789 61.8187 13.3645 54.6093 12.5676C54.6093 12.5676 51.4876 21.0113 54.0354 26.8688" fill="white"/>
<path d="M54.0354 27.4001C53.8394 27.4001 53.6434 27.2882 53.5594 27.0785C50.9696 21.0953 53.9934 12.7354 54.1333 12.3859C54.2173 12.1623 54.4553 12.0225 54.6793 12.0504C62.0287 12.8612 66.2003 18.0337 66.3823 18.2574C66.5643 18.4811 66.5223 18.8166 66.2983 18.9983C66.0743 19.18 65.7383 19.1381 65.5564 18.9144C65.5144 18.8585 61.6227 14.0635 54.9873 13.1548C54.4273 14.8603 52.4115 21.7803 54.5253 26.6871C54.6373 26.9527 54.5113 27.2603 54.2453 27.3721C54.1753 27.3861 54.1053 27.4001 54.0354 27.4001Z" fill="#070405"/>
<path d="M57.283 25.9462C57.283 25.9462 53.5454 16.8314 54.6093 12.5676L57.283 25.9462Z" fill="white"/>
<path d="M57.283 26.4774C57.073 26.4774 56.8771 26.3516 56.7931 26.1559C56.6391 25.7785 52.9994 16.8315 54.1053 12.4419C54.1753 12.1623 54.4693 11.9945 54.7492 12.0644C55.0292 12.1343 55.1972 12.4139 55.1272 12.6935C54.1193 16.7476 57.731 25.6666 57.773 25.7505C57.885 26.0161 57.759 26.3237 57.479 26.4355C57.409 26.4635 57.353 26.4774 57.283 26.4774Z" fill="#070405"/>
<path d="M81.5429 38.7657C84.1716 38.7657 86.3025 36.6377 86.3025 34.0126C86.3025 31.3875 84.1716 29.2595 81.5429 29.2595C78.9143 29.2595 76.7833 31.3875 76.7833 34.0126C76.7833 36.6377 78.9143 38.7657 81.5429 38.7657Z" fill="white"/>
<path d="M81.5429 39.2828C78.6312 39.2828 76.2654 36.9203 76.2654 34.0125C76.2654 31.1047 78.6312 28.7422 81.5429 28.7422C84.4547 28.7422 86.8205 31.1047 86.8205 34.0125C86.8205 36.9203 84.4547 39.2828 81.5429 39.2828ZM81.5429 29.7907C79.2051 29.7907 77.3153 31.6919 77.3153 34.0125C77.3153 36.3471 79.2191 38.2344 81.5429 38.2344C83.8667 38.2344 85.7706 36.3331 85.7706 34.0125C85.7706 31.6779 83.8667 29.7907 81.5429 29.7907Z" fill="#070405"/>
<path d="M72.0238 39.4366C74.6524 39.4366 76.7833 37.3086 76.7833 34.6835C76.7833 32.0584 74.6524 29.9304 72.0238 29.9304C69.3951 29.9304 67.2642 32.0584 67.2642 34.6835C67.2642 37.3086 69.3951 39.4366 72.0238 39.4366Z" fill="white"/>
<path d="M72.0238 39.9537C69.112 39.9537 66.7462 37.5912 66.7462 34.6834C66.7462 31.7756 69.112 29.4131 72.0238 29.4131C74.9355 29.4131 77.3013 31.7756 77.3013 34.6834C77.3013 37.5912 74.9355 39.9537 72.0238 39.9537ZM72.0238 30.4476C69.686 30.4476 67.7961 32.3488 67.7961 34.6694C67.7961 37.004 69.7 38.8913 72.0238 38.8913C74.3616 38.8913 76.2514 36.9901 76.2514 34.6694C76.2514 32.3488 74.3616 30.4476 72.0238 30.4476Z" fill="#070405"/>
<path d="M79.1772 40.7924C79.1772 40.7924 76.1255 40.9741 75.4955 41.3516C74.8656 41.729 77.7913 42.428 78.2953 42.4001C78.7852 42.3581 80.3111 40.7085 79.1772 40.7924Z" fill="#010202"/>
<path d="M78.3093 42.9174C77.9733 42.9174 75.1736 42.498 74.9076 41.6593C74.8376 41.4356 74.8796 41.1141 75.2296 40.9044C75.9155 40.499 78.3933 40.3172 79.1492 40.2753C79.6392 40.2333 79.8772 40.4291 80.0032 40.5968C80.1152 40.7646 80.2131 41.0581 80.0032 41.5055C79.7372 42.0507 78.9253 42.8755 78.3373 42.9174C78.3233 42.9174 78.3093 42.9174 78.3093 42.9174ZM76.7414 41.5754C77.3434 41.7431 78.0153 41.869 78.2533 41.8829C78.3793 41.841 78.6593 41.5894 78.8553 41.3517C78.1133 41.3937 77.3434 41.4775 76.7414 41.5754Z" fill="#070405"/>
<path d="M78.1552 42.512C78.1552 42.512 77.7493 46.5661 75.3975 47.5866C71.7158 49.1942 68.4961 46.9575 67.2642 43.3787" fill="white"/>
<path d="M72.9897 48.6492C72.2057 48.6492 71.4358 48.4954 70.7079 48.1738C68.944 47.405 67.5161 45.7274 66.7742 43.5745C66.6762 43.2949 66.8302 43.0014 67.0962 42.9035C67.3622 42.8057 67.6701 42.9594 67.7681 43.225C68.4121 45.0983 69.644 46.5522 71.1418 47.2092C72.4017 47.7545 73.8016 47.7265 75.2015 47.1114C77.2453 46.2167 77.6513 42.4981 77.6513 42.4562C77.6793 42.1626 77.9452 41.9669 78.2252 41.9948C78.5192 42.0228 78.7292 42.2744 78.6872 42.568C78.6732 42.7497 78.2252 46.9297 75.6074 48.076C74.7255 48.4534 73.8436 48.6492 72.9897 48.6492Z" fill="#070405"/>
<path d="M85.1407 43.7703C85.1407 43.7703 85.1407 46.9856 82.4809 47.4329C80.6051 47.7545 78.6872 46.9297 78.1833 45.0844C78.0713 44.665 77.9873 44.2176 77.9873 43.7703" fill="white"/>
<path d="M81.6829 48.02C79.7651 48.02 78.1413 46.9296 77.6653 45.2241C77.5253 44.7209 77.4553 44.2316 77.4553 43.7702C77.4553 43.4767 77.6933 43.239 77.9873 43.239C78.2812 43.239 78.5192 43.4767 78.5192 43.7702C78.5192 44.1337 78.5752 44.5391 78.6872 44.9445C79.1632 46.65 80.941 47.1533 82.3969 46.9157C84.5947 46.5522 84.6227 43.7982 84.6227 43.7702C84.6227 43.4767 84.8607 43.239 85.1546 43.239C85.4486 43.239 85.6866 43.4767 85.6866 43.7702C85.6866 45.0284 85.0427 47.5308 82.5929 47.9501C82.2709 47.9921 81.9769 48.02 81.6829 48.02Z" fill="#070405"/>
<path d="M80.3811 36.7527C81.6103 36.7527 82.6069 35.7575 82.6069 34.5299C82.6069 33.3023 81.6103 32.3071 80.3811 32.3071C79.1518 32.3071 78.1553 33.3023 78.1553 34.5299C78.1553 35.7575 79.1518 36.7527 80.3811 36.7527Z" fill="#080606"/>
<path d="M80.3811 37.2698C78.8692 37.2698 77.6373 36.0396 77.6373 34.5298C77.6373 33.02 78.8692 31.7898 80.3811 31.7898C81.893 31.7898 83.1249 33.02 83.1249 34.5298C83.1249 36.0396 81.893 37.2698 80.3811 37.2698ZM80.3811 32.8243C79.4432 32.8243 78.6872 33.5792 78.6872 34.5158C78.6872 35.4525 79.4432 36.2074 80.3811 36.2074C81.319 36.2074 82.0749 35.4525 82.0749 34.5158C82.0749 33.5792 81.319 32.8243 80.3811 32.8243Z" fill="#070405"/>
<path d="M72.0238 37.2138C73.2531 37.2138 74.2496 36.2187 74.2496 34.9911C74.2496 33.7635 73.2531 32.7683 72.0238 32.7683C70.7945 32.7683 69.798 33.7635 69.798 34.9911C69.798 36.2187 70.7945 37.2138 72.0238 37.2138Z" fill="#080606"/>
<path d="M72.0238 37.731C70.5119 37.731 69.28 36.5008 69.28 34.991C69.28 33.4812 70.5119 32.251 72.0238 32.251C73.5357 32.251 74.7676 33.4812 74.7676 34.991C74.7676 36.5008 73.5357 37.731 72.0238 37.731ZM72.0238 33.2855C71.0859 33.2855 70.3299 34.0404 70.3299 34.977C70.3299 35.9136 71.0859 36.6685 72.0238 36.6685C72.9617 36.6685 73.7176 35.9136 73.7176 34.977C73.7176 34.0404 72.9617 33.2855 72.0238 33.2855Z" fill="#070405"/>
<path d="M65.9623 122.476C65.9623 122.476 55.0713 130.332 47.288 132.821C39.5046 135.309 31.7633 132.821 26.7797 133.128C21.7962 133.436 18.0725 135.617 16.8266 137.168C15.5807 138.72 12.109 144.522 8.37134 139.866C4.63366 135.211 9.67322 125.677 13.4109 124.125C17.1486 122.574 29.5935 122.574 33.0092 118.533C36.4249 114.493 31.1474 106.273 43.3403 90.3225" fill="white"/>
<path d="M11.367 142.159C10.1491 142.159 9.01523 141.502 7.96532 140.188C6.11748 137.881 6.39746 134.806 6.94341 132.639C7.95132 128.697 10.7651 124.657 13.2009 123.636C14.5587 123.077 16.8965 122.727 19.6123 122.308C24.4559 121.581 30.5034 120.672 32.6032 118.184C33.6811 116.912 33.8071 115.109 33.9891 112.62C34.339 107.811 34.857 100.542 42.9203 90.0011C43.1023 89.7634 43.4242 89.7215 43.6622 89.9032C43.9002 90.085 43.9422 90.4065 43.7602 90.6441C35.8929 100.933 35.3889 108.021 35.039 112.704C34.857 115.29 34.703 117.345 33.4011 118.883C31.0353 121.679 24.7919 122.616 19.7663 123.371C17.1205 123.762 14.8387 124.111 13.6068 124.629C11.465 125.523 8.88924 129.312 7.96532 132.919C7.26538 135.659 7.55936 138.021 8.79125 139.559C9.64518 140.621 10.5131 141.111 11.423 141.139C13.2849 141.097 15.0347 138.748 15.9726 137.476C16.1546 137.238 16.3086 137.029 16.4346 136.861C17.6525 135.337 21.4042 132.961 26.7657 132.625C28.4735 132.527 30.5174 132.737 32.6872 132.961C37.0968 133.422 42.0804 133.953 47.1479 132.331C54.7493 129.899 65.5703 122.14 65.6683 122.056C65.9063 121.889 66.2283 121.945 66.3962 122.168C66.5642 122.392 66.5082 122.727 66.2843 122.895C65.8363 123.217 55.2252 130.836 47.4559 133.324C42.1784 135.016 36.8448 134.442 32.5612 133.995C30.3494 133.757 28.4455 133.562 26.8217 133.66C21.8381 133.967 18.2964 136.176 17.2465 137.504C17.1205 137.658 16.9805 137.853 16.8126 138.077C15.6926 139.587 13.8168 142.117 11.437 142.159C11.409 142.159 11.381 142.159 11.367 142.159Z" fill="#070405"/>
<path d="M72.8497 150.421C72.8497 150.421 84.9587 150.002 88.1784 146.898C88.1784 146.898 88.4864 152.7 90.1382 153.315C91.8041 153.93 95.3598 157.663 93.3719 160.361C91.3841 163.059 84.7347 165.128 80.3811 162.849C76.0275 160.57 72.8497 150.421 72.8497 150.421Z" fill="#E2A58E"/>
<path d="M84.7067 164.345C83.1108 164.345 81.515 164.037 80.1291 163.31C75.6355 160.962 72.4717 150.994 72.3318 150.575C72.2758 150.421 72.3038 150.253 72.4018 150.114C72.4998 149.974 72.6537 149.904 72.8077 149.89C72.9197 149.89 84.7487 149.443 87.7864 146.521C87.9404 146.381 88.1504 146.339 88.3464 146.409C88.5424 146.479 88.6683 146.661 88.6823 146.87C88.8223 149.498 89.4803 152.518 90.3062 152.826C91.5381 153.287 93.6519 155.23 94.2819 157.355C94.6458 158.585 94.4778 159.732 93.7779 160.682C92.35 162.639 88.4864 164.345 84.7067 164.345ZM73.5637 150.924C74.3476 153.175 77.1333 160.57 80.619 162.402C84.7627 164.568 91.1321 162.513 92.938 160.067C93.4419 159.396 93.5539 158.585 93.2739 157.663C92.756 155.915 90.9222 154.196 89.9422 153.818C88.4164 153.245 87.8844 149.764 87.7164 147.919C84.1747 150.197 76.0274 150.785 73.5637 150.924Z" fill="#070405"/>
<path d="M73.0597 154.475C73.0597 154.475 70.3159 149.61 71.8138 147.989C73.3257 146.367 73.0597 149.89 88.5703 144.857C89.6343 144.508 89.8722 149.61 88.0524 151.358C86.2186 153.091 74.1096 156.74 73.0597 154.475Z" fill="#E2A58E"/>
<path d="M75.1875 155.719C74.7675 155.719 74.3756 155.691 74.0536 155.621C73.3117 155.482 72.8217 155.174 72.5977 154.713C72.2617 154.112 69.742 149.47 71.4358 147.625C72.1358 146.884 72.6677 146.94 73.4796 147.052C74.9075 147.234 78.2532 147.653 88.4163 144.354C88.5703 144.298 89.1023 144.186 89.4942 144.829C90.2082 146.031 90.1662 150.058 88.4163 151.721C86.8905 153.175 79.1771 155.719 75.1875 155.719ZM72.7657 148.031C72.5137 148.031 72.4017 148.1 72.1917 148.338C71.2818 149.317 72.5137 152.462 73.5076 154.21C73.5076 154.224 73.5216 154.237 73.5216 154.251C73.5916 154.391 73.8436 154.517 74.2356 154.601C77.3013 155.174 86.2185 152.364 87.6744 150.98C88.5143 150.183 88.8643 148.422 88.8643 147.052C88.8643 146.143 88.6963 145.598 88.5983 145.402C78.3232 148.73 74.9635 148.31 73.3536 148.1C73.0877 148.058 72.9057 148.031 72.7657 148.031Z" fill="#070405"/>
<path d="M17.7926 123.119C17.7926 123.119 18.1705 132.639 19.9344 134.904C19.9344 134.904 17.9745 135.491 16.0707 138.51C14.2509 141.404 11.6891 144.116 9.19731 143.291C6.70552 142.467 4.15774 134.47 5.61362 129.298C7.06949 124.125 8.02141 124.922 11.5351 124.028C15.8607 122.923 17.7926 123.119 17.7926 123.119Z" fill="#E2A58E"/>
<path d="M10.1212 143.976C9.75722 143.976 9.39325 143.921 9.02928 143.795C6.24352 142.872 3.59775 134.54 5.09562 129.158C6.32752 124.768 7.27943 124.377 9.84121 123.86C10.2892 123.762 10.8071 123.664 11.3951 123.51C15.7627 122.392 17.7645 122.588 17.8485 122.588C18.1005 122.616 18.3105 122.825 18.3105 123.091C18.4225 125.691 18.9824 132.821 20.3403 134.568C20.4523 134.708 20.4803 134.89 20.4243 135.043C20.3683 135.211 20.2423 135.337 20.0743 135.393C20.0603 135.393 18.2545 135.98 16.5046 138.776C14.4048 142.187 12.165 143.976 10.1212 143.976ZM17.2886 123.636C16.5046 123.636 14.6708 123.762 11.6611 124.531C11.0591 124.685 10.5272 124.796 10.0512 124.88C7.88138 125.314 7.23744 125.439 6.11753 129.438C4.70366 134.498 7.25144 142.089 9.36525 142.802C11.913 143.641 14.5868 139.894 15.6227 138.231C16.9806 136.064 18.3805 135.085 19.1644 134.666C17.8205 132.052 17.3866 125.607 17.2886 123.636Z" fill="#070405"/>
<path d="M18.7304 120.994C18.7304 120.994 22.5241 119.61 23.7699 121.441C25.0158 123.273 23.014 119.54 24.4559 135.77C24.5539 136.889 19.7103 138.454 18.4224 136.288C17.1205 134.107 16.2666 121.511 18.7304 120.994Z" fill="#E2A58E"/>
<path d="M20.8442 137.881C19.6403 137.881 18.5344 137.504 17.9605 136.539C16.7706 134.554 15.9727 124.866 17.3725 121.693C17.6665 121.008 18.0725 120.602 18.5764 120.477C18.9964 120.323 22.7901 119.065 24.204 121.134L24.3859 121.399C24.7219 121.889 24.7779 122.028 24.6799 122.574C24.5259 123.314 24.078 125.565 24.9739 135.714C25.0719 136.763 23.406 137.378 22.9021 137.546C22.2441 137.755 21.5302 137.881 20.8442 137.881ZM21.4602 121.008C20.4803 121.008 19.4304 121.287 18.8984 121.483C18.8704 121.497 18.8564 121.497 18.8284 121.497C18.6744 121.525 18.4924 121.749 18.3385 122.112C17.0926 124.964 17.8345 134.275 18.8704 136.008C19.4164 136.917 20.8162 136.861 21.3902 136.805C22.8741 136.637 23.854 135.994 23.924 135.77C23.0141 125.509 23.476 123.147 23.644 122.378C23.658 122.294 23.672 122.238 23.672 122.196C23.658 122.196 23.602 122.126 23.518 122.014L23.322 121.735C22.9721 121.19 22.2441 121.008 21.4602 121.008Z" fill="#070405"/>
<path d="M53.0415 53.6399C53.0415 53.6399 56.7371 56.2261 62.3647 57.4703C67.9502 58.7145 80.4791 59.0779 91.2442 54.0033C91.3281 53.9614 91.4121 53.9334 91.4821 53.8915C91.4821 53.8915 93.554 51.0257 94.5339 51.9204C95.4998 52.8151 94.6739 57.3025 95.4998 60.8953C96.3257 64.4881 98.5235 69.5068 94.5339 70.038C90.5302 70.5692 81.851 73.0017 74.1656 70.038C66.4803 67.0743 61.8747 66.3753 57.7311 66.2355C53.5874 66.0957 50.6057 67.4238 50.2697 64.0687C49.9337 60.7136 52.1875 53.3882 53.0415 53.6399Z" fill="#3D6AB2"/>
<path d="M93.9599 67.0044C96.7597 67.0044 98.9995 61.8459 98.9995 59.5393C98.9995 56.9391 88.9064 56.9391 88.9064 59.5393C88.9064 61.8599 91.1602 67.0044 93.9599 67.0044Z" fill="#FBDE5C"/>
<path d="M56.5574 63.0485C56.5574 61.3805 53.4797 60.0427 52.0977 60.0427C50.5376 60.0427 50.5376 66.0628 52.0977 66.0628C53.4712 66.0628 56.5574 64.725 56.5574 63.0485Z" fill="#F18E90"/>
<path d="M60.8659 59.805C61.3917 59.28 60.8472 57.8861 60.409 57.4548C59.9208 56.9672 58.018 58.8612 58.5124 59.3487C58.9443 59.78 60.3339 60.3301 60.8659 59.805Z" fill="#FBDE5C"/>
<path d="M85.5511 63.7621C87.039 64.1013 88.8505 61.6382 89.1254 60.4107C89.4408 59.0298 84.0874 57.8103 83.772 59.1994C83.4971 60.4269 84.0631 63.431 85.5511 63.7621Z" fill="#E2AACE"/>
<path d="M78.1232 70.5986C80.237 71.2137 83.0648 67.8306 83.5828 66.0832C84.1567 64.112 76.5414 61.8893 75.9674 63.8604C75.4495 65.6079 76.0094 69.9835 78.1232 70.5986Z" fill="#8BCDC9"/>
<path d="M68.3321 64.2454C68.3321 63.0065 66.0593 62.0278 65.0376 62.0278C63.8908 62.0278 63.8908 66.4734 65.0376 66.4734C66.0593 66.463 68.3321 65.4844 68.3321 64.2454Z" fill="#F18E90"/>
<path d="M82.6768 72.0091C79.8351 72.0091 76.8533 71.6316 73.9556 70.5133C65.9203 67.4098 61.3847 66.8646 57.689 66.7388C56.6671 66.6968 55.6872 66.7667 54.8333 66.8087C52.2575 66.9624 50.0177 67.1022 49.7237 64.0966C49.4157 61.0071 51.2776 54.2689 52.4535 53.2903C52.7474 53.0387 53.0274 53.0807 53.1534 53.1226C53.2094 53.1366 53.2654 53.1645 53.3074 53.1925C53.3494 53.2204 56.9891 55.7368 62.4486 56.953C68.2581 58.2531 80.633 58.4069 90.9781 53.514L91.1041 53.4581C91.5101 52.9269 92.798 51.3192 93.9179 51.2074C94.2958 51.1654 94.6038 51.2773 94.8558 51.5149C95.5277 52.144 95.5417 53.5979 95.5697 55.625C95.5837 57.2606 95.5977 59.1059 95.9897 60.7555C96.1297 61.3426 96.2977 61.9577 96.4656 62.5868C97.1516 65.0892 97.8655 67.6894 96.8156 69.2831C96.3537 69.9821 95.5977 70.4014 94.5618 70.5412C93.9039 70.6251 93.1059 70.7789 92.196 70.9327C89.6202 71.408 86.2745 72.0091 82.6768 72.0091ZM57.0731 65.6903C57.297 65.6903 57.521 65.6903 57.745 65.7043C61.5387 65.8301 66.1723 66.3893 74.3476 69.5487C80.605 71.9672 87.4924 70.7369 92.056 69.9122C92.9799 69.7444 93.7919 69.6046 94.4638 69.5067C95.1918 69.4089 95.6817 69.1433 95.9757 68.7099C96.7596 67.5216 96.0877 65.0472 95.4857 62.8804C95.3037 62.2373 95.1358 61.5943 94.9958 61.0071C94.5898 59.2457 94.5758 57.3305 94.5478 55.6529C94.5338 54.227 94.5198 52.6193 94.1698 52.3118C93.4979 52.3397 92.434 53.4581 91.902 54.199C91.846 54.2689 91.7901 54.3248 91.7061 54.3668L91.4681 54.4786C80.871 59.4833 68.1881 59.3156 62.2386 58.0015C57.395 56.9251 53.9933 54.898 53.0134 54.2689C52.2015 55.3593 50.4936 61.1329 50.7876 64.0127C50.9696 65.914 51.9635 65.9559 54.7913 65.7882C55.4772 65.7322 56.2471 65.6903 57.0731 65.6903Z" fill="#070405"/>
<path d="M15.7347 59.721C15.5807 59.721 15.4127 59.6511 15.3147 59.5113C15.1467 59.2737 15.1887 58.9521 15.4127 58.7844C15.4687 58.7424 16.8966 57.694 18.7024 58.3231C19.9063 58.7424 20.4522 58.351 20.4662 58.3231C20.6902 58.1553 21.0122 58.1833 21.1942 58.393C21.3762 58.6166 21.3622 58.9242 21.1382 59.1199C21.0402 59.2038 20.1443 59.9307 18.3384 59.3156C17.0645 58.8683 16.0426 59.6232 16.0286 59.6232C15.9586 59.6931 15.8466 59.721 15.7347 59.721Z" fill="#070405"/>
<path d="M15.7347 63.4536C15.6227 63.4536 15.5107 63.4256 15.4267 63.3417C15.1887 63.174 15.1467 62.8385 15.3147 62.6148C15.3847 62.5169 17.0646 60.3081 18.9824 60.3081C19.0244 60.3081 19.0524 60.3081 19.0944 60.3081C19.9483 60.3501 20.2283 60.1963 20.2983 60.1404C20.3683 59.9167 20.5783 59.7629 20.8162 59.7629C21.1102 59.7769 21.3342 60.0146 21.3202 60.3081C21.3202 60.392 21.2922 60.6576 21.0122 60.9093C20.6343 61.2588 19.9763 61.3986 19.0384 61.3566C19.0104 61.3566 18.9964 61.3566 18.9684 61.3566C17.8065 61.3566 16.5326 62.7127 16.1406 63.2439C16.0567 63.3697 15.8887 63.4536 15.7347 63.4536Z" fill="#070405"/>
<path d="M16.3507 65.0053C16.2667 65.0053 16.1687 64.9773 16.0847 64.9354C15.8327 64.7956 15.7487 64.474 15.8887 64.2224C15.9307 64.1385 16.9806 62.2653 19.2484 62.4051C20.8863 62.461 21.4742 61.9437 21.4882 61.9298C21.6982 61.734 22.0202 61.734 22.2302 61.9437C22.4262 62.1534 22.4402 62.461 22.2302 62.6707C22.1462 62.7546 21.3203 63.5374 19.2064 63.4535C17.5826 63.3836 16.8406 64.6837 16.7986 64.7397C16.7147 64.9074 16.5327 65.0053 16.3507 65.0053Z" fill="#070405"/>
<path d="M16.3506 66.8646C16.1966 66.8646 16.0426 66.7947 15.9446 66.6689C15.7627 66.4453 15.7907 66.1237 16.0146 65.928C16.0706 65.8721 17.5685 64.6559 20.1863 64.4042C21.3622 64.2924 21.7401 64.0827 21.8521 63.9988C21.8381 63.7891 21.9501 63.5794 22.1461 63.4816C22.4121 63.3557 22.7201 63.4676 22.846 63.7332C22.93 63.9149 22.958 64.1945 22.7901 64.4881C22.4961 65.0193 21.6981 65.3269 20.2843 65.4527C18.0025 65.6624 16.7006 66.7249 16.6866 66.7388C16.5886 66.8227 16.4766 66.8646 16.3506 66.8646Z" fill="#070405"/>
<path d="M18.2684 67.4519C18.0305 67.4519 17.8205 67.2981 17.7645 67.0605C17.6945 66.7809 17.8485 66.4873 18.1284 66.4174C18.1984 66.4034 19.8223 65.9561 21.4462 65.8163L23.042 65.6765C23.336 65.6625 23.588 65.8582 23.616 66.1518C23.644 66.4454 23.434 66.697 23.14 66.725L21.5442 66.8648C20.0183 67.0046 18.4364 67.4239 18.4224 67.4379C18.3664 67.4519 18.3104 67.4519 18.2684 67.4519Z" fill="#070405"/>
<path d="M17.7505 70.122C17.6385 70.122 17.5125 70.0801 17.4145 69.9962C17.1906 69.8145 17.1626 69.4789 17.3446 69.2553C17.8205 68.6821 18.8424 68.3466 21.3902 67.9132C22.3561 67.7455 22.7061 67.5498 22.8181 67.4659C22.8041 67.2702 22.8881 67.0884 23.0701 66.9766C23.308 66.8228 23.644 66.8927 23.798 67.1443C23.896 67.2981 23.952 67.5777 23.826 67.8713C23.602 68.3885 22.8881 68.724 21.5722 68.9477C20.1583 69.1854 18.4925 69.5209 18.1565 69.9263C18.0585 70.0661 17.9045 70.122 17.7505 70.122Z" fill="#070405"/>
<path d="M18.6044 71.6736C18.4645 71.6736 18.3105 71.6176 18.2125 71.4918C18.0165 71.2682 18.0445 70.9466 18.2685 70.7509C18.3245 70.695 19.6824 69.5487 21.4882 69.5487C22.8181 69.5487 23.378 68.8497 23.406 68.8217C23.588 68.598 23.91 68.5561 24.134 68.7239C24.3579 68.8916 24.4139 69.2271 24.232 69.4508C24.204 69.4927 23.35 70.5971 21.4742 70.5971C20.0463 70.5971 18.9544 71.5338 18.9404 71.5478C18.8564 71.6316 18.7304 71.6736 18.6044 71.6736Z" fill="#070405"/>
<path d="M19.1084 75.0149C19.0384 75.0149 18.9684 75.0009 18.9124 74.9729C18.6465 74.8611 18.5205 74.5535 18.6325 74.2879C18.6605 74.218 19.4164 72.4286 22.2301 71.3941C23.35 70.9748 23.784 70.7091 23.938 70.5833C23.924 70.4715 23.952 70.3457 24.022 70.2478C24.176 70.0102 24.498 69.9403 24.7499 70.108C24.9039 70.2059 25.0719 70.4295 25.0299 70.7371C24.9879 71.1425 24.6519 71.6178 22.5801 72.3867C20.2423 73.2534 19.6124 74.6374 19.5844 74.7073C19.5004 74.903 19.3044 75.0149 19.1084 75.0149Z" fill="#070405"/>
<path d="M78.5753 168.455C78.2813 168.455 78.0433 168.217 78.0433 167.924V161.423C78.0433 161.13 78.2813 160.892 78.5753 160.892C78.8693 160.892 79.1072 161.13 79.1072 161.423V167.924C79.1072 168.217 78.8693 168.455 78.5753 168.455Z" fill="#070405"/>
<path d="M87.7445 168.455C87.4505 168.455 87.2125 168.217 87.2125 167.924V163.828C87.2125 163.534 87.4505 163.296 87.7445 163.296C88.0385 163.296 88.2764 163.534 88.2764 163.828V167.924C88.2764 168.217 88.0385 168.455 87.7445 168.455Z" fill="#070405"/>
<path d="M86.4706 169C81.277 169 74.6976 168.567 72.8078 168.441C72.5138 168.427 72.3038 168.175 72.3178 167.882C72.3318 167.588 72.5838 167.364 72.8778 167.392C79.7792 167.868 91.1882 168.315 92.4341 167.476C94.0999 166.372 94.7019 163.73 94.7019 163.702C94.7579 163.422 95.0378 163.24 95.3318 163.296C95.6118 163.352 95.7938 163.632 95.7378 163.925C95.7098 164.051 95.0518 167.001 93.022 168.343C92.2941 168.846 89.6483 169 86.4706 169Z" fill="#070405"/>
<path d="M73.2136 69.6047C73.2136 69.6047 89.4102 78.6076 102.471 73.6449C115.532 68.6681 114.916 77.0559 111.178 79.5443C107.441 82.0327 99.1534 90.1688 82.2288 88.002L74.7955 86.632" fill="white"/>
<path d="M87.8144 88.8966C86.0506 88.8966 84.1607 88.7847 82.1729 88.5191L74.7115 87.1351C74.4316 87.0792 74.2356 86.8136 74.2916 86.52C74.3476 86.2404 74.6135 86.0447 74.9075 86.1006L82.3409 87.4706C96.9976 89.3579 105.019 83.4165 109.331 80.2292C109.932 79.7818 110.45 79.4044 110.912 79.0968C112.62 77.9645 113.488 75.5879 112.732 74.1201C111.696 72.121 107.945 72.121 102.681 74.1201C89.5362 79.1248 73.6476 70.4294 72.9757 70.052C72.7237 69.9122 72.6257 69.5907 72.7797 69.339C72.9337 69.0874 73.2417 69.0035 73.4936 69.1293C73.6476 69.2132 89.6342 77.9645 102.303 73.1415C110.366 70.066 112.886 72.135 113.656 73.6448C114.762 75.7837 113.404 78.7054 111.486 79.9775C111.038 80.2711 110.534 80.6486 109.946 81.0819C106.097 83.9198 99.3914 88.8966 87.8144 88.8966Z" fill="#070405"/>
<path d="M135.676 85.178H91.3562C90.0823 85.178 89.0464 84.1435 89.0464 82.8714V53.2065C89.0464 51.9344 90.0823 50.8999 91.3562 50.8999H135.69C136.964 50.8999 138 51.9344 138 53.2065V82.8714C138 84.1435 136.964 85.178 135.676 85.178ZM91.3562 51.9344C90.6562 51.9344 90.0963 52.4936 90.0963 53.1926V82.8574C90.0963 83.5564 90.6702 84.1155 91.3562 84.1155H135.69C136.39 84.1155 136.95 83.5564 136.95 82.8574V53.2065C136.95 52.5076 136.376 51.9484 135.69 51.9484H91.3562V51.9344Z" fill="#070405"/>
<path d="M127.333 51.3054H104.473C103.479 51.3054 102.681 50.5085 102.681 49.516V31.7059C102.681 30.7133 103.479 29.9165 104.473 29.9165H127.333C128.327 29.9165 129.125 30.7133 129.125 31.7059V49.516C129.125 50.5085 128.327 51.3054 127.333 51.3054Z" fill="#F29293"/>
<path d="M127.333 51.8365H104.473C103.199 51.8365 102.163 50.802 102.163 49.5299V31.7058C102.163 30.4337 103.199 29.3992 104.473 29.3992H127.333C128.607 29.3992 129.643 30.4337 129.643 31.7058V49.5159C129.643 50.802 128.607 51.8365 127.333 51.8365ZM104.473 30.4476C103.773 30.4476 103.213 31.0068 103.213 31.7058V49.5159C103.213 50.2149 103.787 50.7741 104.473 50.7741H127.333C128.033 50.7741 128.593 50.2149 128.593 49.5159V31.7058C128.593 31.0068 128.019 30.4476 127.333 30.4476H104.473Z" fill="#070405"/>
<path d="M133.1 29.9445H98.7054C97.7115 29.9445 96.9136 29.1477 96.9136 28.1551V19.2501C96.9136 18.2575 97.7115 17.4607 98.7054 17.4607H133.1C134.094 17.4607 134.892 18.2575 134.892 19.2501V28.1551C134.892 29.1477 134.094 29.9445 133.1 29.9445Z" fill="#FFFBFB"/>
<path d="M133.1 30.4756H98.7054C97.4315 30.4756 96.3956 29.4411 96.3956 28.169V19.2639C96.3956 17.9918 97.4315 16.9573 98.7054 16.9573H133.1C134.374 16.9573 135.41 17.9918 135.41 19.2639V28.169C135.41 29.4411 134.374 30.4756 133.1 30.4756ZM98.7054 17.9918C98.0055 17.9918 97.4455 18.551 97.4455 19.2499V28.155C97.4455 28.854 98.0195 29.4131 98.7054 29.4131H133.1C133.8 29.4131 134.36 28.854 134.36 28.155V19.2499C134.36 18.551 133.786 17.9918 133.1 17.9918H98.7054Z" fill="#070405"/>
<path d="M115.896 51.3332C115.602 51.3332 115.364 51.0955 115.364 50.802V29.9443C115.364 29.6507 115.602 29.4131 115.896 29.4131C116.19 29.4131 116.428 29.6507 116.428 29.9443V50.802C116.428 51.0955 116.19 51.3332 115.896 51.3332Z" fill="white"/>
<path d="M129.125 41.142H102.681C102.387 41.142 102.149 40.9044 102.149 40.6108C102.149 40.3172 102.387 40.0796 102.681 40.0796H129.125C129.419 40.0796 129.657 40.3172 129.657 40.6108C129.657 40.9044 129.419 41.142 129.125 41.142Z" fill="white"/>
<path d="M115.224 41.1421C115.154 41.1421 115.098 41.1281 115.028 41.1002C114.706 40.9743 111.892 39.814 111.206 38.1085C110.996 37.5773 110.996 37.0321 111.22 36.5288C111.514 35.8718 111.962 35.8298 112.214 35.7739C113.544 35.7739 115.098 39.0172 115.7 40.4012C115.784 40.5969 115.742 40.8206 115.602 40.9743C115.504 41.0862 115.364 41.1421 115.224 41.1421ZM112.242 36.8364C112.242 36.8504 112.214 36.8923 112.186 36.9622C112.074 37.2138 112.074 37.4515 112.186 37.7171C112.452 38.3741 113.306 39.0172 114.118 39.4785C113.376 38.0666 112.606 36.9482 112.242 36.8364Z" fill="white"/>
<path d="M115.896 41.31C115.77 41.31 115.658 41.2681 115.56 41.1842C115.378 41.0304 115.322 40.7788 115.42 40.5691C115.63 40.1077 117.52 35.9977 119.634 35.774C120.502 35.6902 120.81 36.0117 120.908 36.3053C121.034 36.6408 121.398 37.6473 116.19 41.2121C116.106 41.282 116.008 41.31 115.896 41.31ZM119.788 36.8225C119.774 36.8225 119.76 36.8225 119.732 36.8225C119.032 36.8924 118.164 37.8989 117.45 39.0033C118.892 37.8989 119.55 37.186 119.788 36.8225Z" fill="white"/>
<path d="M97.9636 28.3926C97.8376 28.3926 97.6976 28.3506 97.5996 28.2528C97.3896 28.0571 97.3756 27.7216 97.5856 27.5119L106.013 18.6068C106.209 18.3971 106.545 18.3831 106.755 18.5928C106.965 18.7886 106.979 19.1241 106.769 19.3338L98.3415 28.2388C98.2435 28.3367 98.1036 28.3926 97.9636 28.3926Z" fill="#F18B8E"/>
<path d="M102.401 29.3991C102.275 29.3991 102.149 29.3572 102.051 29.2593C101.841 29.0636 101.827 28.7281 102.023 28.5184L111.388 18.2853C111.584 18.0756 111.92 18.0616 112.13 18.2574C112.34 18.4531 112.354 18.7886 112.158 18.9983L102.793 29.2314C102.695 29.3292 102.541 29.3991 102.401 29.3991Z" fill="#F18B8E"/>
<path d="M115.756 29.5389C115.616 29.5389 115.49 29.483 115.392 29.3851C115.182 29.1754 115.182 28.8539 115.392 28.6442L126.087 17.8379C126.297 17.6282 126.619 17.6282 126.829 17.8379C127.039 18.0476 127.039 18.3692 126.829 18.5789L116.134 29.3851C116.036 29.483 115.896 29.5389 115.756 29.5389Z" fill="#F18B8E"/>
<path d="M121.678 29.5389C121.552 29.5389 121.412 29.483 121.314 29.3851C121.104 29.1894 121.104 28.8539 121.3 28.6442L131.323 18.2853C131.519 18.0756 131.855 18.0756 132.065 18.2713C132.275 18.467 132.275 18.8025 132.079 19.0122L122.056 29.3712C121.958 29.483 121.818 29.5389 121.678 29.5389Z" fill="#F18B8E"/>
<path d="M117.618 17.4746H113.516V29.9305H117.618V17.4746Z" fill="#FFFBFB"/>
<path d="M117.618 30.4477H113.53C113.236 30.4477 112.998 30.2101 112.998 29.9165V17.4746C112.998 17.181 113.236 16.9434 113.53 16.9434H117.618C117.912 16.9434 118.15 17.181 118.15 17.4746V29.9305C118.136 30.2101 117.898 30.4477 117.618 30.4477ZM114.048 29.3992H117.086V17.9918H114.048V29.3992Z" fill="#070405"/>
<path d="M122.587 5.91357H108.281V17.4747H122.587V5.91357Z" fill="#E2AACE"/>
<path d="M123.119 17.9919H107.763V5.39624H123.119V17.9919ZM108.813 16.9434H122.069V6.44471H108.813V16.9434Z" fill="#020203"/>
<path d="M115.532 5.64787C115.532 5.64787 112.27 0.517334 114.048 0.517334C115.826 0.517334 115.532 5.64787 115.532 5.64787Z" fill="#E2AACE"/>
<path d="M115.532 6.17901C115.35 6.17901 115.182 6.09513 115.084 5.94135C114.286 4.69716 112.508 1.66358 113.138 0.517247C113.236 0.321532 113.502 0 114.048 0C114.44 0 114.804 0.167756 115.098 0.475308C116.26 1.70552 116.078 5.28431 116.05 5.68972C116.036 5.91339 115.882 6.10911 115.658 6.16503C115.616 6.16503 115.574 6.17901 115.532 6.17901ZM114.048 1.04847C113.922 1.30011 114.328 2.39052 114.986 3.66267C114.916 2.61419 114.72 1.59368 114.328 1.18827C114.216 1.06245 114.132 1.04847 114.048 1.04847Z" fill="#020203"/>
<path d="M119.144 1.10455C119.564 2.53048 115.56 5.91355 115.56 5.91355C115.56 5.91355 116.638 1.25833 117.464 0.783019C118.29 0.32169 118.962 0.489446 119.144 1.10455Z" fill="#E2AACE"/>
<path d="M115.56 6.44468C115.462 6.44468 115.378 6.41673 115.28 6.37479C115.084 6.26295 114.986 6.02529 115.042 5.8156C115.378 4.34774 116.274 0.880784 117.198 0.349557C117.8 6.554e-05 118.402 -0.0838124 118.878 0.111903C119.242 0.265679 119.522 0.559252 119.634 0.964661C120.124 2.60028 116.89 5.48009 115.896 6.33285C115.812 6.40275 115.686 6.44468 115.56 6.44468ZM118.346 1.04854C118.192 1.04854 117.982 1.10446 117.73 1.24425C117.45 1.45395 116.96 2.80998 116.526 4.33376C117.8 3.06161 118.794 1.74752 118.654 1.25823C118.612 1.13242 118.556 1.10446 118.514 1.0765C118.458 1.06252 118.402 1.04854 118.346 1.04854Z" fill="#020203"/>
<path d="M135.508 83.9758H91.762C90.866 83.9758 90.1521 83.2489 90.1521 82.3682V53.3464C90.1521 52.4517 90.88 51.7388 91.762 51.7388H135.508C136.404 51.7388 137.118 52.4657 137.118 53.3464V82.3542C137.118 83.2489 136.404 83.9758 135.508 83.9758Z" fill="#FBDE5C"/>
<path d="M118.36 51.7808H109.75V84.0458H118.36V51.7808Z" fill="#3D6AB2"/>
</g>
<defs>
<clipPath id="clip0">
<rect width="138" height="169" fill="white"/>
</clipPath>
</defs>
</svg>
