<svg width="443" height="380" viewBox="0 0 443 380" fill="none" xmlns="http://www.w3.org/2000/svg">
<path d="M155.787 218.356C133.96 183.723 52.7215 196.188 24.1729 214.18C-8.05781 234.493 70.5362 359.199 102.767 338.887C131.314 320.895 177.614 252.99 155.787 218.356Z" fill="#7EE4D6"/>
<path d="M378.983 181.089C379.529 199.559 413.974 213.339 429.199 212.889C446.388 212.381 444.422 145.873 427.233 146.381C412.008 146.831 378.437 162.618 378.983 181.089Z" fill="#FF8F8F"/>
<path d="M216.23 158.523C253.965 142.652 254.949 60.4685 241.865 29.3626C227.095 -5.75512 91.2177 51.3954 105.988 86.5131C119.071 117.618 178.494 174.395 216.23 158.523Z" fill="#FADE5D"/>
<path d="M333.29 104.757C358.213 116.336 399.482 79.7178 409.026 59.1738C419.802 35.9802 330.061 -5.71297 319.286 17.4807C309.742 38.0237 308.368 93.1784 333.29 104.757Z" fill="#EFA9DE"/>
<g clip-path="url(#clip0)">
<path d="M311.587 140.422C311.587 140.422 325.403 129.673 334.025 103.604C342.559 77.7841 328.804 43.8309 342.559 43.2455C356.313 42.6601 386.151 129.399 329.24 173.628" fill="white"/>
<path d="M329.24 174.873C328.867 174.873 328.505 174.711 328.256 174.388C327.833 173.84 327.932 173.067 328.48 172.644C369.731 140.584 363.826 86.3534 354.955 62.1527C350.644 50.3949 345.449 44.3789 342.621 44.491C341.275 44.5533 340.241 44.9893 339.481 45.8238C336.703 48.9002 337.189 57.1581 337.75 66.7362C338.41 77.9336 339.22 91.8711 335.221 103.99C326.587 130.121 312.945 140.945 312.371 141.393C311.823 141.817 311.051 141.717 310.627 141.182C310.204 140.634 310.303 139.861 310.839 139.438C310.976 139.338 324.481 128.564 332.853 103.218C336.703 91.5597 335.906 77.8838 335.27 66.8857C334.647 56.336 334.162 48.0034 337.638 44.1672C338.858 42.822 340.491 42.0996 342.521 42.0124C348.165 41.7509 353.821 51.8272 357.31 61.3057C360.225 69.2647 366.616 90.5757 362.891 116.533C359.453 140.484 348.09 160.575 330.025 174.612C329.776 174.786 329.502 174.873 329.24 174.873Z" fill="#0C0805"/>
<path d="M215.282 204.554C252.483 203.67 263.01 191.813 272.068 167.873C281.125 143.934 267.271 110.417 267.271 110.417C263.596 95.3088 253.367 82.0439 253.367 82.0439C245.207 84.3481 237.258 100.366 237.258 100.366C221.374 98.7091 205.016 103.878 205.016 103.878C205.439 97.6255 195.659 73.5369 195.659 73.5369C154.459 107.864 144.193 191.14 144.193 191.14C136.02 277.418 182.515 341.152 182.515 341.152L191.672 352.063C191.672 352.063 192.856 359.374 196.606 361.915C200.356 364.456 206.087 364.082 208.853 362.749C208.853 362.749 205.676 375.865 216.191 378.107C226.706 380.349 231.914 376.513 232.661 371.231C233.409 365.95 249.667 328.634 250.502 327.526C251.337 326.417 279.63 291.405 278.708 254.787C278.708 254.787 287.292 249.618 300.062 243.29C346.707 220.198 340.715 177.888 336.965 154.783C333.215 131.678 305.706 116.084 281.088 125.077" fill="white"/>
<path d="M221.86 380C220.041 380 218.06 379.776 215.942 379.327C212.902 378.68 210.597 377.148 209.102 374.769C206.972 371.393 207.021 367.121 207.296 364.605C204.094 365.377 199.409 365.315 195.921 362.949C192.233 360.445 190.825 354.168 190.526 352.611L181.581 341.961C181.058 341.252 134.836 276.795 142.972 191.04C143.071 190.169 153.773 106.842 194.874 72.6027C195.186 72.3412 195.584 72.254 195.971 72.3536C196.357 72.4533 196.668 72.7273 196.818 73.0885C197.192 74.0102 205.327 94.1255 206.199 102.259C210.597 101.038 223.517 97.8995 236.536 99.0703C238.28 95.7572 245.406 83.0154 253.031 80.8731C253.517 80.7361 254.04 80.9104 254.352 81.309C254.775 81.857 264.755 94.9102 268.467 110.056C269.427 112.385 282.222 144.594 273.239 168.334C263.895 193.021 252.844 204.928 215.306 205.825C215.294 205.825 215.282 205.825 215.282 205.825C214.609 205.825 214.048 205.289 214.036 204.604C214.023 203.919 214.559 203.346 215.257 203.334C251.586 202.462 261.79 191.563 270.909 167.45C279.693 144.246 266.275 111.239 266.138 110.915C266.113 110.853 266.088 110.791 266.075 110.728C262.973 97.9991 255.024 86.4655 252.907 83.5385C245.643 86.4531 238.442 100.789 238.367 100.939C238.131 101.399 237.645 101.673 237.121 101.624C221.66 100.017 205.551 105.036 205.389 105.086C204.991 105.211 204.567 105.136 204.243 104.874C203.919 104.625 203.745 104.227 203.77 103.816C204.081 99.2696 198.151 83.2147 195.148 75.6294C155.879 109.894 145.538 190.467 145.439 191.289C137.403 276.085 183.076 339.782 183.537 340.405L192.644 351.241C192.794 351.415 192.881 351.614 192.918 351.839C193.23 353.732 194.625 359.038 197.316 360.869C200.68 363.148 205.95 362.762 208.317 361.616C208.753 361.404 209.264 361.467 209.638 361.765C210.012 362.064 210.186 362.563 210.061 363.023C210.049 363.086 208.604 369.301 211.208 373.424C212.329 375.205 214.098 376.363 216.453 376.874C221.723 377.995 225.921 377.609 228.587 375.74C230.17 374.632 231.154 373.013 231.428 371.045C232.163 365.764 248.446 328.173 249.505 326.766L249.667 326.567C254.451 320.439 278.31 288.204 277.462 254.812C277.45 254.363 277.687 253.94 278.06 253.716C278.148 253.666 286.844 248.447 299.502 242.169C346.147 219.077 339.108 175.783 335.731 154.982C334.062 144.719 327.397 135.49 317.455 129.661C306.404 123.184 293.297 121.938 281.524 126.235C280.876 126.472 280.166 126.136 279.929 125.488C279.693 124.84 280.029 124.13 280.677 123.894C293.16 119.335 307.027 120.655 318.725 127.506C329.315 133.709 336.417 143.573 338.211 154.571C341.687 175.969 348.925 220.485 300.635 244.387C289.983 249.655 282.172 254.176 279.992 255.459C280.502 289.437 256.495 321.883 251.648 328.074L251.511 328.248C250.49 329.905 234.605 366.399 233.907 371.368C233.533 374.034 232.188 376.251 230.02 377.758C227.927 379.253 225.161 380 221.86 380Z" fill="#0C0805"/>
<path d="M251.399 104.003C251.399 104.003 244.846 100.677 237.246 100.366L251.399 104.003Z" fill="white"/>
<path d="M251.399 105.248C251.212 105.248 251.013 105.211 250.838 105.111C250.776 105.074 244.422 101.91 237.209 101.611C236.523 101.586 235.988 101.001 236.013 100.316C236.038 99.6308 236.586 99.0952 237.308 99.1201C245.095 99.4315 251.698 102.745 251.972 102.882C252.583 103.193 252.832 103.94 252.52 104.551C252.296 104.999 251.86 105.248 251.399 105.248Z" fill="#0C0805"/>
<path d="M239.7 160.774C239.7 160.774 238.841 159.765 241.033 159.092C243.226 158.42 246.416 158.445 246.615 159.566C246.814 160.687 245.17 161.982 243.5 162.418C241.843 162.854 240.473 162.082 239.7 160.774Z" fill="#0C0805"/>
<path d="M266.15 168.297C265.764 168.297 265.39 168.123 265.141 167.786C261.017 162.194 255.174 163.39 254.937 163.452C254.265 163.601 253.604 163.178 253.455 162.505C253.305 161.833 253.716 161.172 254.389 161.023C254.701 160.948 262.026 159.379 267.147 166.317C267.558 166.865 267.433 167.649 266.885 168.06C266.661 168.21 266.399 168.297 266.15 168.297Z" fill="#0C0805"/>
<path d="M235.851 177.726C234.667 177.726 233.608 177.489 232.886 176.854C232.362 176.405 232.312 175.608 232.773 175.098C233.222 174.574 234.019 174.525 234.53 174.985C235.39 175.733 239.277 174.861 242.491 173.578C243.662 169.107 241.731 163.776 241.706 163.726C241.47 163.078 241.793 162.368 242.441 162.132C243.089 161.895 243.799 162.219 244.048 162.866C244.148 163.14 246.465 169.518 244.709 174.898C244.597 175.235 244.347 175.521 244.011 175.658C242.591 176.243 238.803 177.726 235.851 177.726Z" fill="#0C0805"/>
<path d="M246.216 176.044C245.269 176.044 244.273 175.944 243.239 175.708C242.566 175.558 242.142 174.886 242.292 174.226C242.441 173.553 243.114 173.13 243.774 173.279C253.667 175.484 259.273 163.39 259.323 163.265C259.609 162.642 260.344 162.356 260.967 162.642C261.59 162.929 261.877 163.664 261.59 164.286C261.54 164.411 256.196 176.044 246.216 176.044Z" fill="#0C0805"/>
<path d="M206.635 279.76C213.189 299.439 208.865 362.749 208.865 362.749L206.635 279.76Z" fill="white"/>
<path d="M208.865 363.995C208.84 363.995 208.803 363.995 208.778 363.995C208.093 363.945 207.57 363.347 207.62 362.662C207.669 362.027 211.855 299.377 205.452 280.158C205.24 279.511 205.589 278.801 206.237 278.589C206.884 278.377 207.595 278.726 207.806 279.373C214.36 299.065 210.273 360.246 210.099 362.837C210.061 363.484 209.513 363.995 208.865 363.995Z" fill="#0C0805"/>
<path d="M205.726 276.272C205.726 276.272 189.841 274.69 186.402 266.42L205.726 276.272Z" fill="white"/>
<path d="M205.726 277.518C205.688 277.518 205.639 277.518 205.601 277.518C204.928 277.455 188.932 275.761 185.256 266.906C184.995 266.27 185.294 265.536 185.929 265.274C186.564 265.012 187.3 265.311 187.561 265.947C190.676 273.445 205.701 275.014 205.85 275.039C206.536 275.101 207.034 275.712 206.972 276.397C206.897 277.032 206.361 277.518 205.726 277.518Z" fill="#0C0805"/>
<path d="M184.496 108.686C184.484 108.686 184.471 108.686 184.459 108.686C183.774 108.661 183.238 108.088 183.25 107.403C183.275 106.705 183.923 90.1523 194.588 72.8892C194.949 72.3038 195.722 72.1294 196.307 72.4906C196.893 72.8518 197.08 73.6241 196.718 74.2095C186.415 90.8747 185.755 107.328 185.742 107.49C185.717 108.15 185.169 108.686 184.496 108.686Z" fill="#0C0805"/>
<path d="M311.537 233.189C312.297 235.02 313.144 236.49 314.016 237.673C320.295 246.192 323.896 256.331 325.042 266.843C325.241 268.625 325.515 270.194 325.914 271.415C328.431 279.236 331.57 277.854 337.189 273.669C341.138 270.729 345.324 241.696 347.48 224.645C348.377 217.52 346.782 210.309 342.97 204.218C340.777 200.718 338.597 196.496 337.687 192.398" fill="white"/>
<path d="M330.586 278.302C330.137 278.302 329.701 278.24 329.265 278.103C327.322 277.48 325.914 275.537 324.718 271.801C324.319 270.568 324.008 268.948 323.796 266.993C322.625 256.294 318.887 246.417 312.994 238.433C312.023 237.113 311.138 235.506 310.378 233.687C310.116 233.052 310.415 232.317 311.051 232.056C311.686 231.794 312.421 232.093 312.683 232.728C313.368 234.372 314.153 235.792 315.013 236.963C321.155 245.308 325.054 255.609 326.275 266.731C326.475 268.525 326.749 269.982 327.098 271.053C327.995 273.831 328.979 275.413 330.025 275.749C331.383 276.185 333.476 274.902 336.442 272.697C338.422 271.215 342.048 257.788 346.234 224.52C347.094 217.695 345.561 210.732 341.898 204.916C339.095 200.457 337.264 196.346 336.454 192.697C336.304 192.024 336.728 191.364 337.401 191.215C338.074 191.065 338.734 191.489 338.883 192.161C339.631 195.524 341.35 199.373 344.004 203.595C347.966 209.898 349.635 217.446 348.701 224.844C344.839 255.484 341.213 272.249 337.924 274.703C335.27 276.646 332.841 278.302 330.586 278.302Z" fill="#0C0805"/>
<path d="M219.916 142.938C219.916 142.938 219.281 158.943 234.381 157.959C247.263 157.125 240.747 142.527 240.747 142.527C240.747 142.527 243.687 159.005 253.006 154.148C261.416 149.763 256.233 139.313 256.233 139.313C245.531 137.557 240.747 142.527 240.747 142.527C231.241 137.009 214.684 145.018 214.684 145.018" fill="white"/>
<path d="M233.06 159.254C229.036 159.254 225.747 158.046 223.292 155.655C219.779 152.242 218.919 147.322 218.72 144.694C216.615 145.479 215.269 146.114 215.219 146.139C214.596 146.438 213.849 146.176 213.55 145.554C213.251 144.931 213.512 144.183 214.123 143.885C214.808 143.561 230.543 136.075 240.56 141.02C242.354 139.637 247.45 136.598 256.407 138.08C256.806 138.143 257.143 138.392 257.317 138.753C259.298 142.739 261.067 151.32 253.554 155.244C251.137 156.502 248.87 156.626 246.789 155.605C245.419 154.932 244.285 153.811 243.351 152.504C243.151 153.425 242.828 154.322 242.329 155.132C240.847 157.585 238.193 158.955 234.43 159.192C233.982 159.229 233.521 159.254 233.06 159.254ZM221.174 143.835C221.262 145.803 221.81 150.722 225.049 153.861C227.254 156.004 230.356 156.963 234.293 156.701C237.196 156.514 239.19 155.555 240.224 153.836C241.258 152.117 241.283 149.863 240.984 147.845C240.249 145.927 239.825 144.196 239.638 143.312C234.244 140.559 226.494 142.141 221.174 143.835ZM243.388 147.185C244.385 149.739 245.892 152.379 247.923 153.363C249.269 154.023 250.739 153.911 252.433 153.027C258.712 149.751 256.258 142.539 255.373 140.434C247.861 139.363 243.7 141.78 242.242 142.876C242.578 143.81 243.089 145.379 243.388 147.185Z" fill="#0C0805"/>
<path d="M227.217 155.493C230.224 155.493 232.661 153.056 232.661 150.05C232.661 147.044 230.224 144.607 227.217 144.607C224.21 144.607 221.772 147.044 221.772 150.05C221.772 153.056 224.21 155.493 227.217 155.493Z" fill="#0C0805"/>
<path d="M247.487 154.247C250.054 154.247 252.134 152.167 252.134 149.602C252.134 147.036 250.054 144.956 247.487 144.956C244.921 144.956 242.84 147.036 242.84 149.602C242.84 152.167 244.921 154.247 247.487 154.247Z" fill="#0C0805"/>
<path d="M256.233 140.559C255.61 140.559 255.074 140.098 255 139.463C254.912 138.778 255.398 138.155 256.083 138.068L262.039 137.321C262.736 137.233 263.347 137.719 263.434 138.404C263.521 139.089 263.035 139.712 262.35 139.799L256.395 140.546C256.333 140.559 256.283 140.559 256.233 140.559Z" fill="#0C0805"/>
<path d="M180.447 225.293C180.211 225.293 179.974 225.218 179.774 225.093C155.567 209.4 144.404 183.156 144.292 182.895C144.031 182.259 144.33 181.537 144.965 181.263C145.601 181.001 146.336 181.3 146.597 181.936C146.697 182.197 157.474 207.469 180.746 222.752C185.343 222.116 223.367 216.574 236.935 205.949C237.483 205.526 238.255 205.626 238.679 206.161C239.102 206.697 239.003 207.481 238.467 207.905C223.554 219.588 182.353 225.056 180.609 225.28C180.559 225.28 180.497 225.293 180.447 225.293Z" fill="black"/>
<path d="M182.129 242.717C181.182 242.717 180.186 242.668 179.164 242.556C176.797 242.294 174.604 241.771 172.997 241.061C170.169 239.828 169.708 238.308 169.82 237.237C170.057 235.045 171.589 232.13 173.807 229.627C174.978 228.307 178.018 225.28 181.008 225.604C185.643 226.115 189.928 234.97 189.442 239.379C189.33 240.438 188.545 241.833 185.518 242.431C184.534 242.618 183.375 242.717 182.129 242.717ZM180.497 228.058C179.314 228.058 177.42 229.291 175.663 231.271C173.832 233.339 172.474 235.842 172.287 237.499C172.274 237.661 172.661 238.196 173.981 238.769C175.352 239.367 177.333 239.84 179.426 240.064C181.519 240.289 183.562 240.264 185.032 239.977C186.452 239.703 186.938 239.267 186.963 239.105C187.337 235.668 183.624 228.394 180.759 228.07H180.746C180.721 228.07 180.696 228.07 180.672 228.058C180.609 228.07 180.559 228.058 180.497 228.058Z" fill="#F5BB2E"/>
</g>
<defs>
<clipPath id="clip0">
<rect width="222" height="338" fill="white" transform="translate(142 42)"/>
</clipPath>
</defs>
</svg>
