<svg width="96" height="90" viewBox="0 0 96 90" fill="none" xmlns="http://www.w3.org/2000/svg">
<g clip-path="url(#clip0)">
<path d="M10.7539 52.0078L18.3737 74.9549L52.7247 78.6106L43.2358 50.0348L10.7539 52.0078Z" fill="#5BBDEF"/>
<path d="M43.2353 50.0348L82.5301 28.8139L90.3912 52.4877L52.7243 78.6107L43.2353 50.0348Z" fill="#4EA4C6"/>
<path d="M10.7541 52.0078L8.94752 51.6461L6.83887 45.2959C6.83887 45.2959 40.5044 41.8087 40.7916 42.6738C41.0792 43.5399 43.2356 50.0337 43.2356 50.0337L10.7541 52.0078Z" fill="#5BBDEF"/>
<path d="M82.5306 28.814L83.7434 28.1714L80.88 19.5485L40.7915 42.6739L43.3387 50.3446L82.5306 28.814Z" fill="#4EA4C6"/>
<path d="M6.83876 45.2959L49.3124 23.4375L80.8801 19.5483L40.7915 42.6738L6.83876 45.2959Z" fill="#62D5EF"/>
<path d="M82.5302 28.8138L43.5774 51.0683L44.4431 53.6752C44.4431 53.6752 68.9173 38.3123 76.0635 36.1804C83.2096 34.0484 84.2593 34.0212 84.2593 34.0212L82.5302 28.8138Z" fill="#428EA5"/>
<path d="M10.7539 52.0078L43.5792 51.0691L44.4445 53.6749L10.9454 52.5845L10.7539 52.0078Z" fill="#4EA4C6"/>
<path d="M15.309 59.0863L14.6406 58.3821L13.728 58.7052L14.1373 57.6538L13.6807 56.7292L14.6031 56.7832L15.233 55.8888L15.3929 56.9734L16.2393 57.3445L15.4171 57.9612L15.309 59.0863Z" fill="white"/>
<path d="M22.0766 71.9749L21.1648 71.928L20.6113 72.6552L20.3721 71.7718L19.5102 71.4673L20.2747 70.9677L20.2947 70.0526L21.0063 70.6279L21.8804 70.366L21.5567 71.2213L22.0766 71.9749Z" fill="white"/>
<path d="M24.7292 62.8278L23.2249 62.5252L22.1259 63.5954L21.9448 62.0678L20.5873 61.349L21.9805 60.7069L22.2407 59.1922L23.2827 60.3229L24.8005 60.1059L24.0514 61.4463L24.7292 62.8278Z" fill="white"/>
<path d="M33.43 70.4042L32.5532 70.2712L31.9478 70.92L31.8016 70.0435L30.9977 69.6654L31.7841 69.2566L31.8925 68.3736L32.5263 68.9984L33.396 68.8301L33.0006 69.6253L33.43 70.4042Z" fill="white"/>
<path d="M34.2699 56.3883L32.9472 56.6433L32.4078 57.8809L31.7543 56.6968L30.4133 56.5632L31.3331 55.5773L31.0431 54.2572L32.2642 54.8311L33.4261 54.1487L33.2614 55.4899L34.2699 56.3883Z" fill="white"/>
<path d="M38.7846 63.9123L38.1546 63.6998L37.6242 64.0992L37.6304 63.4332L37.0874 63.05L37.721 62.8514L37.9149 62.2153L38.3002 62.7583L38.9648 62.7491L38.5684 63.2824L38.7846 63.9123Z" fill="white"/>
<path d="M43.2222 57.4595L42.3239 57.3999L41.7676 58.1079L41.5443 57.2334L40.7005 56.9194L41.4607 56.439L41.4959 55.5377L42.188 56.1148L43.0539 55.8709L42.7221 56.7088L43.2222 57.4595Z" fill="white"/>
<path d="M46.3592 73.9612L44.815 73.5915L43.6388 74.6566L43.5105 73.0713L42.135 72.277L43.5988 71.6669L43.9244 70.1116L44.9579 71.3195L46.5348 71.1526L45.7097 72.5088L46.3592 73.9612Z" fill="white"/>
<path d="M55.6952 68.0658L54.2134 68.3204L53.5851 69.6879L52.8829 68.3534L51.3902 68.1745L52.4381 67.0953L52.1439 65.617L53.4925 66.2844L54.8044 65.5499L54.5905 67.0409L55.6952 68.0658Z" fill="#AEE4FF"/>
<path d="M56.643 56.9903L55.2408 56.9527L54.4178 58.0884L54.0176 56.741L52.6844 56.3048L53.8393 55.509L53.8378 54.1037L54.9513 54.9602L56.2847 54.5281L55.8177 55.8527L56.643 56.9903Z" fill="#AEE4FF"/>
<path d="M81.2774 39.5883L80.6188 39.2931L80.0028 39.6689L80.0786 38.9503L79.531 38.4788L80.2368 38.3307L80.5134 37.6636L80.8735 38.2906L81.5926 38.3495L81.1099 38.8855L81.2774 39.5883Z" fill="#AEE4FF"/>
<path d="M70.6901 41.0922L70.1603 40.7129L69.5489 40.936L69.7428 40.314L69.3427 39.8007L69.9932 39.7949L70.3554 39.2541L70.5631 39.8727L71.1882 40.0526L70.6669 40.4407L70.6901 41.0922Z" fill="#AEE4FF"/>
<path d="M67.1219 56.6719L66.0268 55.6651L64.5807 55.9988L65.1948 54.6455L64.4292 53.3686L65.9035 53.5383L66.8771 52.4164L67.1752 53.8744L68.5415 54.4568L67.2502 55.1892L67.1219 56.6719Z" fill="#AEE4FF"/>
<path d="M68.6537 49.1835L67.6829 48.9625L66.9519 49.6376L66.8609 48.6435L65.992 48.1547L66.9064 47.7625L67.101 46.7847L67.7578 47.5353L68.7453 47.42L68.2371 48.2764L68.6537 49.1835Z" fill="#AEE4FF"/>
<path d="M81.8964 53.5969L81.113 53.2274L80.3655 53.6646L80.4728 52.8032L79.8263 52.2252L80.6759 52.0636L81.0233 51.269L81.4417 52.029L82.3033 52.1162L81.7113 52.7487L81.8964 53.5969Z" fill="#AEE4FF"/>
<path d="M84.461 44.5383L84.0332 44.424L83.6966 44.7119L83.673 44.2684L83.2944 44.0362L83.7081 43.8775L83.8107 43.4453L84.0903 43.7908L84.5322 43.7563L84.2917 44.1279L84.461 44.5383Z" fill="#AEE4FF"/>
<path d="M48.6042 54.3836L48.1464 54.3986L47.8988 54.7844L47.7426 54.3531L47.2997 54.2356L47.6607 53.9539L47.6343 53.4948L48.0136 53.754L48.4411 53.5872L48.313 54.0279L48.6042 54.3836Z" fill="#AEE4FF"/>
<path d="M60.4877 47.1473L60.0918 46.9587L59.7124 47.178L59.769 46.7422L59.4428 46.4476L59.8731 46.3674L60.051 45.9669L60.2613 46.3519L60.6972 46.3985L60.3966 46.7169L60.4877 47.1473Z" fill="#AEE4FF"/>
<path d="M65.9727 67.1068L64.3186 66.1085L62.5638 66.9062L62.9969 65.0223L61.6937 63.5944L63.616 63.4286L64.5664 61.7474L65.3205 63.5289L67.2105 63.9184L65.755 65.185L65.9727 67.1068Z" fill="#AEE4FF"/>
<path d="M19.9149 44.2866L30.1474 76.208L37.3003 76.9693L26.1765 43.8034L19.9149 44.2866Z" fill="#F4BE38"/>
<path d="M58.9199 32.2168L70.7061 66.1398L76.1 62.3982L64.1036 29.2255L58.9199 32.2168Z" fill="#F4BE38"/>
<path d="M77.3239 46.2536L75.4774 45.7646L74.0318 47.0113L73.9226 45.1007L72.2908 44.1056L74.069 43.4135L74.5061 41.5519L75.7145 43.0348L77.6171 42.8804L76.5857 44.4881L77.3239 46.2536Z" fill="#AEE4FF"/>
<path d="M26.1764 43.8031L65.7584 21.4117L60.3309 22.0799L19.9148 44.2863L26.1764 43.8031Z" fill="#FFDE39"/>
<path d="M58.9199 32.2169L27.1207 34.8587L31.5653 32.5712L64.1037 29.2256L58.9199 32.2169Z" fill="#FFDE39"/>
<path opacity="0.33" d="M41.5393 28.2761C41.2932 28.2125 41.0715 28.4385 40.9357 28.6538C40.7451 28.9557 40.593 29.3169 40.6746 29.6655C40.7562 30.0141 41.162 30.2963 41.4799 30.1329C41.668 30.0362 41.7649 29.8279 41.883 29.6517C42.1465 29.2606 42.5775 28.9875 43.0435 28.919C43.2196 28.8924 43.4169 28.8872 43.5438 28.7623C43.7214 28.5876 43.6458 28.2607 43.4482 28.1089C43.2502 27.9561 42.9819 27.9389 42.7344 27.9596C42.3193 27.9935 41.9123 28.1192 41.5492 28.3236L41.5393 28.2761Z" fill="white"/>
<path d="M46.8553 9.2136C45.5276 9.94984 44.4833 11.1354 43.7384 12.4601C42.9939 13.7859 42.5304 15.2523 42.1751 16.7324C41.0311 21.5011 40.977 26.5304 42.0186 31.327C42.1351 31.8624 42.2814 32.427 42.6762 32.8074C43.4139 33.5182 44.6355 33.2638 45.5443 32.7942C47.2846 31.8962 48.6688 30.404 49.6867 28.7276C50.7049 27.0521 51.3799 25.1906 51.9587 23.3162C52.6104 21.2037 53.1515 19.0381 53.2477 16.8277C53.2936 15.7705 53.2337 14.6894 52.8705 13.6948C52.6115 12.9858 52.205 12.3398 51.7735 11.7212C50.553 9.97516 49.2089 7.90637 46.8553 9.2136Z" fill="#F4BE38"/>
<path d="M50.1833 15.9646C50.4376 13.4996 49.9803 10.8812 48.5956 8.82472C51.4664 8.82714 54.2369 10.5026 56.2033 12.4947C58.1693 14.4858 59.5848 16.9538 60.8146 19.4693C61.0977 20.0487 61.3786 20.6961 61.2077 21.3164C61.1384 21.5651 61.0018 21.7888 60.8632 22.0061C57.7254 26.917 52.9371 30.7445 47.4626 32.7183C46.5885 33.0334 45.695 33.3041 44.78 33.4674C44.2299 33.5662 43.6323 33.6181 43.1385 33.3544C41.7495 32.6118 43.1997 31.425 43.7609 30.7318C44.5857 29.7114 45.352 28.6429 46.0498 27.5311C47.4497 25.2989 48.5749 22.8851 49.3165 20.3517C49.7347 18.9193 50.0302 17.4507 50.1833 15.9646Z" fill="#FFDE39"/>
<path d="M23.6106 19.6708C25.0401 19.1595 26.6184 19.1564 28.1053 19.4707C29.5923 19.785 30.9986 20.4061 32.3438 21.1159C36.6779 23.404 40.4874 26.6837 43.3991 30.6324C43.7247 31.0737 44.0509 31.556 44.0752 32.1044C44.122 33.1285 43.1237 33.8781 42.1726 34.2519C40.3502 34.9669 38.3159 35.0222 36.3866 34.6811C34.4573 34.34 32.614 33.6195 30.8249 32.8173C28.8087 31.9132 26.8269 30.889 25.104 29.5024C24.2796 28.8393 23.5083 28.0807 23.0015 27.1503C22.64 26.4871 22.4241 25.7554 22.2454 25.0221C21.741 22.9533 21.0761 20.5786 23.6106 19.6708Z" fill="#F4BE38"/>
<path d="M26.4803 26.6303C24.4629 25.1939 22.7998 23.1223 22.1696 20.7243C20.2766 22.8828 19.7049 26.0733 19.9019 28.8655C20.099 31.6578 21.0159 34.3517 22.0919 36.936C22.34 37.5305 22.6407 38.1702 23.2191 38.4507C23.451 38.5639 23.7094 38.608 23.9647 38.6461C29.7214 39.5296 35.755 38.4558 40.8511 35.6437C41.6654 35.1949 42.4568 34.7017 43.1838 34.1213C43.6216 33.7727 44.0551 33.3582 44.1825 32.8126C44.5421 31.278 42.695 31.5853 41.8034 31.5495C40.4928 31.4968 39.1846 31.3664 37.8903 31.1571C35.29 30.7353 32.7361 29.9885 30.3459 28.8731C28.9934 28.2436 27.6956 27.4955 26.4803 26.6303Z" fill="#FFDE39"/>
<path d="M49.7842 24.7458C50.1022 24.2634 50.4194 23.7824 50.7374 23.3C50.9363 23.6545 50.7842 24.0972 50.6201 24.4683C49.7354 26.4644 48.5492 28.3255 47.1141 29.9693C47.537 30.1325 47.985 29.8396 48.3428 29.5624C49.8273 28.4115 51.311 27.262 52.7955 26.111C52.0331 26.9962 51.2703 27.8804 50.5078 28.7656C50.9063 28.7136 51.2563 28.4875 51.5916 28.2663C52.5258 27.6501 53.4611 27.0336 54.3949 26.4163C53.5517 27.8847 52.2829 29.0716 50.8865 30.0267C49.4902 30.9819 47.9609 31.7212 46.4376 32.4574C45.9758 32.6805 45.4737 32.9098 44.9682 32.8166C44.7412 32.775 44.516 32.6572 44.4022 32.4564C44.211 32.1217 44.3808 31.7039 44.5523 31.3586C44.801 30.8555 44.9846 30.27 45.3789 29.8685C45.909 29.3298 46.5699 28.9226 47.0947 28.3608C48.1199 27.2631 48.9711 26.0035 49.7842 24.7458Z" fill="#F4BE38"/>
<path d="M36.0188 32.8894C34.5961 33.0736 33.1546 33.0242 31.7213 32.9744C31.0075 32.9492 30.2941 32.925 29.5802 32.8998C29.7272 33.4417 30.4032 33.6047 30.9596 33.6526C32.6291 33.7964 34.3134 33.7688 35.9773 33.573C35.0657 34.0163 34.1029 34.3549 33.1144 34.5804C33.5633 34.9216 34.1962 34.7776 34.7411 34.638C36.2335 34.2558 37.7651 34.0237 39.3042 33.9485C39.2524 34.7395 38.426 35.2124 37.6955 35.5164C36.0846 36.1872 34.4256 36.7416 32.7351 37.173C32.8302 37.6046 33.4517 37.5718 33.87 37.4341C36.6311 36.5208 39.4067 35.6015 41.9735 34.2341C42.5109 33.9481 43.1145 33.5067 43.0574 32.8984C43.0069 32.3528 42.4403 32.0152 41.9181 31.8543C40.9724 31.5635 40.132 31.4728 39.2594 31.9126C38.2361 32.4272 37.1534 32.7418 36.0188 32.8894Z" fill="#F4BE38"/>
<path d="M39.4914 31.6048C39.565 33.0039 40.6996 34.2858 42.0809 34.4981C42.5836 34.5757 43.0998 34.5236 43.5948 34.4077C45.0314 34.0736 46.4345 33.0253 46.6272 31.559C46.7752 30.4301 46.1316 29.2687 45.1524 28.6889C42.8995 27.3555 39.3375 28.7013 39.4914 31.6048Z" fill="#FFDE39"/>
<path d="M46.2028 30.2825C46.0112 31.7484 44.608 32.7968 43.1704 33.1312C42.6751 33.2461 42.1589 33.2982 41.6565 33.2216C40.8012 33.0898 40.0423 32.5491 39.5687 31.8251C39.5694 31.8307 39.5694 31.8378 39.569 31.8438C39.6426 33.2429 40.7773 34.5248 42.1585 34.7372C42.6613 34.8148 43.1775 34.7627 43.6725 34.6467C45.1091 34.3126 46.5122 33.2643 46.7048 31.7981C46.7934 31.1248 46.6001 30.44 46.2212 29.8735C46.2265 30.01 46.2212 30.1465 46.2028 30.2825Z" fill="#F4BE38"/>
<path opacity="0.33" d="M21.2457 28.3508C21.5049 29.9931 21.9189 31.6123 22.4779 33.1787C22.6418 33.6369 22.8344 34.114 23.2201 34.4101C23.3388 34.5018 23.4905 34.5755 23.6348 34.5382C23.9063 34.4693 23.9492 34.1018 23.9163 33.8221C23.7953 32.7766 23.4388 31.7739 23.2449 30.7396C23.0521 29.705 23.0385 28.5789 23.5588 27.6666C23.759 27.3154 24.0366 26.9988 24.1413 26.6084C24.4138 25.5953 23.2652 23.3352 22.0124 24.102C20.7688 24.8647 21.0596 27.1734 21.2457 28.3508Z" fill="white"/>
<path opacity="0.33" d="M24.0603 37.5444C24.2345 37.7322 24.4632 37.9386 24.7114 37.8739C25.0109 37.7969 25.0757 37.4033 25.0602 37.0942C25.0454 36.8014 25.0101 36.5001 24.8712 36.2414C24.6581 35.8443 24.0218 35.5382 23.6371 35.8585C23.0589 36.3411 23.7174 37.1751 24.0603 37.5444Z" fill="white"/>
<path opacity="0.59" d="M40.5405 30.0187C40.3439 30.4266 40.2854 30.9351 40.5201 31.3226C40.7548 31.7102 41.3445 31.8794 41.6815 31.5785C41.9729 31.3175 41.967 30.8599 42.1689 30.5247C42.4465 30.0627 43.0377 29.9314 43.5257 29.7056C43.6993 29.6255 43.8803 29.511 43.9345 29.3265C43.9861 29.1487 43.8967 28.9503 43.7532 28.8338C43.6097 28.7172 43.4205 28.669 43.236 28.6523C42.2075 28.5591 41.0004 29.0627 40.5405 30.0187Z" fill="white"/>
</g>
<defs>
<clipPath id="clip0">
<rect width="78.3826" height="67.7779" fill="white" transform="translate(0 24.7017) rotate(-18.3693)"/>
</clipPath>
</defs>
</svg>
