<svg width="66" height="67" viewBox="0 0 66 67" fill="none" xmlns="http://www.w3.org/2000/svg">
<g clip-path="url(#clip0)">
<path d="M27.3105 11.3528L7.38899 34.1719C4.46183 37.5248 8.59835 45.9258 16.6287 52.9365C24.6591 59.9472 33.5416 62.912 36.4687 59.5591L56.3903 36.74L27.3105 11.3528Z" fill="#FF7BE6"/>
<path d="M24.6478 14.403C24.6478 14.403 25.2882 24.919 37.485 33.7557C49.6819 42.5924 54.0133 39.4629 54.0133 39.4629L51.1718 42.7177C51.1718 42.7177 44.5605 43.9788 36.4486 37.238C23.4994 26.4772 24.2428 14.8669 24.2428 14.8669L24.6478 14.403Z" fill="#CE65BF"/>
<path d="M55.5529 38.5914C52.5263 42.0583 43.3648 39.0132 35.0907 31.7897C26.8165 24.5662 22.2448 16.3245 25.272 12.857C28.2986 9.39014 37.7781 12.0103 46.0522 19.2338C54.3264 26.4573 58.5801 35.1239 55.5529 38.5914Z" fill="#FF7BE6"/>
<path d="M25.272 12.8569L29.5459 7.9021L59.5086 34.0602L55.5528 38.5914L25.272 12.8569Z" fill="#FF7BE6"/>
<path d="M40.224 25.9106C48.4982 33.1341 57.1699 36.7401 59.5929 33.9647C62.0158 31.1894 57.2725 23.0837 48.9983 15.8601C40.7241 8.63659 32.0524 5.03064 29.6295 7.80599C27.2065 10.5814 31.9499 18.6871 40.224 25.9106Z" fill="#FF99F5"/>
<path d="M40.666 26.2923L49.3096 16.1338L49.7329 16.5118L41.7102 27.1653L40.666 26.2923Z" fill="#A96CFF"/>
<path d="M29.6297 7.80602L59.9164 33.4815L60.0782 33.081L29.9826 7.46109L29.6297 7.80602Z" fill="#A96CFF"/>
<path opacity="0.27" d="M32.7234 9.21655C32.9829 9.31492 33.2683 9.31614 33.5466 9.32816C36.4306 9.45286 39.096 10.8935 41.3992 12.6249C42.0358 13.1032 42.6595 13.6102 43.3734 13.9626C43.5065 14.028 43.6637 14.0878 43.7966 14.0225C43.9495 13.948 43.9883 13.734 43.9239 13.5774C43.8602 13.4202 43.7221 13.3069 43.5897 13.2022C41.8747 11.8404 40.0611 10.6041 38.1657 9.50686C37.2983 9.00478 36.4082 8.52878 35.4506 8.23208C34.6645 7.9884 33.8302 7.87435 33.007 7.95857C32.6539 7.99496 32.3057 8.02715 32.2201 8.43253C32.1436 8.78897 32.4071 9.09641 32.7234 9.21655Z" fill="white"/>
<path d="M11.8482 31.9362C11.9156 31.8645 11.9979 31.7924 12.0921 31.7864C12.2178 31.7789 12.3132 31.8984 12.3214 32.0241C12.3303 32.1491 12.2741 32.2754 12.2101 32.3888C12.0399 32.6925 11.8046 32.9635 11.5273 33.1749C11.7699 33.0336 12.0566 32.9574 12.3139 33.0212C12.5711 33.0849 12.7848 33.3102 12.7865 33.5825C12.7869 33.6868 12.7549 33.798 12.6801 33.8766C12.4885 34.0769 12.1754 33.9572 11.9556 33.8257C11.7633 33.7111 11.5703 33.5958 11.3786 33.4804C11.7146 33.9515 11.8722 34.6284 11.5522 35.1617C11.5197 35.2155 11.4807 35.2685 11.4252 35.2962C11.3784 35.3195 11.3257 35.3219 11.2758 35.317C10.9446 35.2842 10.7176 34.9627 10.6859 34.6267C10.655 34.2913 10.7782 33.949 10.9242 33.6315C10.7687 33.9033 10.6037 34.1861 10.3468 34.3645C10.0907 34.5435 9.71433 34.579 9.52361 34.3605C9.30507 34.1104 9.4534 33.6607 9.74372 33.4522C10.0333 33.2431 10.404 33.2197 10.7437 33.2441C10.4577 33.3113 10.1524 33.2129 9.97358 32.9987C9.79465 32.7832 9.74968 32.4598 9.85832 32.181C9.91731 32.0293 10.0408 31.8796 10.1981 31.8621C10.2703 31.8538 10.3406 31.8753 10.4056 31.9042C10.6975 32.0344 10.9855 32.8555 11.1585 32.882C11.3473 32.9125 11.6856 32.1087 11.8482 31.9362Z" fill="#FFE3D9"/>
<path d="M11.9263 39.7619C11.9938 39.6902 12.076 39.6181 12.1702 39.6121C12.296 39.6046 12.3914 39.7241 12.3996 39.8498C12.4084 39.9748 12.3522 40.1011 12.2882 40.2145C12.1175 40.5189 11.8827 40.7892 11.6055 41.0006C11.848 40.8593 12.1347 40.7831 12.392 40.8468C12.6492 40.9106 12.8629 41.1358 12.8646 41.4082C12.865 41.5125 12.833 41.6236 12.7583 41.7023C12.5666 41.9026 12.2535 41.7829 12.0337 41.6514C11.8414 41.5367 11.6484 41.4215 11.4567 41.3061C11.7927 41.7772 11.9503 42.4541 11.6304 42.9874C11.5978 43.0412 11.5588 43.0942 11.5033 43.1219C11.4565 43.1452 11.4039 43.1476 11.354 43.1427C11.0228 43.1099 10.7957 42.7883 10.7641 42.4524C10.7331 42.117 10.8563 41.7747 11.0023 41.4572C10.8469 41.729 10.6818 42.0118 10.4249 42.1902C10.1688 42.3692 9.79245 42.4047 9.60173 42.1862C9.38319 41.9361 9.53152 41.4864 9.82183 41.2779C10.1115 41.0688 10.4821 41.0454 10.8218 41.0698C10.5351 41.1363 10.2306 41.0386 10.0517 40.8244C9.87277 40.6089 9.8278 40.2855 9.93644 40.0067C9.99543 39.855 10.1189 39.7053 10.2762 39.6878C10.3484 39.6795 10.4187 39.701 10.4837 39.7299C10.775 39.8608 11.0636 40.6812 11.2367 40.7077C11.426 40.7375 11.7637 39.9344 11.9263 39.7619Z" fill="#FFE3D9"/>
<path d="M20.2671 36.0988C20.3346 36.0271 20.4168 35.955 20.5111 35.949C20.6368 35.9415 20.7322 36.061 20.7404 36.1867C20.7492 36.3117 20.6931 36.438 20.629 36.5514C20.4589 36.8551 20.2235 37.1261 19.9463 37.3375C20.1888 37.1962 20.4756 37.12 20.7328 37.1838C20.99 37.2475 21.2037 37.4728 21.2054 37.7451C21.2058 37.8494 21.1738 37.9606 21.0991 38.0392C20.9074 38.2395 20.5943 38.1198 20.3745 37.9883C20.1822 37.8737 19.9892 37.7584 19.7975 37.643C20.1336 38.1141 20.2911 38.791 19.9712 39.3243C19.9386 39.3781 19.9003 39.4317 19.8441 39.4588C19.7973 39.4821 19.7447 39.4845 19.6948 39.4796C19.3636 39.4469 19.1365 39.1253 19.1049 38.7893C19.0739 38.4539 19.1971 38.1116 19.3431 37.7941C19.1877 38.0659 19.0226 38.3487 18.7658 38.5271C18.5096 38.7061 18.1327 38.7423 17.9425 38.5231C17.724 38.273 17.8723 37.8233 18.1627 37.6148C18.4523 37.4057 18.823 37.3823 19.1626 37.4068C18.8759 37.4733 18.5714 37.3755 18.3925 37.1613C18.2136 36.9458 18.1686 36.6224 18.2773 36.3436C18.3362 36.1919 18.4598 36.0422 18.617 36.0247C18.6892 36.0164 18.7596 36.0379 18.8245 36.0668C19.1158 36.1977 19.4045 37.0181 19.5775 37.0446C19.7662 37.0751 20.104 36.272 20.2671 36.0988Z" fill="#FFE3D9"/>
<path d="M19.6863 27.0198C19.7537 26.948 19.8359 26.8759 19.9302 26.8699C20.0559 26.8624 20.1507 26.9826 20.1595 27.1076C20.1683 27.2326 20.1122 27.359 20.0481 27.4723C19.8774 27.7768 19.6427 28.047 19.3654 28.2585C19.608 28.1171 19.8947 28.0409 20.1519 28.1047C20.4092 28.1684 20.6229 28.3937 20.6246 28.666C20.6249 28.7704 20.5929 28.8815 20.5182 28.9602C20.3265 29.1604 20.0135 29.0407 19.7937 28.9093C19.6014 28.7946 19.4084 28.6793 19.2167 28.5639C19.5527 29.035 19.7103 29.7119 19.3903 30.2452C19.3578 30.299 19.3187 30.352 19.2632 30.3798C19.2165 30.403 19.1638 30.4054 19.1139 30.4005C18.7827 30.3678 18.5556 30.0462 18.524 29.7102C18.4931 29.3748 18.6162 29.0325 18.7623 28.715C18.6068 28.9868 18.4418 29.2696 18.1849 29.448C17.9287 29.6271 17.5524 29.6625 17.3617 29.444C17.1431 29.194 17.2915 28.7442 17.5818 28.5357C17.8714 28.3267 18.2421 28.3032 18.5818 28.3277C18.295 28.3942 17.9905 28.2964 17.8117 28.0822C17.6327 27.8668 17.5878 27.5433 17.6964 27.2645C17.7554 27.1129 17.8789 26.9631 18.0362 26.9456C18.1084 26.9373 18.1787 26.9588 18.2437 26.9877C18.5349 27.1187 18.8236 27.939 18.9966 27.9655C19.1854 27.9961 19.5231 27.1929 19.6863 27.0198Z" fill="#FFE3D9"/>
<path d="M28.1832 28.0254C28.2506 27.9536 28.3328 27.8815 28.4271 27.8755C28.5528 27.868 28.6482 27.9875 28.6564 28.1132C28.6652 28.2382 28.6091 28.3645 28.545 28.4779C28.3743 28.7823 28.1395 29.0526 27.8623 29.2641C28.1048 29.1227 28.3916 29.0465 28.6488 29.1103C28.906 29.174 29.1198 29.3993 29.1215 29.6716C29.1218 29.776 29.0898 29.8871 29.0151 29.9657C28.8234 30.166 28.5104 30.0463 28.2906 29.9149C28.0983 29.8002 27.9053 29.6849 27.7136 29.5695C28.0496 30.0406 28.2072 30.7175 27.8872 31.2508C27.8547 31.3046 27.8156 31.3576 27.7601 31.3853C27.7133 31.4086 27.6607 31.411 27.6108 31.4061C27.2796 31.3734 27.0525 31.0518 27.0209 30.7158C26.99 30.3804 27.1131 30.0381 27.2592 29.7206C27.1037 29.9924 26.9387 30.2752 26.6818 30.4536C26.4256 30.6326 26.0493 30.6681 25.8586 30.4496C25.64 30.1995 25.7884 29.7498 26.0787 29.5413C26.3683 29.3323 26.739 29.3088 27.0786 29.3333C26.7919 29.3998 26.4874 29.302 26.3085 29.0878C26.1296 28.8723 26.0846 28.5489 26.1933 28.2701C26.2523 28.1184 26.3758 27.9687 26.533 27.9512C26.6053 27.9429 26.6756 27.9644 26.7406 27.9933C27.0318 28.1242 27.3205 28.9446 27.4935 28.9711C27.6822 29.0016 28.0206 28.1978 28.1832 28.0254Z" fill="#FFE3D9"/>
<path d="M23.8521 19.7512C23.9195 19.6795 24.0018 19.6073 24.096 19.6014C24.2217 19.5938 24.3171 19.7134 24.3254 19.8391C24.3342 19.964 24.278 20.0904 24.214 20.2037C24.0433 20.5082 23.8085 20.7785 23.5313 20.9899C23.7738 20.8485 24.0605 20.7724 24.3178 20.8361C24.575 20.8998 24.7887 21.1251 24.7904 21.3975C24.7908 21.5018 24.7588 21.6129 24.6841 21.6916C24.4924 21.8918 24.1793 21.7721 23.9595 21.6407C23.7672 21.526 23.5742 21.4107 23.3825 21.2954C23.7185 21.7665 23.8761 22.4434 23.5561 22.9766C23.5236 23.0305 23.4846 23.0834 23.4291 23.1112C23.3823 23.1344 23.3296 23.1368 23.2797 23.132C22.9485 23.0992 22.7215 22.7776 22.6898 22.4416C22.6589 22.1063 22.7821 21.7639 22.9281 21.4464C22.7726 21.7182 22.6076 22.001 22.3507 22.1794C22.0946 22.3585 21.7182 22.3939 21.5275 22.1754C21.309 21.9254 21.4573 21.4756 21.7476 21.2672C22.0373 21.0581 22.4079 21.0346 22.7476 21.0591C22.4609 21.1256 22.1563 21.0278 21.9775 20.8136C21.7986 20.5982 21.7536 20.2747 21.8622 19.9959C21.9212 19.8443 22.0447 19.6945 22.202 19.677C22.2749 19.6693 22.3445 19.6902 22.4095 19.7192C22.7014 19.8494 22.9894 20.6704 23.1624 20.6969C23.3512 20.7275 23.6895 19.9236 23.8521 19.7512Z" fill="#FFE3D9"/>
<path d="M29.5708 35.1559C29.6382 35.0841 29.7204 35.012 29.8147 35.006C29.9404 34.9985 30.0352 35.1187 30.044 35.2437C30.0528 35.3687 29.9967 35.4951 29.9326 35.6084C29.7619 35.9129 29.5271 36.1831 29.2499 36.3946C29.4924 36.2532 29.7792 36.177 30.0364 36.2408C30.2936 36.3045 30.5073 36.5298 30.509 36.8021C30.5094 36.9065 30.4774 37.0176 30.4027 37.0963C30.211 37.2965 29.898 37.1768 29.6782 37.0454C29.4858 36.9307 29.2929 36.8154 29.1011 36.7C29.4372 37.1712 29.5947 37.848 29.2748 38.3813C29.2422 38.4352 29.2032 38.4881 29.1477 38.5159C29.1009 38.5391 29.0483 38.5415 28.9984 38.5367C28.6672 38.5039 28.4401 38.1823 28.4085 37.8463C28.3776 37.511 28.5007 37.1686 28.6467 36.8511C28.4913 37.1229 28.3262 37.4057 28.0694 37.5841C27.8132 37.7632 27.4369 37.7986 27.2455 37.5795C27.0269 37.3295 27.1753 36.8797 27.4656 36.6713C27.7552 36.4622 28.1259 36.4387 28.4655 36.4632C28.1788 36.5297 27.8743 36.4319 27.6954 36.2177C27.5165 36.0023 27.4715 35.6788 27.5802 35.4C27.6392 35.2484 27.7627 35.0986 27.9199 35.0811C27.9922 35.0728 28.0625 35.0943 28.1275 35.1232C28.4187 35.2542 28.7074 36.0745 28.8804 36.101C29.0698 36.1322 29.4082 35.3283 29.5708 35.1559Z" fill="#FFE3D9"/>
<path d="M19.9973 46.8079C20.0648 46.7362 20.147 46.6641 20.2412 46.6581C20.367 46.6506 20.4624 46.7701 20.4706 46.8958C20.4794 47.0208 20.4232 47.1471 20.3592 47.2605C20.1885 47.5649 19.9537 47.8352 19.6765 48.0466C19.919 47.9053 20.2057 47.8291 20.463 47.8928C20.7202 47.9566 20.9339 48.1819 20.9356 48.4542C20.936 48.5585 20.904 48.6696 20.8293 48.7483C20.6376 48.9486 20.3245 48.8289 20.1047 48.6974C19.9124 48.5827 19.7194 48.4675 19.5277 48.3521C19.8637 48.8232 20.0213 49.5001 19.7014 50.0334C19.6688 50.0872 19.6298 50.1402 19.5743 50.1679C19.5275 50.1912 19.4749 50.1936 19.425 50.1887C19.0938 50.1559 18.8667 49.8343 18.8351 49.4984C18.8041 49.163 18.9273 48.8207 19.0733 48.5032C18.9178 48.775 18.7528 49.0578 18.4959 49.2362C18.2398 49.4152 17.8634 49.4507 17.672 49.2316C17.4535 48.9815 17.6018 48.5318 17.8921 48.3233C18.1818 48.1142 18.5524 48.0908 18.8921 48.1152C18.6054 48.1818 18.3009 48.084 18.122 47.8698C17.9431 47.6543 17.8981 47.3309 18.0067 47.0521C18.0657 46.9004 18.1892 46.7507 18.3465 46.7332C18.4187 46.7249 18.489 46.7464 18.554 46.7753C18.8453 46.9062 19.1339 47.7266 19.307 47.7531C19.497 47.7835 19.8347 46.9804 19.9973 46.8079Z" fill="#FFE3D9"/>
<path d="M29.6526 46.741C29.72 46.6693 29.8023 46.5972 29.8965 46.5912C30.0222 46.5837 30.1176 46.7032 30.1258 46.8289C30.1347 46.9539 30.0785 47.0802 30.0145 47.1936C29.8437 47.498 29.609 47.7683 29.3317 47.9797C29.5743 47.8384 29.861 47.7622 30.1183 47.826C30.3755 47.8897 30.5892 48.115 30.5909 48.3873C30.5913 48.4916 30.5593 48.6028 30.4846 48.6814C30.2929 48.8817 29.9798 48.762 29.76 48.6305C29.5677 48.5159 29.3747 48.4006 29.183 48.2852C29.519 48.7563 29.6766 49.4332 29.3567 49.9665C29.3241 50.0203 29.2851 50.0733 29.2296 50.101C29.1828 50.1243 29.1302 50.1267 29.0802 50.1218C28.7491 50.089 28.522 49.7674 28.4904 49.4315C28.4594 49.0961 28.5826 48.7538 28.7286 48.4363C28.5731 48.7081 28.4081 48.9909 28.1512 49.1693C27.8951 49.3483 27.5187 49.3838 27.3273 49.1647C27.1088 48.9146 27.2571 48.4649 27.5474 48.2564C27.8371 48.0473 28.2077 48.0239 28.5474 48.0483C28.2607 48.1149 27.9562 48.0171 27.7773 47.8029C27.5984 47.5874 27.5534 47.264 27.662 46.9852C27.7216 46.8328 27.8445 46.6838 28.0018 46.6663C28.074 46.658 28.1443 46.6795 28.2093 46.7084C28.5006 46.8393 28.7892 47.6597 28.9623 47.6862C29.153 47.7172 29.49 46.9135 29.6526 46.741Z" fill="#FFE3D9"/>
<path d="M38.1663 38.7645C38.2337 38.6928 38.3159 38.6206 38.4102 38.6147C38.5359 38.6071 38.6313 38.7267 38.6395 38.8523C38.6483 38.9773 38.5922 39.1037 38.5281 39.217C38.3574 39.5215 38.1227 39.7917 37.8454 40.0032C38.088 39.8618 38.3747 39.7856 38.6319 39.8494C38.8892 39.9131 39.1029 40.1384 39.1046 40.4107C39.1049 40.5151 39.0729 40.6262 38.9982 40.7049C38.8065 40.9051 38.4935 40.7854 38.2737 40.654C38.0814 40.5393 37.8884 40.424 37.6967 40.3086C38.0327 40.7798 38.1903 41.4566 37.8703 41.9899C37.8378 42.0437 37.7987 42.0967 37.7432 42.1245C37.6965 42.1477 37.6438 42.1501 37.5939 42.1453C37.2627 42.1125 37.0356 41.7909 37.004 41.4549C36.9724 41.119 37.0962 40.7772 37.2423 40.4597C37.0868 40.7315 36.9218 41.0143 36.6649 41.1927C36.4087 41.3718 36.0324 41.4072 35.841 41.1881C35.6225 40.9381 35.7708 40.4883 36.0611 40.2799C36.3507 40.0708 36.7214 40.0473 37.0611 40.0718C36.7744 40.1383 36.4698 40.0405 36.291 39.8263C36.112 39.6109 36.0671 39.2874 36.1757 39.0086C36.2347 38.857 36.3582 38.7072 36.5155 38.6897C36.5877 38.6814 36.658 38.7029 36.723 38.7318C37.0148 38.8621 37.3029 39.6831 37.4759 39.7096C37.666 39.7414 38.0037 38.9369 38.1663 38.7645Z" fill="#FFE3D9"/>
<path d="M47.6372 41.5724C47.7046 41.5006 47.7868 41.4285 47.8811 41.4225C48.0068 41.415 48.1016 41.5352 48.1104 41.6602C48.1192 41.7852 48.0631 41.9116 47.999 42.0249C47.8283 42.3294 47.5935 42.5996 47.3163 42.8111C47.5588 42.6697 47.8456 42.5935 48.1028 42.6573C48.36 42.721 48.5737 42.9463 48.5754 43.2186C48.5758 43.323 48.5438 43.4341 48.4691 43.5128C48.2774 43.713 47.9644 43.5933 47.7446 43.4619C47.5523 43.3472 47.3593 43.2319 47.1676 43.1165C47.5036 43.5876 47.6612 44.2645 47.3412 44.7978C47.3087 44.8516 47.2696 44.9046 47.2141 44.9323C47.1673 44.9556 47.1147 44.958 47.0648 44.9531C46.7336 44.9204 46.5065 44.5988 46.4749 44.2628C46.444 43.9274 46.5671 43.5851 46.7131 43.2676C46.5577 43.5394 46.3926 43.8222 46.1358 44.0006C45.8796 44.1796 45.5033 44.2151 45.3119 43.996C45.094 43.7465 45.2417 43.2962 45.532 43.0877C45.8216 42.8787 46.1923 42.8552 46.532 42.8797C46.2452 42.9462 45.9407 42.8484 45.7619 42.6342C45.5836 42.4194 45.538 42.0953 45.6466 41.8165C45.7056 41.6649 45.8291 41.5151 45.9864 41.4976C46.0586 41.4893 46.1289 41.5108 46.1939 41.5397C46.4851 41.6707 46.7738 42.491 46.9468 42.5175C47.1369 42.5493 47.4752 41.7454 47.6372 41.5724Z" fill="#FFE3D9"/>
<path d="M38.315 45.7312C38.3824 45.6594 38.4646 45.5873 38.5589 45.5813C38.6846 45.5738 38.78 45.6934 38.7882 45.819C38.7971 45.944 38.7409 46.0704 38.6768 46.1837C38.5061 46.4882 38.2714 46.7584 37.9941 46.9699C38.2367 46.8285 38.5234 46.7523 38.7806 46.8161C39.0379 46.8798 39.2516 47.1051 39.2533 47.3774C39.2537 47.4818 39.2216 47.5929 39.1469 47.6716C38.9552 47.8718 38.6422 47.7521 38.4224 47.6207C38.2301 47.506 38.0371 47.3907 37.8454 47.2753C38.1814 47.7464 38.339 48.4233 38.019 48.9566C37.9865 49.0104 37.9474 49.0634 37.8919 49.0912C37.8452 49.1144 37.7925 49.1168 37.7426 49.112C37.4114 49.0792 37.1843 48.7576 37.1527 48.4216C37.1211 48.0857 37.2449 47.7439 37.391 47.4264C37.2355 47.6982 37.0705 47.981 36.8136 48.1594C36.5574 48.3385 36.1811 48.3739 35.9904 48.1554C35.7719 47.9054 35.9202 47.4556 36.2105 47.2472C36.5001 47.0381 36.8708 47.0146 37.2105 47.0391C36.9238 47.1056 36.6192 47.0078 36.4404 46.7936C36.2614 46.5782 36.2165 46.2547 36.3251 45.9759C36.3841 45.8243 36.5076 45.6745 36.6649 45.657C36.7371 45.6487 36.8074 45.6702 36.8724 45.6991C37.1636 45.8301 37.4523 46.6504 37.6253 46.6769C37.8141 46.7075 38.1518 45.9043 38.315 45.7312Z" fill="#FFE3D9"/>
<path d="M38.2087 53.6499C38.2762 53.5782 38.3584 53.5061 38.4527 53.5001C38.5784 53.4925 38.6732 53.6128 38.682 53.7378C38.6908 53.8628 38.6347 53.9891 38.5706 54.1025C38.3999 54.4069 38.1651 54.6772 37.8879 54.8886C38.1304 54.7473 38.4171 54.6711 38.6744 54.7348C38.9316 54.7986 39.1453 55.0238 39.147 55.2962C39.1474 55.4005 39.1154 55.5116 39.0407 55.5903C38.849 55.7906 38.5359 55.6708 38.3161 55.5394C38.1238 55.4247 37.9308 55.3094 37.7391 55.1941C38.0751 55.6652 38.2327 56.3421 37.9128 56.8754C37.8802 56.9292 37.8419 56.9828 37.7857 57.0099C37.7389 57.0332 37.6863 57.0356 37.6364 57.0307C37.3052 56.9979 37.0781 56.6763 37.0465 56.3404C37.0155 56.005 37.1387 55.6627 37.2847 55.3452C37.1293 55.617 36.9642 55.8997 36.7074 56.0782C36.4512 56.2572 36.0749 56.2927 35.8841 56.0741C35.6656 55.8241 35.8139 55.3744 36.1042 55.1659C36.3939 54.9568 36.7645 54.9334 37.1042 54.9578C36.8175 55.0243 36.513 54.9265 36.3341 54.7124C36.1552 54.4969 36.1102 54.1735 36.2188 53.8946C36.2778 53.743 36.4013 53.5933 36.5586 53.5758C36.6308 53.5675 36.7011 53.5889 36.7661 53.6179C37.0574 53.7488 37.346 54.5692 37.5191 54.5957C37.7078 54.6262 38.0455 53.823 38.2087 53.6499Z" fill="#FFE3D9"/>
<path d="M28.3637 54.6329C28.4312 54.5612 28.5134 54.4891 28.6076 54.4831C28.7334 54.4756 28.8281 54.5958 28.837 54.7208C28.8458 54.8458 28.7896 54.9721 28.7256 55.0855C28.5549 55.3899 28.3201 55.6602 28.0429 55.8716C28.2854 55.7303 28.5721 55.6541 28.8294 55.7178C29.0866 55.7816 29.3003 56.0068 29.302 56.2792C29.3024 56.3835 29.2704 56.4946 29.1957 56.5733C29.004 56.7736 28.6909 56.6538 28.4711 56.5224C28.2788 56.4077 28.0858 56.2924 27.8941 56.1771C28.2301 56.6482 28.3877 57.3251 28.0678 57.8584C28.0352 57.9122 27.9962 57.9652 27.9407 57.9929C27.8939 58.0162 27.8413 58.0186 27.7913 58.0137C27.4602 57.9809 27.2331 57.6593 27.2015 57.3234C27.1705 56.988 27.2937 56.6457 27.4397 56.3282C27.2842 56.6 27.1192 56.8827 26.8623 57.0612C26.6062 57.2402 26.2292 57.2763 26.0384 57.0565C25.8199 56.8065 25.9682 56.3568 26.2585 56.1483C26.5482 55.9392 26.9188 55.9158 27.2585 55.9402C26.9718 56.0067 26.6673 55.909 26.4884 55.6948C26.3102 55.4799 26.2645 55.1559 26.3731 54.8771C26.4321 54.7254 26.5556 54.5757 26.7129 54.5582C26.7851 54.5499 26.8554 54.5714 26.9204 54.6003C27.2117 54.7312 27.5003 55.5516 27.6734 55.5781C27.8628 55.6092 28.2011 54.8054 28.3637 54.6329Z" fill="#FFE3D9"/>
<path d="M40.666 26.2926L16.6442 52.9495L18.0947 54.2158L41.7103 27.1655L40.666 26.2926Z" fill="#6748A3"/>
<path opacity="0.27" d="M21.8585 21.4481C21.1511 21.9648 20.5998 22.6625 20.0527 23.347C18.1712 25.7034 16.2133 28.0329 13.8438 29.898C12.8853 30.6526 11.8607 31.33 11.0009 32.1962C10.1418 33.0618 9.44402 34.1588 9.34368 35.3724C9.24334 36.5859 9.86773 37.9025 11.0019 38.3388C12.1157 38.7682 13.4137 38.2629 14.2811 37.4361C15.1485 36.6092 15.6909 35.5083 16.2755 34.4624C17.5698 32.1472 19.1548 29.9939 20.9815 28.0697C21.6539 27.3616 22.3621 26.68 22.9336 25.8875C23.7265 24.7863 23.996 23.6189 24.0318 22.2849C24.0664 20.9632 22.8278 20.7417 21.8585 21.4481Z" fill="white"/>
<path d="M44.3213 31.4693C44.4202 31.101 44.5355 30.7374 44.6799 30.3845C45.0863 29.3898 45.7127 28.5013 46.332 27.6223C46.4931 27.9286 46.4222 28.3117 46.266 28.6215C46.1092 28.9321 45.8753 29.1959 45.6917 29.4902C45.4301 29.9112 45.2758 30.3884 45.1244 30.8596C44.8914 31.5813 44.6571 32.3502 44.8428 33.0831C44.9132 33.3622 45.0449 33.6441 44.9835 33.9254C44.966 34.0033 44.9276 34.0846 44.8536 34.1155C44.8097 34.1341 44.7599 34.1305 44.7138 34.124C44.1028 34.0368 44.1372 33.599 44.1063 33.0858C44.0732 32.5406 44.1805 31.9946 44.3213 31.4693Z" fill="#6748A3"/>
<path d="M51.3844 33.4573C49.6598 30.1754 45.6413 32.6226 44.9202 33.0984C44.5753 32.5989 41.6243 28.5341 38.7192 31.0609C33.3696 35.7151 43.2277 41.9017 43.2277 41.9017C43.2277 41.9017 54.6689 39.7095 51.3844 33.4573ZM44.3653 35.7603C43.9147 35.6644 43.6288 35.2214 43.7268 34.77C43.8248 34.3187 44.2689 34.0305 44.7195 34.1264C45.1701 34.2223 45.456 34.6653 45.358 35.1167C45.26 35.568 44.8159 35.8562 44.3653 35.7603Z" fill="#C12B97"/>
<path d="M45.8506 23.6627C46.1298 25.3926 45.9962 27.1612 45.8471 28.909C45.6873 30.7792 45.475 32.744 44.3892 34.2786C44.3682 34.6266 44.8713 34.7974 45.1677 34.6136C45.4648 34.4292 45.5858 34.0644 45.6785 33.7281C46.6931 30.0599 47.0358 26.1799 46.4046 22.4341C46.3235 21.9521 46.2198 21.4589 45.9425 21.0584C45.9062 21.0062 45.8523 20.9494 45.7887 20.9616C45.7378 20.9716 45.6895 21.0104 45.6368 21.0225C45.6817 21.4233 45.5787 21.8666 45.6243 22.2885C45.6738 22.7501 45.7762 23.2048 45.8506 23.6627Z" fill="#A96CFF"/>
<path d="M42.3546 18.4299C41.1328 17.9436 39.7792 17.5975 38.5069 17.9451C37.2347 18.2928 36.1308 19.542 36.3515 20.8399C36.5197 21.8259 37.4857 22.6064 38.4856 22.5639C38.7617 22.5523 39.0498 22.4773 39.2456 22.2806C39.5368 21.9883 39.5436 21.5202 39.4803 21.113C39.2386 19.5441 38.2106 18.1205 36.799 17.3996C35.3879 16.6781 33.6287 16.678 32.2107 17.3978C31.1848 17.9182 30.3174 18.8539 30.1132 19.9852C29.9089 21.1165 30.5102 22.4045 31.5949 22.7734C31.9255 22.8855 32.3188 22.9036 32.5994 22.6938C32.872 22.4905 32.9721 22.1098 32.9033 21.7778C32.8346 21.4457 32.6215 21.1605 32.3703 20.9327C31.3123 19.9764 29.6683 20.0068 28.3132 20.4659C26.1681 21.1931 24.3408 22.9208 23.6637 25.0831C22.9866 27.2454 23.5559 29.7885 25.2101 31.3233C25.3991 31.1715 25.5881 31.0185 25.7772 30.8667C24.9865 30.7206 24.6097 29.8317 24.3771 29.0616C24.0058 27.8341 23.6639 26.5138 24.046 25.2862C24.2632 24.5895 24.6994 23.9823 25.1608 23.4166C25.9972 22.3909 26.9799 21.4266 28.2142 20.9515C29.4479 20.477 30.9784 20.5918 31.9147 21.518C32.0255 21.6281 32.1352 21.7795 32.0864 21.9292C32.0173 22.1421 31.7062 22.1414 31.5105 22.0334C30.9973 21.7487 30.8115 21.0834 30.8763 20.4978C31.0059 19.3292 31.9529 18.3493 33.0651 17.9672C34.1773 17.585 35.4148 17.7294 36.5138 18.1398C37.121 18.3665 37.7093 18.6781 38.1609 19.1437C38.6125 19.6093 38.9166 20.2424 38.8888 20.8917C38.8832 21.0222 38.8635 21.155 38.7968 21.2673C38.6779 21.4669 38.4251 21.5594 38.1955 21.5343C37.6999 21.4802 37.3612 20.9281 37.4345 20.4334C37.5072 19.9394 37.9052 19.5372 38.3629 19.3369C38.8212 19.1373 39.3332 19.1091 39.8322 19.1178C41.8134 19.1545 43.872 19.8029 45.1705 21.2957C45.2687 21.4093 45.3761 21.5344 45.524 21.5608C45.911 21.6302 46.0338 21.1243 45.9481 20.8475C45.8389 20.497 45.3891 20.2362 45.1204 20.0064C44.3069 19.3144 43.3417 18.8224 42.3546 18.4299Z" fill="#A96CFF"/>
<path d="M46.3634 17.4007C46.2289 16.0909 45.9106 14.7283 45.0157 13.7657C44.1208 12.803 42.506 12.4127 41.4615 13.2191C40.6669 13.8314 40.4229 15.0538 40.9225 15.9192C41.0605 16.1582 41.2597 16.378 41.5238 16.4587C41.9168 16.5792 42.3342 16.3644 42.6651 16.1176C43.9404 15.1655 44.7245 13.5864 44.7108 11.9976C44.6965 10.4095 43.8857 8.85152 42.5939 7.93414C41.66 7.27118 40.4323 6.94191 39.3374 7.29321C38.2425 7.64451 37.3812 8.78138 37.5558 9.917C37.6093 10.2624 37.7756 10.6192 38.09 10.7691C38.3957 10.9151 38.7781 10.8245 39.0401 10.607C39.3016 10.3902 39.4563 10.067 39.541 9.7383C39.898 8.35213 39.1128 6.9109 38.0806 5.92633C36.4475 4.36879 34.076 3.5633 31.8514 3.9804C29.6268 4.39751 27.6412 6.09709 27.0475 8.28382C27.2695 8.37967 27.4914 8.47552 27.7127 8.57077C27.4764 7.80215 28.0893 7.05054 28.662 6.48276C29.5757 5.57668 30.5856 4.6529 31.8476 4.41483C32.5638 4.2795 33.3026 4.38029 34.0163 4.52213C35.3095 4.78044 36.6163 5.19691 37.6055 6.06662C38.5948 6.93633 39.1994 8.3445 38.8126 9.60908C38.7671 9.75915 38.6834 9.92671 38.5287 9.95368C38.3084 9.99234 38.1654 9.71638 38.1707 9.49248C38.1858 8.9046 38.6884 8.42677 39.2357 8.20926C40.329 7.77433 41.6326 8.15302 42.4837 8.95771C43.3355 9.76299 43.7785 10.9261 43.9236 12.0915C44.0037 12.7359 43.9997 13.4035 43.7967 14.022C43.5937 14.6404 43.1749 15.2071 42.5873 15.4886C42.4699 15.5445 42.3428 15.5895 42.213 15.5838C41.9823 15.5723 41.7832 15.3924 41.6989 15.1774C41.5185 14.7127 41.8503 14.1535 42.3204 13.9859C42.7904 13.8182 43.3297 13.9807 43.7184 14.2922C44.1071 14.6037 44.3684 15.0447 44.5901 15.491C45.4729 17.2629 45.8495 19.3898 45.1295 21.2414C45.075 21.3825 45.0129 21.535 45.0577 21.6794C45.1743 22.0544 45.6791 21.9256 45.8839 21.7186C46.1437 21.4569 46.1663 20.9361 46.2448 20.5898C46.4817 19.5451 46.4719 18.4591 46.3634 17.4007Z" fill="#A96CFF"/>
</g>
<defs>
<clipPath id="clip0">
<rect width="41.962" height="51" fill="white" transform="translate(33.541) rotate(41.1217)"/>
</clipPath>
</defs>
</svg>
