<svg width="99" height="100" viewBox="0 0 99 100" fill="none" xmlns="http://www.w3.org/2000/svg">
<g clip-path="url(#clip0)">
<path d="M10.3623 50.1215L28.2961 87.8905L65.2919 84.0369L46.4726 44.403L10.3623 50.1215Z" fill="#FF3A1A"/>
<path d="M46.472 44.4029L74.6761 20.1548L92.3884 57.4573L65.2913 84.0368L46.472 44.4029Z" fill="#B22720"/>
<path d="M8.95167 50.4659L46.4725 44.403L40.6945 32.2343L3.47852 38.9393L8.95167 50.4659Z" fill="#FF3A1A"/>
<path d="M40.694 32.2343C41.0036 31.9591 70.3407 7.92048 70.3407 7.92048L75.8794 19.5851L46.4727 44.4044L40.694 32.2343Z" fill="#B22720"/>
<path d="M3.47859 38.9393L33.2149 16.4821L70.3413 7.92044L40.6945 32.2343L3.47859 38.9393Z" fill="#FF8366"/>
<path d="M74.8274 20.4725L46.4732 44.4043L47.7482 47.0896C47.7482 47.0896 65.1693 32.2247 70.5486 29.1891C75.9292 26.1529 77.5971 26.3055 77.5971 26.3055L74.8274 20.4725Z" fill="#9B211E"/>
<path d="M10.3623 50.1215L46.4726 44.403L47.7483 47.0896L10.7347 50.9057L10.3623 50.1215Z" fill="#B22720"/>
<path d="M22.0849 35.5865L54.42 11.5914L46.8776 13.3311L15.8817 36.7035L22.0849 35.5865Z" fill="#62CEF9"/>
<path d="M53.8606 21.435L18.9263 27.2735L23.9998 23.4417L58.9633 17.0143L53.8606 21.435Z" fill="#62CEF9"/>
<path d="M19.6002 55.6758C20.6232 57.8302 20.6864 59.9392 19.7438 60.3868C18.7998 60.835 17.2067 59.4524 16.1838 57.298C15.1608 55.1437 15.0976 53.0347 16.0402 52.5871C16.9822 52.1382 18.5773 53.5215 19.6002 55.6758Z" fill="#FFB39F"/>
<path d="M28.11 58.6122C29.0534 58.1643 28.9891 56.0551 27.9664 53.9013C26.9437 51.7475 25.3499 50.3646 24.4065 50.8125C23.463 51.2605 23.5273 53.3697 24.55 55.5235C25.5727 57.6773 27.1665 59.0602 28.11 58.6122Z" fill="#FFB39F"/>
<path d="M36.6109 74.9805C37.5544 74.5325 37.4901 72.4234 36.4674 70.2696C35.4447 68.1157 33.8509 66.7329 32.9074 67.1808C31.964 67.6288 32.0283 69.738 33.051 71.8918C34.0737 74.0456 35.6675 75.4285 36.6109 74.9805Z" fill="#FFB39F"/>
<path d="M47.4469 80.4398C48.4699 82.5942 48.533 84.7032 47.5904 85.1508C46.6465 85.599 45.0534 84.2164 44.0305 82.0621C43.0075 79.9077 42.9443 77.7987 43.8869 77.3511C44.8295 76.9035 46.4239 78.2855 47.4469 80.4398Z" fill="#FFB39F"/>
<path d="M38.4449 61.221C39.4679 63.3753 39.5311 65.4844 38.5885 65.9319C37.6445 66.3801 36.0515 64.9976 35.0285 62.8432C34.0056 60.6888 33.9424 58.5798 34.885 58.1323C35.8289 57.684 37.422 59.0666 38.4449 61.221Z" fill="#FFB39F"/>
<path d="M40.3243 51.8269C41.3473 53.9813 41.2255 56.1781 40.0536 56.7346C38.8804 57.2917 37.1022 55.9969 36.0793 53.8426C35.0563 51.6882 35.1782 49.4914 36.3501 48.9349C37.5219 48.3785 39.302 49.6739 40.3243 51.8269Z" fill="#FFB39F"/>
<path d="M48.7009 72.5663C50.0139 71.9428 50.2491 69.6914 49.2264 67.5376C48.2037 65.3838 46.3103 64.1432 44.9974 64.7666C43.6845 65.39 43.4492 67.6414 44.4719 69.7952C45.4946 71.949 47.388 73.1897 48.7009 72.5663Z" fill="#FFB39F"/>
<path d="M58.8505 78.572C59.8734 80.7264 59.6376 82.9774 58.3249 83.6007C57.0123 84.224 55.1189 82.984 54.0959 80.8296C53.0729 78.6753 53.3088 76.4243 54.6214 75.801C55.9354 75.1771 57.8275 76.4177 58.8505 78.572Z" fill="#FFB39F"/>
<path d="M49.2861 61.6758C50.4783 61.1097 50.6157 58.9047 49.593 56.7509C48.5703 54.5971 46.7748 53.31 45.5826 53.8761C44.3903 54.4422 44.2529 56.6471 45.2756 58.801C46.2983 60.9548 48.0938 62.2419 49.2861 61.6758Z" fill="#FFB39F"/>
<path d="M55.0917 50.5796C56.284 50.0135 56.4214 47.8085 55.3987 45.6547C54.376 43.5009 52.5805 42.2138 51.3882 42.7799C50.196 43.346 50.0585 45.5509 51.0812 47.7048C52.1039 49.8586 53.8995 51.1457 55.0917 50.5796Z" fill="#DD998C"/>
<path d="M62.998 67.23C64.1902 66.6639 64.3277 64.4589 63.305 62.3051C62.2823 60.1513 60.4867 58.8642 59.2945 59.4303C58.1022 59.9964 57.9648 62.2013 58.9875 64.3552C60.0102 66.509 61.8057 67.7961 62.998 67.23Z" fill="#DD998C"/>
<path d="M73.406 73.7437C74.7671 73.0974 74.9243 70.5808 73.7571 68.1227C72.5899 65.6645 70.5404 64.1957 69.1793 64.842C67.8182 65.4883 67.661 68.0049 68.8282 70.463C69.9954 72.9212 72.045 74.39 73.406 73.7437Z" fill="#DD998C"/>
<path d="M66.0882 49.6036C67.1111 51.7579 66.9732 53.9624 65.7812 54.5284C64.5892 55.0944 62.7937 53.808 61.7707 51.6536C60.7477 49.4993 60.8857 47.2948 62.0777 46.7288C63.2697 46.1628 65.0652 47.4492 66.0882 49.6036Z" fill="#DD998C"/>
<path d="M67.5908 40.3453C68.783 39.7792 68.9204 37.5743 67.8977 35.4205C66.875 33.2666 65.0795 31.9795 63.8872 32.5457C62.695 33.1118 62.5576 35.3167 63.5803 37.4705C64.603 39.6243 66.3985 40.9114 67.5908 40.3453Z" fill="#DD998C"/>
<path d="M82.0195 66.3041C83.2117 65.738 83.3491 63.533 82.3264 61.3792C81.3037 59.2254 79.5082 57.9383 78.316 58.5044C77.1237 59.0705 76.9863 61.2754 78.009 63.4293C79.0317 65.5831 80.8272 66.8702 82.0195 66.3041Z" fill="#DD998C"/>
<path d="M79.3157 47.3792C80.3387 49.5336 80.2007 51.7381 79.0087 52.3041C77.8167 52.8701 76.0212 51.5836 74.9982 49.4293C73.9753 47.2749 74.1132 45.0704 75.3052 44.5044C76.4972 43.9384 78.2934 45.2262 79.3157 47.3792Z" fill="#DD998C"/>
<path d="M74.2472 36.7052C75.2573 36.2256 75.2471 34.0908 74.2244 31.937C73.2017 29.7831 71.5538 28.4259 70.5437 28.9055C69.5337 29.3851 69.5439 31.5199 70.5666 33.6738C71.5893 35.8276 73.2372 37.1848 74.2472 36.7052Z" fill="#DD998C"/>
<path d="M87.8787 54.7358C88.9016 56.8901 88.9112 59.0246 87.9015 59.504C86.8919 59.9834 85.2439 58.627 84.2209 56.4726C83.1979 54.3182 83.1884 52.1838 84.198 51.7043C85.209 51.2243 86.8557 52.5814 87.8787 54.7358Z" fill="#DD998C"/>
<path d="M83.1257 40.0053C84.1487 42.1597 84.1583 44.2941 83.1486 44.7736C82.139 45.253 80.4909 43.8965 79.468 41.7421C78.445 39.5878 78.4341 37.4539 79.4451 36.9739C80.4547 36.4945 82.1028 37.8509 83.1257 40.0053Z" fill="#DD998C"/>
<path d="M27.4498 63.3877C28.4728 65.5421 28.536 67.6511 27.5934 68.0987C26.6494 68.5469 25.0563 67.1643 24.0334 65.0099C23.0104 62.8556 22.9473 60.7466 23.8899 60.299C24.8325 59.8514 26.4275 61.2347 27.4498 63.3877Z" fill="#FFB39F"/>
<path d="M27.6783 74.7993C28.7013 76.9537 28.7645 79.0627 27.8219 79.5103C26.8793 79.9579 25.2849 78.5759 24.2619 76.4216C23.239 74.2672 23.1758 72.1582 24.1184 71.7106C25.061 71.263 26.6554 72.645 27.6783 74.7993Z" fill="#FFB39F"/>
<path d="M36.1822 86.1908C37.1257 85.7429 37.0614 83.6337 36.0387 81.4799C35.016 79.3261 33.4221 77.9432 32.4787 78.3912C31.5353 78.8391 31.5996 80.9483 32.6223 83.1021C33.645 85.2559 35.2388 86.6388 36.1822 86.1908Z" fill="#FFB39F"/>
<path d="M15.8817 36.7035L38.8037 86.7945L47.9194 85.8455L22.0849 35.5865L15.8817 36.7035Z" fill="#5BBDEF"/>
<path d="M53.861 21.4347L78.0146 71.5554L84.2535 65.4371L58.9638 17.0141L53.861 21.4347Z" fill="#4DA6C1"/>
<path d="M30.7522 32.9924C31.1884 32.0493 31.6315 31.0931 32.2919 30.2899C32.686 31.21 33.1639 32.0953 33.7192 32.9291C33.8535 30.5752 35.3358 28.5406 36.1306 26.3216C36.2453 26.0026 36.3442 25.6468 36.2165 25.3329C36.09 25.0249 35.7619 24.8357 35.4321 24.7952C35.1023 24.7546 34.7686 24.8408 34.4556 24.9533C33.2156 25.3975 32.0477 26.3151 31.4032 27.4771C31.173 27.892 31.1369 28.3592 31.0042 28.81C30.8158 29.4514 30.6713 30.0918 30.6211 30.7612C30.5635 31.5049 30.6072 32.2579 30.7522 32.9924Z" fill="#62CEF9"/>
<path d="M39.6099 26.9745C39.773 28.1243 39.6223 29.2949 39.4462 30.4431C39.8598 30.0824 40.2202 29.6682 40.5805 29.2539C41.1876 28.5566 41.7954 27.8606 42.4025 27.1632C42.7925 27.8323 43.0649 28.5688 43.2081 29.3305C43.974 27.6492 44.3577 25.7962 44.3224 23.95C44.3168 23.6372 44.2968 23.3148 44.1679 23.0294C44.0472 22.7614 43.8372 22.544 43.6065 22.3628C42.9237 21.8245 42.0332 21.5754 41.1647 21.6116C40.2962 21.6477 39.4487 21.9565 38.7181 22.4283C38.4086 22.6278 38.0811 22.9 37.9503 23.2578C37.7662 23.7559 38.0176 23.9602 38.345 24.2795C39.0715 24.9893 39.4688 25.9818 39.6099 26.9745Z" fill="#62CEF9"/>
<path d="M25.7407 32.3394C26.2323 32.198 27.458 31.6373 27.8491 31.3087C30.297 29.2559 32.1743 28.0984 34.9018 26.0772C35.3224 25.7657 35.7947 25.5283 36.1881 25.1838C36.3564 25.0365 36.5281 24.8203 36.4474 24.6122C36.4077 24.5078 36.3115 24.4368 36.211 24.3877C35.8678 24.222 35.4622 24.2815 35.0881 24.3622C32.9288 24.8323 30.9468 25.8834 28.9108 26.7516C27.8258 27.2142 26.7092 27.6311 25.7349 28.2958C24.8159 28.9211 23.9733 29.8387 23.7024 30.9465C23.4569 31.9485 24.9126 32.5782 25.7407 32.3394Z" fill="#4B9EBF"/>
<path d="M35.8457 21.8928C34.7639 21.2236 33.457 21.0457 32.1892 20.933C30.099 20.7459 27.9981 20.6954 25.901 20.781C24.6857 20.8307 23.422 20.9411 22.3724 21.5578C21.6386 21.9884 21.0139 22.7664 21.1122 23.6101C21.2231 24.5531 22.156 25.1648 23.0421 25.5047C25.8201 26.5694 28.9633 26.2647 31.7943 25.3509C33.0167 24.9562 34.2048 24.4512 35.3385 23.8455C35.6714 23.6677 36.3561 23.4313 36.5146 23.0488C36.7156 22.569 36.2017 22.1131 35.8457 21.8928Z" fill="#457FDD"/>
<path d="M30.7227 23.6403C26.9372 24.3502 21.0042 24.915 21.243 22.7776C20.1576 24.8866 20.0783 27.6333 21.2741 29.681C21.7712 30.5308 22.5154 31.316 23.4793 31.5154C23.9091 31.6038 24.3533 31.5703 24.7857 31.4948C26.2702 31.2335 27.6219 30.4881 28.9074 29.7003C31.7257 27.9744 34.3806 25.9975 37.0307 24.0245C36.9235 23.6466 36.9176 22.2776 36.5227 22.4667C35.9964 22.7183 35.4272 22.8276 35.0165 22.9109C33.7226 23.1687 32.019 23.3977 30.7227 23.6403Z" fill="#5BBDEF"/>
<path d="M37.6856 24.1359C37.8941 24.1634 42.7053 23.2984 42.7053 23.2984C42.7053 23.2984 44.6642 22.8906 46.8768 21.6018C49.088 20.3137 51.7541 18.3396 51.7541 18.3396C51.7541 18.3396 49.2786 18.6181 49.1375 18.5734C48.9963 18.5287 37.1749 22.9393 37.1749 22.9393L37.6856 24.1359Z" fill="#4B9EBF"/>
<path d="M35.8668 22.32C35.9358 21.0501 36.5341 19.8739 37.1648 18.7695C38.2038 16.947 39.3617 15.1914 40.6281 13.5189C41.3636 12.5487 42.1742 11.574 43.2794 11.064C44.0515 10.7072 45.0468 10.6371 45.684 11.2004C46.3948 11.8289 46.3641 12.9442 46.1381 13.8663C45.4265 16.7556 43.383 19.1618 41.0172 20.9653C39.9955 21.7445 38.9039 22.432 37.7587 23.0169C37.4232 23.1893 36.8375 23.6169 36.4323 23.5284C35.9253 23.4192 35.8443 22.7364 35.8668 22.32Z" fill="#457FDD"/>
<path d="M40.3324 19.0595C43.0758 16.3555 46.7517 11.8435 44.8605 10.8193C47.2117 11.1306 49.6848 12.5947 50.6846 14.7453C51.0992 15.6393 51.3193 16.6979 50.9323 17.6029C50.7602 18.005 50.4782 18.3525 50.1705 18.6629C49.1096 19.7334 47.7253 20.417 46.3446 21.0249C43.3199 22.3544 40.1819 23.4073 37.0474 24.4571C36.7986 24.1546 35.6774 23.3678 36.0576 23.1511C36.5648 22.8627 36.9787 22.4575 37.2814 22.1675C38.2335 21.2521 39.3927 19.9838 40.3324 19.0595Z" fill="#5BBDEF"/>
<path d="M35.4724 21.1483C35.1748 21.2206 34.9251 21.418 34.7011 21.6279C34.4066 21.9074 34.1314 22.2484 34.0953 22.6532C34.0661 22.9759 34.1958 23.2906 34.3319 23.5841C34.4521 23.8441 34.5803 24.1003 34.7179 24.352C34.8241 24.548 34.9408 24.7489 35.118 24.8833C35.5214 25.1895 36.0961 25.0711 36.5749 24.9029C37.2289 24.6745 37.861 24.3793 38.4551 24.0249C38.7085 23.8733 38.9691 23.6954 39.0848 23.4236C39.2236 23.0965 39.1171 22.7199 38.977 22.3937C38.6665 21.6672 38.196 21.0084 37.6106 20.478C37.5102 20.3877 37.4038 20.2986 37.2801 20.2456C37.0201 20.1341 36.7208 20.1925 36.4547 20.286C35.8174 20.5081 35.2485 20.926 34.8451 21.4675L35.4724 21.1483Z" fill="#5BBDEF"/>
<path d="M37.6935 20.4783C37.5931 20.388 37.4867 20.2989 37.363 20.2459C37.1695 20.1637 36.9528 20.1745 36.746 20.2235C37.2372 20.718 37.6342 21.305 37.9086 21.9452C38.0487 22.2713 38.1558 22.6492 38.0164 22.975C37.9006 23.2468 37.64 23.4248 37.3874 23.5743C36.7919 23.9293 36.1611 24.2239 35.5072 24.4523C35.3299 24.5151 35.1376 24.5703 34.9478 24.5996C35.0186 24.7073 35.0996 24.8052 35.2023 24.8829C35.607 25.1885 36.1804 25.0707 36.6592 24.9025C37.3131 24.6741 37.9439 24.3796 38.5394 24.0245C38.7928 23.873 39.0533 23.6951 39.1684 23.4252C39.3072 23.0981 39.2007 22.7215 39.0606 22.3954C38.7481 21.6681 38.2789 21.0087 37.6935 20.4783Z" fill="#4B9EBF"/>
<path opacity="0.36" d="M34.628 22.867C34.7057 23.1899 34.932 23.5211 35.2627 23.5497C35.3827 23.5601 35.5136 23.5209 35.5787 23.4194C35.6878 23.2476 35.5514 23.0331 35.5017 22.8349C35.4422 22.5954 35.528 22.3263 35.7145 22.1654C35.851 22.0481 36.0302 21.9893 36.1738 21.88C36.4058 21.7041 36.4399 21.3988 36.1509 21.2781C35.9561 21.1965 35.5028 21.3805 35.3145 21.4683C34.7801 21.7236 34.4878 22.2846 34.628 22.867Z" fill="white"/>
<path opacity="0.36" d="M21.0668 26.7041C21.1506 27.8981 21.2621 29.171 21.997 30.1166C22.0985 30.2475 22.3219 30.3615 22.3993 30.2164C22.4193 30.1789 22.4195 30.1345 22.4171 30.0913C22.3999 29.8267 22.2694 29.5864 22.1902 29.3332C22.1111 29.08 22.092 28.7769 22.2694 28.5793C22.4814 28.3407 22.8532 28.3728 23.1727 28.364C23.4809 28.3556 23.7877 28.2888 24.0729 28.1698C24.3388 28.0584 24.6211 27.8224 24.5571 27.5423C24.509 27.3302 24.2797 27.2108 24.0648 27.1699C23.8499 27.129 23.6233 27.1364 23.4246 27.0467C23.226 26.957 23.0682 26.7148 23.1704 26.5217C23.2471 26.3786 23.424 26.3291 23.5833 26.3011C24.6056 26.1114 25.6698 26.1449 26.6659 25.8411C26.8109 25.797 26.9574 25.7422 27.0645 25.6355C27.1709 25.5274 27.2236 25.3546 27.1506 25.2216C27.0789 25.0914 26.9172 25.045 26.7703 25.0227C26.2817 24.9524 25.786 25.0366 25.2951 25.0858C24.3916 25.1763 23.4767 25.1458 22.5829 24.9936C22.2269 24.9326 21.8321 24.8244 21.6526 24.512C21.541 24.3186 21.4154 23.8361 21.0931 24.0466C20.9175 24.1612 20.9791 24.4605 20.9817 24.6252C20.9948 25.3172 21.0191 26.0121 21.0668 26.7041Z" fill="white"/>
<path opacity="0.36" d="M45.6425 12.9827C45.7246 12.7647 45.8022 12.5405 45.9506 12.3616C46.0984 12.1814 46.332 12.054 46.5601 12.1018C46.7915 12.1497 46.9506 12.3567 47.1395 12.4986C47.3756 12.674 47.6669 12.7509 47.9409 12.8574C48.5917 13.1102 49.1669 13.5534 49.579 14.1168C49.6416 14.2037 49.7045 14.3085 49.6706 14.41C49.6217 14.5597 49.4083 14.574 49.2656 14.5087C48.9656 14.3718 48.6968 14.0099 48.3915 14.1352C48.1899 14.2194 48.1304 14.4678 48.0447 14.6678C47.9576 14.8685 47.7186 15.0642 47.5439 14.9352C47.4877 14.8929 47.4545 14.8265 47.4367 14.7577C47.3805 14.5495 47.4375 14.3269 47.4053 14.1138C47.3732 13.9007 47.1773 13.675 46.9746 13.7499C46.8903 13.7801 46.8324 13.8553 46.7797 13.9279C46.5488 14.2478 46.365 14.6012 46.1649 14.9411C45.1657 16.6329 43.704 18.0498 41.9817 18.9974C41.8072 19.0934 41.5396 19.1597 41.4483 18.9812C41.3711 18.829 41.5192 18.66 41.6651 18.5727C42.5833 18.0184 43.3479 16.9884 43.9636 16.1292C44.6547 15.1587 45.2227 14.0988 45.6425 12.9827Z" fill="white"/>
</g>
<defs>
<clipPath id="clip0">
<rect width="73.7045" height="75.3608" fill="white" transform="translate(0 31.6141) rotate(-25.3997)"/>
</clipPath>
</defs>
</svg>
