<svg width="103" height="76" viewBox="0 0 103 76" fill="none" xmlns="http://www.w3.org/2000/svg">
<g clip-path="url(#clip0)">
<path d="M7.6543 26.0037L4.33473 41.7174L24.6267 60.9411L28.9927 40.2739L7.6543 26.0037Z" fill="#5BBDEF"/>
<path d="M28.9919 40.2737L96.7179 43.415L92.9025 61.4758L24.6259 60.9409L28.9919 40.2737Z" fill="#4EA4C6"/>
<path d="M28.9923 40.2737L30.4149 33.5397L7.86914 19.5583L6.61588 25.4908L28.9923 40.2737Z" fill="#5BBDEF"/>
<path d="M30.4151 33.5396L98.8611 38.7806L97.7823 43.8872L28.9925 40.2736L30.4151 33.5396Z" fill="#4EA4C6"/>
<path d="M7.86875 19.5584C8.55546 19.673 79.126 27.7188 79.126 27.7188L98.8615 38.7809L30.4155 33.54L7.86875 19.5584Z" fill="#62D5EF"/>
<path d="M96.631 43.8265L28.9919 40.2737L28.5937 42.1586C28.5937 42.1586 77.2194 44.5907 85.1326 46.1146C93.0468 47.6388 95.5724 48.8375 95.5724 48.8375L96.631 43.8265Z" fill="#428EA5"/>
<path d="M28.9927 40.2739L7.6543 26.0037L7.39083 27.2508L28.5945 42.1587L28.9927 40.2739Z" fill="#4EA4C6"/>
<path d="M44.3959 32.4911C46.0157 32.9871 47.7567 32.924 49.4325 32.6659C51.8999 32.2846 54.3033 31.4875 56.5133 30.3164C57.219 29.943 57.9263 29.524 58.7154 29.4126C59.8988 29.247 61.0727 29.8067 62.0113 30.5459C62.9506 31.2862 63.7317 32.2101 64.6643 32.9582C66.6553 34.5542 69.2542 35.2571 71.8043 35.2804C72.7726 35.2894 73.9324 35.077 74.3095 34.1788C74.5639 33.5735 74.336 32.85 73.9104 32.3527C73.4839 31.8551 72.8913 31.5395 72.3074 31.245C70.9065 30.5375 69.4766 29.8901 68.0455 29.2486C65.0826 27.9198 62.0509 26.6 58.8245 26.2454C55.238 25.8503 51.6416 26.6715 48.0458 26.9916C46.7309 27.109 45.4037 27.1597 44.1159 27.455C43.3911 27.6217 42.6785 27.8695 42.0278 28.2362C41.6818 28.431 41.3512 28.6586 41.0542 28.9239C40.6783 29.2601 40.6496 29.3528 40.897 29.8023C41.6298 31.1316 42.9693 32.0532 44.3959 32.4911Z" fill="#4EA4C6"/>
<path d="M19.6482 26.8638L88.8649 33.1783L85.9801 31.5614L16.0685 24.6439L19.6482 26.8638Z" fill="#C385FF"/>
<path d="M66.5826 36.2277L44.6288 23.7822C44.6288 23.7822 49.0626 24.289 49.3109 24.317C49.5592 24.345 71.9709 36.7223 71.9709 36.7223L66.5826 36.2277Z" fill="#C385FF"/>
<path d="M54.2974 30.0856L55.9005 30.1717C55.9005 30.1717 58.8243 31.8293 58.9402 31.8946C59.0558 31.9608 68.7662 34.9533 68.6347 34.8807C68.5022 34.8079 59.2564 29.5921 59.2564 29.5921C59.2564 29.5921 56.5232 28.7916 56.4473 28.801C56.3723 28.8107 54.2974 30.0856 54.2974 30.0856Z" fill="#6748A3"/>
<path d="M70.2685 13.4082C68.9229 13.3786 67.5929 13.8208 66.4298 14.5041C65.2665 15.1884 64.2544 16.1062 63.3208 17.0835C60.3104 20.2316 58.0174 24.0682 56.667 28.217C56.5165 28.6802 56.3756 29.1791 56.5074 29.648C56.7538 30.5241 57.8025 30.876 58.7081 30.9227C60.442 31.013 62.1692 30.4876 63.6987 29.6566C65.228 28.8266 66.578 27.7 67.8601 26.5203C69.3046 25.1906 70.6881 23.7706 71.7514 22.1169C72.2598 21.3259 72.698 20.4691 72.8653 19.5429C72.9846 18.8825 72.9627 18.2046 72.9095 17.5363C72.7582 15.6495 72.6548 13.459 70.2685 13.4082Z" fill="#6748A3"/>
<path d="M69.7928 20.0815C71.091 18.3032 71.9134 16.0883 71.7744 13.8893C73.9702 15.1772 75.3401 17.7045 75.953 20.1147C76.5662 22.5238 76.5444 25.0525 76.3593 27.5345C76.3165 28.1061 76.2417 28.7289 75.833 29.1295C75.6686 29.2893 75.464 29.3999 75.2606 29.5046C70.6607 31.8689 65.2829 32.6621 60.2099 31.7248C59.4 31.5751 58.5953 31.3817 57.8217 31.0981C57.3565 30.9275 56.876 30.6997 56.6161 30.276C55.8857 29.0837 57.5268 28.8223 58.2666 28.5416C59.3546 28.1277 60.4194 27.6508 61.4511 27.1099C63.5217 26.0235 65.4634 24.6745 67.1651 23.062C68.1277 22.1489 69.0113 21.154 69.7928 20.0815Z" fill="#A96CFF"/>
<path d="M47.7986 11.0225C49.1215 11.2703 50.3307 11.975 51.3279 12.8824C52.3251 13.7898 53.1234 14.8956 53.8347 16.0441C56.127 19.742 57.5739 23.9663 58.0352 28.3022C58.0868 28.7868 58.1205 29.3032 57.8935 29.735C57.4709 30.5421 56.3713 30.6704 55.4762 30.5312C53.7615 30.2637 52.1799 29.3948 50.8563 28.2688C49.5326 27.1427 48.4446 25.7638 47.4346 24.3465C46.2965 22.7492 45.2385 21.0752 44.5408 19.239C44.2069 18.3607 43.9563 17.4327 43.985 16.4915C44.0052 15.8204 44.1676 15.1621 44.3582 14.5188C44.8984 12.7047 45.4537 10.5841 47.7986 11.0225Z" fill="#6748A3"/>
<path d="M46.8797 17.651C45.9789 15.6445 45.6338 13.3092 46.2261 11.1863C43.8101 11.995 41.9442 14.1881 40.8449 16.4199C39.7455 18.6517 39.2412 21.1304 38.9076 23.5963C38.8312 24.1638 38.775 24.7896 39.092 25.264C39.2188 25.4548 39.3968 25.6044 39.5751 25.748C43.5848 29.0051 48.6828 30.8837 53.8415 31.0079C54.6656 31.0282 55.492 31.0041 56.3082 30.8842C56.7993 30.8127 57.3166 30.6888 57.6583 30.327C58.6206 29.31 57.0695 28.7185 56.4032 28.2915C55.4239 27.664 54.481 26.9789 53.5844 26.2374C51.7834 24.7487 50.1634 23.0313 48.8337 21.1043C48.0805 20.0152 47.4223 18.8596 46.8797 17.651Z" fill="#A96CFF"/>
<path d="M65.5565 26.6437C66.0158 26.4158 66.4739 26.1886 66.9332 25.9607C66.9268 26.322 66.6122 26.5937 66.3204 26.8051C64.7498 27.9411 63.0088 28.8384 61.1747 29.4573C61.4252 29.772 61.8992 29.7479 62.2971 29.6955C63.9483 29.4769 65.5984 29.2592 67.2497 29.0406C66.2699 29.3786 65.2904 29.7156 64.3106 30.0536C64.6388 30.1922 65.0079 30.1754 65.3634 30.1558C66.3542 30.1013 67.346 30.047 68.337 29.9915C67.0333 30.7408 65.532 31.0837 64.0358 31.1914C62.5396 31.2991 61.0383 31.1816 59.543 31.0643C59.0898 31.0287 58.6029 30.9798 58.2577 30.6818C58.1027 30.5482 57.9831 30.3569 57.9859 30.1517C57.9894 29.8092 58.3064 29.5644 58.5922 29.3763C59.0078 29.1014 59.4104 28.7342 59.8919 28.6027C60.5387 28.4266 61.2268 28.41 61.8799 28.2139C63.1568 27.8307 64.3713 27.2449 65.5565 26.6437Z" fill="#6748A3"/>
<path d="M51.3771 26.7286C50.2059 26.2327 49.125 25.549 48.0504 24.8687C47.5155 24.5296 46.9803 24.1914 46.4454 23.8523C46.3152 24.3341 46.7595 24.762 47.1639 25.0481C48.3771 25.9064 49.6784 26.6397 51.0393 27.2348C50.1433 27.1668 49.2549 26.9954 48.3974 26.7256C48.5882 27.1886 49.137 27.3616 49.6155 27.4984C50.9287 27.8736 52.2047 28.3815 53.4161 29.0133C53.0223 29.5973 52.1782 29.5901 51.4831 29.4962C49.95 29.2895 48.4323 28.9719 46.9455 28.5458C46.825 28.9196 47.3153 29.1729 47.6971 29.2546C50.2189 29.7904 52.7545 30.3281 55.3309 30.4282C55.8702 30.4495 56.5297 30.381 56.7584 29.8884C56.9631 29.4468 56.6815 28.934 56.354 28.5766C55.7605 27.9297 55.158 27.4836 54.2933 27.4303C53.2798 27.3669 52.3114 27.1236 51.3771 26.7286Z" fill="#6748A3"/>
<path d="M54.6083 27.2983C54.0382 28.4054 54.3326 29.8977 55.2945 30.6795C55.6445 30.9643 56.0629 31.1555 56.4936 31.2883C57.7425 31.6753 59.2855 31.4991 60.0894 30.4599C60.7081 29.6596 60.7356 28.4797 60.2458 27.596C59.1197 25.5633 55.7904 25.0005 54.6083 27.2983Z" fill="#A96CFF"/>
<path d="M60.336 29.2895C59.5331 30.329 57.99 30.5052 56.7401 30.1179C56.3094 29.9851 55.8913 29.7929 55.5411 29.5091C54.9457 29.0247 54.607 28.2697 54.5687 27.5017C54.5657 27.5062 54.5635 27.5118 54.5605 27.5163C53.9905 28.6233 54.2849 30.1156 55.2468 30.8974C55.5968 31.1822 56.0151 31.3735 56.4458 31.5062C57.6947 31.8933 59.2378 31.7171 60.0417 30.6778C60.4109 30.2007 60.5696 29.5884 60.5332 28.9838C60.4772 29.0911 60.411 29.1933 60.336 29.2895Z" fill="#6748A3"/>
<path opacity="0.33" d="M42.1032 16.6266C41.5663 18.0034 41.1582 19.4319 40.8847 20.8847C40.805 21.31 40.7388 21.7625 40.9004 22.1623C40.9502 22.2859 41.0333 22.4104 41.1604 22.4464C41.4 22.5154 41.5963 22.2523 41.6964 22.0229C42.0719 21.1661 42.248 20.2366 42.5627 19.3558C42.8783 18.4752 43.3721 17.6047 44.1787 17.1374C44.4891 16.9575 44.8433 16.8388 45.0982 16.586C45.7603 15.9304 45.8932 13.6808 44.5912 13.7083C43.299 13.7368 42.488 15.6394 42.1032 16.6266Z" fill="white"/>
<path opacity="0.33" d="M40.1415 24.9448C40.1907 25.1671 40.2733 25.428 40.4922 25.4895C40.7559 25.5646 40.9817 25.2914 41.1082 25.0472C41.2282 24.8148 41.3359 24.5687 41.3456 24.3069C41.3603 23.9067 41.0104 23.3866 40.5726 23.4601C39.9129 23.5724 40.0444 24.5077 40.1415 24.9448Z" fill="white"/>
<path d="M24.6261 60.9409L31.9329 49.1376L33.0938 61.0337L24.6261 60.9409Z" fill="#9DC11A"/>
<path d="M33.2001 61.0031L40.5061 49.1986L41.6668 61.0958L33.2001 61.0031Z" fill="#9DC11A"/>
<path d="M41.7677 61.0875L49.0745 49.2842L50.2354 61.1803L41.7677 61.0875Z" fill="#9DC11A"/>
<path d="M50.3237 61.1421L57.5183 49.5198L58.8254 61.2085L50.3237 61.1421Z" fill="#9DC11A"/>
<path d="M58.8259 61.2086L65.9766 49.6555L67.196 61.2747L58.8259 61.2086Z" fill="#9DC11A"/>
<path d="M67.1962 61.2747L74.4387 49.7756L75.7604 61.3421L67.1962 61.2747Z" fill="#9DC11A"/>
<path d="M75.7602 61.342L82.9276 49.7619L84.4297 61.4092L75.7602 61.342Z" fill="#9DC11A"/>
<path d="M84.43 61.4093L91.6418 50.0555L92.9033 61.4758L84.43 61.4093Z" fill="#9DC11A"/>
<path d="M24.626 60.941C24.5966 60.73 23.7637 46.1977 23.7637 46.1977L19.9057 56.4693L18.4241 43.2535L14.6082 51.4509L13.8854 39.4222L10.3056 47.3751L9.8782 36.6709L6.25876 43.5408C6.25876 43.5408 6.94906 34.2858 6.92702 34.3901C6.90498 34.4945 4.33481 41.7185 4.33481 41.7185L24.626 60.941Z" fill="#E5F41E"/>
<path d="M16.0693 24.6439L10.6415 47.6914L14.0031 50.8768L19.649 26.8639L16.0693 24.6439Z" fill="#A96CFF"/>
<path d="M66.5817 36.2277L61.3003 61.2282L66.785 61.2715L71.971 36.7225L66.5817 36.2277Z" fill="#6748A3"/>
</g>
<defs>
<clipPath id="clip0">
<rect width="93" height="56" fill="white" transform="translate(11.791 0.99353) rotate(11.9285)"/>
</clipPath>
</defs>
</svg>
