<svg width="357" height="325" viewBox="0 0 357 325" fill="none" xmlns="http://www.w3.org/2000/svg">
<path d="M23.7519 309.612C21.2213 312.139 9.33735 319.21 23.7519 324.008C38.1664 328.807 100.629 314.411 100.629 317.61C100.629 320.809 163.092 325.608 191.921 317.61C220.751 309.612 251.181 298.415 263.994 284.019C276.807 269.623 291.222 248.829 304.035 244.03C316.847 239.231 312.043 232.833 328.059 212.039C344.075 191.244 355.286 204.041 355.286 184.846C355.286 165.651 356.888 152.855 321.652 165.651C286.417 178.448 26.9551 306.413 23.7519 309.612Z" fill="#E2E2E2"/>
<path d="M206.736 117.488C206.736 117.488 190.576 126.846 173.231 142.921C170.204 145.721 165.511 145.689 162.516 142.857C154.972 135.739 141.086 123.215 131.06 117.664C119.512 111.266 107.036 114.465 105.434 128.861C103.833 143.257 151.881 173.649 155.084 173.649C158.288 173.649 185.515 170.45 196.726 165.651C207.938 160.852 214.344 152.855 214.344 152.855" fill="white"/>
<path d="M155.084 175.249C151.545 175.249 123.821 157.445 111.056 143.209C105.771 137.307 103.416 132.556 103.849 128.685C104.794 120.255 109.022 116.4 112.401 114.657C117.847 111.842 124.942 112.434 131.845 116.273C142.047 121.935 156.141 134.636 163.621 141.706C166.007 143.961 169.755 143.977 172.158 141.754C189.439 125.742 205.792 116.193 205.952 116.097C206.72 115.649 207.697 115.921 208.146 116.672C208.594 117.44 208.322 118.416 207.569 118.864C207.409 118.96 191.345 128.333 174.352 144.089C170.716 147.448 165.062 147.416 161.443 144.009C154.059 137.051 140.205 124.542 130.307 119.04C124.445 115.777 118.295 115.201 113.891 117.472C110.031 119.456 107.661 123.455 107.052 129.005C105.643 141.722 150.552 171.074 155.245 172.033C157.919 172.017 185.179 168.834 196.118 164.148C206.833 159.557 213.047 151.895 213.111 151.815C213.671 151.127 214.664 151.015 215.369 151.559C216.058 152.119 216.17 153.111 215.625 153.814C215.353 154.15 208.835 162.18 197.383 167.075C185.803 172.065 158.079 175.249 155.084 175.249Z" fill="black"/>
<path d="M204.734 140.058C204.734 143.257 132.662 175.249 111.841 205.64C91.0197 236.032 132.662 293.617 159.889 298.415C187.117 303.214 233.756 283.683 247.978 272.822C275.205 252.028 315.246 191.244 321.652 165.651" fill="white"/>
<path d="M169.195 300.767C165.815 300.767 162.596 300.527 159.601 299.999C142.688 297.024 120.538 274.678 110.223 250.188C102.647 232.209 102.76 216.069 110.511 204.761C125.47 182.91 166.568 160.245 188.638 148.072C195.557 144.249 202.108 140.65 203.229 139.498C203.469 138.906 204.046 138.491 204.718 138.491C205.599 138.491 206.32 139.21 206.32 140.09C206.32 141.802 204.959 142.713 190.176 150.871C168.33 162.916 127.681 185.358 113.138 206.568C106.027 216.965 106.027 232.017 113.154 248.957C122.924 272.15 144.434 294.096 160.129 296.864C187.293 301.646 233.772 281.652 246.969 271.574C274.164 250.796 313.756 190.492 320.067 165.283C320.275 164.419 321.14 163.908 322.005 164.116C322.87 164.324 323.382 165.203 323.174 166.051C316.751 191.692 276.535 253.004 248.923 274.102C235.389 284.451 196.886 300.767 169.195 300.767Z" fill="black"/>
<path d="M122.492 226.003C122.492 226.003 111.841 236.032 78.2069 210.439C44.5729 184.846 41.3697 122.463 47.7762 108.067C54.1826 93.6706 60.5891 92.0711 68.5972 95.2702C76.6053 98.4693 78.2069 127.166 78.2069 140.058C78.2069 157.653 81.2499 200.858 115.765 205.64" fill="white"/>
<path d="M115.332 229.506C108.301 229.506 96.2731 226.195 77.2299 211.703C42.7952 185.502 39.608 122.447 46.3027 107.411C52.3408 93.8626 59.1797 89.7837 69.1898 93.7826C79.296 97.8135 79.8085 133.036 79.8085 140.058C79.8085 162.084 84.5012 199.69 115.989 204.057C116.87 204.185 117.478 204.985 117.35 205.864C117.222 206.744 116.421 207.352 115.541 207.224C81.6664 202.521 76.6053 163.124 76.6053 140.042C76.6053 120.239 73.6583 98.9972 68.0046 96.7418C60.9575 93.9266 55.3678 94.9503 49.2497 108.707C43.0034 122.735 46.559 184.334 79.1839 209.159C110.864 233.265 121.306 224.931 121.402 224.835C122.043 224.227 123.068 224.259 123.661 224.899C124.269 225.539 124.237 226.563 123.597 227.154C123.372 227.378 120.97 229.506 115.332 229.506Z" fill="black"/>
<path d="M145.475 175.249C145.475 175.249 86.2148 181.647 60.589 188.045C34.9631 194.443 9.3373 269.623 12.5405 279.22C15.7438 288.818 25.3534 292.017 31.7599 287.218C36.1003 283.971 53.3817 263.193 63.7922 247.229C68.9334 239.359 77.9505 230.977 87.1438 232.977L123.052 240.831" fill="white"/>
<path d="M25.1613 291.025C23.864 291.025 22.5507 290.817 21.2374 290.417C16.5126 288.946 12.7808 285.043 11.003 279.732C8.74477 272.982 18.5787 240.559 31.7279 216.661C38.4227 204.473 48.8012 189.341 60.1886 186.51C85.6223 180.159 144.69 173.745 145.282 173.681C146.163 173.585 146.948 174.225 147.044 175.105C147.14 175.984 146.5 176.768 145.619 176.864C145.026 176.928 86.1668 183.326 60.9414 189.629C52.8212 191.66 43.676 201.545 34.5148 218.213C20.6608 243.422 12.3964 273.846 14.0301 278.741C15.4716 283.075 18.4506 286.227 22.1823 287.394C25.1773 288.322 28.3165 287.81 30.767 285.971C34.9632 282.835 52.1806 262.089 62.4149 246.381C68.0366 237.744 77.5662 229.298 87.4481 231.441L123.356 239.295C124.221 239.487 124.766 240.335 124.574 241.199C124.381 242.062 123.533 242.606 122.668 242.414L86.7594 234.56C78.4631 232.769 69.9104 240.735 65.1056 248.109C54.5189 264.344 37.1574 285.155 32.6889 288.498C30.4947 290.161 27.8681 291.025 25.1613 291.025Z" fill="black"/>
<path d="M126.255 258.426C126.255 258.426 95.8246 268.023 76.6053 272.822C57.3859 277.621 14.1423 280.82 4.53256 293.617C-0.272281 300.015 -5.07713 320.809 41.3697 317.61C87.8166 314.411 102.231 308.013 111.841 309.612C121.45 311.212 183.913 314.411 222.352 285.619" fill="white"/>
<path d="M32.1765 319.546C15.7439 319.546 5.47753 315.93 1.56959 308.764C-1.44144 303.246 0.336348 296.544 3.25129 292.657C10.6507 282.803 35.0594 278.661 56.6011 275.014C64.0486 273.75 71.0797 272.55 76.2209 271.271C95.168 266.536 125.471 257.002 125.775 256.906C126.624 256.635 127.521 257.114 127.777 257.946C128.049 258.794 127.569 259.69 126.736 259.946C126.432 260.042 96.0329 269.607 76.9896 274.374C71.7364 275.685 64.6412 276.885 57.1296 278.165C37.2215 281.54 12.4285 285.747 5.79786 294.576C4.13218 296.8 1.68171 302.302 4.37242 307.245C7.07915 312.219 15.6638 317.786 41.2576 316.01C66.6112 314.267 82.5312 311.532 93.0538 309.74C102.055 308.205 107.484 307.261 112.097 308.029C122.54 309.756 183.593 312.651 221.391 284.339C222.096 283.811 223.105 283.955 223.634 284.659C224.162 285.363 224.018 286.37 223.313 286.898C184.602 315.898 122.251 312.971 111.585 311.196C107.5 310.524 102.279 311.42 93.6144 312.891C83.0277 314.699 67.0116 317.45 41.4979 319.21C38.1825 319.434 35.0754 319.546 32.1765 319.546Z" fill="black"/>
<path d="M144.978 178.928C143.28 194.875 140.51 258.762 199.85 292.001C202.588 293.537 202.508 297.503 199.737 298.959C191.873 303.086 177.843 309.66 163.076 312.827C146.724 316.33 115.973 313.819 107.58 313.035C106.219 312.907 105.034 312.108 104.425 310.892C101.382 304.893 92.221 286.227 89.242 272.822C88.8416 271.047 89.7545 269.255 91.3881 268.439C95.3601 266.472 102.231 262.073 102.231 255.243C102.231 245.646 97.4262 236.048 89.4181 232.849C82.7554 230.194 79.4241 197.627 78.4791 186.765C78.3029 184.766 79.6483 182.958 81.6023 182.543C90.2029 180.703 112.529 175.984 118.231 175.281C128.946 173.937 135.192 173.729 141.631 174.625C143.729 174.881 145.202 176.816 144.978 178.928Z" fill="#F5BB2E"/>
<path d="M139.629 316.218C126.271 316.218 112.882 315.115 107.436 314.619C105.53 314.443 103.865 313.307 103 311.596C100.181 306.029 90.7154 286.818 87.6724 273.142C87.1278 270.663 88.3451 268.135 90.6674 266.984C94.3831 265.144 100.613 261.145 100.613 255.227C100.613 245.693 95.7605 237.088 88.8095 234.321C82.0827 231.633 78.6072 207.048 76.8775 186.877C76.6372 184.078 78.5272 181.535 81.2659 180.943C90.4111 178.992 112.289 174.369 118.039 173.649C129.154 172.257 135.384 172.097 141.855 172.993C144.77 173.393 146.884 176.128 146.58 179.072C144.658 197.051 142.88 258.234 200.634 290.577C202.428 291.585 203.485 293.425 203.453 295.488C203.421 297.535 202.284 299.391 200.474 300.351C193.171 304.19 178.644 311.1 163.413 314.363C156.942 315.771 148.294 316.218 139.629 316.218ZM133.655 175.648C129.587 175.648 124.846 176.032 118.439 176.832C112.658 177.552 89.0498 182.559 81.9386 184.078C80.7694 184.334 79.9686 185.406 80.0647 186.605C82.2269 211.863 86.2309 229.842 89.9947 231.345C98.1309 234.592 103.817 244.414 103.817 255.227C103.817 262.889 96.4652 267.672 92.0928 269.847C91.0998 270.343 90.5713 271.415 90.7955 272.454C93.7585 285.763 103.064 304.67 105.851 310.14C106.219 310.86 106.924 311.34 107.741 311.42C116.598 312.235 146.724 314.667 162.756 311.228C177.603 308.045 191.841 301.262 199.001 297.503C199.785 297.088 200.25 296.32 200.266 295.44C200.282 294.56 199.833 293.792 199.081 293.361C139.613 260.058 141.423 197.195 143.409 178.736C143.537 177.488 142.656 176.336 141.423 176.16C138.908 175.824 136.442 175.648 133.655 175.648Z" fill="#0F0404"/>
<path d="M291.222 224.835C291.222 224.835 289.38 233.249 295.098 236.24L291.222 224.835Z" fill="white"/>
<path d="M295.098 237.84C294.842 237.84 294.601 237.776 294.361 237.664C287.618 234.145 289.572 224.883 289.652 224.499C289.845 223.635 290.693 223.092 291.558 223.284C292.423 223.475 292.968 224.323 292.775 225.187C292.743 225.315 291.286 232.465 295.835 234.832C296.619 235.248 296.924 236.208 296.507 236.992C296.235 237.536 295.674 237.84 295.098 237.84Z" fill="black"/>
<path d="M304.035 224.835C304.035 224.835 304.035 236.032 299.23 236.032L304.035 224.835Z" fill="white"/>
<path d="M299.23 237.632C298.349 237.632 297.628 236.912 297.628 236.032C297.628 235.152 298.349 234.433 299.23 234.433C301.488 234.433 302.433 228.178 302.433 224.835C302.433 223.955 303.154 223.236 304.035 223.236C304.916 223.236 305.636 223.955 305.636 224.835C305.636 226.147 305.444 237.632 299.23 237.632Z" fill="black"/>
<path d="M206.736 117.488C206.736 117.488 191.921 117.664 179.108 132.06C179.108 132.06 181.527 140.058 191.521 148.056L135.865 172.049C135.865 172.049 137.466 282.42 206.336 301.614C206.336 301.614 275.205 279.22 296.026 223.236C316.847 167.251 326.457 148.056 328.059 148.056C329.66 148.056 328.908 114.513 326.457 109.666" fill="white"/>
<path d="M206.336 303.214C206.192 303.214 206.048 303.198 205.904 303.15C177.187 295.152 155.693 269.879 143.745 230.082C134.776 200.218 134.279 172.337 134.263 172.065C134.247 171.426 134.632 170.834 135.224 170.578L188.51 147.608C179.909 139.994 177.667 132.844 177.571 132.524C177.411 131.996 177.539 131.42 177.907 131.005C191.041 116.257 206.08 115.905 206.72 115.889C207.617 115.921 208.322 116.592 208.338 117.472C208.354 118.352 207.633 119.072 206.752 119.088C206.512 119.088 192.898 119.504 180.95 132.412C181.847 134.572 184.89 140.698 192.53 146.808C192.962 147.16 193.187 147.72 193.123 148.264C193.043 148.824 192.69 149.304 192.178 149.512L137.515 173.073C137.931 184.382 143.409 281.908 206.304 299.919C212.278 297.839 275.109 274.902 294.537 222.66C303.762 197.85 311.802 177.568 317.792 163.988C323.398 151.303 325.64 147.784 326.906 146.808C327.77 142.553 327.194 114.657 325.032 110.37C324.631 109.586 324.952 108.627 325.736 108.227C326.537 107.827 327.482 108.147 327.883 108.93C330.205 113.537 331.566 145.529 329.58 148.744C329.356 149.112 329.036 149.384 328.651 149.528C326.906 151.415 318.337 167.779 297.516 223.779C276.663 279.844 207.521 302.894 206.816 303.118C206.656 303.182 206.496 303.214 206.336 303.214Z" fill="black"/>
<path d="M201.531 140.058C201.531 140.058 199.93 144.857 191.922 148.056L201.531 140.058Z" fill="white"/>
<path d="M191.922 149.655C191.281 149.655 190.688 149.272 190.432 148.648C190.096 147.832 190.496 146.904 191.329 146.568C198.44 143.721 199.994 139.594 200.01 139.546C200.282 138.714 201.195 138.251 202.028 138.538C202.861 138.81 203.325 139.722 203.037 140.554C202.957 140.778 201.099 146.088 192.498 149.528C192.322 149.623 192.114 149.655 191.922 149.655Z" fill="black"/>
<path d="M318.065 149.671C273.78 168.45 284.174 206.008 281.051 215.878C277.928 225.763 288.13 239.599 303.97 235.648C319.81 231.697 314.861 208.967 316.831 204.025C318.817 199.082 314.845 184.254 325.736 180.303C336.627 176.352 360.475 180.559 354.437 158.565L344.075 140.058" fill="white"/>
<path d="M298.509 237.936C292.887 237.936 287.778 235.808 283.95 231.761C279.578 227.123 277.848 220.708 279.514 215.398C280.09 213.59 280.154 210.407 280.25 206.712C280.603 191.628 281.259 163.54 317.44 148.2C318.241 147.864 319.202 148.232 319.538 149.048C319.89 149.863 319.506 150.807 318.689 151.143C284.415 165.683 283.822 191.404 283.454 206.792C283.358 210.887 283.277 214.134 282.573 216.373C281.243 220.596 282.701 225.779 286.273 229.57C290.565 234.113 296.859 235.776 303.57 234.097C314.157 231.457 314.413 219.445 314.589 210.679C314.653 207.48 314.717 204.969 315.326 203.417C315.79 202.233 315.87 199.994 315.95 197.627C316.159 191.02 316.447 181.951 325.176 178.784C328.027 177.744 331.566 177.264 335.298 176.752C342.217 175.808 349.392 174.817 352.323 170.354C354.053 167.747 354.245 164.084 352.916 159.157L342.649 140.826C342.217 140.058 342.489 139.082 343.258 138.65C344.027 138.219 345.004 138.491 345.436 139.258L355.799 157.765C355.863 157.877 355.911 158.005 355.943 158.117C357.576 164.084 357.272 168.658 354.982 172.113C351.234 177.776 342.986 178.912 335.714 179.919C332.143 180.415 328.779 180.879 326.249 181.791C319.554 184.222 319.33 191.404 319.122 197.722C319.042 200.49 318.961 202.889 318.273 204.585C317.872 205.576 317.824 208.072 317.76 210.711C317.568 219.397 317.264 233.921 304.307 237.152C302.369 237.696 300.415 237.936 298.509 237.936Z" fill="black"/>
<path d="M326.457 114.465C326.457 114.465 339.03 111.426 347.278 132.06C349.873 138.554 353.685 159.253 353.685 159.253C353.685 159.253 336.067 144.857 321.652 148.056V140.058" fill="white"/>
<path d="M353.685 160.852C353.316 160.852 352.964 160.724 352.676 160.485C352.499 160.341 335.474 146.6 322.005 149.607C321.54 149.719 321.028 149.592 320.659 149.288C320.275 148.984 320.067 148.52 320.067 148.04V140.042C320.067 139.162 320.787 138.443 321.668 138.443C322.549 138.443 323.27 139.162 323.27 140.042V146.136C334.033 144.793 345.741 151.639 351.362 155.51C350.113 149.192 347.63 137.179 345.821 132.636C338.245 113.681 327.322 115.905 326.858 116.001C325.993 116.193 325.144 115.665 324.936 114.801C324.727 113.953 325.256 113.089 326.105 112.881C326.665 112.737 340.135 109.762 348.784 131.436C351.394 137.995 355.126 158.085 355.27 158.933C355.398 159.589 355.094 160.261 354.517 160.597C354.245 160.772 353.957 160.852 353.685 160.852Z" fill="black"/>
<path d="M307.894 127.773C295.834 135.819 281.195 140.602 266.172 140.602C250.156 140.602 234.652 136.907 221.968 129.581C203.533 118.96 191.04 100.677 191.537 75.0037C192.498 25.3531 223.361 1.59956 262.617 1.59956C301.872 1.59956 333.088 35.2704 337.252 69.5812C338.757 81.9458 336.003 93.7026 330.269 103.956L325.48 110.402" fill="white"/>
<path d="M266.172 142.202C249.467 142.202 233.9 138.315 221.167 130.973C200.554 119.088 189.455 99.2051 189.935 74.9717C190.832 28.7282 218.684 0 262.617 0C304.499 0 334.802 36.0222 338.854 69.3892C340.327 81.4819 337.845 93.7026 331.678 104.74C331.646 104.804 331.614 104.852 331.566 104.916L326.777 111.362C326.249 112.066 325.256 112.226 324.535 111.698C323.83 111.17 323.67 110.162 324.199 109.458L328.924 103.092C334.721 92.6789 337.044 81.162 335.666 69.7731C331.774 37.7498 302.753 3.19913 262.617 3.19913C219.982 3.19913 194.003 30.0559 193.139 75.0357C192.69 98.0375 203.213 116.928 222.769 128.205C235.021 135.275 250.028 139.002 266.172 139.002C280.379 139.002 294.873 134.54 307.013 126.446C307.75 125.95 308.743 126.158 309.24 126.894C309.736 127.629 309.528 128.621 308.791 129.117C296.139 137.547 281.003 142.202 266.172 142.202Z" fill="#0C0805"/>
<path d="M251.87 93.3507C251.87 93.3507 250.701 91.6392 254.304 90.9994C257.908 90.3595 262.953 90.9674 263.049 92.7429C263.145 94.5184 260.31 96.2299 257.588 96.5978C254.865 96.9657 252.847 95.5261 251.87 93.3507Z" fill="#0C0805"/>
<path d="M268.447 108.883C262.312 108.883 257.043 105.603 256.29 104.324C255.409 102.836 255.538 98.8052 255.682 96.5339C255.746 95.6541 256.467 94.9983 257.379 95.0463C258.26 95.1102 258.933 95.862 258.869 96.7418C258.709 99.2211 258.789 101.876 259.029 102.644C260.086 103.572 265.612 106.659 271.265 105.379C276.583 104.18 280.619 99.541 283.278 91.5752C283.55 90.7434 284.463 90.2796 285.296 90.5675C286.128 90.8394 286.593 91.7512 286.305 92.5829C282.156 105.028 275.221 108.259 270.144 108.787C269.584 108.851 269.007 108.883 268.447 108.883Z" fill="#0C0805"/>
<path d="M249.98 109.602C248.378 109.602 246.889 109.266 245.816 108.851C244.999 108.531 244.583 107.603 244.903 106.787C245.223 105.971 246.152 105.555 246.969 105.875C247.594 106.115 253.215 108.083 255.538 102.692C255.89 101.876 256.835 101.493 257.636 101.844C258.453 102.196 258.821 103.14 258.485 103.94C256.611 108.339 253.071 109.602 249.98 109.602Z" fill="#0C0805"/>
<path d="M228.054 18.1071C220.446 6.20632 185.419 9.18151 185.419 9.18151C185.419 9.18151 193.027 31.5115 199.129 38.9495" fill="white"/>
<path d="M199.129 40.549C198.664 40.549 198.2 40.3411 197.879 39.9572C191.681 32.3752 184.218 10.6211 183.897 9.69338C183.737 9.22951 183.801 8.71764 184.074 8.30176C184.346 7.88587 184.794 7.62994 185.275 7.58195C186.748 7.45399 221.343 4.67074 229.383 17.2433C229.864 17.9951 229.639 18.9709 228.903 19.4507C228.15 19.9306 227.173 19.7067 226.692 18.9709C221.263 10.4772 198.328 9.9973 187.629 10.6211C189.631 16.1876 195.557 32.0713 200.362 37.9257C200.923 38.6136 200.826 39.6213 200.138 40.1811C199.833 40.4371 199.481 40.549 199.129 40.549Z" fill="#0C0805"/>
<path d="M217.387 30.0239C217.387 30.0239 218.14 30.5197 208.258 24.0735C199.129 18.1231 185.419 10.6691 185.419 10.6691" fill="white"/>
<path d="M217.403 31.6234C217.099 31.6234 216.794 31.5435 216.522 31.3675C216.522 31.3675 216.506 31.3675 216.506 31.3515C216.346 31.2396 215.113 30.4398 207.393 25.4011C198.408 19.5467 184.81 12.1407 184.666 12.0767C183.881 11.6609 183.593 10.6851 184.025 9.90133C184.458 9.11754 185.419 8.84561 186.204 9.2615C186.348 9.34148 200.074 16.7955 209.155 22.7299L216.939 27.8165C217.355 28.0884 217.723 28.3283 218.044 28.5683C218.124 28.6003 218.204 28.6483 218.284 28.6962L218.252 28.7282L218.284 28.6962L218.252 28.7282C219.053 29.3841 219.357 29.9759 218.748 30.9036C218.444 31.3675 217.932 31.6234 217.403 31.6234Z" fill="#0C0805"/>
<path d="M296.699 15.3399C296.699 15.3399 320.916 13.6443 325.48 15.1319C330.045 16.6195 325.48 45.9236 325.48 45.9236" fill="white"/>
<path d="M325.48 47.5231C325.4 47.5231 325.32 47.5231 325.24 47.5071C324.359 47.3792 323.766 46.5474 323.911 45.6836C326.137 31.3675 326.585 18.0591 324.904 16.6035C321.876 15.6278 306.437 16.2516 296.827 16.9234C295.946 16.9554 295.178 16.3156 295.113 15.4358C295.049 14.5561 295.722 13.7883 296.603 13.7243C299.118 13.5483 321.268 12.0607 325.993 13.5963C330.846 15.1799 329.26 32.1673 327.082 46.1635C326.938 46.9633 326.265 47.5231 325.48 47.5231Z" fill="#0C0805"/>
<path d="M290.469 35.9743C290.469 35.9743 305.7 21.0823 325.48 15.1319L290.469 35.9743Z" fill="white"/>
<path d="M290.469 37.5738C290.052 37.5738 289.636 37.4139 289.332 37.094C288.707 36.4701 288.723 35.4464 289.364 34.8386C290.004 34.2307 305.092 19.6107 325.032 13.6123C325.881 13.3564 326.777 13.8363 327.034 14.684C327.29 15.5318 326.81 16.4275 325.961 16.6835C306.789 22.4419 291.75 36.982 291.606 37.1259C291.27 37.4139 290.869 37.5738 290.469 37.5738Z" fill="#0C0805"/>
<path d="M234.941 154.038C234.557 154.038 234.188 153.91 233.9 153.654C213.559 136.187 205.231 119.088 204.895 118.368C204.51 117.568 204.847 116.624 205.647 116.241C206.448 115.857 207.393 116.193 207.778 116.992C207.858 117.168 216.042 133.916 235.422 150.759C242.613 149.607 301.84 139.306 325.192 110.29C325.753 109.602 326.746 109.49 327.45 110.05C328.139 110.61 328.251 111.618 327.691 112.306C302.129 144.057 237.888 153.654 235.165 154.054C235.085 154.022 235.021 154.038 234.941 154.038Z" fill="black"/>
<path d="M236.879 170.946C235.309 170.946 233.548 170.786 231.738 170.45C229.031 169.97 226.549 169.186 224.755 168.242C221.519 166.563 221.119 164.707 221.343 163.444C222.256 158.389 229.928 149.959 235.261 150.919H235.277C240.579 151.879 244.839 162.452 243.926 167.523C243.702 168.786 242.661 170.386 239.041 170.834C238.384 170.898 237.648 170.946 236.879 170.946ZM234.316 154.022C231.209 154.022 225.219 160.005 224.498 164.004C224.563 164.547 226.997 166.339 232.314 167.299C237.632 168.258 240.531 167.427 240.787 166.931C241.54 162.788 237.696 154.646 234.749 154.07C234.717 154.07 234.701 154.054 234.669 154.054C234.541 154.038 234.428 154.022 234.316 154.022Z" fill="#F5BB2E"/>
<path d="M291.221 221.636C291.221 229.634 295.786 236.448 295.097 236.24L291.221 221.636Z" fill="white"/>
<path d="M295.098 237.84C294.937 237.84 294.777 237.824 294.617 237.776C293.928 237.568 293.48 236.928 293.496 236.24C293.416 236.048 293.304 235.808 293.16 235.52C292.006 232.993 289.604 227.714 289.604 221.652C289.604 220.772 290.325 220.052 291.206 220.052C292.087 220.052 292.807 220.772 292.807 221.652C292.807 227.027 295.017 231.873 296.075 234.193C296.731 235.648 297.1 236.448 296.347 237.312C296.042 237.648 295.562 237.84 295.098 237.84Z" fill="black"/>
<path d="M300.831 221.636C300.831 221.636 301.552 233.921 306.005 234.976L300.831 221.636Z" fill="white"/>
<path d="M305.989 236.576C305.861 236.576 305.732 236.56 305.62 236.528C300.287 235.264 299.358 223.971 299.23 221.732C299.182 220.852 299.854 220.1 300.735 220.036C301.648 219.988 302.385 220.66 302.433 221.54C302.705 226.195 304.243 232.913 306.373 233.425C307.238 233.633 307.766 234.497 307.558 235.344C307.382 236.08 306.725 236.576 305.989 236.576Z" fill="black"/>
<path d="M90.6194 142.665L92.141 151.079L123.901 161.652L168.97 99.4771L167.353 90.5995L121.867 152.359L90.6194 142.665Z" fill="#D4D6DA"/>
<path d="M90.6194 142.665L136.298 80.8741L167.353 90.5995L121.867 152.359L90.6194 142.665Z" fill="#A5A6B7"/>
<path d="M134.936 82.7296L166.216 92.1511L146.115 119.424L115.044 109.634L134.936 82.7296Z" fill="#7B6DAE"/>
<path d="M131.957 86.5366L163.044 96.07L159.072 102.084L127.905 92.0871L131.957 86.5366Z" fill="#7491CA"/>
<path d="M116.902 109.586L136.618 83.1775L163.365 91.4952L143.745 117.872L116.902 109.586Z" fill="#D3D3D4"/>
<path d="M136.073 86.0247L136.906 85.097L161.155 92.455L160.578 93.1748L136.073 86.0247Z" fill="#A5A49E"/>
<path d="M154.7 93.5107L163.045 96.07L159.073 102.084L150.824 99.4291L154.7 93.5107Z" fill="#7491CA"/>
<path d="M129.907 95.3982L133.975 96.6299L130.82 100.421L129.907 95.3982Z" fill="#474159"/>
<path d="M127.521 108.675C129.157 108.675 130.484 107.35 130.484 105.715C130.484 104.081 129.157 102.756 127.521 102.756C125.884 102.756 124.558 104.081 124.558 105.715C124.558 107.35 125.884 108.675 127.521 108.675Z" fill="#A4A4BA"/>
<path d="M119.513 109.458L120.249 108.307L133.991 112.562L132.886 113.905L119.513 109.458Z" fill="#A5A49E"/>
<path d="M152.073 102.932L152.714 102.02L153.563 102.628L152.073 102.932Z" fill="#474159"/>
<path d="M151.096 104.292L151.737 103.396L152.586 104.004L151.096 104.292Z" fill="#474159"/>
<path d="M150.12 105.651L150.76 104.756L151.609 105.363L150.12 105.651Z" fill="#474159"/>
<path d="M149.142 107.011L149.783 106.115L150.648 106.723L149.142 107.011Z" fill="#474159"/>
<path d="M148.166 108.387L148.822 107.491L149.671 108.083L148.166 108.387Z" fill="#474159"/>
<path d="M147.205 109.746L147.845 108.851L148.694 109.458L147.205 109.746Z" fill="#474159"/>
<path d="M146.051 111.362L146.692 110.466L147.541 111.074L146.051 111.362Z" fill="#474159"/>
<path d="M99.8767 139.402L100.181 139.61L98.5314 142.058L98.3072 141.898V139.882C98.3072 139.642 98.2911 139.45 98.2431 139.338C98.195 139.226 98.131 139.146 98.0509 139.082C97.9228 139.002 97.7946 138.986 97.6345 139.066C97.4743 139.146 97.3302 139.306 97.17 139.53C96.9138 139.898 96.8016 140.25 96.8497 140.57L96.3852 140.762C96.3692 140.554 96.3852 140.314 96.4653 140.058C96.5454 139.802 96.6735 139.546 96.8497 139.274C97.0899 138.922 97.3462 138.682 97.6024 138.539C97.8587 138.411 98.099 138.411 98.3072 138.555C98.4353 138.634 98.5314 138.762 98.5955 138.922C98.6595 139.082 98.6915 139.306 98.6915 139.626V141.146L99.8767 139.402Z" fill="#474159"/>
<path d="M100.774 138.459C100.533 138.602 100.277 138.666 100.021 138.666C99.7486 138.666 99.4923 138.57 99.2521 138.411C99.0118 138.251 98.8197 138.027 98.7236 137.787C98.6275 137.547 98.5954 137.291 98.6435 137.003C98.6915 136.731 98.8036 136.459 98.9798 136.187C99.156 135.915 99.3642 135.723 99.6044 135.579C99.8447 135.435 100.101 135.371 100.357 135.371C100.629 135.371 100.886 135.467 101.126 135.627C101.366 135.787 101.558 136.011 101.655 136.251C101.751 136.491 101.783 136.747 101.735 137.035C101.687 137.307 101.574 137.579 101.398 137.851C101.222 138.107 101.014 138.315 100.774 138.459ZM101.302 136.827C101.254 136.555 101.078 136.315 100.79 136.123C100.485 135.915 100.213 135.851 99.9408 135.915C99.6685 135.979 99.4443 136.139 99.2681 136.411C99.0759 136.683 99.0118 136.955 99.0599 137.227C99.1079 137.499 99.2841 137.739 99.5724 137.931C99.8767 138.139 100.149 138.203 100.421 138.139C100.694 138.075 100.918 137.915 101.094 137.643C101.286 137.371 101.35 137.099 101.302 136.827Z" fill="#474159"/>
<path d="M102.968 135.227C102.728 135.371 102.471 135.435 102.215 135.435C101.943 135.435 101.687 135.339 101.446 135.179C101.19 135.003 101.014 134.796 100.918 134.556C100.822 134.316 100.79 134.06 100.838 133.772C100.886 133.5 100.998 133.228 101.174 132.956C101.35 132.684 101.558 132.492 101.799 132.348C102.039 132.204 102.295 132.14 102.551 132.14C102.824 132.14 103.08 132.236 103.32 132.396C103.577 132.572 103.753 132.78 103.849 133.02C103.945 133.26 103.977 133.516 103.929 133.804C103.881 134.092 103.769 134.348 103.593 134.62C103.4 134.876 103.192 135.083 102.968 135.227ZM103.496 133.596C103.448 133.324 103.272 133.084 102.984 132.892C102.68 132.684 102.407 132.62 102.135 132.684C101.863 132.748 101.639 132.908 101.462 133.18C101.27 133.452 101.206 133.724 101.254 133.996C101.302 134.268 101.478 134.508 101.767 134.7C102.071 134.908 102.343 134.971 102.616 134.908C102.888 134.844 103.112 134.684 103.288 134.412C103.464 134.124 103.544 133.868 103.496 133.596Z" fill="#474159"/>
<path d="M105.146 131.996C104.906 132.14 104.649 132.204 104.393 132.204C104.121 132.204 103.865 132.108 103.624 131.948C103.368 131.772 103.192 131.564 103.096 131.324C103 131.085 102.968 130.829 103.016 130.541C103.064 130.253 103.176 129.997 103.352 129.725C103.528 129.453 103.737 129.261 103.977 129.117C104.217 128.973 104.473 128.909 104.73 128.909C105.002 128.909 105.258 129.005 105.498 129.165C105.755 129.341 105.931 129.549 106.027 129.789C106.123 130.029 106.155 130.285 106.107 130.573C106.059 130.845 105.947 131.117 105.771 131.388C105.594 131.644 105.386 131.852 105.146 131.996ZM105.675 130.349C105.626 130.077 105.45 129.837 105.162 129.645C104.858 129.437 104.585 129.373 104.313 129.437C104.041 129.501 103.817 129.661 103.64 129.933C103.448 130.205 103.384 130.477 103.432 130.749C103.48 131.021 103.656 131.26 103.945 131.452C104.249 131.66 104.521 131.724 104.794 131.66C105.066 131.596 105.29 131.436 105.466 131.165C105.659 130.893 105.723 130.621 105.675 130.349Z" fill="#474159"/>
<path d="M107.34 128.749C107.1 128.893 106.844 128.957 106.588 128.957C106.315 128.957 106.059 128.861 105.819 128.701C105.563 128.525 105.386 128.317 105.29 128.077C105.194 127.837 105.162 127.581 105.21 127.294C105.258 127.006 105.37 126.75 105.547 126.478C105.723 126.206 105.931 126.014 106.171 125.87C106.411 125.726 106.668 125.662 106.924 125.662C107.196 125.662 107.452 125.758 107.693 125.918C107.949 126.094 108.125 126.302 108.221 126.542C108.317 126.782 108.349 127.038 108.301 127.326C108.253 127.613 108.141 127.869 107.965 128.141C107.789 128.397 107.581 128.605 107.34 128.749ZM107.869 127.118C107.821 126.846 107.645 126.606 107.356 126.414C107.052 126.206 106.78 126.142 106.507 126.206C106.235 126.27 106.011 126.43 105.835 126.702C105.643 126.974 105.579 127.246 105.627 127.517C105.675 127.789 105.851 128.029 106.139 128.221C106.443 128.429 106.716 128.493 106.988 128.429C107.26 128.365 107.484 128.205 107.661 127.933C107.853 127.661 107.917 127.39 107.869 127.118Z" fill="#474159"/>
<g opacity="0.33">
<g opacity="0.33">
<path opacity="0.33" d="M101.206 140.17L101.51 140.378L99.8608 142.825L99.6366 142.665V140.65C99.6366 140.41 99.6206 140.218 99.5725 140.106C99.5245 139.994 99.4604 139.914 99.3803 139.85C99.2522 139.77 99.1241 139.754 98.9639 139.834C98.8037 139.914 98.6596 140.074 98.4994 140.298C98.2432 140.666 98.1311 141.018 98.1791 141.338L97.7467 141.53C97.7307 141.322 97.7467 141.082 97.8268 140.826C97.9068 140.57 98.035 140.314 98.2111 140.042C98.4514 139.69 98.7076 139.45 98.9639 139.306C99.2202 139.178 99.4604 139.178 99.6686 139.322C99.7967 139.402 99.8928 139.53 99.9569 139.69C100.021 139.85 100.053 140.074 100.053 140.394V141.914L101.206 140.17Z" fill="#474159"/>
</g>
<g opacity="0.33">
<path opacity="0.33" d="M102.087 139.242C101.847 139.386 101.59 139.45 101.334 139.45C101.062 139.45 100.806 139.354 100.565 139.194C100.309 139.018 100.133 138.81 100.037 138.57C99.9408 138.331 99.9088 138.075 99.9568 137.787C100.005 137.515 100.117 137.243 100.293 136.971C100.469 136.699 100.678 136.507 100.918 136.363C101.158 136.219 101.414 136.155 101.671 136.155C101.943 136.155 102.199 136.251 102.439 136.411C102.696 136.587 102.872 136.795 102.968 137.035C103.064 137.275 103.096 137.531 103.048 137.819C103 138.091 102.888 138.363 102.712 138.634C102.535 138.89 102.327 139.098 102.087 139.242ZM102.632 137.595C102.583 137.323 102.407 137.083 102.119 136.891C101.815 136.683 101.542 136.619 101.27 136.683C100.998 136.747 100.774 136.907 100.597 137.179C100.405 137.451 100.341 137.723 100.389 137.995C100.437 138.267 100.613 138.506 100.902 138.698C101.206 138.906 101.478 138.97 101.751 138.906C102.023 138.842 102.247 138.682 102.423 138.411C102.599 138.139 102.664 137.867 102.632 137.595Z" fill="#474159"/>
</g>
<g opacity="0.33">
<path opacity="0.33" d="M104.281 135.995C104.041 136.139 103.785 136.203 103.528 136.203C103.256 136.203 103 136.107 102.76 135.947C102.503 135.771 102.327 135.563 102.231 135.323C102.135 135.083 102.103 134.828 102.151 134.54C102.199 134.252 102.311 133.996 102.487 133.724C102.664 133.452 102.872 133.26 103.112 133.116C103.352 132.972 103.609 132.908 103.865 132.908C104.137 132.908 104.393 133.004 104.634 133.164C104.874 133.324 105.066 133.548 105.162 133.788C105.258 134.028 105.29 134.284 105.242 134.572C105.194 134.859 105.082 135.115 104.906 135.387C104.73 135.643 104.521 135.851 104.281 135.995ZM104.81 134.364C104.762 134.092 104.586 133.852 104.297 133.66C103.993 133.452 103.721 133.388 103.448 133.452C103.176 133.516 102.952 133.676 102.776 133.948C102.584 134.22 102.519 134.492 102.568 134.764C102.616 135.035 102.792 135.275 103.08 135.467C103.384 135.675 103.657 135.739 103.929 135.675C104.201 135.611 104.425 135.451 104.602 135.179C104.794 134.907 104.858 134.636 104.81 134.364Z" fill="#474159"/>
</g>
<g opacity="0.33">
<path opacity="0.33" d="M106.475 132.764C106.235 132.908 105.979 132.972 105.723 132.972C105.45 132.972 105.194 132.876 104.954 132.716C104.698 132.54 104.521 132.332 104.425 132.092C104.329 131.852 104.297 131.596 104.345 131.308C104.393 131.037 104.505 130.765 104.682 130.493C104.858 130.221 105.066 130.029 105.306 129.885C105.546 129.741 105.803 129.677 106.059 129.677C106.331 129.677 106.588 129.773 106.828 129.933C107.084 130.109 107.26 130.317 107.356 130.557C107.452 130.797 107.484 131.053 107.436 131.34C107.388 131.612 107.276 131.884 107.1 132.156C106.924 132.412 106.716 132.62 106.475 132.764ZM107.004 131.133C106.956 130.861 106.78 130.621 106.491 130.429C106.187 130.221 105.915 130.157 105.643 130.221C105.37 130.285 105.146 130.445 104.97 130.717C104.778 130.989 104.714 131.26 104.762 131.532C104.81 131.804 104.986 132.044 105.274 132.236C105.579 132.444 105.851 132.508 106.123 132.444C106.395 132.38 106.62 132.22 106.796 131.948C106.988 131.66 107.052 131.388 107.004 131.133Z" fill="#474159"/>
</g>
<g opacity="0.33">
<path opacity="0.33" d="M108.67 129.517C108.429 129.661 108.173 129.725 107.917 129.725C107.645 129.725 107.388 129.629 107.148 129.469C106.908 129.309 106.716 129.085 106.62 128.845C106.524 128.605 106.491 128.349 106.54 128.061C106.588 127.773 106.7 127.517 106.876 127.246C107.052 126.974 107.26 126.782 107.501 126.638C107.741 126.494 107.997 126.43 108.253 126.43C108.526 126.43 108.782 126.526 109.022 126.686C109.278 126.862 109.454 127.07 109.551 127.31C109.647 127.549 109.679 127.805 109.631 128.093C109.583 128.381 109.47 128.637 109.294 128.909C109.118 129.181 108.894 129.373 108.67 129.517ZM109.198 127.885C109.15 127.613 108.974 127.374 108.686 127.182C108.381 126.974 108.109 126.91 107.837 126.974C107.565 127.038 107.34 127.198 107.164 127.47C106.972 127.741 106.908 128.013 106.956 128.285C107.004 128.557 107.18 128.797 107.468 128.989C107.773 129.197 108.045 129.261 108.317 129.197C108.59 129.133 108.814 128.973 108.99 128.701C109.166 128.429 109.246 128.157 109.198 127.885Z" fill="#474159"/>
</g>
</g>
<g opacity="0.33">
<g opacity="0.33">
<path opacity="0.33" d="M103.096 141.13L103.4 141.338L101.751 143.785L101.526 143.625V141.61C101.526 141.37 101.51 141.178 101.462 141.066C101.414 140.954 101.35 140.874 101.27 140.81C101.142 140.73 101.014 140.714 100.854 140.794C100.694 140.874 100.549 141.034 100.389 141.258C100.133 141.626 100.021 141.978 100.069 142.297L99.6365 142.489C99.6205 142.281 99.6365 142.042 99.7166 141.786C99.7967 141.53 99.9248 141.274 100.101 141.002C100.341 140.65 100.597 140.41 100.854 140.266C101.11 140.138 101.35 140.138 101.558 140.282C101.687 140.362 101.783 140.49 101.847 140.65C101.911 140.81 101.943 141.034 101.943 141.354V142.873L103.096 141.13Z" fill="#474159"/>
</g>
<g opacity="0.33">
<path opacity="0.33" d="M103.993 140.202C103.753 140.346 103.496 140.41 103.24 140.41C102.968 140.41 102.712 140.314 102.471 140.154C102.215 139.978 102.039 139.77 101.943 139.53C101.847 139.29 101.815 139.034 101.863 138.746C101.911 138.475 102.023 138.203 102.199 137.931C102.375 137.659 102.583 137.467 102.824 137.323C103.064 137.179 103.32 137.115 103.576 137.115C103.849 137.115 104.105 137.211 104.345 137.371C104.601 137.547 104.778 137.755 104.874 137.995C104.97 138.235 105.002 138.491 104.954 138.778C104.906 139.066 104.794 139.322 104.617 139.594C104.441 139.85 104.233 140.058 103.993 140.202ZM104.521 138.57C104.473 138.299 104.297 138.059 104.009 137.867C103.705 137.659 103.432 137.595 103.16 137.659C102.888 137.723 102.664 137.883 102.487 138.155C102.295 138.427 102.231 138.698 102.279 138.97C102.327 139.242 102.503 139.482 102.792 139.674C103.096 139.882 103.368 139.946 103.641 139.882C103.913 139.818 104.137 139.658 104.313 139.386C104.505 139.098 104.569 138.842 104.521 138.57Z" fill="#474159"/>
</g>
<g opacity="0.33">
<path opacity="0.33" d="M106.187 136.971C105.947 137.115 105.691 137.179 105.434 137.179C105.162 137.179 104.906 137.083 104.666 136.923C104.409 136.747 104.233 136.539 104.137 136.299C104.041 136.059 104.009 135.803 104.057 135.515C104.105 135.227 104.217 134.971 104.393 134.7C104.57 134.428 104.778 134.236 105.018 134.092C105.258 133.948 105.514 133.884 105.771 133.884C106.043 133.884 106.299 133.98 106.539 134.14C106.796 134.316 106.972 134.524 107.068 134.764C107.164 135.003 107.196 135.259 107.148 135.547C107.1 135.819 106.988 136.091 106.812 136.363C106.636 136.619 106.427 136.827 106.187 136.971ZM106.716 135.323C106.668 135.051 106.491 134.812 106.203 134.62C105.899 134.412 105.627 134.348 105.354 134.412C105.082 134.476 104.858 134.636 104.682 134.907C104.489 135.179 104.425 135.451 104.473 135.723C104.521 135.995 104.698 136.235 104.986 136.427C105.29 136.635 105.563 136.699 105.835 136.635C106.107 136.571 106.331 136.411 106.507 136.139C106.7 135.867 106.764 135.595 106.716 135.323Z" fill="#474159"/>
</g>
<g opacity="0.33">
<path opacity="0.33" d="M108.381 133.724C108.141 133.868 107.885 133.932 107.629 133.932C107.356 133.932 107.1 133.836 106.86 133.676C106.604 133.5 106.427 133.292 106.331 133.052C106.235 132.812 106.203 132.556 106.251 132.268C106.299 131.98 106.411 131.724 106.587 131.452C106.764 131.18 106.972 130.989 107.212 130.845C107.452 130.701 107.709 130.637 107.965 130.637C108.237 130.637 108.493 130.733 108.734 130.893C108.974 131.053 109.166 131.276 109.262 131.516C109.358 131.756 109.39 132.012 109.342 132.3C109.294 132.588 109.182 132.844 109.006 133.116C108.83 133.372 108.606 133.58 108.381 133.724ZM108.91 132.092C108.862 131.82 108.686 131.58 108.397 131.388C108.093 131.18 107.821 131.117 107.548 131.18C107.276 131.244 107.052 131.404 106.876 131.676C106.684 131.948 106.62 132.22 106.668 132.492C106.716 132.764 106.892 133.004 107.18 133.196C107.484 133.404 107.757 133.468 108.029 133.404C108.301 133.34 108.525 133.18 108.702 132.908C108.878 132.636 108.958 132.364 108.91 132.092Z" fill="#474159"/>
</g>
<g opacity="0.33">
<path opacity="0.33" d="M110.56 130.493C110.319 130.637 110.063 130.701 109.807 130.701C109.535 130.701 109.278 130.605 109.038 130.445C108.782 130.269 108.606 130.061 108.51 129.821C108.413 129.581 108.381 129.325 108.429 129.037C108.477 128.765 108.59 128.493 108.766 128.221C108.942 127.949 109.15 127.757 109.39 127.613C109.631 127.469 109.887 127.406 110.143 127.406C110.415 127.406 110.672 127.501 110.912 127.661C111.168 127.837 111.344 128.045 111.44 128.285C111.537 128.525 111.569 128.781 111.521 129.069C111.472 129.341 111.36 129.613 111.184 129.885C111.008 130.141 110.8 130.349 110.56 130.493ZM111.104 128.861C111.056 128.589 110.88 128.349 110.592 128.157C110.287 127.949 110.015 127.885 109.743 127.949C109.47 128.013 109.246 128.173 109.07 128.445C108.878 128.717 108.814 128.989 108.862 129.261C108.91 129.533 109.086 129.773 109.374 129.965C109.679 130.173 109.951 130.237 110.223 130.173C110.496 130.109 110.72 129.949 110.896 129.677C111.072 129.389 111.136 129.117 111.104 128.861Z" fill="#474159"/>
</g>
</g>
<path d="M114.115 145.433L125.967 135.227L121.37 147.416L114.115 145.433Z" fill="#9E9ECC"/>
<path d="M117.751 142.297L120.041 140.33L123.661 141.322L122.812 143.593L117.751 142.297Z" fill="#323037"/>
<path d="M146.115 119.424L147.509 129.085L168.97 99.4771L167.353 90.5995L146.115 119.424Z" fill="#7B6DAE"/>
<path d="M159.073 102.084L160.674 110.898L164.742 105.379L163.045 96.07L159.073 102.084Z" fill="#7491CA"/>
<path d="M113.346 111.922L114.964 109.586L146.115 119.424L147.509 129.085L146.42 130.605L144.626 121.471L113.346 111.922Z" fill="#B1B6CF"/>
<path d="M113.346 111.922L144.626 121.471L146.42 130.605L145.635 131.676L144.209 133.644L142.207 124.734L111.312 114.673L113.346 111.922Z" fill="#8B889A"/>
<path d="M108.766 118.112L111.312 114.673L142.208 124.734L144.21 133.644L141.583 137.259L139.789 128.653L108.766 118.112Z" fill="#716E7D"/>
<path d="M135.721 91.5912C135.881 91.3513 136.666 91.5112 136.794 91.7832C137.355 93.0628 138.684 96.4219 140.109 97.3657C140.109 97.3657 138.844 96.3739 139.261 94.4065C139.405 93.7186 139.773 93.7026 140.125 93.5747C140.205 93.5427 140.286 93.5427 140.366 93.5747L142.159 94.2945L141.839 95.1263L140.35 95.3982C140.35 95.3982 141.775 95.7341 142.352 97.0457L142.816 96.07C142.864 95.958 142.976 95.8941 143.104 95.8781L144.242 95.7981C144.354 95.7981 144.466 95.8461 144.53 95.9261L145.026 96.5659L144.514 96.6619C143.921 96.3579 144.274 96.3099 144.274 96.3099C144.274 96.3099 143.088 96.278 143.024 96.3739C142.96 96.4699 142.768 96.9978 142.88 97.2697L143.008 97.4456C143.008 97.4456 143.713 96.8538 143.873 96.8538C144.033 96.8538 144.21 96.9018 144.21 96.9018C144.21 96.9018 145.042 98.0535 145.042 98.1654C145.042 98.2774 145.17 99.1092 145.026 99.1892C144.882 99.2531 144.29 98.9972 144.354 98.8053C144.434 98.6133 144.626 98.4534 144.562 98.3414C144.498 98.2454 144.049 97.6856 143.969 97.6056C143.889 97.5256 143.617 97.5416 143.473 97.7016C143.329 97.8615 142.704 98.7893 142.512 98.9972C142.336 99.1892 141.407 100.837 140.718 101.413C140.622 101.493 140.59 101.621 140.606 101.732C140.67 102.036 140.766 102.564 140.718 102.772C140.638 103.076 140.205 103.38 140.366 103.524C140.526 103.668 140.846 103.876 141.038 103.908C141.214 103.94 141.727 104.068 141.983 104.228C142.24 104.388 142.928 104.676 142.736 104.836C142.544 104.996 142.159 105.268 142.031 105.14C141.919 105.012 141.503 104.564 141.375 104.484C141.247 104.404 140.862 104.228 140.606 104.292C140.35 104.356 139.917 104.42 139.773 104.372C139.629 104.324 139.453 104.052 139.485 103.892C139.517 103.732 139.549 103.38 139.405 103.348C139.261 103.332 138.956 103.412 138.572 103.364C138.187 103.316 137.643 102.612 137.611 102.452C137.579 102.292 137.114 102.564 137.242 102.9C137.371 103.236 138.444 104.468 138.444 104.468C138.444 104.468 139.309 104.868 138.924 105.028C138.54 105.188 137.947 105.379 137.547 105.284C137.146 105.172 136.298 104.868 136.073 104.372C135.849 103.876 135.945 103.044 136.778 102.372L137.531 102.036C137.531 102.036 137.467 101.029 138.892 99.653L139.309 99.2531C139.309 99.2531 138.123 99.2052 137.483 99.0292C136.826 98.8533 135.529 97.6856 135.144 96.022C134.84 94.6464 135.048 92.6309 135.721 91.5912Z" fill="#A7A465"/>
<path d="M116.357 126.19C116.357 126.19 115.573 125.758 115.092 125.102C114.612 124.462 114.003 123.743 113.875 123.343C113.747 122.943 113.555 121.871 113.555 121.871C113.555 121.871 112.85 122.015 112.834 122.655C112.818 123.295 112.273 124.99 114.452 126.494L114.836 126.91L113.298 127.534C113.298 127.534 113.635 129.741 116.181 130.125L116.277 127.965H116.486C116.486 127.965 118.872 130.813 121.563 129.901L121.098 129.453C121.098 129.453 118.135 127.965 117.527 126.91C117.527 126.91 117.783 126.11 117.543 125.95C117.27 125.806 116.357 126.19 116.357 126.19Z" fill="#8B889A"/>
<path d="M127.697 122.943C127.697 122.943 128.482 122.175 128.754 122.127C129.026 122.079 129.282 122.351 129.298 122.527C129.315 122.703 129.186 123.774 129.186 123.774L129.555 124.83C129.555 124.83 131.845 126.254 133.254 126.67C134.664 127.086 136.618 127.533 136.618 127.533C136.618 127.533 135.513 128.557 135.08 128.621C134.648 128.685 134.023 128.877 133.463 128.989C132.902 129.117 131.893 129.085 131.397 129.101C130.9 129.117 129.459 129.133 128.994 128.893C128.994 128.893 129.315 129.373 129.058 129.789C128.802 130.205 128.209 130.829 127.681 130.973C127.152 131.132 125.823 131.053 125.407 130.893C124.99 130.733 124.061 130.669 123.421 129.869C122.78 129.069 122.107 127.262 122.107 127.262C122.299 126.734 123.116 125.038 123.116 125.038L124.157 125.182C124.157 125.182 123.549 123.918 123.084 123.455C122.62 122.991 121.306 119.808 122.155 117.168L122.7 116.72C122.7 116.72 123.629 119.232 123.693 119.296C123.757 119.376 125.07 120.495 125.214 120.735C125.359 120.975 127.056 122.783 127.12 122.847C127.2 122.959 127.697 122.943 127.697 122.943Z" fill="#8B889A"/>
<path d="M152.298 99.909L156.19 93.9746L157.038 94.2305L153.114 100.165L152.298 99.909Z" fill="#ECDD6F"/>
<path d="M157.663 98.7893C158.291 98.7893 158.8 98.2808 158.8 97.6536C158.8 97.0263 158.291 96.5179 157.663 96.5179C157.035 96.5179 156.526 97.0263 156.526 97.6536C156.526 98.2808 157.035 98.7893 157.663 98.7893Z" fill="#ECDD6F"/>
<path d="M106.171 105.875C106.171 105.875 114.259 92.0711 120.938 99.685C127.617 107.299 108.221 118.208 107.997 121.775C107.757 125.342 98.7556 131.196 97.3782 130.397C96.0008 129.581 95.5524 114.497 106.171 105.875Z" fill="white"/>
<path d="M97.7306 132.076C97.2981 132.076 96.9137 131.98 96.5774 131.772C96.0008 131.436 95.3121 130.717 95.1199 128.093C94.7356 123.151 96.3212 111.986 104.954 104.82C105.931 103.22 110.431 96.3419 115.877 95.8301C117.494 95.6861 119.881 96.038 122.155 98.6293C127.649 104.9 119.416 112.418 113.971 117.376C112.209 118.976 109.807 121.183 109.583 121.935C109.342 125.71 103.112 129.837 100.95 130.989C99.5724 131.724 98.5474 132.076 97.7306 132.076ZM116.501 98.9972C116.389 98.9972 116.277 98.9972 116.165 99.0132C112.594 99.3491 108.734 104.676 107.548 106.691C107.452 106.851 107.324 107.011 107.18 107.123C98.6435 114.049 97.7466 125.438 98.3712 128.701C100.71 127.821 106.251 123.774 106.395 121.663C106.507 119.92 108.333 118.192 111.809 115.025C117.799 109.554 122.908 104.356 119.737 100.741C118.712 99.5731 117.655 98.9972 116.501 98.9972Z" fill="black"/>
<path d="M283.982 63.1669C283.982 63.1669 289.764 83.7373 269.888 84.4251C252.927 85.001 256.691 65.3423 256.691 65.3423C256.691 65.3423 257.203 87.1124 242.164 82.1218C230.328 78.2028 236.014 63.1669 236.014 63.1669C249.772 59.4719 256.691 65.3423 256.691 65.3423C269.488 54.1613 291.093 65.1983 291.093 65.1983" fill="white"/>
<path d="M269.151 86.0247C264.491 86.0247 260.871 84.5531 258.389 81.6579C257.315 80.4102 256.547 79.0026 256.002 77.531C255.105 79.5145 253.856 81.338 252.126 82.6176C249.339 84.6811 245.816 85.017 241.668 83.6413C238.256 82.5057 235.806 80.4422 234.396 77.499C231.353 71.1327 234.38 62.9589 234.508 62.607C234.685 62.1272 235.101 61.7593 235.598 61.6313C247.001 58.5601 254.016 61.7593 256.595 63.3428C270.112 52.8977 290.917 63.3108 291.814 63.7747C292.599 64.1746 292.919 65.1343 292.519 65.9181C292.119 66.7019 291.158 67.0218 290.373 66.6219C290.309 66.59 288.627 65.7422 285.968 64.7824C286.545 68.1415 287.073 74.9237 283.358 79.9943C280.587 83.7853 276.07 85.8008 269.936 86.0087C269.664 86.0247 269.408 86.0247 269.151 86.0247ZM257.94 70.3809C258.004 73.3081 258.613 77.0031 260.823 79.5784C262.793 81.8658 265.804 82.9375 269.824 82.8096C274.917 82.6336 278.601 81.05 280.763 78.0908C284.719 72.6843 282.621 64.3026 282.445 63.6308C275.51 61.6473 265.436 60.3356 258.276 66.0781C258.26 66.9739 258.196 68.5414 257.94 70.3809ZM237.263 64.4945C236.655 66.494 235.309 71.9805 237.295 76.1234C238.32 78.2828 240.082 79.7384 242.677 80.6022C245.816 81.6419 248.282 81.4659 250.22 80.0423C253.039 77.9629 254.24 73.644 254.737 70.237C254.705 68.4934 254.849 67.0058 254.961 66.0781C253.039 64.8624 247.209 62.0472 237.263 64.4945Z" fill="#0C0805"/>
<path d="M267.149 76.5873C271.094 76.5873 274.293 73.3932 274.293 69.4532C274.293 65.5132 271.094 62.3191 267.149 62.3191C263.204 62.3191 260.006 65.5132 260.006 69.4532C260.006 73.3932 263.204 76.5873 267.149 76.5873Z" fill="#0C0805"/>
<path d="M246.216 79.0826C249.586 79.0826 252.318 76.3541 252.318 72.9882C252.318 69.6224 249.586 66.8939 246.216 66.8939C242.846 66.8939 240.114 69.6224 240.114 72.9882C240.114 76.3541 242.846 79.0826 246.216 79.0826Z" fill="#0C0805"/>
<path d="M256.851 63.3589C256.851 63.3589 250.925 69.5652 242.292 70.7489C233.66 71.9325 228.198 67.0539 228.198 67.0539" fill="white"/>
<path d="M239.586 72.5404C232.026 72.5404 227.349 68.4455 227.141 68.2535C226.484 67.6617 226.42 66.654 227.013 65.9981C227.605 65.3423 228.614 65.2783 229.271 65.8702C229.463 66.0461 234.332 70.237 242.068 69.1653C250.044 68.0616 255.634 62.3191 255.682 62.2551C256.29 61.6153 257.315 61.5993 257.94 62.2072C258.581 62.815 258.597 63.8227 257.988 64.4625C257.732 64.7345 251.566 71.0848 242.484 72.3324C241.491 72.4764 240.514 72.5404 239.586 72.5404Z" fill="#0C0805"/>
<path d="M261.271 56.0488C261.271 61.3914 247.225 68.7334 239.89 68.7334C232.554 68.7334 223.762 64.4146 223.762 59.072C223.762 53.7294 232.554 49.4106 239.89 49.4106C247.241 49.4266 261.271 50.7223 261.271 56.0488Z" fill="white"/>
<path d="M260.022 56.4807C260.022 56.4807 259.606 65.1024 254.336 66.6059L260.022 56.4807Z" fill="white"/>
<path d="M254.352 68.2055C253.648 68.2055 253.007 67.7416 252.815 67.0378C252.575 66.1901 253.071 65.3103 253.92 65.0704C257.956 63.9187 258.436 56.4807 258.436 56.4167C258.485 55.537 259.253 54.8651 260.118 54.8971C260.999 54.9451 261.688 55.6969 261.64 56.5767C261.624 56.9766 261.095 66.382 254.801 68.1575C254.641 68.1895 254.496 68.2055 254.352 68.2055Z" fill="#0C0805"/>
<path d="M291.206 95.2702C290.485 95.2702 289.828 94.7903 289.652 94.0545C288.419 89.1439 280.347 90.4395 280.251 90.4395C279.386 90.5835 278.553 89.9916 278.409 89.1279C278.265 88.2641 278.857 87.4323 279.722 87.2884C280.17 87.2084 290.805 85.5288 292.743 93.2707C292.951 94.1345 292.439 94.9983 291.574 95.2062C291.478 95.2542 291.334 95.2702 291.206 95.2702Z" fill="#0C0805"/>
</svg>
