<svg width="518" height="344" viewBox="0 0 518 344" fill="none" xmlns="http://www.w3.org/2000/svg">
<g filter="url(#filter0_ddd)">
<path d="M474.495 8H43.5049C38.3372 8.01736 33.3862 10.0702 29.732 13.7106C26.0779 17.3509 24.0173 22.2833 23.9999 27.4316V283.94C24.014 289.089 26.0736 294.023 29.7284 297.665C33.3833 301.306 38.3362 303.357 43.5049 303.372H474.495C479.664 303.357 484.617 301.306 488.271 297.665C491.926 294.023 493.986 289.089 494 283.94V27.4316C493.986 22.2823 491.926 17.348 488.271 13.7069C484.617 10.0659 479.664 8.01408 474.495 8V8Z" fill="#00A1AC"/>
</g>
<path d="M58.1669 135.894C60.5807 140.219 61.8493 145.105 61.8493 150.075C61.8493 155.045 60.5807 159.931 58.1669 164.256C57.9394 164.665 57.8811 165.149 58.005 165.602C58.1289 166.055 58.4247 166.44 58.8277 166.672C59.2306 166.903 59.7077 166.963 60.1543 166.839C60.6009 166.714 60.9805 166.414 61.2097 166.006C63.9327 161.152 65.3621 155.661 65.3572 150.075C65.3715 144.488 63.9414 138.995 61.2097 134.144C60.9797 133.737 60.6003 133.439 60.1544 133.315C59.7085 133.192 59.2325 133.252 58.8303 133.483C58.4282 133.715 58.1326 134.098 58.0083 134.55C57.884 135.002 57.941 135.485 58.1669 135.894Z" fill="white"/>
<path d="M51.8295 139.277C53.7155 142.553 54.7057 146.281 54.6979 150.075C54.7059 153.871 53.7086 157.601 51.8101 160.872C51.5762 161.279 51.5112 161.764 51.6293 162.219C51.7475 162.675 52.0391 163.064 52.44 163.301C52.8409 163.539 53.3183 163.605 53.7672 163.485C54.2161 163.365 54.5997 163.069 54.8335 162.662C57.0294 158.841 58.1864 154.498 58.1864 150.075C58.1864 145.652 57.0294 141.308 54.8335 137.487C54.7178 137.284 54.5635 137.107 54.3795 136.965C54.1955 136.823 53.9856 136.72 53.7619 136.662C53.5382 136.603 53.3053 136.59 53.0766 136.624C52.848 136.658 52.6283 136.737 52.4303 136.858C52.0396 137.102 51.7583 137.492 51.6461 137.944C51.5339 138.395 51.5997 138.874 51.8295 139.277Z" fill="white"/>
<path d="M45.4928 142.62C46.8364 144.86 47.5472 147.432 47.5472 150.054C47.5472 152.677 46.8364 155.249 45.4928 157.489C45.3719 157.686 45.2905 157.906 45.2533 158.136C45.2162 158.365 45.2239 158.6 45.2761 158.826C45.3283 159.053 45.4239 159.267 45.5575 159.456C45.6911 159.645 45.8601 159.805 46.0548 159.928C46.2495 160.05 46.4661 160.133 46.6923 160.171C46.9184 160.208 47.1497 160.201 47.3728 160.148C47.596 160.095 47.8067 159.998 47.9929 159.862C48.1791 159.726 48.3372 159.555 48.4581 159.357C50.1524 156.567 51.0451 153.352 51.0357 150.074C51.0358 146.792 50.1439 143.573 48.4581 140.771C48.2124 140.374 47.8221 140.091 47.3721 139.984C46.922 139.877 46.4486 139.955 46.0548 140.201C45.6648 140.446 45.3866 140.839 45.2813 141.292C45.1759 141.746 45.252 142.223 45.4928 142.62Z" fill="white"/>
<path d="M39.5024 145.945C40.375 147.139 40.8441 148.588 40.8396 150.075C40.834 150.823 40.7164 151.565 40.4908 152.278C40.2633 152.963 39.9296 153.607 39.5024 154.185C39.3662 154.373 39.2677 154.585 39.2125 154.811C39.1573 155.037 39.1465 155.272 39.1807 155.502C39.2149 155.732 39.2934 155.953 39.4118 156.152C39.5302 156.352 39.6861 156.525 39.8706 156.664C40.0551 156.802 40.2646 156.902 40.4872 156.958C40.7098 157.014 40.9411 157.025 41.1678 156.99C41.3946 156.955 41.6124 156.876 41.8088 156.755C42.0052 156.635 42.1764 156.477 42.3126 156.29C42.9495 155.407 43.4526 154.433 43.8049 153.399C44.3374 151.799 44.4798 150.091 44.2199 148.423C43.96 146.755 43.3055 145.176 42.3126 143.82C42.1772 143.632 42.0059 143.472 41.8089 143.352C41.6118 143.232 41.393 143.153 41.1653 143.12C40.9376 143.087 40.7057 143.1 40.4833 143.16C40.261 143.22 40.0526 143.324 39.8706 143.466C39.5005 143.747 39.2543 144.165 39.1854 144.629C39.1165 145.093 39.2304 145.565 39.5024 145.945Z" fill="white"/>
<path d="M418.381 274.308H412.166L416.053 250.782H422.268L418.381 274.308Z" fill="white"/>
<path d="M440.911 251.358C439.133 250.688 437.243 250.348 435.337 250.356C429.2 250.356 424.878 253.56 424.851 258.139C424.8 261.518 427.946 263.395 430.298 264.522C432.703 265.673 433.52 266.424 433.52 267.45C433.495 269.027 431.577 269.753 429.788 269.753C427.769 269.808 425.767 269.378 423.957 268.502L423.138 268.126L422.269 273.407C424.478 274.245 426.83 274.67 429.2 274.659C435.721 274.659 439.966 271.505 440.016 266.625C440.041 263.947 438.38 261.894 434.8 260.218C432.626 259.141 431.295 258.415 431.295 257.314C431.32 256.313 432.421 255.287 434.874 255.287C436.467 255.242 438.05 255.55 439.504 256.188L440.066 256.438L440.911 251.358Z" fill="white"/>
<path d="M449.169 265.974C449.681 264.623 451.65 259.392 451.65 259.392C451.625 259.442 452.161 258.015 452.468 257.14L452.902 259.167C452.902 259.167 454.079 264.798 454.335 265.974H449.169ZM456.841 250.783H452.033C451.346 250.702 450.652 250.851 450.062 251.205C449.472 251.559 449.022 252.099 448.785 252.735L439.554 274.308H446.075C446.075 274.308 447.149 271.404 447.379 270.779H455.358C455.537 271.605 456.1 274.308 456.1 274.308H461.854L456.841 250.783H456.841Z" fill="white"/>
<path d="M406.977 250.782L400.89 266.824L400.225 263.571C398.711 259.354 395.648 255.839 391.633 253.71L397.208 274.283H403.78L413.548 250.783H406.977V250.782Z" fill="white"/>
<path d="M395.238 250.783H385.24L385.137 251.258C392.937 253.21 398.103 257.916 400.225 263.572L398.051 252.76C397.918 252.147 397.556 251.604 397.036 251.238C396.516 250.873 395.875 250.71 395.238 250.783H395.238Z" fill="white"/>
<path d="M81.4642 38.2944C66.3854 38.2944 54.3224 65.9201 54.3224 78.3C54.3224 92.2591 108.586 92.2591 108.586 78.3C108.606 65.9201 96.5429 38.2944 81.4642 38.2944ZM62.0077 74.8103C62.0077 65.3742 71.2106 44.2797 82.7288 44.2797C94.247 44.2797 103.45 65.3742 103.45 74.8103C103.43 85.4745 62.0077 85.4745 62.0077 74.8103Z" fill="white"/>
<path d="M85.5312 51.9233C78.5853 51.9233 73.0402 64.6542 73.0402 70.347C73.0402 76.7806 98.0223 76.7806 98.0223 70.347C98.0417 64.6347 92.4772 51.9233 85.5312 51.9233ZM78.4491 68.0075C78.4491 64.2642 82.1069 55.9005 86.6597 55.9005C91.2125 55.9005 94.8703 64.2642 94.8703 68.0075C94.8703 72.2381 78.4491 72.2381 78.4491 68.0075Z" fill="white"/>
<path d="M266.561 71.9191C265.888 71.9209 265.216 71.8704 264.551 71.768C264.222 71.6829 263.916 71.5267 263.656 71.3109C263.396 71.095 263.189 70.8249 263.05 70.5205C262.911 70.2161 262.843 69.8851 262.852 69.5518C262.861 69.2186 262.947 68.8916 263.102 68.5948C263.298 68.2286 263.614 67.9368 263.999 67.7658C264.384 67.5947 264.816 67.5541 265.228 67.6504C265.477 67.6895 265.729 67.7085 265.981 67.7071C266.29 67.7211 266.597 67.6673 266.882 67.5496C267.166 67.4319 267.419 67.2534 267.624 67.0271C268.058 66.4639 268.271 65.7666 268.223 65.0628V49.4425C268.223 48.7412 268.508 48.0686 269.015 47.5727C269.522 47.0768 270.21 46.7982 270.928 46.7982C271.645 46.7982 272.333 47.0768 272.841 47.5727C273.348 48.0686 273.633 48.7412 273.633 49.4425V65.0439C273.712 65.9696 273.584 66.9011 273.256 67.7731C272.928 68.645 272.409 69.4363 271.735 70.0914C271.061 70.7465 270.249 71.2495 269.355 71.5652C268.461 71.881 267.508 72.0018 266.561 71.9191ZM270.909 44.2294C270.014 44.2689 269.14 43.9637 268.474 43.3795C268.171 43.1134 267.929 42.787 267.766 42.4221C267.603 42.0571 267.521 41.6623 267.527 41.264C267.517 40.8652 267.596 40.4689 267.76 40.1034C267.923 39.7379 268.167 39.4119 268.474 39.1486C269.14 38.5644 270.014 38.2592 270.909 38.2986C271.796 38.2555 272.668 38.5461 273.343 39.1108C273.643 39.363 273.884 39.6762 274.047 40.0285C274.211 40.3809 274.294 40.7638 274.29 41.1507C274.303 41.5638 274.225 41.9747 274.061 42.3558C273.898 42.737 273.653 43.0796 273.343 43.3606C273.017 43.6564 272.634 43.8857 272.215 44.0349C271.797 44.1841 271.353 44.2502 270.909 44.2294Z" fill="white"/>
<path d="M294.755 46.7797C295.472 46.7818 296.159 47.061 296.666 47.5565C297.172 48.0519 297.458 48.7233 297.46 49.424V62.5322C297.46 62.8622 297.394 63.1889 297.265 63.4937C297.136 63.7986 296.946 64.0756 296.708 64.3089C296.469 64.5422 296.186 64.7272 295.874 64.8534C295.562 64.9796 295.228 65.0445 294.89 65.0443H294.542C293.953 65.0443 293.388 64.8154 292.971 64.408C292.555 64.0007 292.32 63.4483 292.32 62.8722C291.608 63.6559 290.732 64.2808 289.75 64.7043C288.728 65.1181 287.63 65.3238 286.524 65.3088C285.458 65.3623 284.392 65.2059 283.39 64.849C282.388 64.4921 281.469 63.9419 280.688 63.2311C279.922 62.4002 279.335 61.4264 278.963 60.3683C278.591 59.3102 278.442 58.1896 278.524 57.0736V49.3863C278.524 48.6849 278.809 48.0123 279.316 47.5164C279.824 47.0205 280.512 46.7419 281.229 46.7419C281.947 46.7419 282.635 47.0205 283.142 47.5164C283.649 48.0123 283.934 48.6849 283.934 49.3863V56.2803C283.934 59.2269 285.19 60.7001 287.722 60.7001C288.302 60.7221 288.881 60.6242 289.421 60.4126C289.96 60.2011 290.448 59.8807 290.852 59.4724C291.712 58.4295 292.133 57.1059 292.03 55.7704V49.3863C292.042 48.6886 292.334 48.0235 292.844 47.5354C293.355 47.0474 294.041 46.7758 294.755 46.7797Z" fill="white"/>
<path d="M313.843 46.515C314.869 46.4711 315.894 46.6291 316.856 46.9795C317.819 47.3299 318.699 47.8656 319.446 48.5549C320.209 49.3651 320.795 50.3191 321.167 51.3585C321.539 52.3978 321.69 53.5006 321.61 54.599V62.4186C321.61 63.1199 321.325 63.7925 320.818 64.2884C320.311 64.7843 319.623 65.0629 318.905 65.0629C318.188 65.0629 317.5 64.7843 316.992 64.2884C316.485 63.7925 316.2 63.1199 316.2 62.4186V55.4112C316.292 54.2553 315.949 53.1064 315.234 52.1813C314.874 51.8079 314.435 51.5162 313.948 51.3269C313.46 51.1376 312.936 51.0553 312.413 51.0858C311.808 51.0562 311.203 51.1539 310.64 51.3722C310.076 51.5905 309.567 51.9244 309.147 52.3513C308.263 53.3681 307.826 54.6851 307.93 56.0156V62.3997C307.93 63.101 307.645 63.7736 307.138 64.2695C306.63 64.7654 305.942 65.044 305.225 65.044C304.507 65.044 303.819 64.7654 303.312 64.2695C302.805 63.7736 302.52 63.101 302.52 62.3997V49.3104C302.52 48.6391 302.792 47.9954 303.278 47.5207C303.764 47.0461 304.422 46.7794 305.109 46.7794H305.515C305.801 46.7791 306.085 46.8341 306.35 46.9413C306.616 47.0484 306.856 47.2056 307.059 47.4039C307.262 47.6021 307.423 47.8375 307.532 48.0966C307.642 48.3557 307.698 48.6334 307.698 48.9137C308.438 48.1236 309.358 47.5154 310.384 47.1383C311.483 46.7094 312.659 46.4976 313.843 46.515Z" fill="white"/>
<path d="M326.521 49.4236C326.521 48.7223 326.806 48.0497 327.313 47.5538C327.821 47.0579 328.509 46.7793 329.226 46.7793C329.944 46.7793 330.632 47.0579 331.139 47.5538C331.646 48.0497 331.931 48.7223 331.931 49.4236V62.3996C331.931 63.1009 331.646 63.7735 331.139 64.2694C330.632 64.7653 329.944 65.0439 329.226 65.0439C328.509 65.0439 327.821 64.7653 327.313 64.2694C326.806 63.7735 326.521 63.1009 326.521 62.3996V49.4236ZM329.226 44.2294C328.332 44.2689 327.458 43.9637 326.792 43.3795C326.488 43.1134 326.247 42.787 326.084 42.4221C325.92 42.0572 325.839 41.6623 325.845 41.264C325.834 40.8652 325.914 40.4689 326.078 40.1034C326.241 39.7379 326.485 39.4119 326.792 39.1486C327.458 38.5644 328.332 38.2592 329.226 38.2986C330.114 38.2555 330.985 38.5461 331.661 39.1108C331.961 39.363 332.201 39.6762 332.365 40.0285C332.528 40.3809 332.611 40.7638 332.608 41.1507C332.62 41.5638 332.542 41.9747 332.379 42.3558C332.216 42.737 331.971 43.0796 331.661 43.3606C330.998 43.9524 330.123 44.2646 329.226 44.2294Z" fill="white"/>
<path d="M345.863 65.3274C344.019 65.357 342.196 64.9487 340.549 64.1375C339.045 63.3575 337.784 62.1962 336.897 60.7754C336.005 59.3089 335.549 57.6274 335.583 55.9212C335.556 54.2158 336.011 52.5362 336.897 51.067C337.774 49.6484 339.039 48.4971 340.549 47.7428C342.19 46.9126 344.015 46.4909 345.863 46.515C347.699 46.4863 349.513 46.9084 351.138 47.7428C352.644 48.5029 353.907 49.6528 354.79 51.067C355.683 52.5336 356.138 54.215 356.104 55.9212C356.131 57.6266 355.677 59.3063 354.79 60.7754C353.909 62.2006 352.646 63.3632 351.138 64.1375C349.506 64.9507 347.695 65.3593 345.863 65.3274ZM345.863 60.9832C346.496 61.0058 347.127 60.8962 347.713 60.6617C348.3 60.4272 348.828 60.0732 349.264 59.6233C350.199 58.6132 350.685 57.2817 350.616 55.9212C350.654 55.253 350.554 54.5842 350.321 53.9546C350.089 53.3251 349.729 52.7477 349.264 52.257C348.832 51.7998 348.305 51.4384 347.719 51.1973C347.132 50.9561 346.499 50.8409 345.863 50.8593C345.221 50.8426 344.583 50.9585 343.991 51.1993C343.398 51.4402 342.864 51.8006 342.424 52.257C341.96 52.7487 341.601 53.3262 341.369 53.9555C341.136 54.5848 341.035 55.2531 341.071 55.9212C341.035 56.595 341.136 57.2691 341.368 57.9045C341.601 58.5399 341.959 59.1241 342.424 59.6233C342.869 60.0709 343.405 60.423 343.997 60.6571C344.589 60.8912 345.225 61.0023 345.863 60.9832Z" fill="white"/>
<path d="M364.917 49.1963C365.58 48.3064 366.483 47.6134 367.525 47.1942C367.987 47.0072 368.466 46.8618 368.955 46.7597C369.261 46.7105 369.575 46.7292 369.872 46.8147C370.17 46.9002 370.444 47.0501 370.674 47.2533C370.905 47.4566 371.085 47.708 371.202 47.9888C371.319 48.2695 371.37 48.5725 371.351 48.8752V50.2162C371.347 50.3678 371.312 50.5171 371.248 50.6554C371.185 50.7937 371.094 50.9183 370.98 51.0219C370.867 51.1256 370.734 51.2062 370.589 51.2592C370.443 51.3122 370.289 51.3365 370.134 51.3306C369.468 51.2961 368.802 51.392 368.175 51.6125C367.548 51.8331 366.972 52.1739 366.482 52.615C366.009 53.1266 365.649 53.7274 365.423 54.3803C365.197 55.0333 365.11 55.7245 365.168 56.4115V62.3989C365.168 63.1002 364.883 63.7728 364.375 64.2687C363.868 64.7646 363.18 65.0432 362.463 65.0432C361.745 65.0432 361.057 64.7646 360.55 64.2687C360.042 63.7728 359.757 63.1002 359.757 62.3989V49.3096C359.757 48.6384 360.03 47.9946 360.516 47.52C361.001 47.0453 361.66 46.7787 362.347 46.7786H362.463C362.786 46.7796 363.106 46.843 363.405 46.965C363.704 47.0871 363.974 47.2655 364.202 47.4901C364.43 47.7146 364.611 47.9809 364.733 48.2737C364.856 48.5664 364.918 48.88 364.917 49.1963Z" fill="white"/>
<path d="M385.957 46.4962C387.615 46.4773 389.249 46.8879 390.691 47.6861C392.112 48.4424 393.28 49.5836 394.054 50.9726C394.894 52.4834 395.314 54.1833 395.271 55.9024C395.309 57.633 394.89 59.3439 394.054 60.8699C393.269 62.2508 392.104 63.3893 390.691 64.1564C389.243 64.9363 387.611 65.3334 385.957 65.3085C384.857 65.3776 383.756 65.199 382.737 64.7864C381.719 64.3738 380.811 63.7383 380.083 62.9287C380.084 63.2066 380.028 63.4819 379.919 63.7388C379.811 63.9956 379.651 64.229 379.45 64.4255C379.249 64.6221 379.011 64.7779 378.748 64.884C378.485 64.9902 378.203 65.0446 377.919 65.0441H377.494C376.807 65.0441 376.149 64.7774 375.663 64.3028C375.178 63.8281 374.905 63.1844 374.905 62.5131V42.492C374.905 41.7907 375.19 41.1181 375.697 40.6222C376.204 40.1263 376.892 39.8477 377.61 39.8477C378.327 39.8477 379.016 40.1263 379.523 40.6222C380.03 41.1181 380.315 41.7907 380.315 42.492V48.7061C381.038 47.9628 381.916 47.3806 382.89 46.9993C383.863 46.6179 384.91 46.4463 385.957 46.4962ZM385.03 60.9643C385.663 60.987 386.294 60.8774 386.88 60.6429C387.467 60.4084 387.995 60.0543 388.431 59.6044C389.366 58.5944 389.852 57.2628 389.783 55.9024C389.821 55.2341 389.721 54.5653 389.488 53.9358C389.256 53.3063 388.896 52.7289 388.431 52.2381C387.999 51.7809 387.472 51.4195 386.886 51.1784C386.299 50.9373 385.666 50.822 385.03 50.8404C384.388 50.8238 383.75 50.9396 383.158 51.1805C382.565 51.4213 382.031 51.7817 381.59 52.2381C380.673 53.241 380.2 54.559 380.276 55.9024C380.21 57.2558 380.68 58.5822 381.59 59.6044C382.036 60.052 382.572 60.4041 383.164 60.6382C383.756 60.8724 384.391 60.9834 385.03 60.9643Z" fill="white"/>
<path d="M406.151 46.496C408.555 46.3374 410.934 47.0651 412.817 48.5359C413.636 49.3223 414.269 50.274 414.673 51.3244C415.077 52.3749 415.241 53.4988 415.155 54.6178V62.5696C415.155 62.8947 415.09 63.2167 414.963 63.5171C414.836 63.8175 414.65 64.0904 414.415 64.3203C414.179 64.5502 413.9 64.7324 413.593 64.8566C413.286 64.9807 412.956 65.0444 412.624 65.0439H412.411C412.104 65.0445 411.8 64.9857 411.516 64.8711C411.232 64.7564 410.974 64.5881 410.757 64.3758C410.539 64.1634 410.367 63.9113 410.25 63.6337C410.133 63.3562 410.072 63.0588 410.073 62.7585C409.452 63.6524 408.593 64.3628 407.588 64.8123C406.583 65.2619 405.471 65.4335 404.373 65.3084C403.085 65.3338 401.807 65.0891 400.624 64.5906C399.651 64.1709 398.82 63.4896 398.228 62.6263C397.668 61.7774 397.378 60.7845 397.397 59.7742C397.366 59.0021 397.528 58.2342 397.868 57.5366C398.208 56.8391 398.716 56.2328 399.349 55.77C401.166 54.6613 403.3 54.1515 405.436 54.3156H409.745C409.776 53.824 409.696 53.3316 409.508 52.8743C409.321 52.4169 409.032 52.006 408.662 51.6713C407.746 50.9723 406.594 50.6352 405.436 50.7269C404.43 50.7238 403.431 50.8834 402.479 51.1991C402.402 51.218 402.305 51.2558 402.228 51.2747C401.639 51.511 400.985 51.5384 400.378 51.352C399.771 51.1657 399.249 50.7775 398.905 50.2547C398.786 50.0508 398.71 49.8257 398.682 49.5928C398.654 49.3599 398.674 49.1239 398.741 48.8986C398.807 48.6733 398.919 48.4633 399.07 48.281C399.221 48.0987 399.408 47.9477 399.619 47.837C400.304 47.5257 401.015 47.273 401.745 47.0815C403.179 46.6875 404.661 46.4905 406.151 46.496ZM405.725 61.7386C406.59 61.7519 407.443 61.5435 408.199 61.1341C408.916 60.7049 409.456 60.0431 409.725 59.2642V57.3943H406.015C403.793 57.3943 402.672 58.1121 402.672 59.5287C402.662 59.8416 402.729 60.1523 402.867 60.4348C403.005 60.7174 403.21 60.9637 403.465 61.153C404.136 61.5771 404.927 61.7821 405.725 61.7386Z" fill="white"/>
<path d="M431.423 46.4967C432.449 46.4528 433.474 46.6108 434.437 46.9612C435.399 47.3116 436.28 47.8473 437.027 48.5366C437.787 49.3481 438.369 50.3028 438.738 51.3421C439.106 52.3815 439.254 53.4835 439.172 54.5807V62.4003C439.172 63.1016 438.887 63.7742 438.379 64.2701C437.872 64.766 437.184 65.0446 436.466 65.0446C435.749 65.0446 435.061 64.766 434.554 64.2701C434.046 63.7742 433.761 63.1016 433.761 62.4003V55.3929C433.854 54.237 433.51 53.0881 432.795 52.163C432.436 51.7896 431.997 51.4979 431.509 51.3086C431.022 51.1193 430.498 51.037 429.974 51.0675C429.369 51.0379 428.764 51.1355 428.201 51.3539C427.637 51.5722 427.129 51.9061 426.708 52.333C425.824 53.3498 425.387 54.6668 425.491 55.9973V62.3814C425.491 63.0827 425.206 63.7553 424.699 64.2512C424.191 64.7471 423.503 65.0257 422.786 65.0257C422.069 65.0257 421.38 64.7471 420.873 64.2512C420.366 63.7553 420.081 63.0827 420.081 62.3814V49.2921C420.081 48.6208 420.354 47.9771 420.839 47.5024C421.325 47.0278 421.983 46.7611 422.67 46.7611H423.076C423.363 46.7608 423.647 46.8158 423.912 46.923C424.177 47.0301 424.418 47.1873 424.62 47.3856C424.823 47.5838 424.984 47.8192 425.094 48.0783C425.203 48.3374 425.26 48.6151 425.259 48.8954C425.996 48.1098 426.908 47.5021 427.926 47.12C429.039 46.6928 430.227 46.4812 431.423 46.4967Z" fill="white"/>
<path d="M452.119 57.8666L449.511 60.3787V62.3808C449.511 63.0821 449.226 63.7547 448.718 64.2506C448.211 64.7465 447.523 65.0251 446.806 65.0251C446.088 65.0251 445.4 64.7465 444.893 64.2506C444.385 63.7547 444.1 63.0821 444.1 62.3808V42.4729C444.1 41.7716 444.385 41.099 444.893 40.6031C445.4 40.1072 446.088 39.8286 446.806 39.8286C447.523 39.8286 448.211 40.1072 448.718 40.6031C449.226 41.099 449.511 41.7716 449.511 42.4729V54.089L456.757 47.3649C457.198 46.9561 457.785 46.7325 458.393 46.7421C459.001 46.7518 459.58 46.9939 460.008 47.4165C460.435 47.8391 460.676 48.4085 460.679 49.0027C460.681 49.5969 460.446 50.1684 460.022 50.5947L456.119 54.4856L461.298 60.9264C461.599 61.2993 461.786 61.7474 461.839 62.2196C461.892 62.6919 461.807 63.169 461.596 63.5966C461.384 64.0242 461.054 64.385 460.642 64.6376C460.231 64.8902 459.755 65.0245 459.269 65.0251C458.882 65.0264 458.501 64.942 458.153 64.7785C457.805 64.6149 457.499 64.3763 457.259 64.0807L452.119 57.8666Z" fill="white"/>
<path d="M259.045 55.8637H261.673C262.176 55.8637 262.657 56.0587 263.012 56.4059C263.367 56.753 263.567 57.2238 263.567 57.7147C263.567 58.2056 263.367 58.6764 263.012 59.0236C262.657 59.3707 262.176 59.5657 261.673 59.5657H258.582L258.099 63.3433C258.069 63.5928 257.988 63.834 257.863 64.053C257.737 64.272 257.568 64.4645 257.366 64.6195C257.164 64.7744 256.932 64.8887 256.684 64.9557C256.437 65.0228 256.178 65.0412 255.923 65.0101C255.668 64.9789 255.422 64.8988 255.199 64.7742C254.976 64.6496 254.78 64.4831 254.623 64.2843C254.466 64.0855 254.351 63.8582 254.284 63.6157C254.217 63.3732 254.2 63.1201 254.234 62.8711L254.659 59.5657H249.539L249.056 63.3622C248.99 63.8616 248.724 64.3151 248.317 64.6235C247.91 64.9319 247.394 65.0699 246.883 65.0075C246.372 64.945 245.907 64.6871 245.59 64.2903C245.272 63.8934 245.129 63.3899 245.191 62.89L245.616 59.5657H242.95C242.447 59.5657 241.966 59.3707 241.611 59.0236C241.256 58.6764 241.056 58.2056 241.056 57.7147C241.056 57.2238 241.256 56.753 241.611 56.4059C241.966 56.0587 242.447 55.8637 242.95 55.8637H246.08L246.814 50.3484H244.148C243.645 50.3484 243.164 50.1534 242.809 49.8063C242.454 49.4591 242.254 48.9883 242.254 48.4974C242.254 48.0065 242.454 47.5357 242.809 47.1886C243.164 46.8414 243.645 46.6464 244.148 46.6464H247.278L247.761 42.8499C247.827 42.3505 248.093 41.897 248.5 41.5886C248.907 41.2803 249.423 41.1422 249.934 41.2046C250.445 41.2671 250.91 41.525 251.227 41.9219C251.544 42.3187 251.687 42.8222 251.626 43.3221L251.2 46.6464H256.321L256.804 42.8499C256.87 42.3505 257.136 41.897 257.543 41.5886C257.95 41.2803 258.466 41.1422 258.977 41.2046C259.488 41.2671 259.953 41.525 260.27 41.9219C260.587 42.3187 260.73 42.8222 260.669 43.3221L260.243 46.6464H262.891C263.393 46.6464 263.875 46.8414 264.23 47.1886C264.585 47.5357 264.784 48.0065 264.784 48.4974C264.784 48.9883 264.585 49.4591 264.23 49.8063C263.875 50.1534 263.393 50.3484 262.891 50.3484H259.78L259.045 55.8637ZM255.104 55.8637L255.838 50.3484H250.717L249.983 55.8637H255.104Z" fill="white"/>
<defs>
<filter id="filter0_ddd" x="-0.00012207" y="0" width="518" height="343.372" filterUnits="userSpaceOnUse" color-interpolation-filters="sRGB">
<feFlood flood-opacity="0" result="BackgroundImageFix"/>
<feColorMatrix in="SourceAlpha" type="matrix" values="0 0 0 0 0 0 0 0 0 0 0 0 0 0 0 0 0 0 127 0"/>
<feOffset/>
<feGaussianBlur stdDeviation="0.5"/>
<feColorMatrix type="matrix" values="0 0 0 0 0 0 0 0 0 0 0 0 0 0 0 0 0 0 0.04 0"/>
<feBlend mode="normal" in2="BackgroundImageFix" result="effect1_dropShadow"/>
<feColorMatrix in="SourceAlpha" type="matrix" values="0 0 0 0 0 0 0 0 0 0 0 0 0 0 0 0 0 0 127 0"/>
<feOffset dy="2"/>
<feGaussianBlur stdDeviation="3"/>
<feColorMatrix type="matrix" values="0 0 0 0 0 0 0 0 0 0.631373 0 0 0 0 0.67451 0 0 0 0.12 0"/>
<feBlend mode="normal" in2="effect1_dropShadow" result="effect2_dropShadow"/>
<feColorMatrix in="SourceAlpha" type="matrix" values="0 0 0 0 0 0 0 0 0 0 0 0 0 0 0 0 0 0 127 0"/>
<feOffset dy="16"/>
<feGaussianBlur stdDeviation="12"/>
<feColorMatrix type="matrix" values="0 0 0 0 0 0 0 0 0 0.631373 0 0 0 0 0.67451 0 0 0 0.15 0"/>
<feBlend mode="normal" in2="effect2_dropShadow" result="effect3_dropShadow"/>
<feBlend mode="normal" in="SourceGraphic" in2="effect3_dropShadow" result="shape"/>
</filter>
</defs>
</svg>
