<svg width="250" height="158" viewBox="0 0 250 158" fill="none" xmlns="http://www.w3.org/2000/svg">
<path d="M239.625 0H10.3749C7.62613 0.00928656 4.99258 1.10738 3.04889 3.05469C1.1052 5.00199 0.00914724 7.64044 -0.00012207 10.3943L-0.00012207 147.606C0.00741226 150.36 1.10291 153 3.04698 154.947C4.99104 156.895 7.62559 157.992 10.3749 158H239.625C242.374 157.992 245.009 156.895 246.953 154.947C248.897 153 249.992 150.36 250 147.606V10.3943C249.992 7.6399 248.897 5.00043 246.953 3.05275C245.009 1.10506 242.374 0.00753208 239.625 0V0Z" fill="#EFA9DE"/>
<path d="M18.1738 68.4133C19.4577 70.7267 20.1325 73.34 20.1325 75.9987C20.1325 78.6574 19.4577 81.2708 18.1738 83.5842C18.0528 83.8032 18.0218 84.0623 18.0877 84.3045C18.1536 84.5468 18.311 84.7525 18.5253 84.8765C18.7396 85.0005 18.9934 85.0327 19.231 84.9659C19.4685 84.8992 19.6704 84.739 19.7923 84.5205C21.2407 81.9238 22.0011 78.9867 21.9985 75.9987C22.006 73.0101 21.2454 70.0717 19.7923 67.4769C19.67 67.2593 19.4682 67.0999 19.231 67.0337C18.9938 66.9674 18.7406 66.9997 18.5267 67.1235C18.3128 67.2472 18.1556 67.4524 18.0895 67.6941C18.0233 67.9358 18.0537 68.1943 18.1738 68.4133Z" fill="#BC6EA9"/>
<path d="M14.8029 70.2226C15.8061 71.9751 16.3328 73.969 16.3286 75.9985C16.3329 78.0295 15.8024 80.0243 14.7926 81.7744C14.6682 81.9921 14.6336 82.2512 14.6964 82.4949C14.7592 82.7386 14.9143 82.9468 15.1276 83.0737C15.3409 83.2007 15.5948 83.236 15.8336 83.1719C16.0723 83.1077 16.2764 82.9495 16.4008 82.7318C17.5688 80.6881 18.1842 78.3645 18.1842 75.9985C18.1842 73.6326 17.5688 71.309 16.4008 69.2653C16.3392 69.1567 16.2571 69.0618 16.1593 68.9859C16.0614 68.9101 15.9497 68.8549 15.8307 68.8236C15.7117 68.7922 15.5878 68.7854 15.4662 68.8034C15.3446 68.8214 15.2278 68.864 15.1224 68.9286C14.9146 69.0594 14.765 69.2678 14.7053 69.5094C14.6456 69.7511 14.6806 70.0069 14.8029 70.2226Z" fill="#BC6EA9"/>
<path d="M11.4323 72.0108C12.147 73.2091 12.525 74.5848 12.525 75.9877C12.525 77.3905 12.147 78.7662 11.4323 79.9645C11.368 80.0702 11.3247 80.1878 11.3049 80.3105C11.2851 80.4333 11.2892 80.5588 11.317 80.68C11.3448 80.8011 11.3956 80.9155 11.4667 81.0166C11.5378 81.1176 11.6277 81.2034 11.7312 81.2691C11.8348 81.3347 11.95 81.3789 12.0703 81.399C12.1906 81.4192 12.3136 81.415 12.4323 81.3867C12.551 81.3584 12.6631 81.3065 12.7621 81.2339C12.8612 81.1614 12.9452 81.0697 13.0095 80.964C13.9108 79.4713 14.3856 77.7514 14.3806 75.9982C14.3807 74.2423 13.9063 72.5204 13.0095 71.0219C12.8789 70.8093 12.6713 70.6581 12.4319 70.6009C12.1925 70.5438 11.9407 70.5854 11.7312 70.7168C11.5238 70.8482 11.3758 71.0582 11.3198 71.3007C11.2637 71.5433 11.3042 71.7986 11.4323 72.0108Z" fill="#BC6EA9"/>
<path d="M8.24586 73.7892C8.71004 74.4281 8.95954 75.2031 8.95718 75.9985C8.9542 76.3986 8.89163 76.7959 8.77162 77.1768C8.6506 77.5433 8.47312 77.8878 8.24586 78.1973C8.17343 78.2975 8.12104 78.4113 8.09169 78.5321C8.06234 78.6529 8.05659 78.7785 8.07478 78.9016C8.09296 79.0247 8.13473 79.1429 8.19769 79.2495C8.26066 79.3561 8.34358 79.449 8.44173 79.523C8.53988 79.5969 8.65133 79.6503 8.76973 79.6803C8.88813 79.7103 9.01114 79.7161 9.13176 79.6976C9.25238 79.679 9.36823 79.6364 9.47271 79.5721C9.57718 79.5079 9.66823 79.4232 9.74066 79.3231C10.0795 78.8509 10.347 78.3296 10.5345 77.7765C10.8177 76.9206 10.8934 76.0074 10.7552 75.1151C10.617 74.2227 10.2688 73.3779 9.74066 72.6529C9.66865 72.552 9.57754 72.4668 9.47272 72.4025C9.3679 72.3381 9.2515 72.2958 9.1304 72.2782C9.00929 72.2605 8.88595 72.2678 8.76767 72.2997C8.64938 72.3315 8.53855 72.3872 8.44173 72.4635C8.24486 72.6138 8.11393 72.8372 8.07727 73.0853C8.04061 73.3334 8.10118 73.5863 8.24586 73.7892Z" fill="#BC6EA9"/>
<path d="M209.777 142.453H206.471L208.539 129.869H211.845L209.777 142.453Z" fill="#BC6EA9"/>
<path d="M221.761 130.177C220.815 129.818 219.81 129.637 218.796 129.641C215.532 129.641 213.233 131.355 213.219 133.804C213.192 135.612 214.865 136.616 216.116 137.218C217.395 137.834 217.83 138.236 217.83 138.785C217.817 139.628 216.796 140.017 215.844 140.017C214.771 140.046 213.706 139.816 212.743 139.347L212.308 139.146L211.845 141.971C213.02 142.42 214.271 142.647 215.532 142.641C219 142.641 221.258 140.954 221.285 138.343C221.298 136.911 220.415 135.813 218.51 134.916C217.354 134.34 216.646 133.952 216.646 133.363C216.66 132.827 217.245 132.279 218.55 132.279C219.397 132.254 220.239 132.419 221.013 132.761L221.312 132.894L221.761 130.177Z" fill="#BC6EA9"/>
<path d="M226.154 137.995C226.426 137.272 227.474 134.474 227.474 134.474C227.46 134.501 227.745 133.738 227.908 133.27L228.139 134.354C228.139 134.354 228.765 137.366 228.901 137.995H226.154ZM230.234 129.869H227.677C227.312 129.826 226.942 129.906 226.629 130.095C226.315 130.285 226.076 130.573 225.949 130.913L221.039 142.453H224.508C224.508 142.453 225.079 140.9 225.202 140.566H229.446C229.541 141.007 229.84 142.453 229.84 142.453H232.901L230.234 129.869H230.234Z" fill="#BC6EA9"/>
<path d="M203.711 129.869L200.474 138.45L200.12 136.71C199.314 134.454 197.685 132.574 195.549 131.435L198.515 142.44H202.01L207.206 129.869H203.711V129.869Z" fill="#BC6EA9"/>
<path d="M197.467 129.869H192.149L192.094 130.123C196.243 131.168 198.991 133.685 200.12 136.71L198.963 130.927C198.893 130.599 198.7 130.308 198.423 130.113C198.147 129.917 197.806 129.83 197.467 129.869H197.467Z" fill="#BC6EA9"/>
<path d="M30.566 16.2051C22.5454 16.2051 16.1289 30.9826 16.1289 37.6049C16.1289 45.0718 44.9927 45.0718 44.9927 37.6049C45.0031 30.9826 38.5866 16.2051 30.566 16.2051ZM20.2168 35.7381C20.2168 30.6906 25.112 19.4067 31.2387 19.4067C37.3654 19.4067 42.2605 30.6906 42.2605 35.7381C42.2502 41.4426 20.2168 41.4426 20.2168 35.7381Z" fill="#BC6EA9"/>
<path d="M32.7293 23.4955C29.0347 23.4955 26.0851 30.3054 26.0851 33.3506C26.0851 36.7921 39.3735 36.7921 39.3735 33.3506C39.3838 30.295 36.424 23.4955 32.7293 23.4955ZM28.9622 32.0992C28.9622 30.0969 30.9079 25.6229 33.3296 25.6229C35.7513 25.6229 37.6969 30.0969 37.6969 32.0992C37.6969 34.3622 28.9622 34.3622 28.9622 32.0992Z" fill="#BC6EA9"/>
<path d="M129.022 34.1916C128.664 34.1925 128.306 34.1655 127.953 34.1107C127.777 34.0653 127.615 33.9817 127.476 33.8662C127.338 33.7507 127.228 33.6063 127.154 33.4434C127.08 33.2806 127.044 33.1035 127.049 32.9253C127.054 32.747 127.099 32.5721 127.182 32.4134C127.286 32.2174 127.454 32.0614 127.659 31.9699C127.864 31.8784 128.094 31.8567 128.313 31.9082C128.445 31.9291 128.579 31.9392 128.713 31.9385C128.877 31.946 129.041 31.9172 129.192 31.8543C129.343 31.7913 129.478 31.6958 129.587 31.5748C129.818 31.2735 129.931 30.9005 129.906 30.524V22.1684C129.906 21.7932 130.057 21.4335 130.327 21.1682C130.597 20.9029 130.963 20.7539 131.345 20.7539C131.726 20.7539 132.092 20.9029 132.362 21.1682C132.632 21.4335 132.783 21.7932 132.783 22.1684V30.5139C132.826 31.0091 132.757 31.5074 132.583 31.9738C132.408 32.4402 132.132 32.8635 131.774 33.2139C131.415 33.5643 130.983 33.8334 130.508 34.0023C130.032 34.1712 129.525 34.2358 129.022 34.1916ZM131.334 19.3798C130.859 19.4009 130.394 19.2377 130.039 18.9252C129.878 18.7828 129.75 18.6082 129.663 18.413C129.576 18.2178 129.532 18.0066 129.536 17.7936C129.53 17.5802 129.572 17.3683 129.659 17.1727C129.746 16.9772 129.876 16.8028 130.039 16.662C130.394 16.3495 130.859 16.1862 131.334 16.2073C131.807 16.1843 132.27 16.3397 132.629 16.6418C132.789 16.7767 132.917 16.9442 133.004 17.1327C133.091 17.3212 133.135 17.526 133.133 17.733C133.14 17.9539 133.098 18.1737 133.011 18.3776C132.924 18.5815 132.794 18.7648 132.629 18.9151C132.456 19.0733 132.252 19.1959 132.029 19.2758C131.807 19.3556 131.571 19.3909 131.334 19.3798Z" fill="#BC6EA9"/>
<path d="M144.019 20.7441C144.4 20.7452 144.765 20.8946 145.035 21.1596C145.304 21.4246 145.456 21.7838 145.457 22.1586V29.1704C145.458 29.3469 145.422 29.5217 145.354 29.6847C145.285 29.8478 145.184 29.996 145.057 30.1208C144.93 30.2456 144.78 30.3445 144.614 30.412C144.448 30.4796 144.27 30.5143 144.09 30.5142H143.905C143.592 30.5141 143.291 30.3917 143.07 30.1738C142.848 29.9559 142.724 29.6604 142.723 29.3523C142.345 29.7715 141.878 30.1057 141.357 30.3323C140.813 30.5537 140.229 30.6637 139.64 30.6556C139.073 30.6842 138.507 30.6006 137.973 30.4097C137.44 30.2188 136.951 29.9245 136.536 29.5442C136.128 29.0998 135.816 28.5789 135.618 28.0129C135.421 27.4469 135.341 26.8474 135.385 26.2505V22.1384C135.385 21.7632 135.537 21.4034 135.806 21.1382C136.076 20.8729 136.442 20.7239 136.824 20.7239C137.206 20.7239 137.572 20.8729 137.841 21.1382C138.111 21.4034 138.263 21.7632 138.263 22.1384V25.8261C138.263 27.4023 138.931 28.1904 140.277 28.1904C140.586 28.2021 140.894 28.1497 141.181 28.0366C141.468 27.9234 141.727 27.752 141.942 27.5336C142.4 26.9758 142.624 26.2678 142.569 25.5534V22.1384C142.575 21.7652 142.731 21.4094 143.002 21.1483C143.274 20.8873 143.639 20.742 144.019 20.7441Z" fill="#BC6EA9"/>
<path d="M154.172 20.6023C154.717 20.5789 155.262 20.6634 155.774 20.8508C156.286 21.0382 156.755 21.3248 157.152 21.6935C157.558 22.1269 157.869 22.6372 158.067 23.1932C158.265 23.7492 158.346 24.3391 158.303 24.9266V29.1095C158.303 29.4846 158.152 29.8444 157.882 30.1097C157.612 30.375 157.246 30.524 156.864 30.524C156.483 30.524 156.117 30.375 155.847 30.1097C155.577 29.8444 155.425 29.4846 155.425 29.1095V25.3611C155.475 24.7428 155.292 24.1282 154.912 23.6334C154.72 23.4336 154.487 23.2776 154.228 23.1764C153.968 23.0751 153.69 23.0311 153.411 23.0474C153.089 23.0315 152.767 23.0838 152.468 23.2005C152.168 23.3173 151.897 23.4959 151.674 23.7243C151.204 24.2682 150.971 24.9727 151.026 25.6844V29.0994C151.026 29.4745 150.875 29.8343 150.605 30.0996C150.335 30.3649 149.969 30.5139 149.588 30.5139C149.206 30.5139 148.84 30.3649 148.57 30.0996C148.3 29.8343 148.149 29.4745 148.149 29.0994V22.0977C148.149 21.7386 148.294 21.3942 148.552 21.1404C148.81 20.8865 149.161 20.7438 149.526 20.7438H149.742C149.894 20.7436 150.045 20.7731 150.186 20.8304C150.327 20.8877 150.455 20.9718 150.563 21.0778C150.671 21.1839 150.757 21.3098 150.815 21.4484C150.873 21.587 150.903 21.7355 150.903 21.8855C151.297 21.4629 151.786 21.1375 152.332 20.9358C152.917 20.7064 153.542 20.593 154.172 20.6023Z" fill="#BC6EA9"/>
<path d="M160.915 22.1583C160.915 21.7831 161.067 21.4234 161.337 21.1581C161.607 20.8928 161.973 20.7438 162.354 20.7438C162.736 20.7438 163.102 20.8928 163.372 21.1581C163.642 21.4234 163.793 21.7831 163.793 22.1583V29.0994C163.793 29.4745 163.642 29.8343 163.372 30.0996C163.102 30.3649 162.736 30.5139 162.354 30.5139C161.973 30.5139 161.607 30.3649 161.337 30.0996C161.067 29.8343 160.915 29.4745 160.915 29.0994V22.1583ZM162.354 19.3798C161.879 19.4009 161.414 19.2377 161.059 18.9252C160.898 18.7828 160.77 18.6082 160.683 18.413C160.596 18.2178 160.553 18.0066 160.556 17.7936C160.55 17.5802 160.592 17.3683 160.679 17.1727C160.766 16.9772 160.896 16.8028 161.059 16.662C161.414 16.3495 161.879 16.1862 162.354 16.2073C162.827 16.1843 163.29 16.3397 163.649 16.6418C163.809 16.7767 163.937 16.9442 164.024 17.1327C164.111 17.3212 164.155 17.526 164.153 17.733C164.16 17.9539 164.118 18.1737 164.031 18.3776C163.944 18.5815 163.814 18.7648 163.649 18.9151C163.297 19.2316 162.831 19.3986 162.354 19.3798Z" fill="#BC6EA9"/>
<path d="M171.204 30.6656C170.223 30.6815 169.253 30.463 168.377 30.0291C167.577 29.6119 166.906 28.9907 166.435 28.2307C165.96 27.4462 165.718 26.5468 165.736 25.6341C165.721 24.7218 165.963 23.8234 166.435 23.0375C166.901 22.2786 167.574 21.6628 168.377 21.2593C169.25 20.8152 170.221 20.5896 171.204 20.6025C172.18 20.5872 173.145 20.813 174.01 21.2593C174.811 21.6659 175.483 22.281 175.952 23.0375C176.427 23.822 176.669 24.7214 176.651 25.6341C176.665 26.5463 176.424 27.4448 175.952 28.2307C175.483 28.993 174.812 29.6149 174.01 30.0291C173.141 30.4641 172.178 30.6827 171.204 30.6656ZM171.204 28.3418C171.54 28.3539 171.876 28.2953 172.188 28.1699C172.5 28.0444 172.781 27.8551 173.013 27.6144C173.51 27.0741 173.769 26.3618 173.732 25.6341C173.752 25.2766 173.699 24.9189 173.575 24.5821C173.452 24.2454 173.26 23.9365 173.013 23.674C172.783 23.4294 172.503 23.2361 172.191 23.1071C171.879 22.9782 171.542 22.9165 171.204 22.9263C170.862 22.9174 170.523 22.9794 170.208 23.1083C169.893 23.2371 169.608 23.4299 169.374 23.674C169.127 23.937 168.937 24.246 168.813 24.5826C168.689 24.9192 168.636 25.2767 168.655 25.6341C168.636 25.9945 168.689 26.3551 168.813 26.695C168.936 27.0349 169.127 27.3474 169.374 27.6144C169.611 27.8538 169.896 28.0422 170.211 28.1674C170.526 28.2926 170.864 28.352 171.204 28.3418Z" fill="#BC6EA9"/>
<path d="M181.339 22.0367C181.692 21.5607 182.172 21.19 182.726 20.9657C182.972 20.8657 183.227 20.7879 183.487 20.7333C183.65 20.707 183.816 20.717 183.975 20.7627C184.133 20.8085 184.279 20.8887 184.401 20.9974C184.524 21.1061 184.62 21.2406 184.682 21.3908C184.744 21.541 184.771 21.703 184.761 21.8649V22.5823C184.759 22.6634 184.74 22.7432 184.707 22.8172C184.673 22.8912 184.624 22.9578 184.564 23.0133C184.504 23.0687 184.433 23.1119 184.356 23.1402C184.278 23.1685 184.196 23.1815 184.114 23.1784C183.76 23.1599 183.405 23.2112 183.072 23.3292C182.738 23.4472 182.432 23.6295 182.171 23.8654C181.92 24.1391 181.728 24.4605 181.608 24.8098C181.488 25.159 181.442 25.5288 181.472 25.8962V29.099C181.472 29.4742 181.321 29.834 181.051 30.0992C180.781 30.3645 180.415 30.5135 180.033 30.5135C179.652 30.5135 179.286 30.3645 179.016 30.0992C178.746 29.834 178.594 29.4742 178.594 29.099V22.0973C178.594 21.7383 178.739 21.3939 178.998 21.14C179.256 20.8861 179.606 20.7435 179.972 20.7434H180.033C180.205 20.744 180.376 20.7779 180.535 20.8432C180.693 20.9085 180.837 21.0039 180.959 21.124C181.08 21.2441 181.176 21.3866 181.241 21.5432C181.306 21.6998 181.339 21.8675 181.339 22.0367Z" fill="#BC6EA9"/>
<path d="M192.53 20.5923C193.412 20.5822 194.281 20.8018 195.049 21.2288C195.804 21.6334 196.425 22.2438 196.837 22.9869C197.284 23.795 197.507 24.7043 197.484 25.6239C197.505 26.5496 197.282 27.4648 196.837 28.2811C196.419 29.0198 195.8 29.6288 195.049 30.0391C194.278 30.4563 193.41 30.6687 192.53 30.6554C191.945 30.6924 191.359 30.5968 190.818 30.3761C190.276 30.1554 189.793 29.8154 189.406 29.3824C189.406 29.531 189.377 29.6783 189.319 29.8157C189.261 29.9531 189.176 30.078 189.069 30.1831C188.962 30.2882 188.835 30.3716 188.696 30.4283C188.556 30.4851 188.406 30.5142 188.255 30.514H188.029C187.663 30.514 187.313 30.3713 187.055 30.1174C186.797 29.8635 186.651 29.5192 186.651 29.1601V18.4504C186.651 18.0752 186.803 17.7155 187.073 17.4502C187.343 17.1849 187.709 17.0359 188.09 17.0359C188.472 17.0359 188.838 17.1849 189.108 17.4502C189.378 17.7155 189.529 18.0752 189.529 18.4504V21.7744C189.914 21.3768 190.381 21.0654 190.899 20.8614C191.417 20.6574 191.973 20.5656 192.53 20.5923ZM192.037 28.3316C192.374 28.3437 192.709 28.2851 193.021 28.1597C193.333 28.0342 193.614 27.8448 193.846 27.6042C194.343 27.0639 194.602 26.3516 194.565 25.6239C194.585 25.2664 194.532 24.9087 194.409 24.5719C194.285 24.2352 194.094 23.9263 193.846 23.6638C193.616 23.4192 193.336 23.2259 193.024 23.0969C192.712 22.968 192.375 22.9063 192.037 22.9161C191.696 22.9072 191.356 22.9692 191.041 23.098C190.726 23.2269 190.442 23.4197 190.208 23.6638C189.719 24.2002 189.468 24.9053 189.509 25.6239C189.473 26.3479 189.724 27.0574 190.208 27.6042C190.444 27.8436 190.729 28.0319 191.044 28.1572C191.359 28.2824 191.697 28.3418 192.037 28.3316Z" fill="#BC6EA9"/>
<path d="M203.271 20.5923C204.551 20.5074 205.816 20.8967 206.817 21.6834C207.253 22.1041 207.59 22.6132 207.805 23.1751C208.02 23.737 208.107 24.3382 208.061 24.9368V29.1903C208.061 29.3642 208.027 29.5365 207.959 29.6972C207.892 29.8578 207.792 30.0039 207.667 30.1268C207.542 30.2498 207.394 30.3473 207.23 30.4137C207.067 30.4801 206.892 30.5142 206.715 30.5139H206.602C206.438 30.5142 206.276 30.4828 206.125 30.4214C205.974 30.3601 205.837 30.2701 205.722 30.1565C205.606 30.0429 205.514 29.908 205.452 29.7596C205.39 29.6111 205.358 29.452 205.358 29.2914C205.028 29.7695 204.57 30.1495 204.036 30.39C203.501 30.6305 202.91 30.7223 202.326 30.6554C201.641 30.669 200.961 30.538 200.332 30.2714C199.814 30.0469 199.373 29.6825 199.058 29.2207C198.759 28.7665 198.605 28.2354 198.616 27.695C198.599 27.282 198.685 26.8712 198.866 26.4981C199.046 26.125 199.317 25.8006 199.654 25.5531C200.62 24.96 201.755 24.6873 202.891 24.7751H205.183C205.2 24.5121 205.157 24.2488 205.058 24.0041C204.958 23.7595 204.804 23.5396 204.608 23.3606C204.12 22.9867 203.508 22.8064 202.891 22.8554C202.356 22.8538 201.825 22.9392 201.319 23.108C201.278 23.1181 201.226 23.1383 201.185 23.1484C200.872 23.2749 200.524 23.2895 200.201 23.1898C199.878 23.0902 199.601 22.8825 199.417 22.6029C199.354 22.4938 199.314 22.3734 199.299 22.2488C199.284 22.1242 199.295 21.9979 199.33 21.8774C199.365 21.7569 199.425 21.6446 199.505 21.5471C199.586 21.4495 199.685 21.3688 199.798 21.3096C200.162 21.1431 200.54 21.0079 200.928 20.9055C201.691 20.6947 202.479 20.5893 203.271 20.5923ZM203.045 28.7458C203.505 28.7529 203.959 28.6414 204.361 28.4225C204.742 28.1929 205.03 27.8389 205.173 27.4222V26.422H203.2C202.018 26.422 201.421 26.8059 201.421 27.5637C201.416 27.731 201.452 27.8972 201.525 28.0484C201.598 28.1996 201.707 28.3313 201.843 28.4326C202.2 28.6594 202.621 28.7691 203.045 28.7458Z" fill="#BC6EA9"/>
<path d="M216.714 20.5927C217.26 20.5692 217.805 20.6537 218.317 20.8412C218.829 21.0286 219.298 21.3152 219.695 21.6839C220.099 22.118 220.409 22.6287 220.605 23.1846C220.801 23.7406 220.88 24.3301 220.836 24.917V29.0999C220.836 29.475 220.684 29.8348 220.414 30.1C220.145 30.3653 219.779 30.5143 219.397 30.5143C219.015 30.5143 218.649 30.3653 218.379 30.1C218.11 29.8348 217.958 29.475 217.958 29.0999V25.3514C218.007 24.7332 217.824 24.1186 217.444 23.6237C217.253 23.424 217.019 23.268 216.76 23.1667C216.501 23.0655 216.222 23.0214 215.943 23.0377C215.622 23.0219 215.3 23.0741 215 23.1909C214.701 23.3077 214.43 23.4863 214.207 23.7147C213.736 24.2586 213.504 24.963 213.559 25.6748V29.0897C213.559 29.4649 213.407 29.8247 213.138 30.0899C212.868 30.3552 212.502 30.5042 212.12 30.5042C211.738 30.5042 211.372 30.3552 211.103 30.0899C210.833 29.8247 210.681 29.4649 210.681 29.0897V22.088C210.681 21.729 210.826 21.3846 211.085 21.1307C211.343 20.8768 211.693 20.7342 212.058 20.7341H212.274C212.427 20.734 212.578 20.7634 212.719 20.8207C212.86 20.8781 212.988 20.9621 213.096 21.0682C213.204 21.1742 213.289 21.3002 213.348 21.4387C213.406 21.5773 213.436 21.7259 213.436 21.8758C213.827 21.4556 214.313 21.1305 214.854 20.9261C215.446 20.6976 216.078 20.5844 216.714 20.5927Z" fill="#BC6EA9"/>
<path d="M227.723 26.6746L226.335 28.0184V29.0893C226.335 29.4645 226.184 29.8243 225.914 30.0895C225.644 30.3548 225.278 30.5038 224.896 30.5038C224.515 30.5038 224.149 30.3548 223.879 30.0895C223.609 29.8243 223.458 29.4645 223.458 29.0893V18.4402C223.458 18.0651 223.609 17.7053 223.879 17.4401C224.149 17.1748 224.515 17.0258 224.896 17.0258C225.278 17.0258 225.644 17.1748 225.914 17.4401C226.184 17.7053 226.335 18.0651 226.335 18.4402V24.6539L230.19 21.0571C230.424 20.8384 230.737 20.7188 231.06 20.7239C231.383 20.7291 231.692 20.8586 231.919 21.0847C232.146 21.3107 232.274 21.6153 232.276 21.9332C232.277 22.251 232.152 22.5567 231.927 22.7848L229.85 24.8661L232.605 28.3114C232.765 28.5108 232.865 28.7506 232.893 29.0032C232.921 29.2558 232.876 29.511 232.764 29.7397C232.651 29.9685 232.475 30.1614 232.256 30.2966C232.037 30.4317 231.784 30.5035 231.526 30.5038C231.32 30.5045 231.117 30.4594 230.932 30.3719C230.747 30.2844 230.585 30.1568 230.457 29.9987L227.723 26.6746Z" fill="#BC6EA9"/>
<path d="M125.024 25.6033H126.422C126.689 25.6033 126.945 25.7076 127.134 25.8933C127.323 26.079 127.429 26.3308 127.429 26.5935C127.429 26.8561 127.323 27.1079 127.134 27.2936C126.945 27.4793 126.689 27.5836 126.422 27.5836H124.777L124.52 29.6043C124.505 29.7377 124.462 29.8667 124.395 29.9839C124.328 30.1011 124.238 30.2041 124.131 30.2869C124.023 30.3698 123.9 30.4309 123.768 30.4668C123.637 30.5027 123.499 30.5125 123.363 30.4959C123.228 30.4792 123.097 30.4363 122.978 30.3697C122.859 30.3031 122.755 30.214 122.672 30.1077C122.588 30.0013 122.527 29.8797 122.491 29.75C122.456 29.6203 122.447 29.4849 122.465 29.3517L122.691 27.5836H119.967L119.71 29.6144C119.675 29.8815 119.534 30.1241 119.317 30.2891C119.101 30.4541 118.826 30.5279 118.555 30.4945C118.283 30.4611 118.035 30.3231 117.867 30.1108C117.698 29.8986 117.622 29.6292 117.655 29.3618L117.881 27.5836H116.463C116.195 27.5836 115.939 27.4793 115.75 27.2936C115.561 27.1079 115.455 26.8561 115.455 26.5935C115.455 26.3308 115.561 26.079 115.75 25.8933C115.939 25.7076 116.195 25.6033 116.463 25.6033H118.128L118.518 22.6531H117.1C116.833 22.6531 116.576 22.5488 116.388 22.3631C116.199 22.1774 116.092 21.9255 116.092 21.6629C116.092 21.4003 116.199 21.1485 116.388 20.9628C116.576 20.7771 116.833 20.6728 117.1 20.6728H118.765L119.022 18.642C119.057 18.3748 119.198 18.1322 119.415 17.9673C119.631 17.8023 119.906 17.7285 120.178 17.7619C120.449 17.7953 120.697 17.9333 120.865 18.1455C121.034 18.3578 121.11 18.6272 121.077 18.8946L120.851 20.6728H123.575L123.832 18.642C123.867 18.3748 124.008 18.1322 124.225 17.9673C124.441 17.8023 124.716 17.7285 124.988 17.7619C125.26 17.7953 125.507 17.9333 125.676 18.1455C125.844 18.3578 125.92 18.6272 125.887 18.8946L125.661 20.6728H127.069C127.337 20.6728 127.593 20.7771 127.782 20.9628C127.971 21.1485 128.077 21.4003 128.077 21.6629C128.077 21.9255 127.971 22.1774 127.782 22.3631C127.593 22.5488 127.337 22.6531 127.069 22.6531H125.415L125.024 25.6033ZM122.927 25.6033L123.318 22.6531H120.594L120.204 25.6033H122.927Z" fill="#BC6EA9"/>
</svg>
