<svg width="251" height="158" viewBox="0 0 251 158" fill="none" xmlns="http://www.w3.org/2000/svg">
<g clip-path="url(#clip0)">
<g filter="url(#filter0_ddd)">
<path d="M240.583 0H10.4164C7.6566 0.00929 5.0126 1.10738 3.0611 3.0547C1.1096 5.002 0.00920082 7.6404 -9.91821e-05 10.3943V147.606C0.00740082 150.36 1.1073 153 3.0592 154.947C5.011 156.895 7.6561 157.992 10.4164 158H240.583C243.344 157.992 245.989 156.895 247.941 154.947C249.892 153 250.992 150.36 251 147.606V10.3943C250.992 7.6399 249.892 5.0004 247.941 3.0527C245.989 1.10506 243.344 0.00753 240.583 0Z" fill="#00A1AC"/>
</g>
<path d="M18.2466 68.4133C19.5356 70.7267 20.2131 73.3401 20.2131 75.9987C20.2131 78.6574 19.5356 81.2708 18.2466 83.5842C18.1251 83.8032 18.094 84.0623 18.1601 84.3045C18.2263 84.5468 18.3843 84.7525 18.5995 84.8765C18.8147 85.0005 19.0695 85.0327 19.308 84.966C19.5464 84.8992 19.7492 84.739 19.8716 84.5206C21.3257 81.9238 22.0891 78.9867 22.0865 75.9987C22.0941 73.0101 21.3304 70.0717 19.8716 67.4769C19.7487 67.2593 19.5461 67.0999 19.308 67.0337C19.0699 66.9674 18.8156 66.9997 18.6009 67.1235C18.3861 67.2472 18.2283 67.4524 18.1619 67.6941C18.0955 67.9358 18.126 68.1943 18.2466 68.4133Z" fill="white"/>
<path d="M14.8622 70.2226C15.8694 71.9751 16.3982 73.969 16.394 75.9985C16.3983 78.0295 15.8657 80.0243 14.8518 81.7744C14.7269 81.9921 14.6922 82.2512 14.7553 82.4949C14.8183 82.7386 14.9741 82.9468 15.1882 83.0737C15.4023 83.2007 15.6573 83.236 15.897 83.1719C16.1367 83.1077 16.3415 82.9495 16.4664 82.7318C17.6391 80.6881 18.257 78.3645 18.257 75.9985C18.257 73.6326 17.6391 71.309 16.4664 69.2653C16.4047 69.1567 16.3222 69.0618 16.224 68.9859C16.1257 68.9101 16.0136 68.8549 15.8941 68.8236C15.7747 68.7922 15.6503 68.7854 15.5282 68.8034C15.4061 68.8214 15.2888 68.864 15.183 68.9286C14.9744 69.0594 14.8241 69.2678 14.7642 69.5094C14.7043 69.7511 14.7394 70.0069 14.8622 70.2226Z" fill="white"/>
<path d="M11.478 72.0108C12.1956 73.2091 12.5751 74.5848 12.5751 75.9877C12.5751 77.3905 12.1956 78.7662 11.478 79.9645C11.4134 80.0702 11.37 80.1878 11.3501 80.3105C11.3303 80.4333 11.3344 80.5588 11.3623 80.68C11.3901 80.8011 11.4412 80.9155 11.5126 81.0166C11.5839 81.1176 11.6742 81.2034 11.7781 81.2691C11.8821 81.3347 11.9978 81.3789 12.1186 81.399C12.2393 81.4192 12.3628 81.415 12.482 81.3867C12.6012 81.3584 12.7137 81.3065 12.8132 81.2339C12.9126 81.1614 12.997 81.0697 13.0616 80.964C13.9664 79.4713 14.4432 77.7514 14.4381 75.9982C14.4382 74.2423 13.9619 72.5204 13.0616 71.0219C12.9304 70.8093 12.7219 70.6581 12.4816 70.6009C12.2413 70.5438 11.9885 70.5854 11.7781 70.7168C11.5698 70.8482 11.4213 71.0582 11.365 71.3007C11.3088 71.5433 11.3494 71.7986 11.478 72.0108Z" fill="white"/>
<path d="M8.2789 73.7891C8.7449 74.4281 8.9954 75.2031 8.993 75.9985C8.99 76.3986 8.9272 76.7959 8.8067 77.1768C8.6852 77.5433 8.507 77.8878 8.2789 78.1973C8.2062 78.2975 8.1536 78.4112 8.1241 78.5321C8.0946 78.6529 8.0888 78.7784 8.1071 78.9015C8.1254 79.0246 8.1673 79.1429 8.2305 79.2495C8.2937 79.3561 8.377 79.449 8.4755 79.5229C8.5741 79.5969 8.686 79.6503 8.8048 79.6803C8.9237 79.7102 9.0472 79.7161 9.1683 79.6975C9.2894 79.679 9.4057 79.6364 9.5106 79.5721C9.6155 79.5078 9.7069 79.4232 9.7797 79.323C10.1198 78.8509 10.3885 78.3296 10.5766 77.7765C10.861 76.9206 10.9371 76.0074 10.7983 75.115C10.6595 74.2227 10.3099 73.3779 9.7797 72.6529C9.7074 72.552 9.6159 72.4668 9.5106 72.4025C9.4054 72.3381 9.2885 72.2958 9.1669 72.2782C9.0454 72.2605 8.9215 72.2678 8.8028 72.2997C8.684 72.3315 8.5727 72.3872 8.4755 72.4635C8.2779 72.6138 8.1464 72.8372 8.1096 73.0853C8.0728 73.3334 8.1336 73.5863 8.2789 73.7891Z" fill="white"/>
<path d="M210.616 142.453H207.297L209.373 129.869H212.692L210.616 142.453Z" fill="white"/>
<path d="M222.648 130.177C221.698 129.818 220.689 129.637 219.671 129.641C216.394 129.641 214.086 131.355 214.072 133.804C214.044 135.612 215.724 136.616 216.98 137.218C218.264 137.834 218.701 138.236 218.701 138.785C218.688 139.628 217.663 140.017 216.708 140.017C215.63 140.046 214.56 139.816 213.594 139.347L213.157 139.146L212.692 141.971C213.872 142.42 215.128 142.647 216.394 142.641C219.876 142.641 222.143 140.954 222.17 138.343C222.184 136.911 221.297 135.813 219.384 134.916C218.224 134.34 217.513 133.952 217.513 133.363C217.526 132.827 218.114 132.279 219.424 132.279C220.275 132.254 221.12 132.419 221.897 132.761L222.197 132.894L222.648 130.177Z" fill="white"/>
<path d="M227.058 137.995C227.332 137.273 228.383 134.475 228.383 134.475C228.37 134.501 228.656 133.738 228.82 133.27L229.052 134.354C229.052 134.354 229.681 137.366 229.817 137.995H227.058ZM231.155 129.869H228.588C228.221 129.826 227.85 129.906 227.535 130.095C227.22 130.285 226.98 130.573 226.853 130.914L221.923 142.453H225.406C225.406 142.453 225.979 140.9 226.102 140.566H230.364C230.459 141.008 230.76 142.453 230.76 142.453H233.833L231.155 129.869Z" fill="white"/>
<path d="M204.526 129.869L201.275 138.45L200.92 136.71C200.111 134.454 198.476 132.574 196.332 131.435L199.309 142.44H202.818L208.035 129.869H204.526Z" fill="white"/>
<path d="M198.257 129.869H192.917L192.863 130.123C197.028 131.168 199.787 133.685 200.92 136.71L199.759 130.927C199.688 130.599 199.495 130.308 199.217 130.113C198.939 129.917 198.597 129.83 198.257 129.869Z" fill="white"/>
<path d="M30.6883 16.2052C22.6356 16.2052 16.1935 30.9827 16.1935 37.605C16.1935 45.0719 45.1728 45.0719 45.1728 37.605C45.1831 30.9827 38.741 16.2052 30.6883 16.2052ZM20.2978 35.7382C20.2978 30.6907 25.2125 19.4068 31.3637 19.4068C37.5149 19.4068 42.4296 30.6907 42.4296 35.7382C42.4193 41.4427 20.2978 41.4427 20.2978 35.7382Z" fill="white"/>
<path d="M32.8603 23.4956C29.1509 23.4956 26.1896 30.3056 26.1896 33.3508C26.1896 36.7923 39.531 36.7923 39.531 33.3508C39.5414 30.2951 36.5697 23.4956 32.8603 23.4956ZM29.0782 32.0993C29.0782 30.097 31.0316 25.6231 33.463 25.6231C35.8944 25.6231 37.8478 30.097 37.8478 32.0993C37.8478 34.3624 29.0782 34.3624 29.0782 32.0993Z" fill="white"/>
<path d="M129.538 34.1917C129.179 34.1927 128.82 34.1656 128.465 34.1109C128.289 34.0654 128.125 33.9818 127.986 33.8663C127.848 33.7508 127.737 33.6064 127.663 33.4435C127.588 33.2807 127.552 33.1037 127.557 32.9254C127.562 32.7471 127.608 32.5722 127.691 32.4135C127.795 32.2176 127.964 32.0615 128.17 31.97C128.375 31.8785 128.606 31.8568 128.826 31.9083C128.959 31.9292 129.094 31.9394 129.228 31.9386C129.393 31.9461 129.557 31.9173 129.709 31.8544C129.861 31.7914 129.996 31.6959 130.105 31.5749C130.337 31.2736 130.451 30.9006 130.425 30.5241V22.1685C130.425 21.7934 130.578 21.4336 130.848 21.1683C131.119 20.903 131.487 20.754 131.87 20.754C132.253 20.754 132.621 20.903 132.892 21.1683C133.162 21.4336 133.315 21.7934 133.315 22.1685V30.514C133.357 31.0092 133.288 31.5075 133.113 31.9739C132.938 32.4403 132.661 32.8636 132.301 33.214C131.941 33.5644 131.507 33.8335 131.03 34.0024C130.553 34.1713 130.043 34.2359 129.538 34.1917ZM131.86 19.3799C131.382 19.401 130.915 19.2378 130.559 18.9253C130.398 18.783 130.269 18.6083 130.181 18.4131C130.094 18.218 130.051 18.0067 130.054 17.7937C130.048 17.5803 130.091 17.3684 130.178 17.1729C130.266 16.9773 130.396 16.803 130.559 16.6621C130.915 16.3496 131.382 16.1863 131.86 16.2074C132.334 16.1844 132.799 16.3398 133.16 16.6419C133.32 16.7768 133.448 16.9443 133.536 17.1328C133.623 17.3213 133.667 17.5261 133.666 17.7331C133.672 17.954 133.631 18.1738 133.543 18.3777C133.456 18.5816 133.325 18.7649 133.16 18.9152C132.986 19.0734 132.781 19.1961 132.558 19.2759C132.334 19.3557 132.097 19.3911 131.86 19.3799Z" fill="white"/>
<path d="M144.595 20.7442C144.978 20.7453 145.344 20.8947 145.615 21.1597C145.886 21.4247 146.038 21.7839 146.039 22.1587V29.1705C146.039 29.347 146.004 29.5218 145.935 29.6849C145.866 29.8479 145.765 29.9961 145.638 30.1209C145.51 30.2457 145.359 30.3447 145.192 30.4122C145.026 30.4797 144.847 30.5144 144.667 30.5143H144.481C144.167 30.5143 143.865 30.3918 143.642 30.1739C143.42 29.956 143.295 29.6605 143.295 29.3524C142.914 29.7716 142.446 30.1059 141.922 30.3324C141.376 30.5538 140.79 30.6638 140.199 30.6557C139.63 30.6844 139.061 30.6007 138.525 30.4098C137.99 30.2189 137.499 29.9246 137.082 29.5444C136.673 29.0999 136.36 28.579 136.161 28.013C135.962 27.447 135.883 26.8475 135.927 26.2506V22.1385C135.927 21.7633 136.079 21.4036 136.35 21.1383C136.621 20.873 136.988 20.724 137.371 20.724C137.754 20.724 138.122 20.873 138.393 21.1383C138.664 21.4036 138.816 21.7633 138.816 22.1385V25.8263C138.816 27.4024 139.487 28.1905 140.839 28.1905C141.149 28.2023 141.458 28.1499 141.746 28.0367C142.034 27.9235 142.294 27.7522 142.51 27.5338C142.969 26.9759 143.194 26.2679 143.14 25.5535V22.1385C143.146 21.7653 143.302 21.4095 143.574 21.1484C143.847 20.8874 144.214 20.7421 144.595 20.7442Z" fill="white"/>
<path d="M154.788 20.6025C155.336 20.579 155.883 20.6635 156.398 20.8509C156.912 21.0384 157.382 21.3249 157.781 21.6936C158.188 22.127 158.501 22.6374 158.7 23.1933C158.898 23.7493 158.979 24.3392 158.937 24.9268V29.1096C158.937 29.4848 158.784 29.8445 158.513 30.1098C158.242 30.3751 157.875 30.5241 157.492 30.5241C157.109 30.5241 156.741 30.3751 156.47 30.1098C156.199 29.8445 156.047 29.4848 156.047 29.1096V25.3612C156.097 24.7429 155.913 24.1284 155.531 23.6335C155.339 23.4338 155.105 23.2777 154.844 23.1765C154.584 23.0752 154.304 23.0312 154.025 23.0475C153.701 23.0317 153.378 23.0839 153.078 23.2007C152.777 23.3174 152.505 23.4961 152.281 23.7244C151.809 24.2684 151.575 24.9728 151.631 25.6845V29.0995C151.631 29.4747 151.478 29.8344 151.207 30.0997C150.937 30.365 150.569 30.514 150.186 30.514C149.803 30.514 149.435 30.365 149.164 30.0997C148.893 29.8344 148.741 29.4747 148.741 29.0995V22.0978C148.741 21.7387 148.887 21.3944 149.146 21.1405C149.406 20.8866 149.757 20.7439 150.124 20.7439H150.341C150.494 20.7438 150.646 20.7732 150.787 20.8305C150.929 20.8878 151.057 20.9719 151.166 21.078C151.274 21.184 151.36 21.3099 151.418 21.4485C151.477 21.5871 151.507 21.7356 151.507 21.8856C151.902 21.463 152.393 21.1376 152.941 20.9359C153.528 20.7065 154.156 20.5932 154.788 20.6025Z" fill="white"/>
<path d="M161.559 22.1584C161.559 21.7833 161.711 21.4235 161.982 21.1582C162.253 20.8929 162.621 20.7439 163.004 20.7439C163.387 20.7439 163.754 20.8929 164.025 21.1582C164.296 21.4235 164.448 21.7833 164.448 22.1584V29.0995C164.448 29.4747 164.296 29.8344 164.025 30.0997C163.754 30.365 163.387 30.514 163.004 30.514C162.621 30.514 162.253 30.365 161.982 30.0997C161.711 29.8344 161.559 29.4747 161.559 29.0995V22.1584ZM163.004 19.3799C162.526 19.401 162.059 19.2378 161.704 18.9253C161.542 18.783 161.413 18.6083 161.326 18.4131C161.238 18.218 161.195 18.0067 161.198 17.7937C161.192 17.5803 161.235 17.3684 161.322 17.1729C161.41 16.9773 161.54 16.803 161.704 16.6621C162.059 16.3496 162.526 16.1863 163.004 16.2074C163.478 16.1844 163.943 16.3398 164.304 16.6419C164.464 16.7768 164.593 16.9443 164.68 17.1328C164.767 17.3213 164.812 17.5261 164.81 17.7331C164.816 17.954 164.775 18.1738 164.688 18.3777C164.6 18.5816 164.47 18.7649 164.304 18.9152C163.95 19.2317 163.483 19.3987 163.004 19.3799Z" fill="white"/>
<path d="M171.889 30.6658C170.904 30.6816 169.93 30.4632 169.051 30.0292C168.248 29.612 167.574 28.9908 167.1 28.2308C166.624 27.4463 166.381 26.5469 166.399 25.6342C166.384 24.722 166.627 23.8235 167.1 23.0376C167.569 22.2788 168.244 21.6629 169.051 21.2594C169.927 20.8153 170.902 20.5897 171.889 20.6027C172.869 20.5873 173.838 20.8131 174.706 21.2594C175.51 21.666 176.185 22.2811 176.656 23.0376C177.133 23.8221 177.376 24.7215 177.358 25.6342C177.372 26.5465 177.129 27.4449 176.656 28.2308C176.186 28.9932 175.511 29.615 174.706 30.0292C173.834 30.4642 172.867 30.6828 171.889 30.6658ZM171.889 28.342C172.227 28.3541 172.564 28.2954 172.877 28.17C173.19 28.0446 173.472 27.8552 173.705 27.6145C174.204 27.0742 174.464 26.362 174.427 25.6342C174.447 25.2768 174.394 24.919 174.27 24.5822C174.145 24.2455 173.953 23.9367 173.705 23.6741C173.474 23.4296 173.193 23.2363 172.88 23.1073C172.566 22.9783 172.228 22.9166 171.889 22.9265C171.546 22.9176 171.205 22.9795 170.889 23.1084C170.572 23.2372 170.287 23.43 170.052 23.6741C169.804 23.9372 169.612 24.2461 169.488 24.5827C169.364 24.9193 169.31 25.2768 169.329 25.6342C169.31 25.9946 169.364 26.3552 169.488 26.6951C169.612 27.035 169.804 27.3475 170.052 27.6145C170.29 27.8539 170.576 28.0423 170.892 28.1675C171.208 28.2928 171.548 28.3522 171.889 28.342Z" fill="white"/>
<path d="M182.064 22.0368C182.418 21.5608 182.901 21.1901 183.457 20.9658C183.704 20.8658 183.959 20.788 184.221 20.7335C184.384 20.7071 184.552 20.7172 184.71 20.7629C184.869 20.8086 185.016 20.8888 185.139 20.9975C185.262 21.1062 185.358 21.2407 185.421 21.3909C185.483 21.5411 185.51 21.7032 185.5 21.8651V22.5824C185.498 22.6635 185.479 22.7433 185.445 22.8173C185.411 22.8913 185.363 22.9579 185.302 23.0134C185.242 23.0688 185.171 23.112 185.093 23.1403C185.015 23.1687 184.933 23.1816 184.85 23.1785C184.495 23.1601 184.139 23.2113 183.804 23.3293C183.469 23.4473 183.162 23.6296 182.9 23.8656C182.647 24.1392 182.455 24.4606 182.334 24.8099C182.214 25.1591 182.167 25.5289 182.198 25.8964V29.0992C182.198 29.4743 182.046 29.8341 181.775 30.0994C181.504 30.3646 181.137 30.5137 180.753 30.5137C180.37 30.5137 180.003 30.3646 179.732 30.0994C179.461 29.8341 179.309 29.4743 179.309 29.0992V22.0974C179.309 21.7384 179.454 21.394 179.714 21.1401C179.973 20.8862 180.325 20.7436 180.691 20.7436H180.753C180.926 20.7441 181.097 20.778 181.257 20.8433C181.416 20.9086 181.561 21.004 181.683 21.1241C181.804 21.2443 181.901 21.3867 181.966 21.5433C182.031 21.6999 182.065 21.8676 182.064 22.0368Z" fill="white"/>
<path d="M193.301 20.5924C194.186 20.5823 195.058 20.802 195.829 21.229C196.588 21.6335 197.211 22.244 197.624 22.987C198.073 23.7951 198.297 24.7044 198.274 25.624C198.295 26.5497 198.071 27.4649 197.624 28.2812C197.205 29.0199 196.583 29.6289 195.829 30.0392C195.055 30.4564 194.184 30.6688 193.301 30.6555C192.713 30.6925 192.125 30.597 191.581 30.3762C191.037 30.1555 190.552 29.8156 190.163 29.3825C190.164 29.5312 190.134 29.6784 190.076 29.8158C190.018 29.9532 189.933 30.0781 189.826 30.1832C189.718 30.2883 189.591 30.3717 189.45 30.4285C189.31 30.4852 189.16 30.5143 189.008 30.5141H188.781C188.414 30.5141 188.062 30.3714 187.803 30.1175C187.544 29.8636 187.398 29.5193 187.398 29.1602V18.4505C187.398 18.0754 187.55 17.7156 187.821 17.4503C188.092 17.185 188.459 17.036 188.843 17.036C189.226 17.036 189.593 17.185 189.864 17.4503C190.135 17.7156 190.287 18.0754 190.287 18.4505V21.7746C190.673 21.377 191.142 21.0656 191.662 20.8616C192.182 20.6575 192.741 20.5658 193.301 20.5924ZM192.805 28.3317C193.143 28.3438 193.48 28.2852 193.793 28.1598C194.107 28.0343 194.389 27.845 194.621 27.6043C195.121 27.064 195.38 26.3517 195.344 25.624C195.364 25.2665 195.31 24.9088 195.186 24.572C195.062 24.2353 194.87 23.9264 194.621 23.6639C194.391 23.4193 194.109 23.226 193.796 23.0971C193.483 22.9681 193.145 22.9064 192.805 22.9163C192.463 22.9073 192.122 22.9693 191.805 23.0982C191.489 23.227 191.204 23.4198 190.968 23.6639C190.478 24.2004 190.226 24.9054 190.267 25.624C190.231 26.348 190.482 27.0575 190.968 27.6043C191.206 27.8437 191.492 28.0321 191.809 28.1573C192.125 28.2825 192.464 28.3419 192.805 28.3317Z" fill="white"/>
<path d="M204.085 20.5924C205.369 20.5075 206.639 20.8968 207.645 21.6836C208.082 22.1042 208.42 22.6133 208.636 23.1752C208.852 23.7371 208.94 24.3383 208.893 24.9369V29.1905C208.894 29.3644 208.859 29.5366 208.791 29.6973C208.723 29.858 208.624 30.004 208.498 30.1269C208.372 30.2499 208.223 30.3474 208.059 30.4138C207.895 30.4802 207.719 30.5143 207.542 30.514H207.428C207.264 30.5143 207.102 30.4829 206.95 30.4216C206.798 30.3602 206.661 30.2702 206.545 30.1566C206.429 30.043 206.337 29.9081 206.274 29.7597C206.211 29.6112 206.179 29.4521 206.179 29.2915C205.848 29.7697 205.389 30.1497 204.852 30.3901C204.315 30.6306 203.722 30.7224 203.135 30.6555C202.448 30.6691 201.765 30.5382 201.133 30.2715C200.614 30.047 200.17 29.6826 199.854 29.2208C199.554 28.7667 199.4 28.2356 199.41 27.6951C199.393 27.2821 199.48 26.8714 199.661 26.4982C199.843 26.1251 200.114 25.8008 200.452 25.5532C201.423 24.9601 202.562 24.6875 203.703 24.7752H206.004C206.021 24.5123 205.978 24.2489 205.878 24.0042C205.778 23.7596 205.624 23.5398 205.426 23.3607C204.937 22.9868 204.322 22.8065 203.703 22.8556C203.166 22.8539 202.632 22.9393 202.124 23.1082C202.083 23.1183 202.031 23.1385 201.99 23.1486C201.676 23.275 201.326 23.2896 201.002 23.19C200.677 23.0903 200.399 22.8826 200.215 22.603C200.152 22.4939 200.111 22.3735 200.096 22.2489C200.081 22.1243 200.092 21.9981 200.127 21.8776C200.163 21.757 200.223 21.6447 200.304 21.5472C200.384 21.4497 200.484 21.3689 200.597 21.3097C200.963 21.1432 201.342 21.008 201.732 20.9056C202.498 20.6948 203.289 20.5894 204.085 20.5924ZM203.858 28.7459C204.319 28.753 204.775 28.6416 205.179 28.4226C205.562 28.193 205.85 27.839 205.994 27.4224V26.4221H204.012C202.826 26.4221 202.227 26.806 202.227 27.5638C202.222 27.7312 202.257 27.8974 202.331 28.0485C202.405 28.1997 202.514 28.3314 202.65 28.4327C203.009 28.6595 203.431 28.7692 203.858 28.7459Z" fill="white"/>
<path d="M217.581 20.5928C218.129 20.5694 218.676 20.6539 219.191 20.8413C219.705 21.0287 220.175 21.3153 220.574 21.684C220.98 22.1181 221.291 22.6288 221.487 23.1848C221.684 23.7407 221.763 24.3302 221.719 24.9171V29.1C221.719 29.4751 221.567 29.8349 221.296 30.1002C221.025 30.3654 220.658 30.5145 220.275 30.5145C219.891 30.5145 219.524 30.3654 219.253 30.1002C218.982 29.8349 218.83 29.4751 218.83 29.1V25.3516C218.879 24.7333 218.696 24.1187 218.314 23.6239C218.122 23.4241 217.888 23.2681 217.627 23.1668C217.367 23.0656 217.087 23.0215 216.807 23.0379C216.484 23.022 216.161 23.0742 215.86 23.191C215.559 23.3078 215.288 23.4864 215.063 23.7148C214.591 24.2587 214.358 24.9632 214.413 25.6749V29.0899C214.413 29.465 214.261 29.8248 213.99 30.0901C213.719 30.3553 213.352 30.5044 212.969 30.5044C212.585 30.5044 212.218 30.3553 211.947 30.0901C211.676 29.8248 211.524 29.465 211.524 29.0899V22.0881C211.524 21.7291 211.67 21.3847 211.929 21.1308C212.188 20.8769 212.54 20.7343 212.907 20.7343H213.123C213.277 20.7341 213.428 20.7635 213.57 20.8209C213.711 20.8782 213.84 20.9623 213.948 21.0683C214.057 21.1744 214.142 21.3003 214.201 21.4389C214.26 21.5775 214.29 21.726 214.289 21.876C214.683 21.4557 215.17 21.1306 215.713 20.9262C216.308 20.6978 216.942 20.5845 217.581 20.5928Z" fill="white"/>
<path d="M228.634 26.6747L227.241 28.0185V29.0895C227.241 29.4646 227.089 29.8244 226.818 30.0897C226.547 30.3549 226.179 30.504 225.796 30.504C225.413 30.504 225.046 30.3549 224.775 30.0897C224.504 29.8244 224.351 29.4646 224.351 29.0895V18.4404C224.351 18.0652 224.504 17.7054 224.775 17.4402C225.046 17.1749 225.413 17.0259 225.796 17.0259C226.179 17.0259 226.547 17.1749 226.818 17.4402C227.089 17.7054 227.241 18.0652 227.241 18.4404V24.654L231.11 21.0572C231.346 20.8385 231.66 20.7189 231.984 20.7241C232.309 20.7292 232.618 20.8587 232.847 21.0848C233.075 21.3108 233.203 21.6155 233.205 21.9333C233.206 22.2511 233.081 22.5568 232.854 22.7849L230.77 24.8662L233.535 28.3115C233.696 28.511 233.796 28.7507 233.825 29.0033C233.853 29.2559 233.808 29.5111 233.695 29.7399C233.582 29.9686 233.405 30.1615 233.185 30.2967C232.966 30.4318 232.711 30.5036 232.452 30.504C232.246 30.5046 232.042 30.4595 231.856 30.372C231.67 30.2845 231.507 30.1569 231.379 29.9988L228.634 26.6747Z" fill="white"/>
<path d="M125.524 25.6034H126.928C127.196 25.6034 127.453 25.7078 127.643 25.8934C127.832 26.0791 127.939 26.331 127.939 26.5936C127.939 26.8562 127.832 27.108 127.643 27.2937C127.453 27.4794 127.196 27.5837 126.928 27.5837H125.277L125.019 29.6044C125.003 29.7379 124.96 29.8669 124.893 29.984C124.825 30.1012 124.735 30.2042 124.627 30.2871C124.519 30.3699 124.396 30.4311 124.263 30.4669C124.131 30.5028 123.993 30.5127 123.857 30.496C123.721 30.4793 123.589 30.4365 123.47 30.3698C123.351 30.3032 123.246 30.2141 123.162 30.1078C123.079 30.0014 123.017 29.8799 122.981 29.7501C122.946 29.6204 122.937 29.485 122.955 29.3518L123.182 27.5837H120.447L120.189 29.6145C120.154 29.8817 120.012 30.1243 119.795 30.2892C119.577 30.4542 119.302 30.528 119.029 30.4946C118.756 30.4612 118.508 30.3233 118.338 30.111C118.169 29.8987 118.092 29.6293 118.125 29.3619L118.352 27.5837H116.928C116.66 27.5837 116.403 27.4794 116.213 27.2937C116.024 27.108 115.917 26.8562 115.917 26.5936C115.917 26.331 116.024 26.0791 116.213 25.8934C116.403 25.7078 116.66 25.6034 116.928 25.6034H118.6L118.992 22.6532H117.568C117.3 22.6532 117.043 22.5489 116.853 22.3632C116.663 22.1775 116.557 21.9257 116.557 21.6631C116.557 21.4005 116.663 21.1486 116.853 20.9629C117.043 20.7772 117.3 20.6729 117.568 20.6729H119.24L119.498 18.6421C119.533 18.375 119.675 18.1324 119.892 17.9674C120.11 17.8025 120.385 17.7286 120.658 17.762C120.931 17.7954 121.18 17.9334 121.349 18.1457C121.518 18.358 121.595 18.6273 121.562 18.8947L121.335 20.6729H124.069L124.327 18.6421C124.362 18.375 124.504 18.1324 124.722 17.9674C124.939 17.8025 125.215 17.7286 125.488 17.762C125.761 17.7954 126.009 17.9334 126.178 18.1457C126.348 18.358 126.424 18.6273 126.391 18.8947L126.164 20.6729H127.578C127.846 20.6729 128.103 20.7772 128.293 20.9629C128.482 21.1486 128.589 21.4005 128.589 21.6631C128.589 21.9257 128.482 22.1775 128.293 22.3632C128.103 22.5489 127.846 22.6532 127.578 22.6532H125.916L125.524 25.6034ZM123.419 25.6034L123.811 22.6532H121.077L120.685 25.6034H123.419Z" fill="white"/>
</g>
<defs>
<filter id="filter0_ddd" x="-24.0001" y="-8" width="299" height="206" filterUnits="userSpaceOnUse" color-interpolation-filters="sRGB">
<feFlood flood-opacity="0" result="BackgroundImageFix"/>
<feColorMatrix in="SourceAlpha" type="matrix" values="0 0 0 0 0 0 0 0 0 0 0 0 0 0 0 0 0 0 127 0"/>
<feOffset/>
<feGaussianBlur stdDeviation="0.5"/>
<feColorMatrix type="matrix" values="0 0 0 0 0 0 0 0 0 0 0 0 0 0 0 0 0 0 0.04 0"/>
<feBlend mode="normal" in2="BackgroundImageFix" result="effect1_dropShadow"/>
<feColorMatrix in="SourceAlpha" type="matrix" values="0 0 0 0 0 0 0 0 0 0 0 0 0 0 0 0 0 0 127 0"/>
<feOffset dy="2"/>
<feGaussianBlur stdDeviation="3"/>
<feColorMatrix type="matrix" values="0 0 0 0 0 0 0 0 0 0.631373 0 0 0 0 0.67451 0 0 0 0.12 0"/>
<feBlend mode="normal" in2="effect1_dropShadow" result="effect2_dropShadow"/>
<feColorMatrix in="SourceAlpha" type="matrix" values="0 0 0 0 0 0 0 0 0 0 0 0 0 0 0 0 0 0 127 0"/>
<feOffset dy="16"/>
<feGaussianBlur stdDeviation="12"/>
<feColorMatrix type="matrix" values="0 0 0 0 0 0 0 0 0 0.631373 0 0 0 0 0.67451 0 0 0 0.15 0"/>
<feBlend mode="normal" in2="effect2_dropShadow" result="effect3_dropShadow"/>
<feBlend mode="normal" in="SourceGraphic" in2="effect3_dropShadow" result="shape"/>
</filter>
<clipPath id="clip0">
<rect width="251" height="158" fill="white"/>
</clipPath>
</defs>
</svg>
