<svg width="32" height="32" viewBox="0 0 32 32" fill="none" xmlns="http://www.w3.org/2000/svg">
<rect x="-0.00012207" width="32" height="32" rx="8" fill="#2D72E5"/>
<path d="M16.5 5.32812C10.8891 5.32812 6.32812 9.88906 6.32812 15.5C6.32812 17.2227 6.75456 18.9126 7.59128 20.4055L6.72194 23.5884C6.57428 24.097 6.72175 24.6219 7.09909 24.9993C7.47643 25.3766 8.00169 25.5243 8.51028 25.3931L11.8242 24.5234C13.268 25.2781 14.8757 25.6719 16.5163 25.6719C22.1273 25.6719 26.6882 21.1109 26.6882 15.5C26.6882 12.7766 25.6383 10.2335 23.7188 8.31393C21.7828 6.3944 19.2234 5.32812 16.5 5.32812ZM16.5 6.3125C18.9609 6.3125 21.2742 7.26413 22.9968 9.00319C24.7359 10.7423 25.7039 13.0555 25.6875 15.5C25.6875 20.5695 21.5695 24.6875 16.5 24.6875C14.9742 24.6875 13.4483 24.2936 12.103 23.5717C12.0374 23.5389 11.9556 23.5064 11.8736 23.5064C11.8243 23.5064 11.7914 23.5063 11.7422 23.5227L8.24753 24.4414C8.00143 24.507 7.83763 24.3757 7.772 24.31C7.70638 24.2444 7.575 24.0806 7.64062 23.8345L8.55931 20.4546C8.59212 20.3233 8.57591 20.1923 8.51028 20.0774C7.72278 18.6993 7.3125 17.1078 7.3125 15.5C7.3125 10.4305 11.4305 6.3125 16.5 6.3125ZM16.5 7.78906C12.2508 7.78906 8.78906 11.2344 8.78906 15.5C8.78906 16.8617 9.15013 18.1906 9.82278 19.3555C10.0853 19.8148 10.1508 20.3561 10.0195 20.8647L9.54369 22.5874L11.3814 22.1118C11.5454 22.0626 11.7095 22.0462 11.8736 22.0462C12.2017 22.0462 12.5297 22.1282 12.8086 22.2923C13.9406 22.8829 15.2039 23.2109 16.5 23.2109C20.7492 23.2109 24.2109 19.7492 24.2109 15.5C24.2109 13.4328 23.4069 11.4967 21.9467 10.0366C20.503 8.59284 18.5672 7.78906 16.5 7.78906ZM13.071 11.021H13.5305C13.711 11.021 13.8913 11.0374 14.0717 11.4311C14.285 11.9069 14.7608 13.1046 14.81 13.2195C14.8757 13.3343 14.9087 13.4819 14.8267 13.646C14.7447 13.81 14.7118 13.9085 14.5806 14.0561C14.4658 14.2038 14.3179 14.3681 14.2195 14.4829C14.1046 14.5978 13.9734 14.729 14.1211 14.9751C14.2688 15.2212 14.7444 16.0086 15.4663 16.6484C16.385 17.4688 17.1726 17.7314 17.4187 17.8462C17.6648 17.9611 17.7962 17.9446 17.9439 17.7805C18.0915 17.6165 18.5508 17.0749 18.7148 16.8288C18.8789 16.5827 19.0431 16.6321 19.2564 16.7141C19.4861 16.7962 20.6673 17.3866 20.9133 17.5014C21.1594 17.6163 21.3233 17.6821 21.3725 17.7805C21.4382 17.9118 21.4383 18.3874 21.2415 18.9617C21.0446 19.5195 20.0602 20.0773 19.6008 20.1101C19.1579 20.1429 18.7475 20.3071 16.6967 19.5032C14.2358 18.5352 12.6773 16.0085 12.5625 15.8445C12.4477 15.6804 11.5781 14.5322 11.5781 13.3345C11.5781 12.1368 12.2014 11.5625 12.4311 11.3164C12.6608 11.0703 12.907 11.021 13.071 11.021Z" fill="white"/>
</svg>
