<svg width="70" height="71" viewBox="0 0 70 71" fill="none" xmlns="http://www.w3.org/2000/svg">
<path d="M34.8867 0.381378C15.9057 0.169693 0.32207 34.948 0.147575 50.5943C-0.0494253 68.2586 68.2971 69.0208 68.4941 51.3565C68.6686 35.711 53.8678 0.593064 34.8867 0.381378Z" fill="white"/>
<path d="M50.3736 28.934C50.3442 28.6646 50.1041 28.5446 49.9254 28.5446C49.7466 28.5446 45.8268 28.2458 45.8268 28.2458C45.8268 28.2458 43.1046 25.5236 42.7751 25.2542C42.4764 24.9554 41.9069 25.0448 41.6681 25.1048C41.6388 25.1048 41.0693 25.2848 40.1423 25.5836C39.2153 22.9201 37.6295 20.4967 34.7873 20.4967H34.5179C33.7377 19.4791 32.7214 19.0002 31.8838 19.0002C25.3017 19.0002 22.13 27.2281 21.1431 31.4174C18.5702 32.2257 16.7444 32.7632 16.535 32.8539C15.0985 33.302 15.0692 33.3327 14.8891 34.6785C14.7397 35.6961 10.9999 64.6278 10.9999 64.6278L40.1117 70.0735L55.9099 66.6631C55.9393 66.6031 50.4042 29.2034 50.3736 28.934ZM38.5258 26.0011C37.8083 26.2105 36.94 26.4799 36.073 26.7787V26.2412C36.073 24.626 35.8636 23.3096 35.4742 22.2613C36.9694 22.4413 37.8976 24.0871 38.5258 26.0011ZM33.6483 22.5907C34.0378 23.6083 34.3072 25.0448 34.3072 27.0187V27.3175C32.692 27.8257 30.9862 28.3352 29.2203 28.9033C30.2073 25.1341 32.0932 23.2789 33.6483 22.5907ZM31.7331 20.7355C32.0319 20.7355 32.3319 20.8555 32.5707 21.0342C30.4461 22.0212 28.2027 24.5047 27.2744 29.5316C25.8686 29.9797 24.5216 30.3692 23.2358 30.788C24.3134 26.9587 27.0063 20.7355 31.7331 20.7355Z" fill="#2D72E5"/>
<path d="M49.9258 28.4846C49.7457 28.4846 45.8271 28.1858 45.8271 28.1858C45.8271 28.1858 43.1049 25.4636 42.7755 25.1942C42.6542 25.0742 42.5048 25.0142 42.3861 25.0142L40.2014 70.0735L55.9997 66.6631C55.9997 66.6631 50.4646 29.2034 50.4339 28.934C50.3139 28.6646 50.1045 28.5446 49.9258 28.4846Z" fill="#1D51A8"/>
<path d="M24.7967 37.7786C19.9476 38.2533 16.2941 49.8357 16.3952 54.856C16.5093 60.5166 33.9595 58.8083 33.8455 53.1477C33.7506 48.1268 29.6457 37.3039 24.7967 37.7786ZM18.8382 53.1989C18.7611 49.3724 21.5482 40.5285 25.2522 40.1659C28.9563 39.8033 32.0881 48.0678 32.1652 51.8942C32.246 56.2194 18.9253 57.5234 18.8382 53.1989Z" fill="white"/>
<path d="M26.745 43.2844C24.4468 43.5094 22.7124 48.6704 22.7573 50.898C22.808 53.4154 31.0739 52.6062 31.0232 50.0888C30.9846 47.853 29.0433 43.0594 26.745 43.2844ZM24.5285 49.8073C24.499 48.3427 25.6434 44.9515 27.1498 44.804C28.6562 44.6566 29.9324 47.8108 29.9619 49.2754C29.9952 50.9308 24.5619 51.4627 24.5285 49.8073Z" fill="white"/>
</svg>
