<svg width="70" height="66" viewBox="0 0 70 66" fill="none" xmlns="http://www.w3.org/2000/svg">
<path d="M34.8867 0.381378C15.9057 0.169693 0.322039 34.948 0.147544 50.5943C-0.0494558 68.2586 68.297 69.0208 68.494 51.3565C68.6685 35.711 53.8678 0.593064 34.8867 0.381378Z" fill="white"/>
<path d="M42.4638 27.9997C45.0611 27.9997 46.4312 24.9233 44.6937 22.9928L34.8002 12L24.9067 22.9928C23.1692 24.9233 24.5393 27.9997 27.1366 27.9997H42.4638Z" fill="#2D72E5"/>
<path d="M30.0004 19.9995H39.6002V51.9988H30.0004V19.9995Z" fill="#2D72E5"/>
<path d="M16.8006 37.7996C16.8006 36.1427 18.1437 34.7996 19.8006 34.7996H48.9999C50.6567 34.7996 51.9999 36.1427 51.9999 37.7996V62.1989C51.9999 63.8558 50.6567 65.1989 48.9999 65.1989H19.8006C18.1437 65.1989 16.8006 63.8558 16.8006 62.1989V37.7996Z" fill="#8BB6FF"/>
<path d="M16.8006 34.7996V61.999C16.8006 63.7663 18.2333 65.1989 20.0005 65.1989V37.9995H48.7999V65.1989C50.5672 65.1989 51.9999 63.7663 51.9999 61.999V34.7996H16.8006Z" fill="#2D72E5"/>
<path d="M34.3995 44.3994C33.5508 44.3994 32.7369 44.7365 32.1368 45.3367C31.5367 45.9368 31.1996 46.7507 31.1996 47.5993C31.1996 48.448 31.5367 49.2619 32.1368 49.862C32.7369 50.4621 33.5508 50.7993 34.3995 50.7993C35.2482 50.7993 36.0621 50.4621 36.6622 49.862C37.2623 49.2619 37.5994 48.448 37.5994 47.5993C37.5994 46.7507 37.2623 45.9368 36.6622 45.3367C36.0621 44.7365 35.2482 44.3994 34.3995 44.3994ZM24.7997 65.199C24.7997 59.8967 29.0972 55.5992 34.3995 55.5992C39.7018 55.5992 43.9993 59.8967 43.9993 65.199H24.7997Z" fill="white"/>
<path d="M18.4014 36.3997V43.1531C19.2525 43.9195 20.3661 44.3995 21.6013 44.3995C24.2524 44.3995 26.4012 42.2507 26.4012 39.5996C26.4012 38.3644 25.9212 37.2508 25.1548 36.3997H18.4014ZM50.4007 36.3997H43.6472C42.8809 37.2508 42.4009 38.3644 42.4009 39.5996C42.4009 42.2507 44.5496 44.3995 47.2008 44.3995C48.4359 44.3995 49.5495 43.9195 50.4007 43.1531V36.3997Z" fill="#2D72E5"/>
</svg>
