<svg width="34" height="34" viewBox="0 0 34 34" fill="none" xmlns="http://www.w3.org/2000/svg">
<path d="M17 0.53125C7.91563 0.53125 0.53125 7.91563 0.53125 17C0.53125 19.7891 1.22167 22.5251 2.57635 24.9423L1.16885 30.0955C0.929791 30.919 1.16854 31.7689 1.77948 32.3798C2.39042 32.9907 3.24083 33.2299 4.06427 33.0174L9.42969 31.6094C11.7672 32.8312 14.3702 33.4688 17.0265 33.4688C26.1108 33.4688 33.4952 26.0844 33.4952 17C33.4952 12.5906 31.7953 8.47323 28.6875 5.36542C25.5531 2.2576 21.4094 0.53125 17 0.53125ZM17 2.125C20.9844 2.125 24.7296 3.66573 27.5186 6.48135C30.3343 9.29698 31.9016 13.0422 31.875 17C31.875 25.2078 25.2078 31.875 17 31.875C14.5297 31.875 12.0592 31.2373 9.88104 30.0685C9.77479 30.0154 9.6424 29.9627 9.50958 29.9627C9.4299 29.9627 9.37656 29.9626 9.29688 29.9892L3.63885 31.4766C3.24042 31.5828 2.97521 31.3701 2.86896 31.2639C2.76271 31.1576 2.55 30.8924 2.65625 30.494L4.14365 25.0217C4.19677 24.8092 4.17052 24.597 4.06427 24.411C2.78927 22.1798 2.125 19.6031 2.125 17C2.125 8.79219 8.79219 2.125 17 2.125ZM17 4.51562C10.1203 4.51562 4.51562 10.0938 4.51562 17C4.51562 19.2047 5.10021 21.3563 6.18927 23.2422C6.61427 23.9859 6.72031 24.8623 6.50781 25.6857L5.7374 28.4748L8.71271 27.7049C8.97833 27.6252 9.24396 27.5985 9.50958 27.5985C10.0408 27.5985 10.5719 27.7314 11.0234 27.997C12.8563 28.9532 14.9016 29.4844 17 29.4844C23.8797 29.4844 29.4844 23.8797 29.4844 17C29.4844 13.6531 28.1826 10.5185 25.8185 8.15448C23.481 5.81698 20.3469 4.51562 17 4.51562ZM11.4483 9.74823H12.1923C12.4845 9.74823 12.7764 9.77479 13.0685 10.4123C13.4139 11.1826 14.1842 13.1218 14.2639 13.3077C14.3701 13.4936 14.4236 13.7326 14.2908 13.9982C14.158 14.2639 14.1049 14.4232 13.8924 14.6623C13.7065 14.9014 13.4671 15.1674 13.3077 15.3533C13.1218 15.5393 12.9094 15.7518 13.1484 16.1502C13.3875 16.5486 14.1576 17.8234 15.3264 18.8594C16.8139 20.1875 18.089 20.6127 18.4874 20.7986C18.8858 20.9846 19.0986 20.9579 19.3377 20.6923C19.5768 20.4267 20.3203 19.5499 20.5859 19.1515C20.8516 18.753 21.1174 18.8329 21.4627 18.9657C21.8346 19.0985 23.747 20.0545 24.1454 20.2404C24.5439 20.4264 24.8092 20.5329 24.8889 20.6923C24.9951 20.9048 24.9954 21.6749 24.6767 22.6046C24.3579 23.5077 22.7642 24.4108 22.0204 24.464C21.3032 24.5171 20.6389 24.7829 17.3185 23.4814C13.3342 21.9142 10.8109 17.8233 10.625 17.5577C10.4391 17.2921 9.03125 15.433 9.03125 13.494C9.03125 11.5549 10.0404 10.625 10.4123 10.2266C10.7842 9.82812 11.1827 9.74823 11.4483 9.74823Z" fill="#2D72E5"/>
</svg>
