<svg width="162" height="49" viewBox="0 0 162 49" fill="none" xmlns="http://www.w3.org/2000/svg">
<path d="M160.925 43.1703C160.925 43.7745 160.806 44.3727 160.575 44.9308C160.343 45.4888 160.004 45.9958 159.577 46.4228C159.149 46.8498 158.642 47.1883 158.083 47.419C157.525 47.6498 156.926 47.7682 156.322 47.7676H5.67774C4.45676 47.7689 3.28527 47.2853 2.42089 46.4232C1.55652 45.561 1.07004 44.391 1.06845 43.1703V6.50866C1.07004 5.28746 1.55633 4.11679 2.42053 3.25372C3.28473 2.39065 4.45621 1.90571 5.67774 1.9054H156.321C156.925 1.9054 157.524 2.02447 158.083 2.25582C158.641 2.48717 159.149 2.82627 159.576 3.25373C160.004 3.6812 160.343 4.18867 160.574 4.74716C160.805 5.30565 160.924 5.90421 160.924 6.50866L160.925 43.1703Z" fill="white"/>
<path d="M156.322 48.837H5.67774C4.17364 48.8367 2.73109 48.2399 1.66663 47.1775C0.602167 46.1151 0.00273983 44.674 -0.00012207 43.1703L-0.00012207 6.5098C0.00210303 5.00535 0.601134 3.5632 1.66556 2.49973C2.72999 1.43626 4.17289 0.838306 5.67774 0.837036L156.321 0.837036C157.825 0.83894 159.268 1.4371 160.332 2.50043C161.396 3.56377 161.996 5.00554 161.999 6.5098V43.1703C162.001 46.2959 159.45 48.837 156.322 48.837Z" fill="#A6A6A6"/>
<path d="M160.925 43.1703C160.925 43.7745 160.806 44.3727 160.575 44.9308C160.343 45.4888 160.004 45.9958 159.577 46.4228C159.149 46.8498 158.642 47.1883 158.083 47.419C157.525 47.6498 156.926 47.7682 156.322 47.7676H5.67774C4.45676 47.7689 3.28527 47.2853 2.42089 46.4232C1.55652 45.561 1.07004 44.391 1.06845 43.1703V6.50866C1.07004 5.28746 1.55633 4.11679 2.42053 3.25372C3.28473 2.39065 4.45621 1.90571 5.67774 1.9054H156.321C156.925 1.9054 157.524 2.02447 158.083 2.25582C158.641 2.48717 159.149 2.82627 159.576 3.25373C160.004 3.6812 160.343 4.18867 160.574 4.74716C160.805 5.30565 160.924 5.90421 160.924 6.50866L160.925 43.1703Z" fill="black"/>
<path d="M36.173 24.5843C36.1382 20.7157 39.3415 18.8335 39.488 18.7459C37.6738 16.1016 34.8619 15.7403 33.8738 15.7115C31.5121 15.463 29.2213 17.1243 28.0182 17.1243C26.7911 17.1243 24.9385 15.7355 22.9419 15.7763C20.3725 15.8159 17.9688 17.3031 16.6505 19.6126C13.9298 24.3214 15.9589 31.2414 18.5655 35.0476C19.8694 36.9129 21.393 38.9931 23.3873 38.9199C25.3384 38.8406 26.0672 37.6775 28.4216 37.6775C30.7545 37.6775 31.4389 38.9199 33.4728 38.873C35.5667 38.8406 36.885 37.0005 38.1433 35.1196C39.6501 32.9842 40.2552 30.8789 40.2792 30.7708C40.2312 30.754 36.2138 29.22 36.173 24.5843ZM32.3309 13.2076C33.3803 11.8956 34.0983 10.1107 33.899 8.29944C32.3802 8.36666 30.4807 9.34973 29.3869 10.6329C28.4192 11.7636 27.5548 13.6169 27.7781 15.3598C29.4842 15.487 31.2359 14.4991 32.3309 13.2076Z" fill="white"/>
<path d="M156.322 0.837036H75.6323L107.237 48.837H156.322C157.826 48.8358 159.269 48.2381 160.333 47.1752C161.398 46.1122 161.997 44.6707 162 43.1667V6.5098C161.997 5.00544 161.398 3.56349 160.334 2.50008C159.269 1.43668 157.827 0.838623 156.322 0.837036V0.837036Z" fill="url(#paint0_linear)"/>
<path d="M64.4326 38.6525H61.706L60.2124 33.9604H55.0208L53.598 38.6525H50.9434L56.0881 22.6785H59.2651L64.4326 38.6525ZM59.7621 31.9918L58.4114 27.8207C58.2685 27.3946 57.9996 26.3911 57.6058 24.8115H57.5577C57.3992 25.4909 57.1459 26.4943 56.7989 27.8207L55.471 31.9918H59.7621ZM77.6374 32.7517C77.6374 34.7106 77.1055 36.259 76.0405 37.3957C75.0872 38.4076 73.9022 38.9129 72.489 38.9129C70.963 38.9129 69.8656 38.3692 69.1992 37.2793V43.323H66.6394V30.9199C66.6394 29.6896 66.607 28.4281 66.5446 27.1341H68.7958L68.9387 28.9598H68.9867C69.8404 27.5842 71.1359 26.8964 72.8744 26.8964C74.2335 26.8964 75.3681 27.433 76.2758 28.5073C77.1823 29.584 77.6374 30.998 77.6374 32.7517ZM75.0296 32.8453C75.0296 31.7242 74.7774 30.7999 74.2708 30.0713C73.7173 29.3139 72.9741 28.9346 72.0423 28.9346C71.4108 28.9346 70.8369 29.1459 70.3242 29.5624C69.8103 29.9825 69.4742 30.531 69.3169 31.2104C69.2467 31.4645 69.2068 31.726 69.198 31.9894V33.9112C69.198 34.7478 69.455 35.4548 69.9688 36.0334C70.4827 36.6095 71.1503 36.8988 71.9715 36.8988C72.9356 36.8988 73.686 36.5255 74.2227 35.7849C74.7606 35.0419 75.0296 34.0624 75.0296 32.8453ZM90.8889 32.7517C90.8889 34.7106 90.357 36.259 89.2921 37.3957C88.3376 38.4076 87.1537 38.9129 85.7393 38.9129C84.2133 38.9129 83.1159 38.3692 82.4496 37.2793V43.323H79.8898V30.9199C79.8898 29.6896 79.8574 28.4281 79.7949 27.1341H82.0461L82.189 28.9598H82.2371C83.0895 27.5842 84.385 26.8964 86.1248 26.8964C87.4827 26.8964 88.6173 27.433 89.5274 28.5073C90.4327 29.584 90.8889 30.998 90.8889 32.7517ZM88.2799 32.8453C88.2799 31.7242 88.0266 30.7999 87.5199 30.0713C86.9664 29.3139 86.2256 28.9346 85.2939 28.9346C84.6624 28.9346 84.0885 29.1459 83.5734 29.5624C83.0595 29.9825 82.7245 30.531 82.5672 31.2104C82.4892 31.5273 82.4472 31.7854 82.4472 31.9894V33.9112C82.4472 34.7478 82.7053 35.4548 83.2168 36.0334C83.7307 36.6083 84.3982 36.8988 85.2219 36.8988C86.1872 36.8988 86.9376 36.5255 87.4731 35.7849C88.011 35.0419 88.2799 34.0624 88.2799 32.8453ZM105.705 34.1716C105.705 35.5316 105.229 36.6371 104.285 37.4906C103.245 38.422 101.793 38.8889 99.9322 38.8889C98.2129 38.8889 96.8345 38.5576 95.7948 37.8939L96.3867 35.7609C97.5093 36.4259 98.7424 36.7572 100.085 36.7572C101.05 36.7572 101.8 36.5387 102.336 36.1054C102.873 35.6709 103.144 35.0899 103.144 34.3649C103.144 33.7155 102.919 33.1718 102.479 32.7288C102.036 32.2871 101.303 31.8754 100.274 31.4973C97.4769 30.4542 96.0769 28.9286 96.0769 26.9216C96.0769 25.6109 96.5716 24.5378 97.5585 23.6988C98.5455 22.8609 99.8542 22.442 101.482 22.442C102.936 22.442 104.148 22.6953 105.109 23.2006L104.467 25.2868C103.562 24.7971 102.54 24.5522 101.397 24.5522C100.494 24.5522 99.7857 24.7743 99.2791 25.216C98.8528 25.6109 98.6367 26.0922 98.6367 26.6636C98.6367 27.2938 98.8828 27.8171 99.3727 28.2276C99.7977 28.6057 100.573 29.0174 101.695 29.4591C103.071 30.0137 104.082 30.6595 104.729 31.4013C105.381 32.1431 105.705 33.0685 105.705 34.1716ZM114.19 29.0546H111.368V34.647C111.368 36.0694 111.865 36.7788 112.862 36.7788C113.319 36.7788 113.699 36.7403 113.999 36.6599L114.07 38.6033C113.566 38.7917 112.902 38.8865 112.079 38.8865C111.068 38.8865 110.278 38.5781 109.708 37.9611C109.14 37.3441 108.854 36.3106 108.854 34.8558V29.0498H107.173V27.1293H108.854V25.0203L111.368 24.2617V27.1293H114.19V29.0546ZM126.895 32.7985C126.895 34.569 126.388 36.0226 125.378 37.1593C124.32 38.3296 122.913 38.9129 121.158 38.9129C119.466 38.9129 118.12 38.3524 117.116 37.2325C116.112 36.1102 115.61 34.6962 115.61 32.9905C115.61 31.2056 116.129 29.7436 117.163 28.6069C118.199 27.469 119.594 26.9 121.348 26.9C123.039 26.9 124.397 27.4618 125.424 28.5829C126.406 29.6704 126.895 31.0748 126.895 32.7985ZM124.242 32.8573C124.242 31.8022 124.014 30.8971 123.556 30.1397C123.019 29.2251 122.251 28.7678 121.256 28.7678C120.23 28.7678 119.444 29.2251 118.908 30.1397C118.45 30.8971 118.222 31.8178 118.222 32.9053C118.222 33.9616 118.45 34.869 118.908 35.624C119.462 36.5387 120.234 36.996 121.234 36.996C122.213 36.996 122.98 36.5291 123.535 35.6012C124.005 34.8258 124.242 33.9148 124.242 32.8573ZM135.219 29.3847C134.953 29.3367 134.683 29.313 134.412 29.3139C133.512 29.3139 132.816 29.6524 132.326 30.3342C131.901 30.9344 131.687 31.693 131.687 32.6088V38.6525H129.127V30.7615C129.129 29.5524 129.105 28.3433 129.053 27.1353H131.282L131.376 29.3391H131.447C131.718 28.5817 132.143 27.9707 132.727 27.5134C133.261 27.1138 133.91 26.8974 134.577 26.8964C134.813 26.8964 135.027 26.9132 135.217 26.9433L135.219 29.3847ZM146.667 32.3483C146.674 32.7374 146.643 33.1261 146.574 33.5091H138.894C138.923 34.647 139.295 35.5184 140.009 36.1186C140.656 36.6539 141.493 36.9228 142.52 36.9228C143.657 36.9228 144.695 36.7427 145.628 36.379L146.029 38.1543C144.939 38.6297 143.651 38.8661 142.166 38.8661C140.38 38.8661 138.977 38.3404 137.957 37.2913C136.939 36.241 136.428 34.8294 136.428 33.0613C136.428 31.3257 136.903 29.8793 137.852 28.7257C138.846 27.4942 140.19 26.8784 141.88 26.8784C143.541 26.8784 144.798 27.4942 145.652 28.7257C146.328 29.7016 146.667 30.9115 146.667 32.3483ZM144.227 31.6846C144.245 30.9247 144.076 30.2706 143.729 29.7172C143.286 29.0042 142.604 28.6489 141.691 28.6489C140.854 28.6489 140.172 28.9958 139.653 29.692C139.227 30.2454 138.974 30.9103 138.896 31.6822L144.227 31.6846Z" fill="white"/>
<path d="M54.2824 17.0306C53.5704 17.0306 52.9544 16.9958 52.4418 16.937V9.2141C53.1588 9.10336 53.8834 9.04878 54.6089 9.05085C57.5445 9.05085 58.8965 10.4949 58.8965 12.8487C58.8965 15.5638 57.2996 17.0306 54.2824 17.0306ZM54.7122 10.0411C54.316 10.0411 53.9786 10.0651 53.6988 10.1227V15.9936C53.8501 16.0176 54.1407 16.0284 54.5489 16.0284C56.4723 16.0284 57.5673 14.9337 57.5673 12.8835C57.5673 11.0554 56.5768 10.0411 54.7122 10.0411ZM63.1095 17.0895C61.455 17.0895 60.3829 15.8543 60.3829 14.1775C60.3829 12.4298 61.4778 11.1838 63.2032 11.1838C64.8337 11.1838 65.9299 12.3602 65.9299 14.085C65.9299 15.8543 64.8 17.0895 63.1095 17.0895ZM63.1576 12.1033C62.2487 12.1033 61.6663 12.9531 61.6663 14.1415C61.6663 15.307 62.2607 16.1568 63.1455 16.1568C64.0304 16.1568 64.6247 15.2482 64.6247 14.1174C64.6247 12.9651 64.0424 12.1033 63.1576 12.1033ZM75.3645 11.3003L73.5936 16.961H72.4398L71.7062 14.5028C71.5238 13.9014 71.3719 13.2913 71.2511 12.6747H71.2271C71.1347 13.2916 70.9594 13.9098 70.7733 14.5028L69.9928 16.961H68.827L67.1605 11.3003H68.4536L69.0948 13.9914C69.246 14.6324 69.3733 15.2374 69.479 15.8087H69.503C69.5954 15.3322 69.7467 14.7368 69.9688 14.0034L70.7733 11.3015H71.7986L72.5682 13.9458C72.7543 14.5868 72.9056 15.2157 73.0233 15.8099H73.0569C73.1385 15.2278 73.267 14.6096 73.4411 13.9458L74.1291 11.3015L75.3645 11.3003ZM81.8841 16.961H80.6258V13.7105C80.6258 12.7095 80.2416 12.2077 79.484 12.2077C78.7384 12.2077 78.2257 12.8487 78.2257 13.5941V16.961H76.9674V12.9183C76.9674 12.4178 76.9554 11.8812 76.9206 11.2991H78.0276L78.0864 12.1729H78.1212C78.4598 11.5679 79.1466 11.1838 79.9162 11.1838C81.1048 11.1838 81.8853 12.0925 81.8853 13.5713L81.8841 16.961ZM85.3539 16.961H84.0945V8.70276H85.3539V16.961ZM89.9416 17.0895C88.2883 17.0895 87.2149 15.8543 87.2149 14.1775C87.2149 12.4298 88.3099 11.1838 90.0341 11.1838C91.6657 11.1838 92.7607 12.3602 92.7607 14.085C92.7619 15.8543 91.6309 17.0895 89.9416 17.0895ZM89.9884 12.1033C89.0795 12.1033 88.4972 12.9531 88.4972 14.1415C88.4972 15.307 89.0928 16.1568 89.9752 16.1568C90.8613 16.1568 91.4544 15.2482 91.4544 14.1174C91.4556 12.9651 90.8745 12.1033 89.9884 12.1033ZM97.7218 16.961L97.6306 16.3093H97.5969C97.2127 16.8338 96.652 17.0895 95.9412 17.0895C94.9267 17.0895 94.2063 16.3789 94.2063 15.4234C94.2063 14.0262 95.4178 13.3036 97.5153 13.3036V13.1992C97.5153 12.4538 97.1203 12.0805 96.3399 12.0805C95.7816 12.0805 95.2917 12.2209 94.8607 12.5006L94.6049 11.6736C95.1284 11.3471 95.7816 11.1838 96.5488 11.1838C98.028 11.1838 98.7748 11.9641 98.7748 13.5257V15.6107C98.7748 16.182 98.8 16.6249 98.8564 16.9622L97.7218 16.961ZM97.5489 14.1415C96.1514 14.1415 95.4502 14.4799 95.4502 15.283C95.4502 15.8771 95.8116 16.1676 96.3135 16.1676C96.9534 16.1676 97.5489 15.6791 97.5489 15.0153V14.1415ZM104.885 16.961L104.826 16.0524H104.791C104.43 16.739 103.822 17.0895 102.973 17.0895C101.608 17.0895 100.597 15.8891 100.597 14.2003C100.597 12.4298 101.646 11.1826 103.077 11.1826C103.834 11.1826 104.371 11.4383 104.674 11.9521H104.699V8.70276H105.958V15.4354C105.958 15.9828 105.971 16.4953 106.005 16.961H104.885ZM104.699 13.6301C104.699 12.8379 104.174 12.1621 103.373 12.1621C102.44 12.1621 101.87 12.9891 101.87 14.1535C101.87 15.295 102.462 16.0764 103.348 16.0764C104.139 16.0764 104.699 15.3886 104.699 14.5736V13.6301ZM113.944 17.0895C112.29 17.0895 111.218 15.8543 111.218 14.1775C111.218 12.4298 112.313 11.1838 114.037 11.1838C115.669 11.1838 116.764 12.3602 116.764 14.085C116.765 15.8543 115.635 17.0895 113.944 17.0895ZM113.991 12.1033C113.083 12.1033 112.501 12.9531 112.501 14.1415C112.501 15.307 113.095 16.1568 113.979 16.1568C114.865 16.1568 115.458 15.2482 115.458 14.1174C115.46 12.9651 114.878 12.1033 113.991 12.1033ZM123.531 16.961H122.271V13.7105C122.271 12.7095 121.887 12.2077 121.13 12.2077C120.384 12.2077 119.873 12.8487 119.873 13.5941V16.961H118.613V12.9183C118.613 12.4178 118.601 11.8812 118.566 11.2991H119.673L119.732 12.1729H119.767C120.104 11.5679 120.792 11.1826 121.561 11.1826C122.749 11.1826 123.531 12.0913 123.531 13.5701V16.961ZM131.997 12.2437H130.612V14.9925C130.612 15.6923 130.855 16.0416 131.345 16.0416C131.567 16.0416 131.753 16.0176 131.903 15.9828L131.938 16.9382C131.694 17.0318 131.368 17.0787 130.962 17.0787C129.97 17.0787 129.377 16.5313 129.377 15.0981V12.2437H128.551V11.3003H129.377V10.2632L130.612 9.88989V11.2991H131.997V12.2437ZM138.658 16.961H137.401V13.7345C137.401 12.7215 137.018 12.2089 136.259 12.2089C135.607 12.2089 135 12.6518 135 13.5485V16.961H133.742V8.70276H135V12.1033H135.025C135.421 11.4863 135.995 11.1826 136.727 11.1826C137.926 11.1826 138.658 12.1141 138.658 13.5941V16.961ZM145.482 14.4331H141.706C141.73 15.505 142.44 16.11 143.491 16.11C144.049 16.11 144.563 16.0164 145.017 15.8423L145.212 16.7162C144.677 16.949 144.046 17.0655 143.313 17.0655C141.542 17.0655 140.494 15.9468 140.494 14.2123C140.494 12.4766 141.567 11.1718 143.171 11.1718C144.618 11.1718 145.526 12.2437 145.526 13.863C145.534 14.0541 145.519 14.2455 145.482 14.4331ZM144.329 13.5365C144.329 12.6626 143.888 12.0457 143.083 12.0457C142.361 12.0457 141.789 12.6747 141.708 13.5365H144.329Z" fill="white"/>
<defs>
<linearGradient id="paint0_linear" x1="118.815" y1="48.9645" x2="118.815" y2="-124.147" gradientUnits="userSpaceOnUse">
<stop stop-color="#1A1A1A" stop-opacity="0.1"/>
<stop offset="0.123" stop-color="#212121" stop-opacity="0.151"/>
<stop offset="0.308" stop-color="#353535" stop-opacity="0.227"/>
<stop offset="0.532" stop-color="#575757" stop-opacity="0.318"/>
<stop offset="0.783" stop-color="#858585" stop-opacity="0.421"/>
<stop offset="1" stop-color="#B3B3B3" stop-opacity="0.51"/>
</linearGradient>
</defs>
</svg>
