<svg width="32" height="32" viewBox="0 0 32 32" fill="none" xmlns="http://www.w3.org/2000/svg">
<rect x="-0.00012207" width="32" height="32" rx="8" fill="#2D72E5"/>
<path d="M24.0403 19.6386L21.2124 19.3158C20.8798 19.2767 20.5428 19.3135 20.2265 19.4234C19.9103 19.5334 19.6231 19.7135 19.3865 19.9504L17.3379 21.999C14.1773 20.3915 11.6083 17.8225 10.0009 14.6619L12.0606 12.6022C12.5393 12.1235 12.7731 11.4555 12.6952 10.7763L12.3723 7.97065C12.3092 7.42752 12.0486 6.92658 11.64 6.56319C11.2315 6.1998 10.7035 5.99935 10.1568 6H8.23067C6.97258 6 5.92603 7.04656 6.00397 8.30465C6.59404 17.8127 14.1982 25.4058 23.6951 25.9959C24.9532 26.0738 25.9998 25.0273 25.9998 23.7692V21.8431C26.0109 20.7186 25.1648 19.7722 24.0403 19.6386Z" fill="white"/>
</svg>
