<svg width="24" height="23" viewBox="0 0 24 23" fill="none" xmlns="http://www.w3.org/2000/svg">
<path d="M8.29975 19.8472L0.79025 12.6506C0.40325 12.2797 0.40325 11.6788 0.79025 11.3079L2.79975 9.38216C3.18675 9.01129 3.81375 9.01129 4.20075 9.38216L11.7102 16.5788C12.0972 16.9496 12.0972 17.5505 11.7102 17.9214L9.70075 19.8472C9.31375 20.2176 8.68675 20.2176 8.29975 19.8472Z" fill="#0D51A3"/>
<path d="M6.28987 16.5788L19.7994 3.63216C20.1864 3.26129 20.8134 3.26129 21.2004 3.63216L23.2099 5.55793C23.5969 5.92881 23.5969 6.52968 23.2099 6.90056L9.70037 19.8472C9.31337 20.218 8.68638 20.218 8.29938 19.8472L6.28987 17.9214C5.90338 17.5505 5.90338 16.9496 6.28987 16.5788Z" fill="#2D72E5"/>
</svg>
