<svg width="359" height="388" viewBox="0 0 359 388" fill="none" xmlns="http://www.w3.org/2000/svg">
<g clip-path="url(#clip0)">
<path d="M124.696 148.773C124.696 148.773 93.225 255.54 101.967 302.797C110.709 350.054 243.588 337.802 250.582 323.8C257.575 309.798 250.582 176.777 236.594 148.773" fill="white"/>
<path d="M184.369 338.117C174.106 338.117 163.703 337.505 153.965 336.139C131.672 332.989 104.24 324.71 100.254 303.129C91.529 255.995 121.741 152.676 123.018 148.283C123.298 147.355 124.259 146.83 125.186 147.093C126.112 147.373 126.637 148.335 126.375 149.263C126.06 150.331 95.1132 256.17 103.68 302.464C107.3 321.98 133.281 329.646 154.437 332.639C197.745 338.765 245.651 329.716 249.008 322.995C255.652 309.693 249.078 177.687 235.021 149.526C234.583 148.668 234.933 147.618 235.807 147.18C236.664 146.743 237.713 147.093 238.15 147.968C247.469 166.643 252.015 224.192 253.187 241.397C255.529 275.755 256.194 316.431 252.137 324.57C248.501 331.886 217.152 338.117 184.369 338.117Z" fill="#0C0805"/>
<path d="M91.4766 315.049L142.18 341.303L264.569 322.05L251.054 268.194L231.349 274.792C185.89 290.422 108.961 274.792 108.961 274.792" fill="#EFC86F"/>
<path d="M142.18 343.053C141.901 343.053 141.621 342.983 141.376 342.861L90.6723 316.606C89.8156 316.169 89.4834 315.101 89.9205 314.244C90.3576 313.386 91.4241 313.053 92.2809 313.491L142.478 339.483L262.418 320.615L249.83 270.452L231.908 276.455C186.537 292.068 111.776 277.155 108.611 276.508C107.667 276.315 107.055 275.388 107.247 274.442C107.44 273.497 108.349 272.885 109.31 273.077C110.08 273.235 186.31 288.445 230.789 273.13L250.511 266.531C250.966 266.374 251.473 266.426 251.91 266.654C252.33 266.881 252.645 267.284 252.767 267.756L266.282 321.612C266.404 322.085 266.317 322.592 266.037 323.012C265.758 323.433 265.338 323.695 264.848 323.783L142.46 343.036C142.373 343.053 142.285 343.053 142.18 343.053Z" fill="#0C0805"/>
<path d="M227.835 312.266C227.835 312.266 273.94 272.657 314.136 296.461C349.454 317.377 340.152 364.756 316.496 358.788C300.761 354.815 307.562 335.352 295.218 323.31C287.543 315.819 262.173 319.302 262.173 319.302" fill="white"/>
<path d="M320.43 361.046C319.014 361.046 317.545 360.871 316.059 360.486C306.286 358.018 304.24 349.932 302.264 342.125C300.708 335.947 299.1 329.558 293.977 324.57C288.19 318.934 269.219 320.125 262.401 321.052C261.439 321.175 260.565 320.51 260.425 319.564C260.285 318.602 260.967 317.727 261.911 317.587C262.978 317.447 288.207 314.086 296.407 322.067C302.229 327.738 304.048 334.932 305.639 341.268C307.597 349.021 309.136 355.147 316.898 357.09C324.032 358.893 330.256 355.217 333.526 347.254C338.649 334.809 335.729 311.286 313.209 297.966C274.57 275.073 229.391 313.193 228.936 313.596C228.202 314.226 227.1 314.139 226.471 313.403C225.842 312.668 225.929 311.566 226.663 310.936C227.135 310.533 274.185 270.784 314.993 294.956C337.058 308.013 343.387 332.481 336.76 348.601C333.508 356.565 327.459 361.046 320.43 361.046Z" fill="#030506"/>
<path d="M184.334 211.45C183.827 211.45 183.32 211.433 182.831 211.415C176.781 211.17 170.382 209.455 170.539 205.377C170.644 202.576 172.323 198.761 174.893 195.418C176.257 193.65 179.858 189.484 183.705 189.694H183.74C189.614 189.939 195.821 200.756 195.594 206.374C195.419 210.138 189.912 211.45 184.334 211.45ZM183.39 193.212C181.991 193.212 179.719 194.91 177.655 197.571C175.557 200.283 174.106 203.486 174.019 205.534C174.176 206.112 177.078 207.687 182.971 207.932C188.863 208.177 191.87 206.829 192.08 206.252C192.272 201.649 186.887 193.387 183.6 193.212C183.548 193.212 183.495 193.212 183.46 193.195C183.443 193.212 183.425 193.212 183.39 193.212Z" fill="#F5BB2E"/>
<path d="M119.451 276.543C119.451 276.543 74.447 255.067 59.3583 262.296C44.2696 269.524 25.0371 299.296 54.76 327.301C84.4829 355.305 152.671 371.057 154.419 369.307C156.167 367.557 171.903 362.989 175.4 336.385L121.199 304.547" fill="#EFC86F"/>
<path d="M153.457 371.057C145.957 371.057 122.948 364.021 114.52 361.133C95.5328 354.605 69.5515 343.648 53.5711 328.596C37.9403 313.859 36.4017 299.506 37.8704 290.055C40.1083 275.685 50.1791 264.781 58.6065 260.738C74.2722 253.212 118.332 274.092 120.203 274.985C121.077 275.405 121.444 276.438 121.025 277.313C120.605 278.188 119.573 278.556 118.699 278.136C118.262 277.925 74.2722 257.08 60.1101 263.888C52.2423 267.669 43.2555 278.048 41.3147 290.58C39.9859 299.191 41.4371 312.353 55.9664 326.04C83.6786 352.154 145.764 367.714 153.44 367.714C153.51 367.714 153.58 367.714 153.632 367.714C154.034 367.434 154.541 367.137 155.206 366.752C159.402 364.371 170.417 358.14 173.512 337.312L120.325 306.052C119.486 305.562 119.206 304.495 119.696 303.654C120.185 302.814 121.252 302.552 122.091 303.024L176.292 334.862C176.904 335.212 177.236 335.894 177.148 336.595C174.054 360.083 161.622 367.119 156.937 369.762C156.43 370.042 155.818 370.392 155.66 370.532C155.311 370.9 154.541 371.057 153.457 371.057Z" fill="#0C0805"/>
<path d="M171.623 364.074C171.623 364.074 182.936 384.114 192.342 384.289C201.748 384.464 202.553 376.676 202.553 376.676C202.553 376.676 215.858 377.253 212.536 363.531C212.536 363.531 219.355 354.01 212.501 348.584C204.511 342.248 198.549 340.603 184.841 339.325" fill="white"/>
<path d="M192.657 386.057C192.534 386.057 192.429 386.057 192.307 386.057C182.184 385.865 171.309 367.084 170.085 364.949C169.613 364.109 169.91 363.041 170.749 362.569C171.588 362.096 172.655 362.394 173.127 363.234C176.134 368.572 185.471 382.434 192.359 382.574C199.93 382.679 200.734 377.166 200.804 376.518C200.909 375.608 201.766 374.925 202.623 374.96C202.675 374.96 207.501 375.1 209.913 372.16C211.4 370.34 211.714 367.574 210.84 363.969C210.718 363.479 210.823 362.954 211.12 362.534C211.365 362.201 216.872 354.29 211.417 349.967C203.567 343.753 197.867 342.3 184.684 341.075C183.722 340.988 183.023 340.13 183.11 339.167C183.198 338.205 184.055 337.505 185.016 337.592C198.741 338.87 205.123 340.515 213.603 347.219C219.705 352.049 217.012 359.873 214.424 363.899C215.333 368.292 214.722 371.81 212.606 374.383C210.088 377.446 206.137 378.216 203.986 378.391C203.042 381.664 199.913 386.057 192.657 386.057Z" fill="#0C0805"/>
<path d="M204.196 376.063C204.196 376.063 195.402 377.516 194.563 370.357L204.196 376.063Z" fill="white"/>
<path d="M202.43 377.936C200.612 377.936 197.919 377.621 195.821 376.046C194.108 374.768 193.111 372.913 192.832 370.567C192.727 369.605 193.409 368.73 194.37 368.625C195.332 368.502 196.206 369.202 196.311 370.165C196.468 371.547 197.01 372.563 197.919 373.263C200.14 374.925 203.882 374.365 203.917 374.365C204.861 374.208 205.77 374.855 205.927 375.801C206.085 376.746 205.438 377.656 204.493 377.813C204.406 377.813 203.584 377.936 202.43 377.936Z" fill="#0C0805"/>
<path d="M203.532 359.471C207.641 365.404 212.554 363.549 212.554 363.549L203.532 359.471Z" fill="white"/>
<path d="M210.648 365.579C208.41 365.579 205.035 364.721 202.098 360.468C201.539 359.681 201.748 358.578 202.535 358.035C203.322 357.493 204.423 357.685 204.965 358.473C208.27 363.234 211.889 361.921 211.924 361.903C212.816 361.553 213.83 362.009 214.18 362.919C214.529 363.829 214.057 364.826 213.165 365.176C213.078 365.229 212.099 365.579 210.648 365.579Z" fill="#0C0805"/>
<path d="M171.903 341.303C171.903 341.303 147.426 344.803 143.929 353.555C140.432 362.306 147.426 365.807 147.426 365.807C147.426 365.807 142.18 378.058 156.168 379.809C156.168 379.809 162.654 389.558 170.155 385.06C178.897 379.809 182.551 374.82 188.6 362.446" fill="white"/>
<path d="M166.116 388C161.395 388 157.304 384.324 155.171 381.436C150.747 380.736 147.67 378.916 146.027 376.028C144.051 372.58 144.733 368.625 145.327 366.542C142.565 364.459 139.523 359.856 142.303 352.907C146.062 343.491 169.053 339.938 171.658 339.57C172.603 339.43 173.494 340.095 173.634 341.058C173.774 342.02 173.11 342.896 172.148 343.036C165.609 343.981 148.107 347.796 145.555 354.202C142.687 361.378 147.985 364.126 148.212 364.231C149.034 364.651 149.401 365.632 149.034 366.489C149.017 366.524 147.163 371.005 149.069 374.295C150.24 376.343 152.706 377.603 156.395 378.058C156.902 378.128 157.356 378.409 157.636 378.829C157.863 379.161 163.319 387.125 169.263 383.554C177.848 378.409 181.222 373.578 187.027 361.658C187.447 360.783 188.496 360.433 189.37 360.853C190.244 361.273 190.594 362.324 190.174 363.199C184.125 375.591 180.33 380.981 171.064 386.547C169.385 387.58 167.707 388 166.116 388Z" fill="#0C0805"/>
<path d="M147.426 367.557C147.426 367.557 149.174 358.806 156.168 360.556L147.426 367.557Z" fill="white"/>
<path d="M147.443 369.307C147.321 369.307 147.216 369.29 147.093 369.272C146.149 369.08 145.537 368.152 145.73 367.207C145.765 366.997 146.814 362.009 150.433 359.716C152.234 358.578 154.332 358.28 156.605 358.858C157.549 359.086 158.108 360.048 157.881 360.976C157.654 361.921 156.692 362.481 155.765 362.254C154.419 361.921 153.283 362.061 152.304 362.674C149.961 364.161 149.174 367.854 149.156 367.907C148.982 368.73 148.247 369.307 147.443 369.307Z" fill="#0C0805"/>
<path d="M163.161 372.808C156.168 374.558 156.168 379.809 156.168 379.809L163.161 372.808Z" fill="white"/>
<path d="M156.168 381.542H156.15C155.188 381.524 154.419 380.754 154.419 379.809C154.419 379.546 154.507 373.175 162.742 371.11C163.668 370.865 164.63 371.442 164.857 372.388C165.084 373.333 164.525 374.278 163.581 374.505C158.178 375.853 157.916 379.424 157.916 379.826C157.899 380.789 157.112 381.542 156.168 381.542Z" fill="#0C0805"/>
<path d="M231.349 274.792C231.349 274.792 274.202 255.557 289.291 262.803C304.38 270.049 323.612 299.804 293.889 327.808C264.166 355.813 195.979 371.565 194.23 369.815C192.482 368.064 176.746 363.496 173.249 336.892L227.45 305.055" fill="#EFC86F"/>
<path d="M195.227 371.53C194.125 371.53 193.339 371.372 193.006 371.04C192.867 370.917 192.255 370.567 191.748 370.287C187.062 367.644 174.613 360.591 171.536 337.12C171.449 336.42 171.781 335.737 172.393 335.387L226.593 303.549C227.432 303.059 228.499 303.339 228.989 304.18C229.478 305.02 229.198 306.087 228.359 306.577L175.155 337.802C178.25 358.63 189.282 364.861 193.461 367.242C194.125 367.627 194.65 367.907 195.035 368.204C195.087 368.204 195.157 368.204 195.227 368.204C202.902 368.204 264.971 352.645 292.7 326.53C307.23 312.843 308.681 299.699 307.352 291.07C305.411 278.538 296.425 268.159 288.557 264.378C274.36 257.57 232.503 276.193 232.083 276.385C231.209 276.788 230.16 276.385 229.775 275.51C229.373 274.635 229.775 273.585 230.65 273.2C232.433 272.395 274.412 253.719 290.06 261.228C298.488 265.271 308.576 276.175 310.796 290.545C312.265 299.996 310.727 314.349 295.096 329.086C279.115 344.156 253.134 355.095 234.146 361.623C225.737 364.511 202.745 371.53 195.227 371.53Z" fill="#0C0805"/>
<path d="M128.193 143.522C133.334 139.829 106.461 155.056 93.2251 185.529C80.4093 215.038 63.5023 225.785 51.2634 225.785C39.0246 225.785 28.2194 230.983 25.0374 248.538C21.5405 267.791 56.5086 262.541 65.2507 260.79C73.9927 259.04 101.967 252.039 115.954 225.785L119.451 220.534" fill="white"/>
<path d="M46.1405 264.536C38.465 264.536 30.5797 263.328 26.2961 259.128C23.5162 256.38 22.5021 252.722 23.3238 248.223C26.2437 232.173 35.6326 224.035 51.2634 224.035C62.5406 224.035 79.063 213.743 91.6165 184.829C102.457 159.87 122.039 144.87 127.546 141.807L127.564 141.789C128.263 141.404 128.7 141.212 128.928 141.212C129.662 141.264 130.309 141.772 130.501 142.49C130.851 143.732 129.889 144.432 129.19 144.94C128.962 145.115 128.683 145.22 128.42 145.255C123.927 148.3 105.289 162.093 94.8161 186.229C78.1888 224.56 57.2779 227.535 51.2634 227.535C37.381 227.535 29.3558 234.501 26.7507 248.853C26.1563 252.179 26.8032 254.717 28.7439 256.642C35.1955 262.996 54.5154 261.158 64.9009 259.093C75.4438 256.975 101.373 249.431 114.398 224.98L117.982 219.589C118.525 218.784 119.591 218.574 120.413 219.099C121.217 219.641 121.427 220.727 120.902 221.532L117.406 226.783C103.768 252.407 76.6152 260.318 65.5828 262.541C62.9777 263.031 54.6902 264.536 46.1405 264.536Z" fill="#0C0805"/>
<path d="M30.2825 259.04C25.2296 257.045 18.0437 260.79 12.7985 245.038C9.26668 234.414 11.0501 218.784 21.5405 218.784C26.7857 218.784 25.0373 227.535 25.0373 227.535C25.0373 227.535 21.5405 236.287 37.2761 229.285" fill="white"/>
<path d="M30.2825 260.79C30.0727 260.79 29.8454 260.755 29.6356 260.668C28.674 260.283 27.485 260.143 26.2437 260.003C21.453 259.443 15.5085 258.725 11.1375 245.598C8.68969 238.229 8.47988 227.605 12.8509 221.549C14.9839 218.591 17.9912 217.034 21.5405 217.034C23.1665 217.034 24.5302 217.646 25.4919 218.819C27.8872 221.742 26.8731 227.255 26.7507 227.868C26.7332 227.973 26.6983 228.078 26.6633 228.183C26.4884 228.655 26.3136 229.653 26.6283 229.951C26.6983 230.003 28.2718 231.368 36.5593 227.693C37.4509 227.29 38.4825 227.693 38.8672 228.585C39.2518 229.461 38.8672 230.511 37.9755 230.896C30.772 234.099 26.401 234.606 24.198 232.471C22.2923 230.633 23.0616 227.85 23.3413 227.063C23.6211 225.557 23.8134 222.302 22.7818 221.042C22.572 220.797 22.2748 220.534 21.5405 220.534C19.0752 220.534 17.1694 221.532 15.6833 223.597C12.5012 228.025 11.9767 237.004 14.4594 244.478C18.1311 255.505 22.4671 256.012 26.6633 256.52C28.0795 256.695 29.5482 256.87 30.9294 257.412C31.8211 257.762 32.2757 258.778 31.9085 259.688C31.6462 260.37 30.9818 260.79 30.2825 260.79Z" fill="#0C0805"/>
<path d="M21.5404 238.037C21.5404 238.037 9.30158 229.285 4.05636 234.536C-1.18885 239.787 1.59111 247.278 21.5404 252.039" fill="white"/>
<path d="M21.5579 253.789C21.418 253.789 21.2781 253.772 21.1557 253.737C8.96936 250.831 1.74845 246.543 0.279788 241.345C-0.506994 238.579 0.402177 235.726 2.83246 233.294C8.95188 227.168 21.1907 235.621 22.572 236.602C23.3587 237.162 23.5336 238.264 22.9741 239.034C22.4146 239.822 21.3306 239.997 20.5438 239.437C17.6764 237.389 8.72458 232.331 5.31519 235.744C3.7766 237.284 3.21711 238.842 3.65421 240.365C4.16125 242.15 6.95869 246.718 21.9775 250.306C22.9216 250.534 23.4986 251.479 23.2713 252.424C23.0615 253.247 22.3447 253.789 21.5579 253.789Z" fill="#0C0805"/>
<path d="M20.0367 248.556C20.0367 248.556 8.96931 246.946 9.12666 254.384C9.3015 262.541 43.7101 262.401 42.5212 262.541" fill="white"/>
<path d="M42.5212 264.291C42.3988 264.291 42.2939 264.273 42.189 264.256C41.9967 264.256 41.682 264.238 41.2798 264.221C11.0674 263.276 7.46567 258.165 7.37825 254.402C7.32579 252.214 8.09509 250.341 9.59872 249.029C13.148 245.878 19.5821 246.718 20.299 246.823C21.2606 246.963 21.9075 247.838 21.7851 248.801C21.6627 249.764 20.771 250.429 19.8094 250.289C18.2883 250.079 13.8998 249.904 11.9241 251.654C11.1898 252.302 10.8751 253.159 10.8925 254.332C10.91 254.892 11.8717 259.81 41.4022 260.72C42.8709 260.773 44.2521 260.808 44.322 262.436C44.357 263.346 43.6576 264.151 42.766 264.256C42.6785 264.291 42.5911 264.291 42.5212 264.291Z" fill="#0C0805"/>
<path d="M47.7664 227.535C47.7664 227.535 37.276 215.283 30.2824 218.784C23.2888 222.284 30.2824 229.285 30.2824 229.285L37.276 234.536C37.276 234.536 33.7792 238.037 37.276 243.288" fill="white"/>
<path d="M37.2936 245.038C36.7341 245.038 36.1746 244.758 35.8424 244.25C33.2897 240.417 33.8142 237.022 34.8983 234.921L29.2509 230.686C29.181 230.633 29.1285 230.581 29.0586 230.528C28.6215 230.091 24.8449 226.187 25.5093 222.092C25.7366 220.674 26.6283 218.679 29.5132 217.226C37.5034 213.235 47.9414 225.05 49.1128 226.398C49.7422 227.133 49.6548 228.235 48.9205 228.865C48.1861 229.495 47.0846 229.408 46.4552 228.673C43.7802 225.557 35.7899 217.979 31.0867 220.342C29.1985 221.287 29.0236 222.302 28.9712 222.634C28.6565 224.56 30.6322 227.098 31.4539 227.955L38.3426 233.119C38.7448 233.416 39.007 233.889 39.042 234.396C39.0769 234.904 38.9021 235.394 38.5349 235.761C38.3077 236.006 36.1746 238.439 38.7622 242.307C39.3042 243.113 39.0769 244.198 38.2727 244.74C37.958 244.95 37.6258 245.038 37.2936 245.038Z" fill="#0C0805"/>
<path d="M230.807 144.31C225.667 140.617 252.54 155.844 265.775 186.316C278.591 215.826 295.498 226.573 307.737 226.573C319.976 226.573 330.781 231.771 333.963 249.326C337.46 268.579 302.492 263.328 293.75 261.578C285.007 259.828 257.033 252.827 243.046 226.573L239.549 221.322" fill="white"/>
<path d="M312.859 265.324C304.292 265.324 296.022 263.818 293.4 263.293C282.367 261.088 255.232 253.159 241.49 227.395L238.08 222.284C237.538 221.479 237.765 220.394 238.57 219.851C239.374 219.309 240.458 219.536 241 220.342L244.497 225.592C257.61 250.184 283.539 257.745 294.082 259.845C304.467 261.928 323.787 263.748 330.239 257.395C332.179 255.487 332.826 252.949 332.232 249.606C329.627 235.271 321.602 228.288 307.719 228.288C301.705 228.288 280.811 225.312 264.149 186.981C253.658 162.845 235.038 149.053 230.545 146.008C230.282 145.973 230.003 145.868 229.775 145.693C229.076 145.185 228.114 144.502 228.464 143.242C228.674 142.525 229.303 142.017 230.038 141.964C230.23 141.947 230.702 142.139 231.401 142.542L231.419 142.56C236.926 145.623 256.508 160.622 267.349 185.581C279.902 214.478 296.424 224.787 307.702 224.787C323.332 224.787 332.739 232.926 335.641 248.976C336.463 253.474 335.449 257.132 332.669 259.88C328.438 264.116 320.535 265.324 312.859 265.324Z" fill="#0C0805"/>
<path d="M328.717 259.828C333.77 257.832 340.956 261.578 346.201 245.826C349.733 235.201 347.95 219.571 337.459 219.571C332.214 219.571 333.963 228.323 333.963 228.323C333.963 228.323 337.459 237.074 321.724 230.073" fill="white"/>
<path d="M328.718 261.578C328.018 261.578 327.371 261.158 327.092 260.475C326.742 259.583 327.179 258.567 328.071 258.2C329.452 257.657 330.921 257.482 332.337 257.307C336.533 256.817 340.869 256.292 344.541 245.265C347.023 237.792 346.499 228.813 343.317 224.385C341.831 222.319 339.925 221.322 337.46 221.322C336.725 221.322 336.428 221.584 336.218 221.829C335.187 223.09 335.379 226.345 335.659 227.85C335.938 228.638 336.708 231.403 334.802 233.259C332.599 235.376 328.228 234.886 321.025 231.683C320.15 231.298 319.748 230.266 320.133 229.373C320.535 228.498 321.567 228.095 322.441 228.48C330.728 232.173 332.319 230.808 332.372 230.738C332.686 230.441 332.512 229.443 332.337 228.97C332.302 228.883 332.267 228.778 332.249 228.673C332.127 228.06 331.113 222.547 333.508 219.624C334.47 218.451 335.834 217.839 337.46 217.839C341.026 217.839 344.034 219.396 346.149 222.354C350.503 228.41 350.31 239.034 347.863 246.403C343.492 259.53 337.53 260.248 332.756 260.808C331.515 260.948 330.326 261.088 329.364 261.473C329.155 261.543 328.927 261.578 328.718 261.578Z" fill="#0C0805"/>
<path d="M337.459 238.824C337.459 238.824 349.698 230.073 354.944 235.324C360.189 240.575 357.409 248.066 337.459 252.827" fill="white"/>
<path d="M337.459 254.577C336.673 254.577 335.956 254.034 335.763 253.229C335.536 252.284 336.113 251.339 337.057 251.111C352.076 247.523 354.874 242.973 355.381 241.17C355.818 239.63 355.258 238.089 353.72 236.549C350.31 233.136 341.358 238.194 338.491 240.242C337.704 240.802 336.603 240.627 336.061 239.84C335.501 239.052 335.676 237.967 336.463 237.407C337.844 236.427 350.083 227.973 356.202 234.099C358.633 236.532 359.542 239.385 358.755 242.15C357.286 247.348 350.065 251.619 337.879 254.542C337.722 254.559 337.582 254.577 337.459 254.577Z" fill="#0C0805"/>
<path d="M338.963 249.344C338.963 249.344 350.031 247.733 349.873 255.172C349.698 263.346 315.29 263.188 316.479 263.346" fill="white"/>
<path d="M316.479 265.078C316.409 265.078 316.339 265.079 316.269 265.061C315.36 264.956 314.66 264.151 314.713 263.241C314.783 261.613 316.164 261.56 317.633 261.525C347.163 260.598 348.125 255.68 348.142 255.137C348.16 253.964 347.845 253.107 347.111 252.459C345.135 250.691 340.747 250.866 339.225 251.094C338.264 251.216 337.39 250.569 337.25 249.606C337.11 248.643 337.774 247.768 338.736 247.628C339.453 247.523 345.887 246.701 349.436 249.834C350.94 251.164 351.692 253.019 351.657 255.207C351.569 258.97 347.967 264.081 317.755 265.026C317.335 265.043 317.038 265.043 316.846 265.061C316.706 265.061 316.584 265.078 316.479 265.078Z" fill="#0C0805"/>
<path d="M311.233 228.323C311.233 228.323 321.724 216.071 328.717 219.571C335.711 223.072 328.717 230.073 328.717 230.073L321.724 235.324C321.724 235.324 325.221 238.824 321.724 244.075" fill="white"/>
<path d="M321.724 245.826C321.392 245.826 321.06 245.738 320.762 245.528C319.958 244.985 319.748 243.9 320.273 243.095C322.948 239.087 320.517 236.584 320.5 236.549C320.133 236.182 319.958 235.691 319.993 235.184C320.028 234.676 320.29 234.204 320.692 233.906L327.581 228.743C328.403 227.885 330.379 225.33 330.064 223.422C330.011 223.09 329.837 222.074 327.948 221.129C323.21 218.766 315.255 226.345 312.58 229.461C311.95 230.196 310.849 230.283 310.114 229.653C309.38 229.023 309.293 227.92 309.922 227.185C311.094 225.82 321.532 214.023 329.522 218.014C332.407 219.466 333.281 221.462 333.526 222.879C334.19 226.975 330.413 230.896 329.976 231.316C329.924 231.368 329.854 231.421 329.784 231.473L324.137 235.709C325.221 237.809 325.763 241.205 323.193 245.038C322.843 245.545 322.283 245.826 321.724 245.826Z" fill="#0C0805"/>
<path d="M229.426 149.841C231.314 148.23 233.447 146.953 235.353 145.377C252.592 131.095 263.345 109.847 260.582 86.6209C256.159 49.3576 223.044 12.777 181.397 12.777C139.75 12.777 107.003 38.5585 105.971 92.5018C105.446 120.401 118.699 140.249 138.264 151.801C151.727 159.747 168.179 163.773 185.174 163.773C185.156 163.773 217.939 159.695 229.426 149.841Z" fill="white"/>
<path d="M185.156 165.523C167.41 165.523 150.887 161.305 137.372 153.324C115.5 140.407 103.715 118.808 104.222 92.4843C105.184 42.234 134.75 11.0267 181.397 11.0267C225.859 11.0267 258.03 50.1628 262.331 86.4109C265.006 108.919 255.582 130.903 236.472 146.725C235.528 147.513 234.531 148.213 233.569 148.896C232.503 149.648 231.506 150.366 230.58 151.153C218.83 161.235 186.747 165.331 185.383 165.488C185.296 165.506 185.226 165.523 185.156 165.523ZM181.397 14.5097C136.201 14.5097 108.663 43.6693 107.719 92.5368C107.247 117.531 118.402 138.044 139.156 150.296C152.111 157.944 167.987 162.005 185.051 162.023C187.097 161.76 217.641 157.647 228.289 148.51C229.338 147.6 230.457 146.813 231.524 146.06C232.485 145.377 233.377 144.747 234.234 144.047C252.4 128.995 261.369 108.149 258.851 86.8309C254.725 52.0531 223.936 14.5097 181.397 14.5097Z" fill="#0C0805"/>
<path d="M173.879 102.706C173.879 102.706 172.69 100.676 176.729 100.168C180.768 99.6604 186.345 100.676 186.345 102.706C186.345 104.736 183.076 106.504 180.033 106.767C176.974 107.012 174.806 105.244 173.879 102.706Z" fill="#0C0805"/>
<path d="M184.229 124.357C183.757 124.357 183.268 124.164 182.936 123.779C181.012 121.626 179.509 118.388 178.617 116.463C178.425 116.043 178.25 115.693 178.127 115.413C177.253 113.68 177.655 109.129 177.953 106.574C178.075 105.611 178.932 104.929 179.893 105.051C180.855 105.174 181.537 106.031 181.415 106.994C181.065 109.97 180.977 113.19 181.257 113.873C181.397 114.153 181.572 114.538 181.782 114.993C182.586 116.743 183.95 119.683 185.523 121.434C186.17 122.151 186.1 123.254 185.383 123.902C185.051 124.217 184.649 124.357 184.229 124.357Z" fill="#0C0805"/>
<path d="M173.407 123.849C172.952 123.849 172.48 123.674 172.13 123.307C171.466 122.606 171.501 121.504 172.2 120.839C173.354 119.754 176.501 116.376 177.306 113.855C177.603 112.927 178.582 112.42 179.491 112.717C180.418 113.015 180.925 113.995 180.628 114.905C179.386 118.826 174.788 123.202 174.596 123.394C174.263 123.692 173.826 123.849 173.407 123.849Z" fill="#0C0805"/>
<path d="M146.971 25.4839C146.971 25.4839 143.771 8.78636 119.538 1.75027C119.538 1.75027 100.988 35.5655 119.538 54.6435" fill="white"/>
<path d="M119.521 56.3937C119.066 56.3937 118.612 56.2187 118.262 55.8687C99.0296 36.0906 117.196 2.34538 117.982 0.910153C118.367 0.192542 119.224 -0.157512 119.993 0.0700229C144.978 7.31614 148.527 24.4338 148.667 25.1514C148.842 26.0965 148.23 27.0242 147.286 27.1992C146.341 27.3742 145.432 26.7617 145.24 25.8165C145.118 25.1864 141.988 10.6592 120.413 3.85061C117.388 10.0291 105.289 37.5083 120.78 53.4183C121.444 54.1184 121.444 55.2211 120.745 55.8862C120.395 56.2187 119.958 56.3937 119.521 56.3937Z" fill="#0C0805"/>
<path d="M126.043 48.9551C126.043 48.9551 110.657 24.8539 119.521 1.76779L126.043 48.9551Z" fill="white"/>
<path d="M126.043 50.7053C125.466 50.7053 124.906 50.4253 124.574 49.9002C123.927 48.8851 108.821 24.7838 117.895 1.13768C118.245 0.227544 119.241 -0.210023 120.15 0.122528C121.06 0.472582 121.497 1.48774 121.165 2.38038C112.737 24.3638 127.389 47.7824 127.529 48.0099C128.053 48.8326 127.808 49.9002 127.004 50.4253C126.689 50.6178 126.375 50.7053 126.043 50.7053Z" fill="#0C0805"/>
<path d="M214.424 28.4944C214.424 28.4944 217.624 11.7968 241.857 4.76074C241.857 4.76074 260.407 38.576 241.857 57.6539" fill="white"/>
<path d="M241.874 59.4042C241.437 59.4042 241 59.2467 240.65 58.9141C239.951 58.2315 239.951 57.1288 240.615 56.4462C256.089 40.5363 244.007 13.057 240.983 6.87856C219.285 13.7396 216.19 28.6869 216.155 28.8445C215.98 29.7896 215.054 30.4197 214.11 30.2272C213.166 30.0521 212.536 29.1245 212.728 28.1794C212.868 27.4617 216.418 10.3441 241.402 3.09798C242.189 2.87044 243.028 3.2205 243.413 3.93811C244.2 5.35583 262.366 39.101 243.133 58.8966C242.783 59.2292 242.329 59.4042 241.874 59.4042Z" fill="#0C0805"/>
<path d="M235.353 51.9655C235.353 51.9655 250.739 27.8643 241.874 4.77823L235.353 51.9655Z" fill="white"/>
<path d="M235.335 53.7158C235.02 53.7158 234.688 53.6283 234.391 53.4358C233.587 52.9107 233.342 51.8255 233.867 51.0204C234.006 50.7928 248.658 27.3742 240.231 5.39083C239.881 4.48069 240.336 3.48303 241.245 3.13298C242.136 2.78292 243.151 3.23799 243.5 4.13063C252.574 27.7768 237.468 51.878 236.821 52.8932C236.489 53.4183 235.912 53.7158 235.335 53.7158Z" fill="#0C0805"/>
<path d="M149.559 82.8228C149.559 82.8228 164.245 97.5251 178.932 84.4506C178.932 84.4506 195.244 97.5076 209.931 82.8228" fill="white"/>
<path d="M165.889 91.5917C156.028 91.5917 148.44 84.153 148.317 84.048C147.635 83.3654 147.635 82.2627 148.317 81.5801C148.999 80.8975 150.101 80.8975 150.783 81.5801C151.342 82.1227 164.49 94.9347 177.76 83.1379C178.39 82.5778 179.351 82.5428 180.016 83.0854C180.628 83.5754 195.314 94.9697 208.69 81.5801C209.372 80.8975 210.473 80.8975 211.155 81.5801C211.837 82.2627 211.837 83.3654 211.155 84.048C197.902 97.3151 183.25 89.4213 179.019 86.6559C174.491 90.314 169.997 91.5917 165.889 91.5917Z" fill="#0C0805"/>
<path d="M182.953 191.777C182.656 191.777 182.376 191.707 182.114 191.567C143.789 170.634 125.291 148.353 125.098 148.143C124.486 147.39 124.591 146.288 125.343 145.675C126.095 145.062 127.197 145.167 127.808 145.92C127.983 146.13 145.939 167.711 183.25 188.189C185.803 187.542 200.157 182.571 233.587 147.565C234.251 146.865 235.353 146.848 236.052 147.513C236.752 148.178 236.769 149.281 236.105 149.981C197.622 190.254 183.653 191.725 183.076 191.76C183.041 191.777 183.006 191.777 182.953 191.777Z" fill="black"/>
</g>
<defs>
<clipPath id="clip0">
<rect width="359" height="388" fill="white"/>
</clipPath>
</defs>
</svg>
