<svg width="162" height="49" viewBox="0 0 162 49" fill="none" xmlns="http://www.w3.org/2000/svg">
<path d="M156 48.837H5.99969C2.63969 48.837 -0.000305176 46.197 -0.000305176 42.837V6.83704C-0.000305176 3.47704 2.63969 0.837036 5.99969 0.837036H156C159.36 0.837036 162 3.47704 162 6.83704V42.837C162 46.197 159.36 48.837 156 48.837Z" fill="black"/>
<path d="M156 1.79704C158.76 1.79704 161.04 4.07704 161.04 6.83704V42.837C161.04 45.597 158.76 47.877 156 47.877H5.99969C3.2397 47.877 0.959695 45.597 0.959695 42.837V6.83704C0.959695 4.07704 3.2397 1.79704 5.99969 1.79704H156ZM156 0.837036H5.99969C2.63969 0.837036 -0.000305176 3.59704 -0.000305176 6.83704V42.837C-0.000305176 46.197 2.63969 48.837 5.99969 48.837H156C159.36 48.837 162 46.197 162 42.837V6.83704C162 3.59704 159.36 0.837036 156 0.837036Z" fill="black"/>
<path d="M56.8797 13.0755C56.8797 14.0355 56.6397 14.8755 56.0397 15.4755C55.3197 16.1955 54.4797 16.5555 53.3997 16.5555C52.3197 16.5555 51.4797 16.1955 50.7597 15.4755C50.0397 14.7555 49.6797 13.9155 49.6797 12.8355C49.6797 11.7555 50.0397 10.9155 50.7597 10.1955C51.4797 9.47548 52.3197 9.11548 53.3997 9.11548C53.8797 9.11548 54.3597 9.23548 54.8397 9.47548C55.3197 9.71548 55.6797 9.95548 55.9197 10.3155L55.3197 10.9155C54.8397 10.3155 54.2397 10.0755 53.3997 10.0755C52.6797 10.0755 51.9597 10.3155 51.4797 10.9155C50.8797 11.3955 50.6397 12.1155 50.6397 12.9555C50.6397 13.7955 50.8797 14.5155 51.4797 14.9955C52.0797 15.4755 52.6797 15.8355 53.3997 15.8355C54.2397 15.8355 54.8397 15.5955 55.4397 14.9955C55.7997 14.6355 56.0397 14.1555 56.0397 13.5555H53.3997V12.5955H56.8797V13.0755ZM62.3997 10.0755H59.1597V12.3555H62.1597V13.1955H59.1597V15.4755H62.3997V16.4355H58.1997V9.23548H62.3997V10.0755ZM66.3597 16.4355H65.3997V10.0755H63.3597V9.23548H68.3997V10.0755H66.3597V16.4355ZM71.8797 16.4355V9.23548H72.8397V16.4355H71.8797ZM76.9197 16.4355H75.9597V10.0755H73.9197V9.23548H78.8397V10.0755H76.7997V16.4355H76.9197ZM88.3197 15.4755C87.5997 16.1955 86.7597 16.5555 85.6797 16.5555C84.5997 16.5555 83.7597 16.1955 83.0397 15.4755C82.3197 14.7555 81.9597 13.9155 81.9597 12.8355C81.9597 11.7555 82.3197 10.9155 83.0397 10.1955C83.7597 9.47548 84.5997 9.11548 85.6797 9.11548C86.7597 9.11548 87.5997 9.47548 88.3197 10.1955C89.0397 10.9155 89.3997 11.7555 89.3997 12.8355C89.3997 13.9155 89.0397 14.7555 88.3197 15.4755ZM83.7597 14.8755C84.2397 15.3555 84.9597 15.7155 85.6797 15.7155C86.3997 15.7155 87.1197 15.4755 87.5997 14.8755C88.0797 14.3955 88.4397 13.6755 88.4397 12.8355C88.4397 11.9955 88.1997 11.2755 87.5997 10.7955C87.1197 10.3155 86.3997 9.95548 85.6797 9.95548C84.9597 9.95548 84.2397 10.1955 83.7597 10.7955C83.2797 11.2755 82.9197 11.9955 82.9197 12.8355C82.9197 13.6755 83.1597 14.3955 83.7597 14.8755ZM90.7197 16.4355V9.23548H91.7997L95.2797 14.8755V9.23548H96.2397V16.4355H95.2797L91.5597 10.5555V16.4355H90.7197Z" fill="white"/>
<path d="M81.7193 26.9957C78.8393 26.9957 76.5593 29.1557 76.5593 32.1557C76.5593 35.0357 78.8393 37.3157 81.7193 37.3157C84.5993 37.3157 86.8793 35.1557 86.8793 32.1557C86.8793 29.0357 84.5993 26.9957 81.7193 26.9957ZM81.7193 35.1557C80.1593 35.1557 78.8393 33.8357 78.8393 32.0357C78.8393 30.2357 80.1593 28.9157 81.7193 28.9157C83.2793 28.9157 84.5993 30.1157 84.5993 32.0357C84.5993 33.8357 83.2793 35.1557 81.7193 35.1557ZM70.5593 26.9957C67.6793 26.9957 65.3993 29.1557 65.3993 32.1557C65.3993 35.0357 67.6793 37.3157 70.5593 37.3157C73.4393 37.3157 75.7193 35.1557 75.7193 32.1557C75.7193 29.0357 73.4393 26.9957 70.5593 26.9957ZM70.5593 35.1557C68.9993 35.1557 67.6793 33.8357 67.6793 32.0357C67.6793 30.2357 68.9993 28.9157 70.5593 28.9157C72.1193 28.9157 73.4393 30.1157 73.4393 32.0357C73.4393 33.8357 72.1193 35.1557 70.5593 35.1557ZM57.2393 28.5557V30.7157H62.3993C62.2793 31.9157 61.7993 32.8757 61.1993 33.4757C60.4793 34.1957 59.2793 35.0357 57.2393 35.0357C53.9993 35.0357 51.5993 32.5157 51.5993 29.2757C51.5993 26.0357 54.1193 23.5157 57.2393 23.5157C58.9193 23.5157 60.2393 24.2357 61.1993 25.0757L62.7593 23.5157C61.4393 22.3157 59.7593 21.3557 57.3593 21.3557C53.0393 21.3557 49.3193 24.9557 49.3193 29.2757C49.3193 33.5957 53.0393 37.1957 57.3593 37.1957C59.7593 37.1957 61.4393 36.4757 62.8793 34.9157C64.3193 33.4757 64.7993 31.4357 64.7993 29.8757C64.7993 29.3957 64.7993 28.9157 64.6793 28.5557H57.2393ZM111.719 30.2357C111.239 29.0357 110.039 26.9957 107.399 26.9957C104.759 26.9957 102.599 29.0357 102.599 32.1557C102.599 35.0357 104.759 37.3157 107.639 37.3157C109.919 37.3157 111.359 35.8757 111.839 35.0357L110.159 33.8357C109.559 34.6757 108.839 35.2757 107.639 35.2757C106.439 35.2757 105.719 34.7957 105.119 33.7157L111.959 30.8357L111.719 30.2357ZM104.759 31.9157C104.759 29.9957 106.319 28.9157 107.399 28.9157C108.239 28.9157 109.079 29.3957 109.319 29.9957L104.759 31.9157ZM99.1193 36.8357H101.399V21.8357H99.1193V36.8357ZM95.5193 28.0757C94.9193 27.4757 93.9593 26.8757 92.7593 26.8757C90.2393 26.8757 87.8393 29.1557 87.8393 32.0357C87.8393 34.9157 90.1193 37.0757 92.7593 37.0757C93.9593 37.0757 94.9193 36.4757 95.3993 35.8757H95.5193V36.5957C95.5193 38.5157 94.4393 39.5957 92.7593 39.5957C91.4393 39.5957 90.4793 38.6357 90.2393 37.7957L88.3193 38.6357C88.9193 39.9557 90.3593 41.6357 92.8793 41.6357C95.5193 41.6357 97.6793 40.0757 97.6793 36.3557V27.2357H95.5193V28.0757ZM92.8793 35.1557C91.3193 35.1557 89.9993 33.8357 89.9993 32.0357C89.9993 30.2357 91.3193 28.9157 92.8793 28.9157C94.4393 28.9157 95.6393 30.2357 95.6393 32.0357C95.6393 33.8357 94.4393 35.1557 92.8793 35.1557ZM122.159 21.8357H116.759V36.8357H119.039V31.1957H122.159C124.679 31.1957 127.079 29.3957 127.079 26.5157C127.079 23.6357 124.679 21.8357 122.159 21.8357ZM122.279 29.0357H119.039V23.8757H122.279C123.959 23.8757 124.919 25.3157 124.919 26.3957C124.799 27.7157 123.839 29.0357 122.279 29.0357ZM136.079 26.8757C134.399 26.8757 132.719 27.5957 132.119 29.1557L134.159 29.9957C134.639 29.1557 135.359 28.9157 136.199 28.9157C137.399 28.9157 138.479 29.6357 138.599 30.8357V30.9557C138.239 30.7157 137.279 30.3557 136.319 30.3557C134.159 30.3557 131.999 31.5557 131.999 33.7157C131.999 35.7557 133.799 37.0757 135.719 37.0757C137.279 37.0757 137.999 36.3557 138.599 35.6357H138.719V36.8357H140.879V31.0757C140.639 28.4357 138.599 26.8757 136.079 26.8757ZM135.839 35.1557C135.119 35.1557 134.039 34.7957 134.039 33.8357C134.039 32.6357 135.359 32.2757 136.439 32.2757C137.399 32.2757 137.879 32.5157 138.479 32.7557C138.239 34.1957 137.039 35.1557 135.839 35.1557ZM148.439 27.2357L145.919 33.7157H145.799L143.159 27.2357H140.759L144.719 36.3557L142.439 41.3957H144.719L150.839 27.2357H148.439ZM128.279 36.8357H130.559V21.8357H128.279V36.8357Z" fill="white"/>
<path d="M12.4801 9.83569C12.1201 10.1957 12.0001 10.7957 12.0001 11.5157V38.0357C12.0001 38.7557 12.2401 39.3557 12.6001 39.7157L12.7201 39.8357L27.6001 24.9557V24.7157L12.4801 9.83569Z" fill="url(#paint0_linear)"/>
<path d="M32.3999 29.9943L27.4799 25.0743V24.7143L32.3999 19.7943L32.5199 19.9143L38.3999 23.2743C40.0799 24.2343 40.0799 25.7943 38.3999 26.7543L32.3999 29.9943Z" fill="url(#paint1_linear)"/>
<path d="M32.5202 29.8757L27.4802 24.8357L12.4802 39.8357C13.0802 40.4357 13.9202 40.4357 15.0002 39.9557L32.5202 29.8757Z" fill="url(#paint2_linear)"/>
<path d="M32.5202 19.7956L15.0002 9.83563C13.9202 9.23563 13.0802 9.35563 12.4802 9.95563L27.4802 24.8356L32.5202 19.7956Z" fill="url(#paint3_linear)"/>
<path opacity="0.2" d="M32.4002 29.7556L15.0002 39.5956C14.0402 40.1956 13.2002 40.0756 12.6002 39.5956L12.4802 39.7156L12.6002 39.8356C13.2002 40.3156 14.0402 40.4356 15.0002 39.8356L32.4002 29.7556Z" fill="black"/>
<path opacity="0.2" d="M12.4801 39.5957C12.1201 39.2357 12.0001 38.6357 12.0001 37.9157V38.0357C12.0001 38.7557 12.2401 39.3557 12.6001 39.7157V39.5957H12.4801ZM38.4001 26.3957L32.4001 29.7557L32.5201 29.8757L38.4001 26.5157C39.2401 26.0357 39.6001 25.4357 39.6001 24.8357C39.6001 25.4357 39.1201 25.9157 38.4001 26.3957Z" fill="black"/>
<path opacity="0.2" d="M15.0004 9.95572L38.4004 23.2757C39.1204 23.7557 39.6004 24.2357 39.6004 24.8357C39.6004 24.2357 39.2404 23.6357 38.4004 23.1557L15.0004 9.83573C13.3204 8.87572 12.0004 9.59572 12.0004 11.5157V11.6357C12.0004 9.83572 13.3204 8.99572 15.0004 9.95572Z" fill="white"/>
<defs>
<linearGradient id="paint0_linear" x1="26.1601" y1="11.2877" x2="6.02046" y2="31.4261" gradientUnits="userSpaceOnUse">
<stop stop-color="#00A0FF"/>
<stop offset="0.007" stop-color="#00A1FF"/>
<stop offset="0.26" stop-color="#00BEFF"/>
<stop offset="0.512" stop-color="#00D2FF"/>
<stop offset="0.76" stop-color="#00DFFF"/>
<stop offset="1" stop-color="#00E3FF"/>
</linearGradient>
<linearGradient id="paint1_linear" x1="40.6007" y1="24.8355" x2="11.5643" y2="24.8355" gradientUnits="userSpaceOnUse">
<stop stop-color="#FFE000"/>
<stop offset="0.409" stop-color="#FFBD00"/>
<stop offset="0.775" stop-color="#FFA500"/>
<stop offset="1" stop-color="#FF9C00"/>
</linearGradient>
<linearGradient id="paint2_linear" x1="29.7926" y1="27.5909" x2="2.48302" y2="54.9005" gradientUnits="userSpaceOnUse">
<stop stop-color="#FF3A44"/>
<stop offset="1" stop-color="#C31162"/>
</linearGradient>
<linearGradient id="paint3_linear" x1="8.75662" y1="1.04683" x2="20.9522" y2="13.2424" gradientUnits="userSpaceOnUse">
<stop stop-color="#32A071"/>
<stop offset="0.069" stop-color="#2DA771"/>
<stop offset="0.476" stop-color="#15CF74"/>
<stop offset="0.801" stop-color="#06E775"/>
<stop offset="1" stop-color="#00F076"/>
</linearGradient>
</defs>
</svg>
