<svg width="318" height="200" viewBox="0 0 318 200" fill="none" xmlns="http://www.w3.org/2000/svg">
<g clip-path="url(#clip0)">
<path d="M304.803 0H13.1969C9.70047 0.0117551 6.3506 1.40175 3.87822 3.86669C1.40585 6.33164 0.0116685 9.67144 -0.00012207 13.1574L-0.00012207 186.843C0.00946159 190.329 1.40294 193.67 3.87579 196.136C6.34864 198.601 9.69979 199.99 13.1969 200H304.803C308.3 199.99 311.651 198.601 314.124 196.136C316.597 193.67 317.99 190.329 318 186.843V13.1574C317.99 9.67076 316.597 6.32966 314.124 3.86424C311.651 1.39882 308.3 0.00953428 304.803 0Z" fill="#2D72E5"/>
<path d="M99.8395 184.786C96.6956 173.044 72.7153 169.4 63.1059 171.977C52.2572 174.886 63.5778 217.167 74.4265 214.258C84.0355 211.682 102.983 196.528 99.8395 184.786Z" fill="#FF8F8F"/>
<path d="M405.3 -88.4969C393.589 -132.235 304.255 -145.805 268.457 -136.206C228.041 -125.368 270.209 32.1243 310.624 21.2867C346.421 11.6876 417.011 -44.7584 405.3 -88.4969Z" fill="#FADE5D"/>
<path d="M6.43002 132.714C-21.9433 132.714 -44.6555 184.977 -44.6555 208.375C-44.6555 234.791 57.5105 234.791 57.5105 208.375C57.5105 184.978 34.8034 132.714 6.43002 132.714Z" fill="#7EE4D6"/>
<path d="M327.22 173.053C364.919 183.162 413.641 121.995 421.943 90.9866C431.316 55.9794 295.568 19.578 286.195 54.5852C277.893 85.5917 289.52 162.943 327.22 173.053Z" fill="#EFA9DE"/>
<path d="M23.1171 86.599C24.7502 89.5274 25.6086 92.8354 25.6086 96.2009C25.6086 99.5663 24.7502 102.874 23.1171 105.803C22.9631 106.08 22.9237 106.408 23.0075 106.715C23.0913 107.021 23.2915 107.282 23.5642 107.439C23.8368 107.596 24.1596 107.636 24.4618 107.552C24.7639 107.467 25.0207 107.265 25.1758 106.988C27.0182 103.701 27.9853 99.9831 27.982 96.2009C27.9917 92.4178 27.0241 88.6983 25.1758 85.4138C25.0202 85.1383 24.7635 84.9365 24.4618 84.8527C24.1601 84.7688 23.838 84.8097 23.5659 84.9664C23.2938 85.123 23.0939 85.3827 23.0098 85.6886C22.9257 85.9946 22.9643 86.3219 23.1171 86.599Z" fill="white"/>
<path d="M18.8291 88.8894C20.1052 91.1076 20.7752 93.6316 20.7699 96.2006C20.7753 98.7715 20.1005 101.297 18.816 103.512C18.6578 103.787 18.6138 104.115 18.6937 104.424C18.7736 104.732 18.9709 104.996 19.2422 105.157C19.5135 105.317 19.8365 105.362 20.1402 105.281C20.4439 105.2 20.7034 104.999 20.8617 104.724C22.3474 102.137 23.1302 99.1955 23.1302 96.2006C23.1302 93.2057 22.3474 90.2645 20.8617 87.6775C20.7834 87.5401 20.679 87.4199 20.5545 87.3239C20.43 87.2279 20.2879 87.1581 20.1366 87.1184C19.9852 87.0787 19.8276 87.07 19.673 87.0929C19.5183 87.1157 19.3696 87.1696 19.2356 87.2513C18.9713 87.417 18.781 87.6807 18.7051 87.9866C18.6292 88.2925 18.6737 88.6163 18.8291 88.8894Z" fill="white"/>
<path d="M14.5418 91.1529C15.4509 92.6696 15.9318 94.4111 15.9318 96.1868C15.9318 97.9625 15.4509 99.704 14.5418 101.221C14.46 101.355 14.4049 101.503 14.3798 101.659C14.3546 101.814 14.3598 101.973 14.3952 102.126C14.4305 102.28 14.4952 102.425 14.5856 102.553C14.676 102.68 14.7903 102.789 14.9221 102.872C15.0538 102.955 15.2003 103.011 15.3534 103.037C15.5064 103.062 15.6628 103.057 15.8138 103.021C15.9648 102.985 16.1074 102.919 16.2334 102.828C16.3593 102.736 16.4663 102.62 16.5481 102.486C17.6944 100.597 18.2985 98.4195 18.2921 96.2002C18.2922 93.9775 17.6887 91.7979 16.5481 89.901C16.3819 89.632 16.1178 89.4405 15.8133 89.3682C15.5088 89.2959 15.1885 89.3486 14.9221 89.5148C14.6582 89.6812 14.4699 89.947 14.3987 90.254C14.3274 90.5611 14.3789 90.8843 14.5418 91.1529Z" fill="white"/>
<path d="M10.4887 93.404C11.0791 94.2128 11.3965 95.1938 11.3935 96.2006C11.3897 96.7071 11.3101 97.21 11.1575 97.6922C11.0035 98.1561 10.7778 98.5922 10.4887 98.984C10.3966 99.1108 10.3299 99.2548 10.2926 99.4077C10.2553 99.5607 10.2479 99.7196 10.2711 99.8754C10.2942 100.031 10.3473 100.181 10.4274 100.316C10.5075 100.451 10.613 100.568 10.7378 100.662C10.8627 100.756 11.0045 100.823 11.1551 100.861C11.3057 100.899 11.4621 100.906 11.6156 100.883C11.769 100.859 11.9164 100.806 12.0492 100.724C12.1821 100.643 12.298 100.536 12.3901 100.409C12.8211 99.8113 13.1614 99.1514 13.3998 98.4513C13.7601 97.3679 13.8564 96.2119 13.6806 95.0823C13.5047 93.9528 13.0619 92.8834 12.3901 91.9657C12.2985 91.838 12.1826 91.7302 12.0493 91.6487C11.9159 91.5672 11.7679 91.5137 11.6138 91.4914C11.4598 91.469 11.3029 91.4783 11.1524 91.5186C11.002 91.5589 10.861 91.6294 10.7378 91.726C10.4874 91.9163 10.3209 92.199 10.2743 92.5131C10.2276 92.8271 10.3047 93.1472 10.4887 93.404Z" fill="white"/>
<path d="M266.837 180.32H262.632L265.262 164.391H269.466L266.837 180.32Z" fill="white"/>
<path d="M282.08 164.781C280.877 164.327 279.598 164.097 278.309 164.103C274.156 164.103 271.232 166.272 271.214 169.373C271.18 171.661 273.308 172.931 274.9 173.694C276.526 174.474 277.079 174.982 277.079 175.677C277.063 176.744 275.765 177.236 274.554 177.236C273.188 177.274 271.834 176.983 270.609 176.389L270.055 176.135L269.467 179.71C270.962 180.278 272.553 180.566 274.156 180.558C278.568 180.558 281.441 178.423 281.475 175.118C281.492 173.305 280.368 171.915 277.945 170.78C276.475 170.051 275.574 169.56 275.574 168.814C275.591 168.136 276.336 167.441 277.996 167.441C279.074 167.411 280.144 167.619 281.128 168.051L281.508 168.221L282.08 164.781Z" fill="white"/>
<path d="M287.668 174.678C288.014 173.763 289.346 170.221 289.346 170.221C289.329 170.255 289.692 169.289 289.9 168.696L290.193 170.068C290.193 170.068 290.99 173.881 291.163 174.678H287.668ZM292.858 164.392H289.606C289.141 164.337 288.671 164.437 288.272 164.677C287.873 164.917 287.568 165.282 287.408 165.713L281.162 180.321H285.574C285.574 180.321 286.3 178.355 286.457 177.931H291.855C291.976 178.49 292.357 180.321 292.357 180.321H296.25L292.858 164.392H292.858Z" fill="white"/>
<path d="M259.12 164.391L255.002 175.253L254.552 173.05C253.528 170.195 251.456 167.815 248.739 166.374L252.511 180.304H256.957L263.567 164.391H259.12V164.391Z" fill="white"/>
<path d="M251.178 164.391H244.413L244.344 164.713C249.621 166.035 253.116 169.221 254.552 173.051L253.081 165.73C252.991 165.315 252.746 164.947 252.394 164.7C252.042 164.452 251.609 164.342 251.178 164.391H251.178Z" fill="white"/>
<path d="M38.88 20.5128C28.6778 20.5128 20.516 39.2185 20.516 47.6011C20.516 57.053 57.2308 57.053 57.2308 47.6011C57.2439 39.2185 49.0822 20.5128 38.88 20.5128ZM25.7158 45.2382C25.7158 38.8489 31.9425 24.5655 39.7356 24.5655C47.5288 24.5655 53.7554 38.8489 53.7554 45.2382C53.7423 52.4591 25.7158 52.4591 25.7158 45.2382Z" fill="white"/>
<path d="M41.6317 29.7411C36.9321 29.7411 33.1803 38.3613 33.1803 42.216C33.1803 46.5723 50.0831 46.5723 50.0831 42.216C50.0962 38.3481 46.3313 29.7411 41.6317 29.7411ZM36.8399 40.6319C36.8399 38.0973 39.3148 32.4341 42.3952 32.4341C45.4756 32.4341 47.9505 38.0973 47.9505 40.6319C47.9505 43.4965 36.8399 43.4965 36.8399 40.6319Z" fill="white"/>
<path d="M164.116 43.2805C163.66 43.2818 163.206 43.2476 162.756 43.1782C162.533 43.1206 162.326 43.0149 162.15 42.8687C161.974 42.7225 161.834 42.5396 161.74 42.3335C161.646 42.1274 161.6 41.9033 161.606 41.6776C161.613 41.452 161.67 41.2306 161.775 41.0296C161.908 40.7816 162.122 40.5841 162.382 40.4683C162.643 40.3524 162.935 40.3249 163.214 40.3902C163.382 40.4166 163.553 40.4295 163.723 40.4285C163.932 40.438 164.14 40.4016 164.333 40.3219C164.525 40.2422 164.696 40.1213 164.835 39.9681C165.129 39.5867 165.272 39.1146 165.24 38.638V28.0613C165.24 27.5864 165.433 27.131 165.776 26.7952C166.119 26.4595 166.585 26.2708 167.07 26.2708C167.556 26.2708 168.021 26.4595 168.365 26.7952C168.708 27.131 168.901 27.5864 168.901 28.0613V38.6252C168.954 39.2521 168.867 39.8828 168.645 40.4732C168.423 41.0636 168.072 41.5994 167.616 42.0429C167.16 42.4865 166.611 42.8271 166.006 43.0409C165.401 43.2547 164.756 43.3365 164.116 43.2805ZM167.057 24.5315C166.452 24.5582 165.861 24.3515 165.41 23.956C165.205 23.7758 165.041 23.5548 164.931 23.3077C164.82 23.0606 164.765 22.7932 164.769 22.5236C164.762 22.2535 164.816 21.9852 164.927 21.7377C165.038 21.4902 165.202 21.2695 165.41 21.0912C165.861 20.6956 166.452 20.489 167.057 20.5157C167.658 20.4865 168.247 20.6832 168.705 21.0656C168.908 21.2364 169.07 21.4484 169.181 21.687C169.291 21.9256 169.347 22.1849 169.345 22.4468C169.354 22.7265 169.301 23.0048 169.19 23.2629C169.08 23.5209 168.914 23.7529 168.705 23.9432C168.484 24.1435 168.224 24.2987 167.941 24.3997C167.659 24.5008 167.358 24.5456 167.057 24.5315Z" fill="white"/>
<path d="M183.192 26.2584C183.677 26.2598 184.141 26.4488 184.484 26.7843C184.827 27.1198 185.021 27.5744 185.022 28.0489V36.9246C185.022 37.148 184.977 37.3692 184.89 37.5756C184.802 37.7821 184.674 37.9696 184.513 38.1276C184.351 38.2856 184.16 38.4108 183.949 38.4963C183.738 38.5817 183.512 38.6257 183.283 38.6256H183.048C182.649 38.6255 182.267 38.4705 181.985 38.1947C181.703 37.9189 181.544 37.5449 181.544 37.1548C181.062 37.6855 180.469 38.1086 179.806 38.3954C179.114 38.6756 178.371 38.8148 177.622 38.8046C176.901 38.8408 176.18 38.735 175.502 38.4933C174.824 38.2516 174.202 37.8791 173.674 37.3978C173.155 36.8352 172.758 36.1759 172.507 35.4594C172.255 34.7429 172.154 33.9841 172.21 33.2285V28.0233C172.21 27.5484 172.403 27.093 172.746 26.7572C173.089 26.4214 173.555 26.2328 174.04 26.2328C174.526 26.2328 174.991 26.4214 175.334 26.7572C175.678 27.093 175.87 27.5484 175.87 28.0233V32.6914C175.87 34.6865 176.72 35.684 178.433 35.684C178.826 35.699 179.218 35.6326 179.582 35.4894C179.947 35.3461 180.277 35.1292 180.551 34.8527C181.132 34.1466 181.418 33.2504 181.348 32.346V28.0233C181.356 27.5509 181.554 27.1005 181.899 26.7701C182.244 26.4396 182.709 26.2557 183.192 26.2584Z" fill="white"/>
<path d="M196.106 26.0791C196.801 26.0494 197.494 26.1563 198.145 26.3936C198.796 26.6309 199.392 26.9936 199.898 27.4603C200.414 28.0089 200.81 28.6549 201.062 29.3587C201.314 30.0624 201.416 30.8091 201.362 31.5529V36.8476C201.362 37.3225 201.169 37.7779 200.826 38.1137C200.483 38.4495 200.017 38.6381 199.532 38.6381C199.046 38.6381 198.581 38.4495 198.237 38.1137C197.894 37.7779 197.701 37.3225 197.701 36.8476V32.1028C197.764 31.3202 197.531 30.5422 197.048 29.9158C196.804 29.663 196.507 29.4655 196.177 29.3373C195.848 29.2091 195.493 29.1534 195.139 29.1741C194.729 29.154 194.32 29.2201 193.939 29.3679C193.558 29.5158 193.214 29.7418 192.929 30.0309C192.331 30.7194 192.035 31.6111 192.106 32.5121V36.8348C192.106 37.3097 191.913 37.7651 191.57 38.1009C191.226 38.4367 190.761 38.6253 190.275 38.6253C189.79 38.6253 189.324 38.4367 188.981 38.1009C188.638 37.7651 188.445 37.3097 188.445 36.8348V27.9719C188.445 27.5174 188.63 27.0815 188.958 26.7601C189.287 26.4387 189.732 26.2581 190.197 26.2581H190.471C190.666 26.2579 190.858 26.2952 191.037 26.3677C191.216 26.4403 191.379 26.5467 191.517 26.681C191.654 26.8152 191.763 26.9746 191.837 27.15C191.911 27.3254 191.949 27.5135 191.949 27.7033C192.449 27.1683 193.072 26.7564 193.766 26.5011C194.51 26.2107 195.305 26.0673 196.106 26.0791Z" fill="white"/>
<path d="M204.684 28.0485C204.684 27.5737 204.877 27.1182 205.221 26.7825C205.564 26.4467 206.029 26.258 206.515 26.258C207 26.258 207.466 26.4467 207.809 26.7825C208.152 27.1182 208.345 27.5737 208.345 28.0485V36.8347C208.345 37.3096 208.152 37.765 207.809 38.1008C207.466 38.4366 207 38.6252 206.515 38.6252C206.029 38.6252 205.564 38.4366 205.221 38.1008C204.877 37.765 204.684 37.3096 204.684 36.8347V28.0485ZM206.515 24.5315C205.91 24.5582 205.318 24.3515 204.867 23.956C204.662 23.7758 204.499 23.5548 204.388 23.3077C204.278 23.0606 204.223 22.7932 204.227 22.5236C204.22 22.2535 204.274 21.9852 204.384 21.7377C204.495 21.4902 204.66 21.2695 204.867 21.0912C205.318 20.6956 205.91 20.489 206.515 20.5157C207.115 20.4865 207.705 20.6832 208.162 21.0656C208.365 21.2364 208.528 21.4484 208.638 21.687C208.749 21.9256 208.805 22.1849 208.803 22.4468C208.811 22.7265 208.758 23.0048 208.648 23.2629C208.537 23.5209 208.372 23.7529 208.162 23.9432C207.714 24.3439 207.122 24.5553 206.515 24.5315Z" fill="white"/>
<path d="M217.771 38.8173C216.524 38.8373 215.29 38.5608 214.176 38.0115C213.158 37.4834 212.305 36.6971 211.705 35.7351C211.101 34.7421 210.793 33.6035 210.816 32.4482C210.798 31.2935 211.105 30.1562 211.705 29.1614C212.298 28.2008 213.154 27.4213 214.176 26.9105C215.286 26.3484 216.521 26.0628 217.771 26.0792C219.013 26.0597 220.24 26.3456 221.34 26.9105C222.359 27.4252 223.214 28.2038 223.811 29.1614C224.415 30.1544 224.723 31.2929 224.7 32.4482C224.718 33.603 224.411 34.7403 223.811 35.7351C223.215 36.7001 222.361 37.4873 221.34 38.0115C220.236 38.5622 219.01 38.8389 217.771 38.8173ZM217.771 35.8757C218.199 35.8911 218.626 35.8169 219.023 35.6581C219.42 35.4993 219.777 35.2596 220.072 34.9549C220.705 34.271 221.034 33.3694 220.987 32.4482C221.013 31.9957 220.945 31.5429 220.788 31.1166C220.63 30.6904 220.387 30.2994 220.072 29.9671C219.78 29.6575 219.424 29.4128 219.027 29.2496C218.63 29.0863 218.202 29.0083 217.771 29.0207C217.337 29.0094 216.905 29.0879 216.504 29.251C216.103 29.4141 215.742 29.6581 215.444 29.9671C215.13 30.3001 214.887 30.6911 214.73 31.1172C214.573 31.5433 214.505 31.9959 214.529 32.4482C214.505 32.9045 214.573 33.3609 214.73 33.7911C214.887 34.2214 215.13 34.6169 215.444 34.9549C215.745 35.258 216.108 35.4964 216.508 35.6549C216.909 35.8135 217.339 35.8887 217.771 35.8757Z" fill="white"/>
<path d="M230.663 27.8947C231.112 27.2921 231.723 26.8229 232.428 26.539C232.74 26.4124 233.064 26.3139 233.395 26.2448C233.602 26.2115 233.814 26.2242 234.016 26.2821C234.217 26.3399 234.403 26.4414 234.558 26.5791C234.714 26.7167 234.836 26.8869 234.915 27.077C234.995 27.2672 235.029 27.4723 235.016 27.6772V28.5853C235.013 28.6879 234.99 28.789 234.947 28.8826C234.904 28.9763 234.842 29.0606 234.765 29.1308C234.689 29.201 234.599 29.2556 234.5 29.2915C234.402 29.3274 234.297 29.3438 234.193 29.3398C233.742 29.3165 233.292 29.3814 232.867 29.5307C232.443 29.6801 232.054 29.9109 231.722 30.2095C231.402 30.556 231.158 30.9628 231.005 31.4049C230.852 31.847 230.794 32.315 230.833 32.7802V36.8344C230.833 37.3092 230.64 37.7646 230.297 38.1004C229.953 38.4362 229.488 38.6248 229.002 38.6248C228.517 38.6248 228.051 38.4362 227.708 38.1004C227.365 37.7646 227.172 37.3092 227.172 36.8344V27.9714C227.172 27.5169 227.357 27.081 227.685 26.7596C228.014 26.4382 228.459 26.2577 228.924 26.2576H229.002C229.221 26.2583 229.438 26.3012 229.64 26.3839C229.842 26.4665 230.025 26.5873 230.179 26.7394C230.334 26.8914 230.456 27.0717 230.539 27.27C230.622 27.4682 230.664 27.6805 230.663 27.8947Z" fill="white"/>
<path d="M244.899 26.0664C246.02 26.0536 247.126 26.3316 248.102 26.8721C249.063 27.3842 249.853 28.1569 250.377 29.0974C250.945 30.1204 251.229 31.2714 251.2 32.4354C251.226 33.6073 250.942 34.7657 250.377 35.799C249.846 36.7341 249.058 37.5049 248.102 38.0243C247.122 38.5524 246.018 38.8213 244.899 38.8045C244.154 38.8513 243.409 38.7303 242.72 38.4509C242.031 38.1716 241.417 37.7412 240.924 37.193C240.925 37.3812 240.887 37.5676 240.814 37.7416C240.74 37.9155 240.632 38.0735 240.496 38.2066C240.36 38.3397 240.199 38.4452 240.021 38.517C239.843 38.5889 239.652 38.6257 239.46 38.6254H239.172C238.708 38.6254 238.262 38.4448 237.934 38.1235C237.605 37.8021 237.421 37.3662 237.421 36.9117V23.3551C237.421 22.8802 237.613 22.4248 237.957 22.089C238.3 21.7532 238.765 21.5646 239.251 21.5646C239.736 21.5646 240.202 21.7532 240.545 22.089C240.888 22.4248 241.081 22.8802 241.081 23.3551V27.5627C241.57 27.0595 242.164 26.6653 242.823 26.407C243.482 26.1488 244.19 26.0326 244.899 26.0664ZM244.271 35.863C244.7 35.8783 245.126 35.8041 245.523 35.6453C245.92 35.4865 246.278 35.2468 246.572 34.9421C247.205 34.2582 247.534 33.3566 247.487 32.4354C247.513 31.983 247.445 31.5301 247.288 31.1038C247.13 30.6776 246.887 30.2866 246.572 29.9543C246.28 29.6447 245.924 29.4 245.527 29.2368C245.13 29.0735 244.702 28.9955 244.271 29.0079C243.837 28.9966 243.405 29.0751 243.004 29.2382C242.603 29.4013 242.242 29.6453 241.944 29.9543C241.323 30.6334 241.003 31.5258 241.055 32.4354C241.01 33.3519 241.328 34.25 241.944 34.9421C242.245 35.2452 242.608 35.4836 243.009 35.6422C243.409 35.8007 243.839 35.8759 244.271 35.863Z" fill="white"/>
<path d="M258.561 26.0661C260.189 25.9587 261.798 26.4515 263.072 27.4474C263.626 27.9799 264.054 28.6243 264.328 29.3355C264.601 30.0468 264.712 30.8078 264.654 31.5655V36.9498C264.654 37.1699 264.61 37.3879 264.524 37.5913C264.438 37.7947 264.312 37.9795 264.153 38.1352C263.994 38.2908 263.805 38.4142 263.597 38.4983C263.389 38.5824 263.166 38.6255 262.941 38.6252H262.797C262.589 38.6255 262.384 38.5858 262.191 38.5081C261.999 38.4305 261.825 38.3165 261.678 38.1728C261.531 38.029 261.414 37.8582 261.335 37.6703C261.256 37.4824 261.215 37.281 261.215 37.0777C260.795 37.6829 260.214 38.1639 259.534 38.4684C258.854 38.7728 258.101 38.8889 257.359 38.8042C256.487 38.8214 255.623 38.6557 254.822 38.3182C254.164 38.034 253.602 37.5727 253.201 36.9881C252.822 36.4133 252.626 35.741 252.639 35.057C252.618 34.5342 252.727 34.0142 252.957 33.5419C253.187 33.0695 253.531 32.659 253.959 32.3456C255.189 31.5949 256.633 31.2498 258.078 31.3609H260.993C261.015 31.028 260.96 30.6946 260.833 30.3849C260.707 30.0752 260.511 29.797 260.261 29.5704C259.641 29.0971 258.862 28.8688 258.078 28.9309C257.397 28.9288 256.722 29.0369 256.077 29.2507C256.025 29.2634 255.96 29.289 255.907 29.3018C255.509 29.4618 255.066 29.4804 254.655 29.3542C254.245 29.2281 253.892 28.9652 253.659 28.6112C253.579 28.4731 253.527 28.3207 253.508 28.163C253.489 28.0053 253.503 27.8455 253.548 27.6929C253.593 27.5404 253.669 27.3982 253.771 27.2747C253.873 27.1513 253.999 27.0491 254.143 26.9742C254.606 26.7634 255.087 26.5922 255.581 26.4626C256.551 26.1958 257.554 26.0624 258.561 26.0661ZM258.274 36.3871C258.859 36.3961 259.436 36.255 259.947 35.9778C260.432 35.6871 260.798 35.239 260.98 34.7117V33.4455H258.47C256.966 33.4455 256.208 33.9315 256.208 34.8907C256.201 35.1026 256.246 35.313 256.34 35.5043C256.433 35.6956 256.572 35.8624 256.744 35.9906C257.198 36.2777 257.734 36.4165 258.274 36.3871Z" fill="white"/>
<path d="M275.661 26.0667C276.355 26.037 277.048 26.144 277.7 26.3813C278.351 26.6185 278.947 26.9813 279.452 27.448C279.966 27.9975 280.36 28.6439 280.61 29.3477C280.859 30.0514 280.959 30.7976 280.903 31.5405V36.8353C280.903 37.3102 280.71 37.7656 280.367 38.1014C280.024 38.4371 279.558 38.6258 279.073 38.6258C278.588 38.6258 278.122 38.4371 277.779 38.1014C277.435 37.7656 277.243 37.3102 277.243 36.8353V32.0905C277.305 31.3078 277.073 30.5299 276.589 29.9035C276.346 29.6507 276.049 29.4532 275.719 29.325C275.389 29.1968 275.034 29.1411 274.68 29.1617C274.271 29.1417 273.862 29.2078 273.48 29.3556C273.099 29.5034 272.755 29.7295 272.471 30.0186C271.873 30.7071 271.577 31.5988 271.647 32.4997V36.8225C271.647 37.2974 271.454 37.7528 271.111 38.0886C270.768 38.4243 270.302 38.613 269.817 38.613C269.331 38.613 268.866 38.4243 268.523 38.0886C268.179 37.7528 267.987 37.2974 267.987 36.8225V27.9595C267.987 27.505 268.171 27.0692 268.5 26.7478C268.828 26.4264 269.274 26.2458 269.738 26.2458H270.013C270.207 26.2456 270.399 26.2828 270.578 26.3554C270.758 26.4279 270.921 26.5344 271.058 26.6686C271.195 26.8029 271.304 26.9623 271.378 27.1377C271.452 27.3131 271.49 27.5011 271.49 27.691C271.988 27.159 272.606 26.7475 273.294 26.4888C274.048 26.1996 274.851 26.0562 275.661 26.0667Z" fill="white"/>
<path d="M289.664 33.7654L287.899 35.4663V36.822C287.899 37.2969 287.706 37.7523 287.363 38.0881C287.019 38.4239 286.554 38.6125 286.068 38.6125C285.583 38.6125 285.117 38.4239 284.774 38.0881C284.431 37.7523 284.238 37.2969 284.238 36.822V23.3421C284.238 22.8673 284.431 22.4118 284.774 22.0761C285.117 21.7403 285.583 21.5516 286.068 21.5516C286.554 21.5516 287.019 21.7403 287.363 22.0761C287.706 22.4118 287.899 22.8673 287.899 23.3421V31.2075L292.801 26.6545C293.1 26.3777 293.497 26.2263 293.908 26.2329C294.32 26.2394 294.712 26.4033 295.001 26.6895C295.29 26.9756 295.453 27.3612 295.455 27.7635C295.457 28.1658 295.297 28.5528 295.011 28.8415L292.37 31.4761L295.874 35.8372C296.077 36.0897 296.204 36.3932 296.24 36.7129C296.276 37.0326 296.219 37.3558 296.075 37.6453C295.932 37.9348 295.709 38.1791 295.43 38.3501C295.152 38.5212 294.83 38.6121 294.501 38.6125C294.24 38.6134 293.981 38.5563 293.746 38.4455C293.51 38.3348 293.304 38.1732 293.141 37.973L289.664 33.7654Z" fill="white"/>
<path d="M159.031 32.4092H160.809C161.149 32.4092 161.474 32.5412 161.715 32.7763C161.955 33.0113 162.09 33.3301 162.09 33.6625C162.09 33.9949 161.955 34.3137 161.715 34.5488C161.474 34.7838 161.149 34.9159 160.809 34.9159H158.717L158.39 37.4737C158.37 37.6426 158.316 37.8059 158.23 37.9542C158.145 38.1025 158.031 38.2329 157.894 38.3378C157.757 38.4427 157.601 38.5201 157.433 38.5655C157.266 38.6109 157.091 38.6234 156.918 38.6023C156.746 38.5812 156.579 38.5269 156.428 38.4426C156.277 38.3583 156.145 38.2455 156.038 38.1109C155.932 37.9763 155.854 37.8224 155.809 37.6582C155.764 37.4939 155.753 37.3226 155.775 37.154L156.063 34.9159H152.598L152.272 37.4865C152.227 37.8247 152.047 38.1318 151.772 38.3406C151.496 38.5494 151.147 38.6428 150.801 38.6006C150.456 38.5583 150.141 38.3836 149.926 38.1149C149.712 37.8462 149.615 37.5053 149.657 37.1668L149.945 34.9159H148.14C147.801 34.9159 147.475 34.7838 147.234 34.5488C146.994 34.3137 146.859 33.9949 146.859 33.6625C146.859 33.3301 146.994 33.0113 147.234 32.7763C147.475 32.5412 147.801 32.4092 148.14 32.4092H150.258L150.755 28.6747H148.951C148.611 28.6747 148.285 28.5427 148.045 28.3076C147.805 28.0726 147.67 27.7538 147.67 27.4214C147.67 27.089 147.805 26.7702 148.045 26.5351C148.285 26.3001 148.611 26.168 148.951 26.168H151.069L151.396 23.5974C151.44 23.2592 151.62 22.9521 151.896 22.7433C152.171 22.5345 152.52 22.4411 152.866 22.4833C153.212 22.5256 153.526 22.7003 153.741 22.969C153.955 23.2377 154.052 23.5786 154.01 23.9171L153.723 26.168H157.187L157.514 23.5974C157.559 23.2592 157.738 22.9521 158.014 22.7433C158.29 22.5345 158.638 22.4411 158.984 22.4833C159.33 22.5256 159.645 22.7003 159.859 22.969C160.074 23.2377 160.171 23.5786 160.129 23.9171L159.841 26.168H161.632C161.972 26.168 162.298 26.3001 162.538 26.5351C162.779 26.7702 162.914 27.089 162.914 27.4214C162.914 27.7538 162.779 28.0726 162.538 28.3076C162.298 28.5427 161.972 28.6747 161.632 28.6747H159.527L159.031 32.4092ZM156.364 32.4092L156.86 28.6747H153.396L152.899 32.4092H156.364Z" fill="white"/>
</g>
<defs>
<clipPath id="clip0">
<rect x="-0.00012207" width="318" height="200" rx="16" fill="white"/>
</clipPath>
</defs>
</svg>
