<svg width="168" height="40" viewBox="0 0 168 40" fill="none" xmlns="http://www.w3.org/2000/svg">
<path d="M33.7243 14.1894L33.7158 5.83133L25.5148 5.84205L19.7883 0L14.0723 5.76704L5.78652 5.77561L5.79712 14.1287L-0.00012207 19.9786L5.88974 25.8178L5.89751 34.1708L14.0985 34.1622L19.825 40L25.5382 34.1501L33.824 34.1437L33.8155 25.8756L39.6127 20.0257L33.7243 14.1894ZM5.05692 21.7288L3.7285 20.3936C3.67916 20.3445 3.63998 20.2861 3.61323 20.2216C3.58649 20.157 3.57271 20.0878 3.57271 20.0178C3.57271 19.9479 3.58649 19.8787 3.61323 19.8142C3.63998 19.7497 3.67916 19.6912 3.7285 19.6421L5.1368 18.2205C5.17669 18.1834 5.22743 18.1603 5.28141 18.1547C5.33538 18.1491 5.38968 18.1614 5.43618 18.1896C5.48268 18.2179 5.51888 18.2606 5.53934 18.3114C5.5598 18.3621 5.56342 18.4182 5.54968 18.4713L5.63381 21.4787C5.63381 21.8138 5.30294 21.8959 5.05762 21.7288H5.05692ZM28.8235 8.26231H30.7324C30.9805 8.26231 31.3085 8.42661 31.2272 8.76236V10.7626C31.2272 11.0119 30.8978 11.099 30.8115 10.9283L28.6545 8.7595C28.6059 8.72573 28.5695 8.67688 28.5509 8.62035C28.5322 8.56382 28.5322 8.50269 28.551 8.44619C28.5698 8.38969 28.6063 8.3409 28.6549 8.30721C28.7036 8.27352 28.7618 8.25675 28.8207 8.25945L28.8235 8.26231ZM18.2103 5.18055L19.538 3.84326C19.7862 3.67681 20.1163 3.59395 20.2803 3.84326L21.6887 5.17841C21.7267 5.22359 21.7509 5.27906 21.7581 5.33797C21.7653 5.39687 21.7553 5.4566 21.7293 5.50981C21.7032 5.56301 21.6624 5.60735 21.6117 5.63732C21.561 5.66729 21.5027 5.6816 21.444 5.67846L18.4627 5.68275C18.4026 5.68987 18.3418 5.67822 18.2885 5.64939C18.2351 5.62055 18.1918 5.57591 18.1643 5.52145C18.1368 5.46699 18.1265 5.40535 18.1347 5.34479C18.1429 5.28423 18.1693 5.22765 18.2103 5.18269V5.18055ZM8.10896 10.7033V8.86667C8.19097 8.5302 8.35922 8.2816 8.69009 8.2816L10.594 8.27731C10.6542 8.2697 10.7153 8.28107 10.7689 8.30986C10.8225 8.33865 10.866 8.38346 10.8935 8.43816C10.921 8.49287 10.931 8.55481 10.9223 8.61552C10.9137 8.67623 10.8866 8.73276 10.845 8.77737L8.69009 10.9483C8.63917 10.9869 8.57912 11.0114 8.51592 11.0193C8.45272 11.0271 8.3886 11.0181 8.32993 10.9931C8.27127 10.9681 8.22012 10.9279 8.18159 10.8767C8.14306 10.8255 8.11851 10.765 8.11037 10.7011L8.10896 10.7033ZM10.7828 31.8284H8.87391C8.80823 31.831 8.74271 31.8199 8.6815 31.7957C8.62029 31.7715 8.5647 31.7347 8.51822 31.6878C8.47174 31.6408 8.43538 31.5846 8.41142 31.5228C8.38747 31.4609 8.37643 31.3947 8.37901 31.3284L8.29489 29.4053C8.28822 29.3447 8.30009 29.2835 8.32891 29.23C8.35772 29.1765 8.40211 29.1332 8.45605 29.1059C8.50999 29.0787 8.57091 29.0688 8.63058 29.0776C8.69026 29.0864 8.74583 29.1135 8.78978 29.1553L11.0267 31.3262C11.1935 31.4919 11.0267 31.8263 10.7799 31.8263L10.7828 31.8284ZM21.4766 34.7373L20.1503 36.0767C20.1064 36.135 20.0498 36.1823 19.9849 36.2149C19.9199 36.2474 19.8484 36.2644 19.7759 36.2644C19.7034 36.2644 19.6319 36.2474 19.567 36.2149C19.502 36.1823 19.4454 36.135 19.4016 36.0767L17.9947 34.7394C17.9594 34.6994 17.9352 34.6507 17.9246 34.5981C17.9139 34.5456 17.9173 34.4912 17.9342 34.4404C17.9512 34.3896 17.9811 34.3442 18.0211 34.3089C18.061 34.2736 18.1094 34.2496 18.1615 34.2394H21.2235C21.2837 34.2317 21.3449 34.2429 21.3986 34.2716C21.4524 34.3003 21.496 34.345 21.5237 34.3996C21.5514 34.4543 21.5617 34.5163 21.5532 34.5771C21.5448 34.6379 21.518 34.6946 21.4766 34.7394V34.7373ZM22.9612 31.3984L16.3311 31.4048C15.899 31.4625 15.4595 31.4089 15.0534 31.249C14.6472 31.0892 14.2876 30.8282 14.008 30.4904L9.20053 25.6506C8.83615 25.3357 8.55457 24.9345 8.38088 24.483C8.20719 24.0314 8.1468 23.5434 8.2051 23.0625L8.19874 16.461C8.19032 16.0305 8.26633 15.6026 8.42237 15.2019C8.57841 14.8013 8.8114 14.4358 9.10792 14.1265L14.1614 9.02453C14.4364 8.76183 14.762 8.55924 15.1179 8.42944C15.4738 8.29965 15.8524 8.24542 16.2301 8.27017L23.0248 8.26588C23.4368 8.20298 23.8579 8.2462 24.2489 8.39157C24.6399 8.53693 24.9883 8.77971 25.2617 9.0974L30.1611 14.0215C30.4822 14.2983 30.7378 14.6444 30.9091 15.0341C31.0804 15.4239 31.163 15.8476 31.1509 16.2739L31.1594 23.4568C31.2172 23.8764 31.1547 24.304 30.9792 24.6888C30.8038 25.0736 30.5228 25.3994 30.1696 25.6277L25.5332 30.3933C25.21 30.7482 24.8101 31.0231 24.3646 31.1965C23.9192 31.37 23.4402 31.4373 22.9648 31.3934L22.9612 31.3984ZM31.334 31.0519C31.2499 31.3026 31.0858 31.6362 30.7557 31.6362L28.8468 31.6405C28.7863 31.6475 28.7251 31.6355 28.6716 31.6063C28.618 31.577 28.5746 31.5318 28.5472 31.4768C28.5199 31.4218 28.5099 31.3597 28.5186 31.2988C28.5273 31.2379 28.5542 31.1811 28.5959 31.1362L30.7507 28.9631C30.7899 28.9107 30.8438 28.8714 30.9054 28.8505C30.9671 28.8296 31.0335 28.828 31.096 28.8459C31.1586 28.8638 31.2143 28.9004 31.2559 28.9509C31.2975 29.0014 31.323 29.0634 31.3291 29.1288L31.334 31.0519ZM34.3104 21.6937C34.1442 21.8595 33.8155 21.698 33.8933 21.528V18.4384C33.8113 18.1041 34.2263 18.0191 34.3924 18.1848L35.7208 19.5228C35.8827 19.7707 35.9669 20.105 35.7208 20.2707L34.3104 21.6937Z" fill="#EDC948"/>
<path d="M28.4318 24.8855L20.0477 10.1075C19.7147 9.5231 19.2156 9.5231 18.8041 10.1075L10.6972 24.8148C10.531 25.2341 10.6972 25.7334 11.4452 25.7334L27.7694 25.7163C28.3498 25.7163 28.6828 25.4684 28.4339 24.8855H28.4318ZM26.197 23.9647L14.2604 23.9754C14.1683 23.9876 14.0746 23.9737 13.9899 23.9351C13.9052 23.8965 13.8329 23.8348 13.781 23.757C13.7291 23.6791 13.6998 23.5881 13.6963 23.4943C13.6928 23.4005 13.7153 23.3076 13.7612 23.226L19.719 12.5298C19.9692 12.1127 20.3807 12.1934 20.638 12.5298L26.6891 23.2953C26.8531 23.7125 26.6071 23.9625 26.1942 23.9625" fill="#EDC948"/>
<path d="M25.3628 22.2952L20.9605 14.3658C20.9257 14.3086 20.8769 14.2614 20.819 14.2287C20.761 14.1959 20.6957 14.1787 20.6292 14.1787C20.5628 14.1787 20.4975 14.1959 20.4395 14.2287C20.3815 14.2614 20.3328 14.3086 20.298 14.3658L15.9112 22.2159C15.8861 22.2758 15.8751 22.3408 15.879 22.4058C15.883 22.4707 15.9017 22.5339 15.9338 22.5903C15.966 22.6466 16.0106 22.6948 16.0642 22.7308C16.1178 22.7669 16.1789 22.7899 16.2428 22.7981L25.0277 22.7924C25.3593 22.7053 25.5226 22.6238 25.3593 22.2924L25.3628 22.2952ZM23.4504 20.8715L18.8925 20.8779C18.7243 20.8779 18.6458 20.7929 18.7243 20.6265L20.9576 16.6189C21.1245 16.4525 21.2065 16.4525 21.2906 16.6189L23.6137 20.6193C23.6986 20.7872 23.6138 20.8701 23.4497 20.8701" fill="#EDC948"/>
<path d="M151.817 13.57L151.823 18.414C151.406 15.8273 149.746 13.5742 146.433 13.5764L140.463 13.5828L140.471 22.5159L134.507 22.5223V21.1865H138.899V18.0954H134.505V16.8453L139.808 16.8367L139.803 13.5835L130.354 13.5921L130.358 16.8475C129.857 14.681 128.282 13.5973 125.632 13.5964L119.084 13.6042L119.09 21.7873C115.365 23.2931 112.962 22.7974 112.876 19.8735C112.876 16.8675 115.024 16.1117 118.423 17.1089L118.089 13.7707C113.945 12.9392 110.717 13.7793 108.814 17.1196C108.48 15.3701 107.484 13.6978 104.497 13.6192L97.868 13.6257L97.8808 22.4838H91.9103V21.2329L96.3021 21.2286V18.1376L91.9082 18.1433V16.8067L97.2105 16.8024L97.2028 13.6235L72.1756 13.6485L72.182 20.33L68.9454 13.6507L64.2185 13.6571L64.227 22.5102L58.0126 22.5145L58.0084 21.2643L62.4044 21.2579L62.4002 18.2505L58.0084 18.2547V16.9189L63.2288 16.911V13.7428L53.8634 13.7514L53.8719 21.8515C50.4783 23.2753 47.7409 23.0295 47.7374 19.7699C47.7374 17.011 50.3016 16.1802 53.3706 17.2603L52.9556 13.8364C47.4023 12.6713 43.5888 14.8487 43.5132 20.0271C43.5174 24.3711 48.1595 27.0378 53.8754 25.3598V25.6941L67.9648 25.6834L67.9585 19.4184L71.1151 25.6762H76.0018L75.9933 16.7324H79.8888L79.8973 25.6677L84.2099 25.6634L84.2014 16.8053H87.7667L87.7752 25.6555L101.862 25.6448L101.852 16.7924H103.18C103.925 16.7924 104.506 17.0418 104.508 17.879C104.426 18.8791 103.597 19.1298 102.189 18.8791L104.098 25.6434L108.571 25.637L106.662 20.6279C107.09 20.5247 107.487 20.3188 107.819 20.0277C108.151 19.7366 108.409 19.3688 108.571 18.9555C108.577 25.8041 114.463 26.6371 119.105 25.2105V25.6262H123.167L123.159 16.7739H124.484C125.474 16.7739 125.727 17.3561 125.731 17.8583C125.817 18.6934 124.824 19.1127 123.411 18.8584L125.405 25.6227L129.631 25.6184L127.804 20.61C128.385 20.5141 128.93 20.2619 129.381 19.8799C129.833 19.498 130.174 19.0003 130.369 18.4391L130.376 25.6184L147.202 25.6012C149.521 25.6012 151.258 23.9275 151.836 21.1722L151.84 25.6012L156.153 25.597L156.147 16.7446L160.373 16.7403L160.379 25.5934L164.692 25.5891L164.683 16.7374L168 16.7332L167.996 13.5607L151.817 13.57ZM145.878 22.4316H144.549V17.0025H146.042C146.867 17.0025 147.369 17.9226 147.369 19.6777C147.453 21.5951 146.874 22.4309 145.884 22.4309" fill="#1F7042"/>
</svg>
