<svg width="112" height="34" viewBox="0 0 112 34" fill="none" xmlns="http://www.w3.org/2000/svg">
<g clip-path="url(#clip0)">
<path d="M12.4315 3.57565L1.05745 22.7712C-1.86375 27.6642 1.67898 34 7.33492 34H30.083C35.8011 34 39.3438 27.7269 36.3604 22.7712L25.0486 3.57565C22.1895 -1.19188 15.2905 -1.19188 12.4315 3.57565ZM23.6812 4.45387L35.1174 23.6494C36.7334 26.3469 34.8066 29.8598 31.6368 29.8598H8.76444C5.59463 29.8598 3.66788 26.4096 5.28386 23.6494L16.72 4.45387C18.336 1.81919 22.1274 1.81919 23.6812 4.45387Z" fill="#DCAE6B"/>
<path d="M19.1432 8.46857L11.5605 21.2029C10.3796 23.2103 11.8091 25.7195 14.0466 25.7195H29.212C31.5117 25.7195 32.879 23.2103 31.6981 21.2656L24.1776 8.46857C23.0588 6.58665 20.2619 6.58665 19.1432 8.46857ZM24.1154 11.4796L29.0877 19.8228C29.5227 20.5756 29.0255 21.5793 28.0932 21.5793H18.1487C17.2786 21.5793 16.7192 20.6383 17.1543 19.8228L22.1265 11.4796C22.6237 10.7269 23.6804 10.7269 24.1154 11.4796Z" fill="#DCAE6B"/>
<path d="M65.9445 18.5056C66.6282 19.4466 67.0011 20.5757 67.0011 21.8931C67.0011 23.775 66.2553 25.2805 64.8257 26.2842C63.3341 27.2879 61.2209 27.7898 58.424 27.7898H47.2364V6.08496H57.7403C60.3507 6.08496 62.4018 6.58681 63.7691 7.5905C65.1987 8.59419 65.8823 9.97426 65.8823 11.7307C65.8823 12.7971 65.6337 13.7381 65.1365 14.5536C64.6393 15.3691 63.9556 16.0591 63.0233 16.4982C64.2664 16.8746 65.2608 17.5647 65.9445 18.5056ZM52.2086 9.8488V14.9927H57.1809C58.424 14.9927 59.3563 14.8045 59.9778 14.3654C60.5993 13.9263 60.9101 13.299 60.9101 12.4208C60.9101 11.5425 60.5993 10.9152 59.9778 10.5388C59.3563 10.0997 58.424 9.91153 57.1809 9.91153H52.2086V9.8488ZM60.9722 23.3359C61.6559 22.8968 61.9667 22.2067 61.9667 21.3285C61.9667 19.5093 60.6615 18.6311 57.9889 18.6311H52.2086V24.0259H57.9889C59.2941 24.0259 60.2886 23.775 60.9722 23.3359Z" fill="#2EAB62"/>
<path d="M75.081 26.7233C73.2785 25.7823 71.9112 24.4022 70.9167 22.7085C69.9223 21.0148 69.425 19.0701 69.425 16.9373C69.425 14.8044 69.9223 12.8598 70.9167 11.1661C71.9112 9.47233 73.3407 8.15499 75.081 7.1513C76.8834 6.21034 78.8723 5.7085 81.0477 5.7085C82.9123 5.7085 84.5904 6.02215 86.0821 6.71219C87.5738 7.40222 88.879 8.34318 89.8734 9.53506L86.7036 12.4834C85.2741 10.7897 83.4717 9.91145 81.2963 9.91145C79.9911 9.91145 78.748 10.2251 77.7536 10.7897C76.697 11.3543 75.889 12.1698 75.3296 13.2362C74.7702 14.3026 74.4595 15.4945 74.4595 16.8118C74.4595 18.1292 74.7702 19.3838 75.3296 20.3875C75.889 21.4539 76.697 22.2694 77.7536 22.834C78.8102 23.3985 79.9911 23.7122 81.2963 23.7122C83.4717 23.7122 85.2741 22.834 86.7036 21.1402L89.8734 24.0886C88.879 25.3432 87.5738 26.2841 86.0821 26.9742C84.5904 27.6642 82.8501 27.9779 80.9855 27.9779C78.8723 28.1661 76.8834 27.6642 75.081 26.7233Z" fill="#2EAB62"/>
<path d="M97.1454 26.7233C95.3429 25.7823 93.9756 24.4022 92.9811 22.7085C91.9867 21.0148 91.4894 19.0701 91.4894 16.9373C91.4894 14.8044 91.9867 12.8598 92.9811 11.1661C93.9756 9.47233 95.4051 8.15499 97.1454 7.1513C98.9478 6.21034 100.937 5.7085 103.112 5.7085C104.977 5.7085 106.655 6.02215 108.146 6.71219C109.638 7.40222 110.943 8.34318 111.938 9.53506L108.768 12.4834C107.339 10.7897 105.536 9.91145 103.361 9.91145C102.055 9.91145 100.812 10.2251 99.818 10.7897C98.7614 11.3543 97.9534 12.1698 97.394 13.2362C96.8346 14.3026 96.5239 15.4945 96.5239 16.8118C96.5239 18.1292 96.8346 19.3838 97.394 20.3875C97.9534 21.4539 98.8235 22.2694 99.818 22.834C100.875 23.3985 102.055 23.7122 103.361 23.7122C105.536 23.7122 107.339 22.834 108.768 21.1402L111.938 24.0886C110.943 25.3432 109.638 26.2841 108.146 26.9742C106.655 27.6642 104.915 27.9779 103.05 27.9779C100.937 28.1661 98.9478 27.6642 97.1454 26.7233Z" fill="#2EAB62"/>
</g>
<defs>
<clipPath id="clip0">
<rect width="112" height="34" fill="white"/>
</clipPath>
</defs>
</svg>
