<svg width="14" height="18" viewBox="0 0 14 18" fill="none" xmlns="http://www.w3.org/2000/svg">
<path d="M13.0507 6.08052C12.853 5.72543 12.4756 5.52949 12.0734 5.56696C11.6585 5.60615 11.3048 5.88837 11.1724 6.28609C11.0391 6.68724 10.8919 7.02996 10.7159 7.33762C10.7596 6.94677 10.7812 6.52843 10.7812 6.07812C10.7812 3.89943 9.85484 1.8108 8.23922 0.348492C7.95356 0.0896487 7.55138 0.00817997 7.19044 0.135711C6.83019 0.263242 6.57994 0.565399 6.52047 0.944211C6.29978 2.35599 5.82472 3.73237 5.15922 4.90937C5.08531 4.52299 4.98322 4.1483 4.86119 3.82484C4.70719 3.41749 4.32803 3.15624 3.89284 3.15624C3.88906 3.15624 3.88528 3.15624 3.88116 3.15624C3.44597 3.16106 3.07128 3.42849 2.92622 3.8379C2.54741 4.90731 2.22772 5.74227 1.55809 6.74671C0.593531 8.19287 0.125 9.60465 0.125 11.0625C0.125 14.8534 3.20913 17.9375 7 17.9375C10.7909 17.9375 13.875 14.8534 13.875 11.0625C13.875 8.93365 13.5515 6.97806 13.0507 6.08052Z" fill="url(#paint0_linear)"/>
<path d="M9.63725 12.6919L9.63897 12.6922C9.55612 12.1075 8.52659 10.3908 7.84322 9.31557C7.58403 8.90754 7.00172 8.89482 6.71056 9.28051C6.01722 10.1987 4.97841 11.5541 4.72816 11.9181H4.7285C4.42703 12.3598 4.25 12.8933 4.25 13.4681C4.25 14.9874 5.48131 16.2188 7 16.2188C8.51869 16.2188 9.75 14.9874 9.75 13.4681C9.75 13.1986 9.70944 12.9383 9.63725 12.6919Z" fill="url(#paint1_linear)"/>
<defs>
<linearGradient id="paint0_linear" x1="7" y1="17.9375" x2="7" y2="-1.53113" gradientUnits="userSpaceOnUse">
<stop stop-color="#FF634D"/>
<stop offset="0.204" stop-color="#FE6464"/>
<stop offset="0.521" stop-color="#FC6581"/>
<stop offset="0.794" stop-color="#FA6694"/>
<stop offset="0.989" stop-color="#FA669A"/>
<stop offset="1" stop-color="#FA669A"/>
</linearGradient>
<linearGradient id="paint1_linear" x1="7" y1="19.1296" x2="7" y2="9.80816" gradientUnits="userSpaceOnUse">
<stop stop-color="#FEAA53"/>
<stop offset="0.612" stop-color="#FFCD49"/>
<stop offset="1" stop-color="#FFDE44"/>
</linearGradient>
</defs>
</svg>
