<svg width="32" height="32" viewBox="0 0 32 32" fill="none" xmlns="http://www.w3.org/2000/svg">
<rect x="-0.00012207" width="32" height="32" rx="8" fill="#2D72E5"/>
<path d="M20.3076 4H11.6922C10.9781 4 10.2933 4.28734 9.78844 4.7988C9.28353 5.31026 8.99988 6.00396 8.99988 6.72727V25.2727C8.99988 25.996 9.28353 26.6897 9.78844 27.2012C10.2933 27.7127 10.9781 28 11.6922 28H20.3076C21.0216 28 21.7064 27.7127 22.2113 27.2012C22.7162 26.6897 22.9999 25.996 22.9999 25.2727V6.72727C22.9999 6.00396 22.7162 5.31026 22.2113 4.7988C21.7064 4.28734 21.0216 4 20.3076 4ZM15.9999 26.9091C15.106 26.9091 14.3845 26.1782 14.3845 25.2727C14.3845 24.3673 15.106 23.6364 15.9999 23.6364C16.8937 23.6364 17.6153 24.3673 17.6153 25.2727C17.6153 26.1782 16.8937 26.9091 15.9999 26.9091ZM20.846 22.5455H11.1537V7.27273H20.846V22.5455Z" fill="white"/>
</svg>
