<svg width="588" height="494" viewBox="0 0 588 494" fill="none" xmlns="http://www.w3.org/2000/svg">
<g clip-path="url(#clip0)">
<mask id="mask0" mask-type="alpha" maskUnits="userSpaceOnUse" x="-1" y="0" width="589" height="594">
<rect x="-0.00012207" y="0.000244141" width="588" height="593.822" fill="#FAFAFA"/>
</mask>
<g mask="url(#mask0)">
<g filter="url(#filter0_dii)">
<rect x="99.3636" y="34.9309" width="355.667" height="718.413" rx="59" fill="#FAFAFF"/>
</g>
<g clip-path="url(#clip1)">
<path fill-rule="evenodd" clip-rule="evenodd" d="M407.203 75.0493H422.024C423.272 75.0493 423.725 75.1793 424.181 75.4233C424.638 75.6673 424.996 76.0254 425.24 76.4817C425.484 76.938 425.614 77.3906 425.614 78.6388V82.9599C425.614 84.208 425.484 84.6606 425.24 85.1169C424.996 85.5732 424.638 85.9313 424.181 86.1753C423.725 86.4194 423.272 86.5493 422.024 86.5493H407.203C405.955 86.5493 405.502 86.4194 405.046 86.1753C404.59 85.9313 404.232 85.5732 403.988 85.1169C403.744 84.6606 403.614 84.208 403.614 82.9599V78.6388C403.614 77.3906 403.744 76.938 403.988 76.4817C404.232 76.0254 404.59 75.6673 405.046 75.4233C405.502 75.1793 405.955 75.0493 407.203 75.0493ZM407.203 76.0493C406.216 76.0493 405.872 76.1159 405.518 76.3051C405.236 76.4559 405.02 76.6713 404.87 76.9533C404.68 77.3072 404.614 77.6518 404.614 78.6388V82.9599C404.614 83.9469 404.68 84.2914 404.87 84.6453C405.02 84.9273 405.236 85.1427 405.518 85.2935C405.872 85.4828 406.216 85.5493 407.203 85.5493H422.024C423.011 85.5493 423.356 85.4828 423.71 85.2935C423.992 85.1427 424.207 84.9273 424.358 84.6453C424.547 84.2914 424.614 83.9469 424.614 82.9599V78.6388C424.614 77.6518 424.547 77.3072 424.358 76.9533C424.207 76.6713 423.992 76.4559 423.71 76.3051C423.356 76.1159 423.011 76.0493 422.024 76.0493H407.203ZM428.114 80.7393C428.114 81.9759 426.614 82.7393 426.614 82.7393V78.7393C426.614 78.7393 428.114 79.5027 428.114 80.7393Z" fill="black" fill-opacity="0.36"/>
<rect x="405.614" y="76.9659" width="18" height="7.66667" rx="1.6" fill="black"/>
<path fill-rule="evenodd" clip-rule="evenodd" d="M375.237 76.4553C375.214 76.5712 375.214 76.7106 375.214 76.9894V84.6894C375.214 84.9682 375.214 85.1076 375.237 85.2235C375.332 85.6995 375.704 86.0716 376.18 86.1663C376.296 86.1894 376.435 86.1894 376.714 86.1894C376.993 86.1894 377.132 86.1894 377.248 86.1663C377.724 86.0716 378.096 85.6995 378.191 85.2235C378.214 85.1076 378.214 84.9682 378.214 84.6894V76.9894C378.214 76.7106 378.214 76.5712 378.191 76.4553C378.096 75.9792 377.724 75.6071 377.248 75.5124C377.132 75.4894 376.993 75.4894 376.714 75.4894C376.435 75.4894 376.296 75.4894 376.18 75.5124C375.704 75.6071 375.332 75.9792 375.237 76.4553ZM370.514 79.3894C370.514 79.1106 370.514 78.9712 370.537 78.8553C370.632 78.3792 371.004 78.0071 371.48 77.9124C371.596 77.8894 371.735 77.8894 372.014 77.8894C372.293 77.8894 372.432 77.8894 372.548 77.9124C373.024 78.0071 373.396 78.3792 373.491 78.8553C373.514 78.9712 373.514 79.1106 373.514 79.3894V84.6894C373.514 84.9682 373.514 85.1076 373.491 85.2235C373.396 85.6995 373.024 86.0716 372.548 86.1663C372.432 86.1894 372.293 86.1894 372.014 86.1894C371.735 86.1894 371.596 86.1894 371.48 86.1663C371.004 86.0716 370.632 85.6995 370.537 85.2235C370.514 85.1076 370.514 84.9682 370.514 84.6894V79.3894ZM365.937 81.1553C365.914 81.2712 365.914 81.4106 365.914 81.6894V84.6894C365.914 84.9682 365.914 85.1076 365.937 85.2235C366.032 85.6995 366.404 86.0716 366.88 86.1663C366.996 86.1894 367.135 86.1894 367.414 86.1894C367.693 86.1894 367.832 86.1894 367.948 86.1663C368.424 86.0716 368.796 85.6995 368.891 85.2235C368.914 85.1076 368.914 84.9682 368.914 84.6894V81.6894C368.914 81.4106 368.914 81.2712 368.891 81.1553C368.796 80.6792 368.424 80.3071 367.948 80.2124C367.832 80.1894 367.693 80.1894 367.414 80.1894C367.135 80.1894 366.996 80.1894 366.88 80.2124C366.404 80.3071 366.032 80.6792 365.937 81.1553ZM361.137 83.1553C361.114 83.2712 361.114 83.4106 361.114 83.6894V84.6894C361.114 84.9682 361.114 85.1076 361.137 85.2235C361.232 85.6995 361.604 86.0716 362.08 86.1663C362.196 86.1894 362.335 86.1894 362.614 86.1894C362.893 86.1894 363.032 86.1894 363.148 86.1663C363.624 86.0716 363.996 85.6995 364.091 85.2235C364.114 85.1076 364.114 84.9682 364.114 84.6894V83.6894C364.114 83.4106 364.114 83.2712 364.091 83.1553C363.996 82.6792 363.624 82.3071 363.148 82.2124C363.032 82.1894 362.893 82.1894 362.614 82.1894C362.335 82.1894 362.196 82.1894 362.08 82.2124C361.604 82.3071 361.232 82.6792 361.137 83.1553Z" fill="black"/>
<path fill-rule="evenodd" clip-rule="evenodd" d="M390.914 77.5858C393.149 77.5859 395.298 78.4444 396.917 79.984C397.039 80.1029 397.234 80.1014 397.354 79.9806L398.52 78.8042C398.58 78.743 398.614 78.6601 398.614 78.5738C398.613 78.4875 398.578 78.4049 398.517 78.3444C394.267 74.2711 387.561 74.2711 383.311 78.3444C383.249 78.4049 383.214 78.4874 383.214 78.5737C383.213 78.66 383.247 78.7429 383.308 78.8042L384.474 79.9806C384.594 80.1015 384.789 80.103 384.911 79.984C386.53 78.4443 388.68 77.5858 390.914 77.5858ZM390.914 81.4132C392.142 81.4131 393.326 81.8694 394.236 82.6935C394.359 82.8104 394.553 82.8079 394.673 82.6877L395.837 81.5113C395.898 81.4496 395.932 81.3659 395.931 81.2789C395.931 81.1919 395.895 81.1089 395.832 81.0485C393.061 78.4707 388.77 78.4707 385.998 81.0485C385.936 81.1089 385.9 81.192 385.899 81.279C385.898 81.366 385.933 81.4497 385.994 81.5113L387.158 82.6877C387.278 82.8079 387.472 82.8104 387.595 82.6935C388.504 81.87 389.687 81.4137 390.914 81.4132ZM393.152 84.2208C393.214 84.1597 393.248 84.0756 393.246 83.9883C393.245 83.9011 393.207 83.8185 393.142 83.76C391.856 82.6721 389.972 82.6721 388.686 83.76C388.621 83.8184 388.584 83.901 388.582 83.9883C388.58 84.0755 388.614 84.1596 388.676 84.2208L390.691 86.2533C390.75 86.313 390.83 86.3466 390.914 86.3466C390.998 86.3466 391.079 86.313 391.138 86.2533L393.152 84.2208Z" fill="black"/>
</g>
<path d="M144.911 86.1458C147.599 86.1458 149.196 84.0437 149.196 80.4768C149.196 76.9758 147.497 75.0569 144.97 75.0569C142.67 75.0569 141.044 76.6023 141.044 78.7629C141.044 80.7917 142.509 82.2712 144.523 82.2712C145.761 82.2712 146.764 81.7 147.262 80.6965H147.387C147.365 83.1794 146.478 84.6003 144.933 84.6003C144.025 84.6003 143.3 84.1023 143.073 83.2966H141.19C141.498 85.0178 142.978 86.1458 144.911 86.1458ZM144.977 80.8137C143.747 80.8137 142.897 79.9495 142.897 78.7043C142.897 77.5105 143.79 76.595 144.984 76.595C146.178 76.595 147.072 77.5251 147.072 78.741C147.072 79.9421 146.2 80.8137 144.977 80.8137ZM152.349 79.0486C153.044 79.0486 153.521 78.5652 153.521 77.9133C153.521 77.2615 153.044 76.7781 152.349 76.7781C151.66 76.7781 151.177 77.2615 151.177 77.9133C151.177 78.5652 151.66 79.0486 152.349 79.0486ZM152.349 84.4246C153.044 84.4246 153.521 83.9338 153.521 83.2893C153.521 82.6375 153.044 82.1541 152.349 82.1541C151.66 82.1541 151.177 82.6375 151.177 83.2893C151.177 83.9338 151.66 84.4246 152.349 84.4246ZM160.658 85.8894H162.467V83.8606H163.895V82.3005H162.467V75.3206H159.801C158.365 77.5032 156.864 79.9348 155.494 82.3152V83.8606H160.658V85.8894ZM157.245 82.2346C158.277 80.4402 159.501 78.4846 160.585 76.8293H160.687V82.3445H157.245V82.2346ZM168.059 85.8894H169.948V75.3206H168.066L165.305 77.2615V79.0413L167.934 77.1809H168.059V85.8894Z" fill="black"/>
<g filter="url(#filter1_i)">
<path d="M96.6414 134.089C96.6414 132.586 97.8599 131.368 99.363 131.368V160.564C97.8599 160.564 96.6414 159.346 96.6414 157.843V134.089Z" fill="#FAFAFF"/>
</g>
<g filter="url(#filter2_i)">
<path d="M96.6414 185.941C96.6414 184.438 97.8599 183.219 99.363 183.219V235.677C97.8599 235.677 96.6414 234.459 96.6414 232.956V185.941Z" fill="#FAFAFF"/>
</g>
<g filter="url(#filter3_i)">
<path d="M96.6414 251.701C96.6414 250.198 97.8599 248.979 99.363 248.979V301.437C97.8599 301.437 96.6414 300.219 96.6414 298.716V251.701Z" fill="#FAFAFF"/>
</g>
<g filter="url(#filter4_i)">
<path d="M457.697 203.343C457.697 201.87 456.503 200.677 455.03 200.677V284.146C456.503 284.146 457.697 282.952 457.697 281.48V203.343Z" fill="#FAFAFF"/>
</g>
<path fill-rule="evenodd" clip-rule="evenodd" d="M282.32 56.3213H369.016C366.215 56.4906 364.615 58.427 364.44 60.9395C364.44 72.4715 355.092 81.82 343.56 81.82H285.583V81.8205H211.12C199.588 81.8205 190.24 72.4719 190.24 60.94C190.065 58.4274 188.465 56.491 185.664 56.3217H282.32V56.3213Z" fill="#FAFAFF"/>
<rect x="255.043" y="60.9299" width="44.3069" height="6.44655" rx="3.22327" fill="#EAEAEA"/>
<circle cx="315.002" cy="64.1539" r="5.05343" fill="#C4C4C4"/>
<circle cx="315.002" cy="64.1531" r="3.10725" fill="url(#paint0_radial)"/>
<mask id="mask1" mask-type="alpha" maskUnits="userSpaceOnUse" x="255" y="60" width="45" height="8">
<rect x="255.043" y="60.9299" width="44.3069" height="6.44655" rx="3.22327" fill="#EAEAEA"/>
</mask>
<g mask="url(#mask1)">
<path fill-rule="evenodd" clip-rule="evenodd" d="M309.948 62.2394V60.93H309.948H309.074H307.631H306.758H305.314H304.44H302.997H302.123H300.679H299.805H298.363H297.489H296.046H295.172H293.729H292.855H291.412H290.538H289.095H288.221H286.778H285.904H284.461H283.588H282.144H281.27H279.827H278.953H277.511H276.637H275.193H274.319H272.876H272.002H270.56H269.686H268.242H267.368H265.925H265.051H263.609H262.735H261.291H260.418H258.974H258.1H256.658H255.784H254.341H253.467H252.023H251.149H249.707H248.833H247.39H246.516H245.072H244.198H242.756H241.882L239.565 60.93L239.565 60.9302H239.565V67.3766H239.565L239.565 67.3767L309.948 67.3767V66.0672H309.948V64.8081H309.948V63.4986H309.948V62.2394H309.948ZM309.074 62.2394H307.631V63.4986H309.074V62.2394ZM309.074 64.8081H307.631V66.0672H309.074V64.8081ZM306.758 64.8081V66.0672H305.314V64.8081H306.758ZM306.758 62.2394V63.4986H305.314V62.2394H306.758ZM304.44 62.2394H302.997V63.4986H304.44V62.2394ZM304.44 64.8081H302.997V66.0672H304.44V64.8081ZM302.123 64.8081V66.0672H300.679V64.8081H302.123ZM302.123 62.2394V63.4986H300.679V62.2394H302.123ZM299.805 62.2394H298.363V63.4986H299.805V62.2394ZM299.805 64.8081H298.363V66.0672H299.805V64.8081ZM297.489 64.8081V66.0672H296.046V64.8081H297.489ZM297.489 62.2394V63.4986H296.046V62.2394H297.489ZM295.172 62.2394H293.729V63.4986H295.172V62.2394ZM295.172 64.8081H293.729V66.0672H295.172V64.8081ZM292.855 64.8081V66.0672H291.412V64.8081H292.855ZM292.855 62.2394V63.4986H291.412V62.2394H292.855ZM290.538 62.2394H289.095V63.4986H290.538V62.2394ZM290.538 64.8081H289.095V66.0672H290.538V64.8081ZM288.221 64.8081V66.0672H286.778V64.8081H288.221ZM288.221 62.2394V63.4986H286.778V62.2394H288.221ZM285.904 62.2394H284.461V63.4986H285.904V62.2394ZM285.904 64.8081H284.461V66.0672H285.904V64.8081ZM283.588 64.8081V66.0672H282.144V64.8081H283.588ZM283.588 62.2394V63.4986H282.144V62.2394H283.588ZM281.27 62.2394H279.827V63.4986H281.27V62.2394ZM281.27 64.8081H279.827V66.0672H281.27V64.8081ZM278.953 64.8081V66.0672H277.511V64.8081H278.953ZM278.953 62.2394V63.4986H277.511V62.2394H278.953ZM276.637 62.2394H275.193V63.4986H276.637V62.2394ZM276.637 64.8081H275.193V66.0672H276.637V64.8081ZM274.319 64.8081V66.0672H272.876V64.8081H274.319ZM274.319 62.2394V63.4986H272.876V62.2394H274.319ZM272.002 62.2394H270.56V63.4986H272.002V62.2394ZM272.002 64.8081H270.56V66.0672H272.002V64.8081ZM269.686 64.8081V66.0672H268.242V64.8081H269.686ZM269.686 62.2394V63.4986H268.242V62.2394H269.686ZM267.368 62.2394H265.925V63.4986H267.368V62.2394ZM267.368 64.8081H265.925V66.0672H267.368V64.8081ZM265.051 64.8081V66.0672H263.609V64.8081H265.051ZM265.051 62.2394V63.4986H263.609V62.2394H265.051ZM262.735 62.2394H261.291V63.4986H262.735V62.2394ZM262.735 64.8081H261.291V66.0672H262.735V64.8081ZM260.418 64.8081V66.0672H258.974V64.8081H260.418ZM260.418 62.2394V63.4986H258.974V62.2394H260.418ZM258.1 62.2394H256.658V63.4986H258.1V62.2394ZM258.1 64.8081H256.658V66.0672H258.1V64.8081ZM255.784 64.8081V66.0672H254.341V64.8081H255.784ZM255.784 62.2394V63.4986H254.341V62.2394H255.784ZM253.467 62.2394H252.023V63.4986H253.467V62.2394ZM253.467 64.8081H252.023V66.0672H253.467V64.8081ZM251.149 64.8081V66.0672H249.707V64.8081H251.149ZM251.149 62.2394V63.4986H249.707V62.2394H251.149ZM248.833 62.2394H247.39V63.4986H248.833V62.2394ZM248.833 64.8081H247.39V66.0672H248.833V64.8081ZM246.516 64.8081V66.0672H245.072V64.8081H246.516ZM246.516 62.2394V63.4986H245.072V62.2394H246.516ZM244.198 62.2394H242.756V63.4986H244.198V62.2394ZM244.198 64.8081H242.756V66.0672H244.198V64.8081ZM241.882 64.8081V66.0672H240.439V64.8081H241.882ZM241.882 62.2394V63.4986H240.439V62.2394H241.882Z" fill="#C4C4C4"/>
</g>
</g>
<path d="M240.691 119.389L240.685 113.27L234.681 113.277L230.488 109L226.303 113.223L220.237 113.229L220.244 119.344L216 123.627L220.312 127.903L220.318 134.018L226.322 134.012L230.515 138.286L234.698 134.003L240.764 133.998L240.758 127.945L245.002 123.662L240.691 119.389ZM219.702 124.909L218.73 123.931C218.694 123.895 218.665 123.853 218.645 123.805C218.626 123.758 218.616 123.707 218.616 123.656C218.616 123.605 218.626 123.554 218.645 123.507C218.665 123.46 218.694 123.417 218.73 123.381L219.761 122.34C219.79 122.313 219.827 122.296 219.867 122.292C219.906 122.288 219.946 122.297 219.98 122.318C220.014 122.338 220.041 122.37 220.056 122.407C220.071 122.444 220.073 122.485 220.063 122.524L220.125 124.726C220.125 124.971 219.883 125.031 219.703 124.909H219.702ZM237.103 115.049H238.5C238.682 115.049 238.922 115.17 238.863 115.416V116.88C238.863 117.063 238.622 117.126 238.558 117.001L236.979 115.413C236.944 115.389 236.917 115.353 236.903 115.312C236.89 115.27 236.89 115.225 236.903 115.184C236.917 115.143 236.944 115.107 236.979 115.082C237.015 115.058 237.058 115.045 237.101 115.047L237.103 115.049ZM229.333 112.793L230.305 111.814C230.486 111.692 230.728 111.631 230.848 111.814L231.879 112.792C231.907 112.825 231.925 112.865 231.93 112.908C231.935 112.952 231.928 112.995 231.909 113.034C231.89 113.073 231.86 113.106 231.823 113.128C231.786 113.15 231.743 113.16 231.7 113.158L229.517 113.161C229.473 113.166 229.429 113.158 229.39 113.136C229.351 113.115 229.319 113.083 229.299 113.043C229.279 113.003 229.271 112.958 229.277 112.913C229.283 112.869 229.303 112.828 229.333 112.795V112.793ZM221.937 116.837V115.492C221.997 115.246 222.12 115.064 222.362 115.064L223.756 115.06C223.8 115.055 223.845 115.063 223.884 115.084C223.924 115.105 223.956 115.138 223.976 115.178C223.996 115.218 224.003 115.264 223.997 115.308C223.99 115.352 223.971 115.394 223.94 115.427L222.362 117.016C222.325 117.044 222.281 117.062 222.235 117.068C222.189 117.074 222.142 117.067 222.099 117.049C222.056 117.03 222.018 117.001 221.99 116.964C221.962 116.926 221.944 116.882 221.938 116.835L221.937 116.837ZM223.895 132.303H222.497C222.449 132.305 222.401 132.297 222.356 132.279C222.311 132.262 222.271 132.235 222.237 132.2C222.203 132.166 222.176 132.125 222.158 132.079C222.141 132.034 222.133 131.986 222.135 131.937L222.073 130.529C222.068 130.485 222.077 130.44 222.098 130.401C222.119 130.362 222.151 130.33 222.191 130.31C222.23 130.29 222.275 130.283 222.319 130.289C222.363 130.296 222.403 130.316 222.435 130.346L224.073 131.936C224.195 132.057 224.073 132.302 223.892 132.302L223.895 132.303ZM231.724 134.433L230.753 135.414C230.721 135.456 230.679 135.491 230.632 135.515C230.584 135.539 230.532 135.551 230.479 135.551C230.426 135.551 230.373 135.539 230.326 135.515C230.278 135.491 230.237 135.456 230.205 135.414L229.175 134.434C229.149 134.405 229.131 134.37 229.123 134.331C229.116 134.293 229.118 134.253 229.13 134.216C229.143 134.178 229.165 134.145 229.194 134.119C229.223 134.093 229.259 134.076 229.297 134.068H231.539C231.583 134.063 231.627 134.071 231.667 134.092C231.706 134.113 231.738 134.146 231.758 134.186C231.779 134.226 231.786 134.271 231.78 134.316C231.774 134.36 231.754 134.402 231.724 134.434V134.433ZM232.811 131.988L227.957 131.993C227.64 132.035 227.319 131.996 227.021 131.879C226.724 131.762 226.461 131.571 226.256 131.324L222.736 127.78C222.469 127.55 222.263 127.256 222.136 126.925C222.009 126.595 221.965 126.237 222.007 125.885L222.003 121.052C221.996 120.737 222.052 120.424 222.166 120.13C222.281 119.837 222.451 119.569 222.668 119.343L226.368 115.607C226.569 115.415 226.808 115.267 227.068 115.172C227.329 115.077 227.606 115.037 227.883 115.055L232.857 115.052C233.159 115.006 233.467 115.038 233.754 115.144C234.04 115.25 234.295 115.428 234.495 115.661L238.082 119.266C238.317 119.469 238.504 119.722 238.63 120.007C238.755 120.293 238.816 120.603 238.807 120.915L238.813 126.174C238.855 126.481 238.81 126.794 238.681 127.076C238.553 127.358 238.347 127.596 238.088 127.763L234.694 131.253C234.457 131.512 234.165 131.714 233.838 131.841C233.512 131.968 233.162 132.017 232.813 131.985L232.811 131.988ZM238.941 131.735C238.879 131.918 238.759 132.163 238.518 132.163L237.12 132.166C237.076 132.171 237.031 132.162 236.992 132.141C236.952 132.119 236.921 132.086 236.901 132.046C236.881 132.006 236.873 131.96 236.88 131.915C236.886 131.871 236.906 131.829 236.936 131.796L238.514 130.205C238.543 130.167 238.582 130.138 238.627 130.123C238.672 130.108 238.721 130.106 238.767 130.12C238.813 130.133 238.853 130.16 238.884 130.196C238.914 130.233 238.933 130.279 238.937 130.327L238.941 131.735ZM241.12 124.883C240.999 125.005 240.758 124.886 240.815 124.762V122.5C240.755 122.255 241.059 122.193 241.18 122.314L242.153 123.294C242.271 123.475 242.333 123.72 242.153 123.841L241.12 124.883Z" fill="#27AE60"/>
<path d="M236.817 127.219L230.678 116.4C230.435 115.972 230.069 115.972 229.768 116.4L223.832 127.167C223.711 127.474 223.832 127.84 224.38 127.84L236.332 127.828C236.757 127.828 237 127.646 236.818 127.219H236.817ZM235.181 126.545L226.441 126.553C226.374 126.562 226.305 126.552 226.243 126.523C226.181 126.495 226.128 126.45 226.09 126.393C226.052 126.336 226.031 126.269 226.028 126.201C226.026 126.132 226.042 126.064 226.076 126.004L230.438 118.173C230.621 117.868 230.922 117.927 231.111 118.173L235.541 126.055C235.661 126.36 235.481 126.543 235.178 126.543" fill="#27AE60"/>
<path d="M234.57 125.323L231.347 119.518C231.322 119.476 231.286 119.441 231.243 119.417C231.201 119.393 231.153 119.381 231.105 119.381C231.056 119.381 231.008 119.393 230.966 119.417C230.923 119.441 230.888 119.476 230.862 119.518L227.65 125.265C227.632 125.309 227.624 125.356 227.627 125.404C227.63 125.452 227.643 125.498 227.667 125.539C227.69 125.58 227.723 125.616 227.762 125.642C227.801 125.668 227.846 125.685 227.893 125.691L234.325 125.687C234.568 125.623 234.687 125.564 234.568 125.321L234.57 125.323ZM233.17 124.281L229.833 124.285C229.71 124.285 229.652 124.223 229.71 124.101L231.345 121.167C231.467 121.045 231.527 121.045 231.589 121.167L233.29 124.096C233.352 124.219 233.29 124.28 233.17 124.28" fill="#27AE60"/>
<path d="M327.152 118.936L327.157 122.482C326.851 120.588 325.636 118.939 323.211 118.94L318.839 118.945L318.845 125.485L314.479 125.49V124.512H317.694V122.249H314.477V121.333L318.359 121.327L318.356 118.945L311.438 118.952L311.441 121.335C311.074 119.749 309.921 118.955 307.98 118.955L303.186 118.961L303.191 124.952C300.464 126.054 298.704 125.691 298.641 123.551C298.641 121.35 300.215 120.796 302.702 121.526L302.458 119.082C299.424 118.474 297.061 119.089 295.667 121.534C295.423 120.253 294.694 119.029 292.507 118.972L287.653 118.976L287.663 125.462H283.292V124.546L286.507 124.543V122.28L283.29 122.284V121.305L287.172 121.302L287.166 118.975L268.843 118.993L268.847 123.885L266.478 118.995L263.017 118.999L263.023 125.481L258.474 125.484L258.471 124.569L261.689 124.564L261.686 122.362L258.471 122.365V121.387L262.292 121.382V119.062L255.436 119.068L255.442 124.999C252.958 126.041 250.953 125.861 250.951 123.475C250.951 121.455 252.828 120.847 255.075 121.637L254.771 119.131C250.706 118.278 247.913 119.872 247.858 123.663C247.861 126.843 251.26 128.796 255.445 127.567V127.812L265.76 127.804L265.756 123.217L268.066 127.799H271.644L271.638 121.251H274.49L274.497 127.793L277.654 127.79L277.648 121.304H280.258L280.264 127.784L290.578 127.776L290.57 121.295H291.543C292.088 121.295 292.513 121.477 292.515 122.09C292.455 122.823 291.848 123.006 290.817 122.823L292.214 127.775L295.489 127.77L294.092 124.103C294.405 124.027 294.696 123.877 294.939 123.663C295.183 123.45 295.371 123.181 295.489 122.878C295.494 127.893 299.803 128.503 303.202 127.458V127.762H306.176L306.17 121.281H307.141C307.865 121.281 308.05 121.707 308.053 122.075C308.116 122.687 307.389 122.994 306.355 122.807L307.814 127.76L310.909 127.757L309.571 124.09C309.996 124.02 310.395 123.835 310.725 123.555C311.056 123.276 311.306 122.911 311.449 122.5L311.454 127.757L323.773 127.744C325.471 127.744 326.742 126.519 327.166 124.501L327.169 127.744L330.326 127.741L330.322 121.26L333.416 121.257L333.421 127.738L336.578 127.735L336.572 121.254L339 121.251L338.997 118.929L327.152 118.936ZM322.803 125.423H321.831V121.449H322.924C323.528 121.449 323.895 122.122 323.895 123.407C323.957 124.811 323.533 125.423 322.808 125.423" fill="#27AE60"/>
<g clip-path="url(#clip2)">
<g filter="url(#filter5_bd)">
<path fill-rule="evenodd" clip-rule="evenodd" d="M119 195C119 181.745 129.745 171 143 171H412C425.255 171 436 181.745 436 195V229C436 242.255 425.255 253 412 253H143C129.745 253 119 242.255 119 229V195Z" fill="white"/>
</g>
<path d="M235.433 191.223C235.348 192.133 235.012 192.844 234.426 193.356C233.84 193.864 233.06 194.117 232.088 194.117C231.408 194.117 230.808 193.957 230.289 193.637C229.773 193.313 229.375 192.854 229.094 192.26C228.812 191.666 228.666 190.977 228.654 190.192V189.395C228.654 188.59 228.797 187.881 229.082 187.268C229.367 186.655 229.775 186.182 230.307 185.85C230.842 185.518 231.459 185.352 232.158 185.352C233.099 185.352 233.857 185.608 234.432 186.119C235.006 186.631 235.34 187.354 235.433 188.287H233.957C233.887 187.674 233.707 187.233 233.418 186.963C233.133 186.69 232.713 186.553 232.158 186.553C231.514 186.553 231.017 186.789 230.67 187.262C230.326 187.731 230.15 188.42 230.142 189.33V190.086C230.142 191.008 230.307 191.711 230.635 192.196C230.967 192.68 231.451 192.922 232.088 192.922C232.67 192.922 233.107 192.791 233.4 192.53C233.693 192.268 233.879 191.832 233.957 191.223H235.433ZM239.834 189.928L241.545 185.469H243.191L240.221 192.547L239.951 193.08C239.56 193.776 238.928 194.123 238.053 194.123L237.443 194.088L237.455 192.916C237.549 192.932 237.715 192.94 237.953 192.94C238.375 192.94 238.672 192.76 238.844 192.401L239.148 191.68L236.23 185.469H237.848L239.834 189.928ZM246.244 185.469L248.705 192.008L251.16 185.469H253.076V194H251.599V191.188L251.746 187.426L249.226 194H248.166L245.652 187.432L245.799 191.188V194H244.322V185.469H246.244ZM256.756 185.469L259.217 192.008L261.672 185.469H263.588V194H262.111V191.188L262.258 187.426L259.738 194H258.678L256.164 187.432L256.31 191.188V194H254.834V185.469H256.756ZM270.226 192.014H266.922L266.23 194H264.689L267.912 185.469H269.242L272.471 194H270.924L270.226 192.014ZM267.338 190.819H269.81L268.574 187.28L267.338 190.819ZM283.141 185.469V194H281.664V186.664H279.051L278.898 189.963C278.84 190.994 278.713 191.795 278.517 192.365C278.326 192.932 278.047 193.346 277.68 193.608C277.312 193.869 276.82 194 276.203 194H275.828V192.817L276.062 192.799C276.402 192.768 276.664 192.649 276.848 192.442C277.035 192.235 277.176 191.922 277.269 191.504C277.367 191.082 277.435 190.463 277.474 189.647L277.639 185.469H283.141ZM290.154 185.469H291.637V194H290.154V187.924L286.41 194H284.928V185.469H286.41V191.551L290.154 185.469ZM295.334 185.469L297.795 192.008L300.25 185.469H302.166V194H300.689V191.188L300.836 187.426L298.316 194H297.256L294.742 187.432L294.889 191.188V194H293.412V185.469H295.334ZM309.15 185.469H310.633V194H309.15V187.924L305.406 194H303.924V185.469H305.406V191.551L309.15 185.469ZM318.396 186.664H315.736V194H314.266V186.664H311.629V185.469H318.396V186.664ZM323.594 192.014H320.289L319.598 194H318.057L321.279 185.469H322.609L325.838 194H324.291L323.594 192.014ZM320.705 190.819H323.178L321.941 187.28L320.705 190.819Z" fill="#768093"/>
<path d="M197.5 231.5H182.203V228.891L189.781 220.625C190.875 219.406 191.651 218.391 192.109 217.578C192.578 216.755 192.812 215.933 192.812 215.11C192.812 214.026 192.505 213.151 191.891 212.485C191.286 211.818 190.469 211.485 189.437 211.485C188.208 211.485 187.255 211.86 186.578 212.61C185.901 213.36 185.562 214.386 185.562 215.688H181.766C181.766 214.302 182.078 213.058 182.703 211.953C183.338 210.839 184.239 209.974 185.406 209.36C186.583 208.745 187.937 208.438 189.469 208.438C191.677 208.438 193.417 208.995 194.687 210.11C195.969 211.214 196.609 212.745 196.609 214.703C196.609 215.839 196.286 217.031 195.641 218.281C195.005 219.521 193.958 220.933 192.5 222.516L186.937 228.469H197.5V231.5ZM209.375 220.219L210.609 208.75H222.828V212.031H213.766L213.141 217.469C214.193 216.865 215.38 216.563 216.703 216.563C218.87 216.563 220.552 217.255 221.75 218.641C222.958 220.026 223.562 221.891 223.562 224.235C223.562 226.547 222.896 228.391 221.562 229.766C220.229 231.13 218.401 231.813 216.078 231.813C213.995 231.813 212.266 231.224 210.891 230.047C209.526 228.86 208.786 227.297 208.672 225.36H212.344C212.489 226.464 212.885 227.313 213.531 227.906C214.177 228.49 215.021 228.781 216.062 228.781C217.229 228.781 218.135 228.365 218.781 227.531C219.437 226.698 219.766 225.563 219.766 224.125C219.766 222.74 219.406 221.646 218.687 220.844C217.969 220.031 216.979 219.625 215.719 219.625C215.031 219.625 214.448 219.719 213.969 219.906C213.489 220.084 212.969 220.438 212.406 220.969L209.375 220.219ZM241.375 221.922C241.375 225.193 240.76 227.662 239.531 229.328C238.312 230.985 236.453 231.813 233.953 231.813C231.495 231.813 229.641 231.005 228.391 229.391C227.151 227.766 226.516 225.365 226.484 222.188V218.25C226.484 214.979 227.094 212.526 228.312 210.891C229.542 209.255 231.411 208.438 233.922 208.438C236.411 208.438 238.266 209.235 239.484 210.828C240.713 212.422 241.344 214.808 241.375 217.985V221.922ZM237.578 217.672C237.578 215.537 237.286 213.974 236.703 212.985C236.12 211.985 235.193 211.485 233.922 211.485C232.682 211.485 231.771 211.959 231.187 212.906C230.604 213.844 230.297 215.313 230.266 217.313V222.469C230.266 224.594 230.562 226.177 231.156 227.219C231.75 228.261 232.682 228.781 233.953 228.781C235.172 228.781 236.073 228.302 236.656 227.344C237.239 226.375 237.547 224.865 237.578 222.813V217.672ZM259.562 221.922C259.562 225.193 258.948 227.662 257.719 229.328C256.5 230.985 254.641 231.813 252.141 231.813C249.682 231.813 247.828 231.005 246.578 229.391C245.338 227.766 244.703 225.365 244.672 222.188V218.25C244.672 214.979 245.281 212.526 246.5 210.891C247.729 209.255 249.599 208.438 252.109 208.438C254.599 208.438 256.453 209.235 257.672 210.828C258.901 212.422 259.531 214.808 259.562 217.985V221.922ZM255.766 217.672C255.766 215.537 255.474 213.974 254.891 212.985C254.307 211.985 253.38 211.485 252.109 211.485C250.87 211.485 249.958 211.959 249.375 212.906C248.792 213.844 248.484 215.313 248.453 217.313V222.469C248.453 224.594 248.75 226.177 249.344 227.219C249.937 228.261 250.87 228.781 252.141 228.781C253.359 228.781 254.26 228.302 254.844 227.344C255.427 226.375 255.734 224.865 255.766 222.813V217.672Z" fill="#111111"/>
<path d="M270.013 208.652H286.397V211.148H270.013V208.652ZM279.645 231.5H276.765V216.14H270.013V213.644H286.397V216.14H279.645V231.5ZM289.953 233.453H286.969L295.922 208.75H298.906L289.953 233.453ZM301.609 228.469C302.661 227.292 303.364 226.177 303.719 225.125C304.083 224.063 304.302 222.709 304.375 221.063L304.594 214.594H316.328V228.469H318.672V236.531H314.891V231.5H304.047V236.531H300.203L300.219 228.469H301.609ZM306.062 228.469H312.547V217.86H308.281L308.172 221.094C308.026 224.198 307.323 226.656 306.062 228.469ZM328.828 231.813C326.422 231.813 324.469 231.058 322.969 229.547C321.479 228.026 320.734 226.005 320.734 223.485V223.016C320.734 221.328 321.057 219.823 321.703 218.5C322.359 217.167 323.276 216.13 324.453 215.391C325.63 214.651 326.943 214.281 328.391 214.281C330.693 214.281 332.469 215.016 333.719 216.485C334.979 217.953 335.609 220.031 335.609 222.719V224.25H324.562C324.677 225.646 325.141 226.75 325.953 227.563C326.776 228.375 327.807 228.781 329.047 228.781C330.786 228.781 332.203 228.078 333.297 226.672L335.344 228.625C334.667 229.636 333.76 230.422 332.625 230.985C331.5 231.537 330.234 231.813 328.828 231.813ZM328.375 217.328C327.333 217.328 326.489 217.693 325.844 218.422C325.208 219.151 324.802 220.167 324.625 221.469H331.859V221.188C331.776 219.917 331.437 218.959 330.844 218.313C330.25 217.656 329.427 217.328 328.375 217.328ZM352.891 231.5H349.094V224.672H342.516V231.5H338.719V214.594H342.516V221.641H349.094V214.594H352.891V231.5ZM361.031 219.969H364.75C366.135 219.969 367.344 220.209 368.375 220.688C369.406 221.167 370.187 221.839 370.719 222.703C371.26 223.568 371.531 224.573 371.531 225.719C371.531 227.459 370.917 228.854 369.687 229.906C368.458 230.959 366.823 231.49 364.781 231.5H357.234V214.594H361.031V219.969ZM361.031 223.016V228.469H364.734C365.661 228.469 366.391 228.24 366.922 227.781C367.463 227.313 367.734 226.651 367.734 225.797C367.734 224.943 367.469 224.271 366.937 223.781C366.417 223.281 365.708 223.026 364.812 223.016H361.031Z" fill="#BABFC9"/>
<path d="M360.359 307.211C360.359 308.847 360.052 310.081 359.437 310.914C358.828 311.742 357.898 312.156 356.648 312.156C355.419 312.156 354.492 311.753 353.867 310.946C353.247 310.133 352.93 308.933 352.914 307.344V305.375C352.914 303.74 353.219 302.513 353.828 301.696C354.443 300.878 355.377 300.469 356.633 300.469C357.877 300.469 358.805 300.867 359.414 301.664C360.029 302.461 360.344 303.654 360.359 305.242V307.211ZM358.461 305.086C358.461 304.018 358.315 303.237 358.023 302.742C357.732 302.242 357.268 301.992 356.633 301.992C356.013 301.992 355.557 302.229 355.266 302.703C354.974 303.172 354.82 303.906 354.805 304.906V307.485C354.805 308.547 354.953 309.339 355.25 309.86C355.547 310.38 356.013 310.641 356.648 310.641C357.258 310.641 357.708 310.401 358 309.922C358.292 309.438 358.445 308.683 358.461 307.656V305.086ZM365.444 300.576H373.636V301.824H365.444V300.576ZM370.26 312H368.82V304.32H365.444V303.072H373.636V304.32H370.26V312Z" fill="#FF3B30"/>
<path d="M324.07 283.469H325.195V292H324.07V285.426L319.869 292H318.738V283.469H319.869V290.043L324.07 283.469ZM330.562 287.395C330.562 287.098 330.449 286.864 330.223 286.692C329.996 286.516 329.685 286.428 329.291 286.428C328.908 286.428 328.588 286.528 328.33 286.727C328.076 286.926 327.949 287.16 327.949 287.43H326.871C326.871 286.879 327.101 286.428 327.562 286.076C328.023 285.725 328.599 285.549 329.291 285.549C330.033 285.549 330.611 285.709 331.025 286.03C331.439 286.346 331.646 286.799 331.646 287.389C331.646 287.674 331.56 287.936 331.389 288.174C331.217 288.412 330.973 288.602 330.656 288.742C331.394 288.992 331.764 289.485 331.764 290.219C331.764 290.801 331.539 291.262 331.09 291.602C330.641 291.942 330.041 292.112 329.291 292.112C328.56 292.112 327.957 291.934 327.48 291.578C327.008 291.219 326.771 290.735 326.771 290.125H327.849C327.849 290.434 327.986 290.699 328.26 290.922C328.537 291.141 328.881 291.25 329.291 291.25C329.705 291.25 330.039 291.155 330.293 290.963C330.547 290.772 330.674 290.524 330.674 290.219C330.674 289.864 330.566 289.61 330.351 289.457C330.141 289.301 329.81 289.223 329.361 289.223H328.277V288.309H329.455C330.193 288.289 330.562 287.985 330.562 287.395ZM338.525 288.901C338.525 289.865 338.305 290.643 337.863 291.233C337.422 291.823 336.824 292.117 336.07 292.117C335.301 292.117 334.695 291.873 334.254 291.385V294.438H333.17V285.66H334.16L334.213 286.364C334.654 285.817 335.267 285.543 336.053 285.543C336.814 285.543 337.416 285.83 337.857 286.405C338.303 286.979 338.525 287.778 338.525 288.801V288.901ZM337.441 288.778C337.441 288.063 337.289 287.498 336.984 287.084C336.68 286.67 336.262 286.463 335.73 286.463C335.074 286.463 334.582 286.754 334.254 287.336V290.365C334.578 290.944 335.074 291.233 335.742 291.233C336.262 291.233 336.674 291.028 336.978 290.617C337.287 290.203 337.441 289.59 337.441 288.778ZM343.822 292C343.76 291.875 343.709 291.653 343.67 291.332C343.166 291.856 342.564 292.117 341.865 292.117C341.24 292.117 340.726 291.942 340.324 291.59C339.926 291.235 339.726 290.785 339.726 290.242C339.726 289.582 339.976 289.071 340.476 288.707C340.98 288.34 341.687 288.156 342.598 288.156H343.652V287.658C343.652 287.28 343.539 286.979 343.312 286.756C343.086 286.53 342.752 286.416 342.31 286.416C341.924 286.416 341.599 286.514 341.338 286.709C341.076 286.905 340.945 287.141 340.945 287.418H339.855C339.855 287.102 339.967 286.797 340.189 286.504C340.416 286.207 340.721 285.973 341.103 285.801C341.49 285.629 341.914 285.543 342.375 285.543C343.105 285.543 343.678 285.727 344.092 286.094C344.506 286.457 344.721 286.959 344.736 287.6V290.518C344.736 291.1 344.81 291.563 344.959 291.906V292H343.822ZM342.023 291.174C342.363 291.174 342.685 291.086 342.99 290.91C343.295 290.735 343.516 290.506 343.652 290.225V288.924H342.803C341.474 288.924 340.81 289.313 340.81 290.09C340.81 290.43 340.924 290.696 341.15 290.887C341.377 291.078 341.668 291.174 342.023 291.174ZM348.978 291.233C349.365 291.233 349.703 291.115 349.992 290.881C350.281 290.647 350.441 290.354 350.473 290.002H351.498C351.478 290.365 351.353 290.711 351.123 291.039C350.892 291.367 350.584 291.629 350.197 291.824C349.814 292.02 349.408 292.117 348.978 292.117C348.115 292.117 347.428 291.83 346.916 291.256C346.408 290.678 346.154 289.889 346.154 288.889V288.707C346.154 288.09 346.267 287.541 346.494 287.061C346.721 286.58 347.045 286.207 347.467 285.942C347.892 285.676 348.394 285.543 348.973 285.543C349.683 285.543 350.273 285.756 350.742 286.182C351.215 286.608 351.467 287.16 351.498 287.84H350.473C350.441 287.43 350.285 287.094 350.004 286.832C349.726 286.567 349.383 286.434 348.973 286.434C348.422 286.434 347.994 286.633 347.689 287.031C347.389 287.426 347.238 287.998 347.238 288.748V288.953C347.238 289.684 347.389 290.246 347.689 290.641C347.99 291.035 348.42 291.233 348.978 291.233ZM354.844 287.975L356.25 285.66H357.516L355.441 288.795L357.58 292H356.326L354.861 289.627L353.396 292H352.137L354.275 288.795L352.201 285.66H353.455L354.844 287.975ZM358.266 288.772C358.266 288.151 358.387 287.592 358.629 287.096C358.875 286.6 359.215 286.217 359.648 285.948C360.086 285.678 360.584 285.543 361.142 285.543C362.006 285.543 362.703 285.842 363.234 286.44C363.769 287.037 364.037 287.832 364.037 288.824V288.901C364.037 289.518 363.918 290.073 363.68 290.565C363.445 291.053 363.107 291.434 362.666 291.707C362.228 291.981 361.724 292.117 361.154 292.117C360.295 292.117 359.598 291.819 359.062 291.221C358.531 290.623 358.266 289.832 358.266 288.848V288.772ZM359.355 288.901C359.355 289.604 359.517 290.168 359.842 290.594C360.17 291.02 360.607 291.233 361.154 291.233C361.705 291.233 362.142 291.018 362.467 290.588C362.791 290.155 362.953 289.549 362.953 288.772C362.953 288.076 362.787 287.514 362.455 287.084C362.127 286.651 361.689 286.434 361.142 286.434C360.607 286.434 360.176 286.647 359.848 287.073C359.519 287.498 359.355 288.108 359.355 288.901ZM364.922 291.115L365.297 290.653C365.719 290.106 365.959 289.285 366.017 288.192L366.117 285.66H370.201V291.115H371.016V293.864H369.932V292H365.508V293.864H364.424L364.43 291.115H364.922ZM366.205 291.115H369.117V286.662H367.166L367.101 288.174C367.035 289.436 366.736 290.416 366.205 291.115ZM371.93 288.772C371.93 288.151 372.051 287.592 372.293 287.096C372.539 286.6 372.879 286.217 373.312 285.948C373.75 285.678 374.248 285.543 374.807 285.543C375.67 285.543 376.367 285.842 376.898 286.44C377.433 287.037 377.701 287.832 377.701 288.824V288.901C377.701 289.518 377.582 290.073 377.344 290.565C377.109 291.053 376.771 291.434 376.33 291.707C375.892 291.981 375.389 292.117 374.818 292.117C373.959 292.117 373.262 291.819 372.726 291.221C372.195 290.623 371.93 289.832 371.93 288.848V288.772ZM373.019 288.901C373.019 289.604 373.182 290.168 373.506 290.594C373.834 291.02 374.271 291.233 374.818 291.233C375.369 291.233 375.807 291.018 376.131 290.588C376.455 290.155 376.617 289.549 376.617 288.772C376.617 288.076 376.451 287.514 376.119 287.084C375.791 286.651 375.353 286.434 374.807 286.434C374.271 286.434 373.84 286.647 373.512 287.073C373.183 287.498 373.019 288.108 373.019 288.901ZM379.16 292V285.66H381.633C382.476 285.66 383.123 285.809 383.572 286.106C384.025 286.399 384.252 286.83 384.252 287.401C384.252 287.694 384.164 287.959 383.988 288.198C383.812 288.432 383.553 288.612 383.209 288.737C383.592 288.826 383.898 289.002 384.129 289.264C384.363 289.526 384.48 289.838 384.48 290.201C384.48 290.783 384.266 291.229 383.836 291.537C383.41 291.846 382.807 292 382.025 292H379.16ZM380.244 289.217V291.127H382.037C382.49 291.127 382.828 291.043 383.051 290.875C383.277 290.707 383.391 290.471 383.391 290.166C383.391 289.533 382.926 289.217 381.996 289.217H380.244ZM380.244 288.35H381.644C382.66 288.35 383.168 288.053 383.168 287.459C383.168 286.865 382.687 286.559 381.726 286.539H380.244V288.35ZM389.83 292C389.767 291.875 389.717 291.653 389.678 291.332C389.174 291.856 388.572 292.117 387.873 292.117C387.248 292.117 386.734 291.942 386.332 291.59C385.933 291.235 385.734 290.785 385.734 290.242C385.734 289.582 385.984 289.071 386.484 288.707C386.988 288.34 387.695 288.156 388.605 288.156H389.66V287.658C389.66 287.28 389.547 286.979 389.32 286.756C389.094 286.53 388.76 286.416 388.318 286.416C387.932 286.416 387.607 286.514 387.346 286.709C387.084 286.905 386.953 287.141 386.953 287.418H385.863C385.863 287.102 385.974 286.797 386.197 286.504C386.424 286.207 386.728 285.973 387.111 285.801C387.498 285.629 387.922 285.543 388.383 285.543C389.113 285.543 389.685 285.727 390.099 286.094C390.514 286.457 390.728 286.959 390.744 287.6V290.518C390.744 291.1 390.818 291.563 390.967 291.906V292H389.83ZM388.031 291.174C388.371 291.174 388.693 291.086 388.998 290.91C389.303 290.735 389.523 290.506 389.66 290.225V288.924H388.81C387.482 288.924 386.818 289.313 386.818 290.09C386.818 290.43 386.932 290.696 387.158 290.887C387.385 291.078 387.676 291.174 388.031 291.174ZM397.623 292H396.539V289.293H393.627V292H392.537V285.66H393.627V288.408H396.539V285.66H397.623V292ZM399.082 288.772C399.082 288.151 399.203 287.592 399.445 287.096C399.691 286.6 400.031 286.217 400.465 285.948C400.902 285.678 401.4 285.543 401.959 285.543C402.822 285.543 403.519 285.842 404.051 286.44C404.586 287.037 404.853 287.832 404.853 288.824V288.901C404.853 289.518 404.734 290.073 404.496 290.565C404.262 291.053 403.924 291.434 403.482 291.707C403.045 291.981 402.541 292.117 401.971 292.117C401.111 292.117 400.414 291.819 399.879 291.221C399.348 290.623 399.082 289.832 399.082 288.848V288.772ZM400.172 288.901C400.172 289.604 400.334 290.168 400.658 290.594C400.986 291.02 401.424 291.233 401.971 291.233C402.521 291.233 402.959 291.018 403.283 290.588C403.607 290.155 403.769 289.549 403.769 288.772C403.769 288.076 403.603 287.514 403.271 287.084C402.943 286.651 402.506 286.434 401.959 286.434C401.424 286.434 400.992 286.647 400.664 287.073C400.336 287.498 400.172 288.108 400.172 288.901Z" fill="#768093"/>
<path d="M406.178 291.432C406.178 291.244 406.232 291.088 406.342 290.963C406.455 290.838 406.623 290.776 406.846 290.776C407.068 290.776 407.236 290.838 407.349 290.963C407.467 291.088 407.525 291.244 407.525 291.432C407.525 291.612 407.467 291.762 407.349 291.883C407.236 292.004 407.068 292.065 406.846 292.065C406.623 292.065 406.455 292.004 406.342 291.883C406.232 291.762 406.178 291.612 406.178 291.432ZM406.183 286.258C406.183 286.071 406.238 285.914 406.348 285.789C406.461 285.664 406.629 285.602 406.851 285.602C407.074 285.602 407.242 285.664 407.355 285.789C407.473 285.914 407.531 286.071 407.531 286.258C407.531 286.438 407.473 286.588 407.355 286.709C407.242 286.83 407.074 286.891 406.851 286.891C406.629 286.891 406.461 286.83 406.348 286.709C406.238 286.588 406.183 286.438 406.183 286.258Z" fill="#99A3B3"/>
<path d="M171.031 294.092H169.912V292H163.789V294.098H162.664L162.658 291.08H163.355C163.723 290.666 164.014 290.112 164.228 289.416C164.447 288.717 164.584 287.951 164.639 287.119L164.826 283.469H169.93V291.08H171.043L171.031 294.092ZM164.639 291.08H168.799V284.395H165.91L165.787 286.903C165.736 287.883 165.605 288.719 165.394 289.41C165.187 290.102 164.935 290.658 164.639 291.08ZM171.922 288.772C171.922 288.151 172.043 287.592 172.285 287.096C172.531 286.6 172.871 286.217 173.305 285.948C173.742 285.678 174.24 285.543 174.799 285.543C175.662 285.543 176.359 285.842 176.891 286.44C177.426 287.037 177.693 287.832 177.693 288.824V288.901C177.693 289.518 177.574 290.073 177.336 290.565C177.101 291.053 176.764 291.434 176.322 291.707C175.885 291.981 175.381 292.117 174.81 292.117C173.951 292.117 173.254 291.819 172.719 291.221C172.187 290.623 171.922 289.832 171.922 288.848V288.772ZM173.012 288.901C173.012 289.604 173.174 290.168 173.498 290.594C173.826 291.02 174.264 291.233 174.81 291.233C175.361 291.233 175.799 291.018 176.123 290.588C176.447 290.155 176.609 289.549 176.609 288.772C176.609 288.076 176.443 287.514 176.111 287.084C175.783 286.651 175.346 286.434 174.799 286.434C174.264 286.434 173.832 286.647 173.504 287.073C173.176 287.498 173.012 288.108 173.012 288.901ZM181.596 291.233C181.982 291.233 182.32 291.115 182.609 290.881C182.898 290.647 183.058 290.354 183.09 290.002H184.115C184.096 290.365 183.971 290.711 183.74 291.039C183.51 291.367 183.201 291.629 182.814 291.824C182.432 292.02 182.025 292.117 181.596 292.117C180.732 292.117 180.045 291.83 179.533 291.256C179.025 290.678 178.771 289.889 178.771 288.889V288.707C178.771 288.09 178.885 287.541 179.111 287.061C179.338 286.58 179.662 286.207 180.084 285.942C180.51 285.676 181.012 285.543 181.59 285.543C182.301 285.543 182.891 285.756 183.359 286.182C183.832 286.608 184.084 287.16 184.115 287.84H183.09C183.058 287.43 182.902 287.094 182.621 286.832C182.344 286.567 182 286.434 181.59 286.434C181.039 286.434 180.611 286.633 180.307 287.031C180.006 287.426 179.855 287.998 179.855 288.748V288.953C179.855 289.684 180.006 290.246 180.307 290.641C180.607 291.035 181.037 291.233 181.596 291.233ZM190.045 286.539H187.918V292H186.834V286.539H184.748V285.66H190.045V286.539ZM193.244 290.412L194.721 285.66H195.881L193.332 292.979C192.937 294.033 192.31 294.561 191.451 294.561L191.246 294.543L190.842 294.467V293.588L191.135 293.612C191.502 293.612 191.787 293.537 191.99 293.389C192.197 293.24 192.367 292.969 192.5 292.574L192.74 291.93L190.478 285.66H191.662L193.244 290.412ZM202.039 292H200.955V286.557H198.037V292H196.947V285.66H202.039V292ZM208.959 292H207.875V289.293H204.963V292H203.873V285.66H204.963V288.408H207.875V285.66H208.959V292ZM210.418 288.772C210.418 288.151 210.539 287.592 210.781 287.096C211.027 286.6 211.367 286.217 211.801 285.948C212.238 285.678 212.736 285.543 213.295 285.543C214.158 285.543 214.855 285.842 215.387 286.44C215.922 287.037 216.189 287.832 216.189 288.824V288.901C216.189 289.518 216.07 290.073 215.832 290.565C215.598 291.053 215.26 291.434 214.818 291.707C214.381 291.981 213.877 292.117 213.307 292.117C212.447 292.117 211.75 291.819 211.215 291.221C210.683 290.623 210.418 289.832 210.418 288.848V288.772ZM211.508 288.901C211.508 289.604 211.67 290.168 211.994 290.594C212.322 291.02 212.76 291.233 213.307 291.233C213.857 291.233 214.295 291.018 214.619 290.588C214.943 290.155 215.105 289.549 215.105 288.772C215.105 288.076 214.939 287.514 214.607 287.084C214.279 286.651 213.842 286.434 213.295 286.434C212.76 286.434 212.328 286.647 212 287.073C211.672 287.498 211.508 288.108 211.508 288.901ZM217.514 291.432C217.514 291.244 217.568 291.088 217.678 290.963C217.791 290.838 217.959 290.776 218.182 290.776C218.404 290.776 218.572 290.838 218.685 290.963C218.803 291.088 218.861 291.244 218.861 291.432C218.861 291.612 218.803 291.762 218.685 291.883C218.572 292.004 218.404 292.065 218.182 292.065C217.959 292.065 217.791 292.004 217.678 291.883C217.568 291.762 217.514 291.612 217.514 291.432ZM217.519 286.258C217.519 286.071 217.574 285.914 217.683 285.789C217.797 285.664 217.965 285.602 218.187 285.602C218.41 285.602 218.578 285.664 218.691 285.789C218.808 285.914 218.867 286.071 218.867 286.258C218.867 286.438 218.808 286.588 218.691 286.709C218.578 286.83 218.41 286.891 218.187 286.891C217.965 286.891 217.797 286.83 217.683 286.709C217.574 286.588 217.519 286.438 217.519 286.258Z" fill="#768093"/>
<path d="M172.961 312H165.312V310.696L169.101 306.563C169.648 305.953 170.036 305.446 170.266 305.039C170.5 304.628 170.617 304.216 170.617 303.805C170.617 303.263 170.463 302.826 170.156 302.492C169.854 302.159 169.445 301.992 168.93 301.992C168.315 301.992 167.838 302.18 167.5 302.555C167.161 302.93 166.992 303.443 166.992 304.094H165.094C165.094 303.401 165.25 302.779 165.562 302.227C165.88 301.67 166.331 301.237 166.914 300.93C167.502 300.623 168.18 300.469 168.945 300.469C170.049 300.469 170.919 300.748 171.555 301.305C172.195 301.857 172.516 302.623 172.516 303.602C172.516 304.17 172.354 304.766 172.031 305.391C171.713 306.011 171.19 306.716 170.461 307.508L167.68 310.485H172.961V312ZM178.898 306.36L179.516 300.625H185.625V302.266H181.094L180.781 304.985C181.307 304.683 181.901 304.531 182.562 304.531C183.646 304.531 184.487 304.878 185.086 305.571C185.69 306.263 185.992 307.196 185.992 308.367C185.992 309.524 185.659 310.446 184.992 311.133C184.325 311.815 183.411 312.156 182.25 312.156C181.208 312.156 180.344 311.862 179.656 311.274C178.974 310.68 178.604 309.899 178.547 308.93H180.383C180.456 309.482 180.654 309.906 180.976 310.203C181.299 310.495 181.721 310.641 182.242 310.641C182.825 310.641 183.279 310.433 183.601 310.016C183.93 309.599 184.094 309.031 184.094 308.313C184.094 307.62 183.914 307.073 183.555 306.672C183.195 306.266 182.7 306.063 182.07 306.063C181.726 306.063 181.435 306.11 181.195 306.203C180.956 306.292 180.695 306.469 180.414 306.735L178.898 306.36ZM194.898 307.211C194.898 308.847 194.591 310.081 193.976 310.914C193.367 311.742 192.437 312.156 191.187 312.156C189.958 312.156 189.031 311.753 188.406 310.946C187.786 310.133 187.469 308.933 187.453 307.344V305.375C187.453 303.74 187.758 302.513 188.367 301.696C188.982 300.878 189.917 300.469 191.172 300.469C192.417 300.469 193.344 300.867 193.953 301.664C194.568 302.461 194.883 303.654 194.898 305.242V307.211ZM193 305.086C193 304.018 192.854 303.237 192.562 302.742C192.271 302.242 191.807 301.992 191.172 301.992C190.552 301.992 190.096 302.229 189.805 302.703C189.513 303.172 189.359 303.906 189.344 304.906V307.485C189.344 308.547 189.492 309.339 189.789 309.86C190.086 310.38 190.552 310.641 191.187 310.641C191.797 310.641 192.247 310.401 192.539 309.922C192.831 309.438 192.984 308.683 193 307.656V305.086ZM203.992 307.211C203.992 308.847 203.685 310.081 203.07 310.914C202.461 311.742 201.531 312.156 200.281 312.156C199.052 312.156 198.125 311.753 197.5 310.946C196.88 310.133 196.562 308.933 196.547 307.344V305.375C196.547 303.74 196.851 302.513 197.461 301.696C198.075 300.878 199.01 300.469 200.266 300.469C201.51 300.469 202.437 300.867 203.047 301.664C203.661 302.461 203.976 303.654 203.992 305.242V307.211ZM202.094 305.086C202.094 304.018 201.948 303.237 201.656 302.742C201.364 302.242 200.901 301.992 200.266 301.992C199.646 301.992 199.19 302.229 198.898 302.703C198.607 303.172 198.453 303.906 198.437 304.906V307.485C198.437 308.547 198.586 309.339 198.883 309.86C199.18 310.38 199.646 310.641 200.281 310.641C200.891 310.641 201.341 310.401 201.633 309.922C201.924 309.438 202.078 308.683 202.094 307.656V305.086ZM209.077 300.576H217.269V301.824H209.077V300.576ZM213.893 312H212.453V304.32H209.077V303.072H217.269V304.32H213.893V312Z" fill="#00A755"/>
<path d="M448.5 265H105.5V266H448.5V265Z" fill="#EAEBEE"/>
<path d="M448.5 330H105.5V331H448.5V330Z" fill="#EAEBEE"/>
<path d="M277.488 281H276.5V316H277.488V281Z" fill="#EAEBEE"/>
<g opacity="0.1">
<path d="M124.766 371.293C124.66 372.196 124.326 372.893 123.764 373.385C123.205 373.873 122.461 374.117 121.531 374.117C120.523 374.117 119.715 373.756 119.105 373.033C118.5 372.311 118.197 371.344 118.197 370.133V369.313C118.197 368.52 118.338 367.823 118.619 367.221C118.904 366.619 119.307 366.158 119.826 365.838C120.346 365.514 120.947 365.352 121.631 365.352C122.537 365.352 123.264 365.606 123.81 366.114C124.357 366.617 124.676 367.317 124.766 368.211H123.635C123.537 367.531 123.324 367.039 122.996 366.735C122.672 366.43 122.217 366.278 121.631 366.278C120.912 366.278 120.348 366.543 119.937 367.074C119.531 367.606 119.328 368.362 119.328 369.342V370.168C119.328 371.094 119.521 371.83 119.908 372.377C120.295 372.924 120.836 373.198 121.531 373.198C122.156 373.198 122.635 373.057 122.967 372.776C123.303 372.49 123.525 371.996 123.635 371.293H124.766ZM131.492 370.901C131.492 371.865 131.271 372.643 130.83 373.233C130.389 373.823 129.791 374.117 129.037 374.117C128.267 374.117 127.662 373.873 127.221 373.385V376.438H126.137V367.66H127.127L127.18 368.364C127.621 367.817 128.234 367.543 129.019 367.543C129.781 367.543 130.383 367.83 130.824 368.405C131.269 368.979 131.492 369.778 131.492 370.801V370.901ZM130.408 370.778C130.408 370.063 130.256 369.498 129.951 369.084C129.646 368.67 129.228 368.463 128.697 368.463C128.041 368.463 127.549 368.754 127.221 369.336V372.365C127.545 372.944 128.041 373.233 128.709 373.233C129.228 373.233 129.641 373.028 129.945 372.617C130.254 372.203 130.408 371.59 130.408 370.778ZM132.588 370.772C132.588 370.151 132.709 369.592 132.951 369.096C133.197 368.6 133.537 368.217 133.971 367.948C134.408 367.678 134.906 367.543 135.465 367.543C136.328 367.543 137.025 367.842 137.557 368.44C138.092 369.037 138.359 369.832 138.359 370.824V370.901C138.359 371.518 138.24 372.073 138.002 372.565C137.767 373.053 137.43 373.434 136.988 373.707C136.551 373.981 136.047 374.117 135.476 374.117C134.617 374.117 133.92 373.819 133.385 373.221C132.853 372.623 132.588 371.832 132.588 370.848V370.772ZM133.678 370.901C133.678 371.604 133.84 372.168 134.164 372.594C134.492 373.02 134.93 373.233 135.476 373.233C136.027 373.233 136.465 373.018 136.789 372.588C137.113 372.155 137.275 371.549 137.275 370.772C137.275 370.076 137.109 369.514 136.777 369.084C136.449 368.651 136.012 368.434 135.465 368.434C134.93 368.434 134.498 368.647 134.17 369.073C133.842 369.498 133.678 370.108 133.678 370.901ZM141.693 371.299H140.902V374H139.812V367.66H140.902V370.344H141.611L143.744 367.66H145.057L142.549 370.707L145.267 374H143.891L141.693 371.299ZM154.373 367.66V374H153.283V368.557H151.127L150.998 370.93C150.928 372.02 150.744 372.799 150.447 373.268C150.154 373.737 149.687 373.981 149.047 374H148.613V373.045L148.924 373.022C149.275 372.983 149.527 372.78 149.68 372.412C149.832 372.045 149.93 371.365 149.973 370.373L150.09 367.66H154.373ZM160.215 367.66H161.299V374H160.215V369.377L157.291 374H156.207V367.66H157.291V372.289L160.215 367.66ZM166.689 372.565L168.846 367.66H170.199V374H169.115V369.389L167.064 374H166.314L164.223 369.289V374H163.139V367.66H164.545L166.689 372.565ZM176.047 367.66H177.131V374H176.047V369.377L173.123 374H172.039V367.66H173.123V372.289L176.047 367.66ZM183.582 368.539H181.455V374H180.371V368.539H178.285V367.66H183.582V368.539ZM188.457 374C188.394 373.875 188.344 373.653 188.305 373.332C187.801 373.856 187.199 374.117 186.5 374.117C185.875 374.117 185.361 373.942 184.959 373.59C184.56 373.235 184.361 372.785 184.361 372.242C184.361 371.582 184.611 371.071 185.111 370.707C185.615 370.34 186.322 370.156 187.232 370.156H188.287V369.658C188.287 369.28 188.174 368.979 187.947 368.756C187.721 368.53 187.387 368.416 186.945 368.416C186.558 368.416 186.234 368.514 185.973 368.709C185.711 368.905 185.58 369.141 185.58 369.418H184.49C184.49 369.102 184.601 368.797 184.824 368.504C185.051 368.207 185.355 367.973 185.738 367.801C186.125 367.629 186.549 367.543 187.01 367.543C187.74 367.543 188.312 367.727 188.726 368.094C189.141 368.457 189.355 368.959 189.371 369.6V372.518C189.371 373.1 189.445 373.563 189.594 373.906V374H188.457ZM186.658 373.174C186.998 373.174 187.32 373.086 187.625 372.91C187.93 372.735 188.15 372.506 188.287 372.225V370.924H187.437C186.109 370.924 185.445 371.313 185.445 372.09C185.445 372.43 185.558 372.696 185.785 372.887C186.012 373.078 186.303 373.174 186.658 373.174Z" fill="#768093"/>
<g filter="url(#filter6_bd)">
<g clip-path="url(#clip3)">
<rect x="118.5" y="389" width="317" height="302" rx="26" fill="white"/>
<g clip-path="url(#clip4)">
<path d="M186.068 419.755C186.068 421.236 185.815 422.337 185.309 423.057C184.804 423.777 184.013 424.137 182.937 424.137C181.876 424.137 181.089 423.786 180.579 423.084C180.069 422.378 179.804 421.325 179.786 419.926V418.238C179.786 416.775 180.039 415.688 180.545 414.977C181.051 414.266 181.844 413.91 182.924 413.91C183.995 413.91 184.783 414.254 185.289 414.943C185.795 415.626 186.055 416.684 186.068 418.115V419.755ZM184.804 418.026C184.804 416.955 184.653 416.175 184.352 415.688C184.052 415.196 183.575 414.949 182.924 414.949C182.277 414.949 181.805 415.193 181.509 415.681C181.212 416.169 181.06 416.918 181.051 417.93V419.953C181.051 421.029 181.206 421.824 181.516 422.339C181.83 422.85 182.304 423.105 182.937 423.105C183.562 423.105 184.024 422.863 184.325 422.38C184.63 421.897 184.79 421.136 184.804 420.097V418.026ZM192.873 420.657H194.254V421.69H192.873V424H191.602V421.69H187.07V420.945L191.527 414.047H192.873V420.657ZM188.505 420.657H191.602V415.777L191.451 416.05L188.505 420.657ZM195.399 423.337C195.399 423.118 195.463 422.936 195.59 422.79C195.722 422.644 195.918 422.572 196.178 422.572C196.438 422.572 196.634 422.644 196.766 422.79C196.903 422.936 196.971 423.118 196.971 423.337C196.971 423.547 196.903 423.722 196.766 423.864C196.634 424.005 196.438 424.075 196.178 424.075C195.918 424.075 195.722 424.005 195.59 423.864C195.463 423.722 195.399 423.547 195.399 423.337ZM205.02 419.755C205.02 421.236 204.767 422.337 204.262 423.057C203.756 423.777 202.965 424.137 201.889 424.137C200.828 424.137 200.041 423.786 199.531 423.084C199.021 422.378 198.756 421.325 198.738 419.926V418.238C198.738 416.775 198.991 415.688 199.497 414.977C200.003 414.266 200.796 413.91 201.876 413.91C202.947 413.91 203.735 414.254 204.241 414.943C204.747 415.626 205.007 416.684 205.02 418.115V419.755ZM203.756 418.026C203.756 416.955 203.605 416.175 203.304 415.688C203.004 415.196 202.527 414.949 201.876 414.949C201.229 414.949 200.757 415.193 200.461 415.681C200.165 416.169 200.012 416.918 200.003 417.93V419.953C200.003 421.029 200.158 421.824 200.468 422.339C200.782 422.85 201.256 423.105 201.889 423.105C202.514 423.105 202.976 422.863 203.277 422.38C203.582 421.897 203.742 421.136 203.756 420.097V418.026ZM211.825 420.657H213.206V421.69H211.825V424H210.554V421.69H206.022V420.945L210.479 414.047H211.825V420.657ZM207.457 420.657H210.554V415.777L210.403 416.05L207.457 420.657ZM214.351 423.337C214.351 423.118 214.415 422.936 214.542 422.79C214.675 422.644 214.871 422.572 215.13 422.572C215.39 422.572 215.586 422.644 215.718 422.79C215.855 422.936 215.923 423.118 215.923 423.337C215.923 423.547 215.855 423.722 215.718 423.864C215.586 424.005 215.39 424.075 215.13 424.075C214.871 424.075 214.675 424.005 214.542 423.864C214.415 423.722 214.351 423.547 214.351 423.337ZM224.253 424H217.731V423.091L221.176 419.263C221.687 418.684 222.038 418.215 222.229 417.855C222.425 417.49 222.523 417.114 222.523 416.727C222.523 416.207 222.366 415.781 222.051 415.448C221.737 415.116 221.318 414.949 220.794 414.949C220.165 414.949 219.675 415.129 219.324 415.49C218.978 415.845 218.804 416.342 218.804 416.98H217.54C217.54 416.064 217.834 415.323 218.422 414.758C219.014 414.193 219.805 413.91 220.794 413.91C221.719 413.91 222.45 414.154 222.988 414.642C223.526 415.125 223.795 415.77 223.795 416.576C223.795 417.556 223.17 418.723 221.922 420.076L219.256 422.968H224.253V424ZM231.68 419.755C231.68 421.236 231.427 422.337 230.921 423.057C230.415 423.777 229.624 424.137 228.549 424.137C227.487 424.137 226.701 423.786 226.19 423.084C225.68 422.378 225.416 421.325 225.397 419.926V418.238C225.397 416.775 225.65 415.688 226.156 414.977C226.662 414.266 227.455 413.91 228.535 413.91C229.606 413.91 230.395 414.254 230.9 414.943C231.406 415.626 231.666 416.684 231.68 418.115V419.755ZM230.415 418.026C230.415 416.955 230.265 416.175 229.964 415.688C229.663 415.196 229.187 414.949 228.535 414.949C227.888 414.949 227.416 415.193 227.12 415.681C226.824 416.169 226.671 416.918 226.662 417.93V419.953C226.662 421.029 226.817 421.824 227.127 422.339C227.441 422.85 227.915 423.105 228.549 423.105C229.173 423.105 229.636 422.863 229.937 422.38C230.242 421.897 230.401 421.136 230.415 420.097V418.026ZM239.667 424H233.146V423.091L236.591 419.263C237.102 418.684 237.452 418.215 237.644 417.855C237.84 417.49 237.938 417.114 237.938 416.727C237.938 416.207 237.781 415.781 237.466 415.448C237.152 415.116 236.732 414.949 236.208 414.949C235.579 414.949 235.089 415.129 234.739 415.49C234.392 415.845 234.219 416.342 234.219 416.98H232.954C232.954 416.064 233.248 415.323 233.836 414.758C234.429 414.193 235.219 413.91 236.208 413.91C237.133 413.91 237.865 414.154 238.403 414.642C238.94 415.125 239.209 415.77 239.209 416.576C239.209 417.556 238.585 418.723 237.336 420.076L234.67 422.968H239.667V424ZM247.094 419.755C247.094 421.236 246.841 422.337 246.336 423.057C245.83 423.777 245.039 424.137 243.963 424.137C242.902 424.137 242.116 423.786 241.605 423.084C241.095 422.378 240.83 421.325 240.812 419.926V418.238C240.812 416.775 241.065 415.688 241.571 414.977C242.077 414.266 242.87 413.91 243.95 413.91C245.021 413.91 245.809 414.254 246.315 414.943C246.821 415.626 247.081 416.684 247.094 418.115V419.755ZM245.83 418.026C245.83 416.955 245.679 416.175 245.379 415.688C245.078 415.196 244.602 414.949 243.95 414.949C243.303 414.949 242.831 415.193 242.535 415.681C242.239 416.169 242.086 416.918 242.077 417.93V419.953C242.077 421.029 242.232 421.824 242.542 422.339C242.856 422.85 243.33 423.105 243.963 423.105C244.588 423.105 245.05 422.863 245.351 422.38C245.657 421.897 245.816 421.136 245.83 420.097V418.026ZM256.035 424H254.764V415.572L252.214 416.508V415.36L255.837 413.999H256.035V424ZM264.549 414.04V415.114H264.317C263.333 415.132 262.549 415.423 261.965 415.989C261.382 416.554 261.045 417.349 260.954 418.374C261.478 417.773 262.193 417.472 263.1 417.472C263.966 417.472 264.656 417.777 265.171 418.388C265.691 418.999 265.951 419.787 265.951 420.753C265.951 421.779 265.67 422.599 265.11 423.214C264.554 423.829 263.807 424.137 262.868 424.137C261.915 424.137 261.143 423.772 260.55 423.043C259.958 422.309 259.662 421.366 259.662 420.213V419.728C259.662 417.896 260.051 416.497 260.831 415.531C261.614 414.56 262.779 414.063 264.324 414.04H264.549ZM262.888 418.525C262.455 418.525 262.057 418.655 261.692 418.914C261.327 419.174 261.074 419.5 260.933 419.892V420.357C260.933 421.177 261.118 421.838 261.487 422.339C261.856 422.84 262.316 423.091 262.868 423.091C263.437 423.091 263.884 422.881 264.208 422.462C264.536 422.043 264.7 421.494 264.7 420.815C264.7 420.131 264.533 419.58 264.201 419.16C263.873 418.737 263.435 418.525 262.888 418.525ZM267.383 423.337C267.383 423.118 267.446 422.936 267.574 422.79C267.706 422.644 267.902 422.572 268.162 422.572C268.422 422.572 268.618 422.644 268.75 422.79C268.887 422.936 268.955 423.118 268.955 423.337C268.955 423.547 268.887 423.722 268.75 423.864C268.618 424.005 268.422 424.075 268.162 424.075C267.902 424.075 267.706 424.005 267.574 423.864C267.446 423.722 267.383 423.547 267.383 423.337ZM267.389 417.301C267.389 417.082 267.453 416.9 267.581 416.754C267.713 416.608 267.909 416.535 268.169 416.535C268.429 416.535 268.625 416.608 268.757 416.754C268.893 416.9 268.962 417.082 268.962 417.301C268.962 417.511 268.893 417.686 268.757 417.827C268.625 417.969 268.429 418.039 268.169 418.039C267.909 418.039 267.713 417.969 267.581 417.827C267.453 417.686 267.389 417.511 267.389 417.301ZM275.869 420.657H277.25V421.69H275.869V424H274.598V421.69H270.066V420.945L274.523 414.047H275.869V420.657ZM271.501 420.657H274.598V415.777L274.447 416.05L271.501 420.657ZM283.201 414.04V415.114H282.968C281.984 415.132 281.2 415.423 280.617 415.989C280.033 416.554 279.696 417.349 279.605 418.374C280.129 417.773 280.845 417.472 281.751 417.472C282.617 417.472 283.308 417.777 283.823 418.388C284.342 418.999 284.602 419.787 284.602 420.753C284.602 421.779 284.322 422.599 283.761 423.214C283.205 423.829 282.458 424.137 281.519 424.137C280.567 424.137 279.794 423.772 279.202 423.043C278.609 422.309 278.313 421.366 278.313 420.213V419.728C278.313 417.896 278.703 416.497 279.482 415.531C280.266 414.56 281.43 414.063 282.975 414.04H283.201ZM281.539 418.525C281.107 418.525 280.708 418.655 280.343 418.914C279.979 419.174 279.726 419.5 279.584 419.892V420.357C279.584 421.177 279.769 421.838 280.138 422.339C280.507 422.84 280.968 423.091 281.519 423.091C282.089 423.091 282.535 422.881 282.859 422.462C283.187 422.043 283.351 421.494 283.351 420.815C283.351 420.131 283.185 419.58 282.852 419.16C282.524 418.737 282.086 418.525 281.539 418.525ZM292.025 420.288H288.689V419.256H292.025V420.288ZM302.539 419.755C302.539 421.236 302.286 422.337 301.78 423.057C301.274 423.777 300.483 424.137 299.408 424.137C298.346 424.137 297.56 423.786 297.049 423.084C296.539 422.378 296.275 421.325 296.256 419.926V418.238C296.256 416.775 296.509 415.688 297.015 414.977C297.521 414.266 298.314 413.91 299.394 413.91C300.465 413.91 301.254 414.254 301.759 414.943C302.265 415.626 302.525 416.684 302.539 418.115V419.755ZM301.274 418.026C301.274 416.955 301.124 416.175 300.823 415.688C300.522 415.196 300.046 414.949 299.394 414.949C298.747 414.949 298.275 415.193 297.979 415.681C297.683 416.169 297.53 416.918 297.521 417.93V419.953C297.521 421.029 297.676 421.824 297.986 422.339C298.3 422.85 298.774 423.105 299.408 423.105C300.032 423.105 300.495 422.863 300.796 422.38C301.101 421.897 301.26 421.136 301.274 420.097V418.026ZM304.586 419.01L305.092 414.047H310.191V415.216H306.165L305.864 417.93C306.352 417.643 306.906 417.499 307.525 417.499C308.432 417.499 309.152 417.8 309.686 418.402C310.219 418.999 310.485 419.808 310.485 420.828C310.485 421.854 310.207 422.663 309.651 423.255C309.1 423.843 308.327 424.137 307.334 424.137C306.454 424.137 305.737 423.893 305.181 423.406C304.625 422.918 304.308 422.243 304.23 421.382H305.427C305.504 421.952 305.707 422.382 306.035 422.674C306.363 422.961 306.796 423.105 307.334 423.105C307.922 423.105 308.382 422.904 308.715 422.503C309.052 422.102 309.221 421.548 309.221 420.842C309.221 420.177 309.038 419.643 308.674 419.242C308.314 418.837 307.833 418.634 307.231 418.634C306.68 418.634 306.247 418.755 305.933 418.996L305.598 419.27L304.586 419.01ZM311.869 423.337C311.869 423.118 311.933 422.936 312.061 422.79C312.193 422.644 312.389 422.572 312.649 422.572C312.908 422.572 313.104 422.644 313.237 422.79C313.373 422.936 313.442 423.118 313.442 423.337C313.442 423.547 313.373 423.722 313.237 423.864C313.104 424.005 312.908 424.075 312.649 424.075C312.389 424.075 312.193 424.005 312.061 423.864C311.933 423.722 311.869 423.547 311.869 423.337ZM321.491 419.755C321.491 421.236 321.238 422.337 320.732 423.057C320.226 423.777 319.435 424.137 318.36 424.137C317.298 424.137 316.512 423.786 316.002 423.084C315.491 422.378 315.227 421.325 315.209 419.926V418.238C315.209 416.775 315.461 415.688 315.967 414.977C316.473 414.266 317.266 413.91 318.346 413.91C319.417 413.91 320.206 414.254 320.711 414.943C321.217 415.626 321.477 416.684 321.491 418.115V419.755ZM320.226 418.026C320.226 416.955 320.076 416.175 319.775 415.688C319.474 415.196 318.998 414.949 318.346 414.949C317.699 414.949 317.227 415.193 316.931 415.681C316.635 416.169 316.482 416.918 316.473 417.93V419.953C316.473 421.029 316.628 421.824 316.938 422.339C317.253 422.85 317.726 423.105 318.36 423.105C318.984 423.105 319.447 422.863 319.748 422.38C320.053 421.897 320.212 421.136 320.226 420.097V418.026ZM328.296 420.657H329.677V421.69H328.296V424H327.024V421.69H322.492V420.945L326.949 414.047H328.296V420.657ZM323.928 420.657H327.024V415.777L326.874 416.05L323.928 420.657ZM330.821 423.337C330.821 423.118 330.885 422.936 331.013 422.79C331.145 422.644 331.341 422.572 331.601 422.572C331.861 422.572 332.056 422.644 332.189 422.79C332.325 422.936 332.394 423.118 332.394 423.337C332.394 423.547 332.325 423.722 332.189 423.864C332.056 424.005 331.861 424.075 331.601 424.075C331.341 424.075 331.145 424.005 331.013 423.864C330.885 423.722 330.821 423.547 330.821 423.337ZM340.723 424H334.202V423.091L337.647 419.263C338.157 418.684 338.508 418.215 338.7 417.855C338.896 417.49 338.994 417.114 338.994 416.727C338.994 416.207 338.836 415.781 338.522 415.448C338.207 415.116 337.788 414.949 337.264 414.949C336.635 414.949 336.145 415.129 335.794 415.49C335.448 415.845 335.275 416.342 335.275 416.98H334.01C334.01 416.064 334.304 415.323 334.892 414.758C335.485 414.193 336.275 413.91 337.264 413.91C338.189 413.91 338.921 414.154 339.458 414.642C339.996 415.125 340.265 415.77 340.265 416.576C340.265 417.556 339.641 418.723 338.392 420.076L335.726 422.968H340.723V424ZM348.15 419.755C348.15 421.236 347.897 422.337 347.391 423.057C346.886 423.777 346.095 424.137 345.019 424.137C343.957 424.137 343.171 423.786 342.661 423.084C342.151 422.378 341.886 421.325 341.868 419.926V418.238C341.868 416.775 342.121 415.688 342.627 414.977C343.133 414.266 343.926 413.91 345.006 413.91C346.077 413.91 346.865 414.254 347.371 414.943C347.877 415.626 348.137 416.684 348.15 418.115V419.755ZM346.886 418.026C346.886 416.955 346.735 416.175 346.434 415.688C346.134 415.196 345.657 414.949 345.006 414.949C344.359 414.949 343.887 415.193 343.591 415.681C343.294 416.169 343.142 416.918 343.133 417.93V419.953C343.133 421.029 343.288 421.824 343.597 422.339C343.912 422.85 344.386 423.105 345.019 423.105C345.644 423.105 346.106 422.863 346.407 422.38C346.712 421.897 346.872 421.136 346.886 420.097V418.026ZM356.138 424H349.616V423.091L353.062 419.263C353.572 418.684 353.923 418.215 354.114 417.855C354.31 417.49 354.408 417.114 354.408 416.727C354.408 416.207 354.251 415.781 353.937 415.448C353.622 415.116 353.203 414.949 352.679 414.949C352.05 414.949 351.56 415.129 351.209 415.49C350.863 415.845 350.69 416.342 350.69 416.98H349.425C349.425 416.064 349.719 415.323 350.307 414.758C350.899 414.193 351.69 413.91 352.679 413.91C353.604 413.91 354.335 414.154 354.873 414.642C355.411 415.125 355.68 415.77 355.68 416.576C355.68 417.556 355.055 418.723 353.807 420.076L351.141 422.968H356.138V424ZM363.565 419.755C363.565 421.236 363.312 422.337 362.806 423.057C362.3 423.777 361.509 424.137 360.434 424.137C359.372 424.137 358.586 423.786 358.076 423.084C357.565 422.378 357.301 421.325 357.283 419.926V418.238C357.283 416.775 357.536 415.688 358.041 414.977C358.547 414.266 359.34 413.91 360.42 413.91C361.491 413.91 362.28 414.254 362.786 414.943C363.291 415.626 363.551 416.684 363.565 418.115V419.755ZM362.3 418.026C362.3 416.955 362.15 416.175 361.849 415.688C361.548 415.196 361.072 414.949 360.42 414.949C359.773 414.949 359.301 415.193 359.005 415.681C358.709 416.169 358.556 416.918 358.547 417.93V419.953C358.547 421.029 358.702 421.824 359.012 422.339C359.327 422.85 359.801 423.105 360.434 423.105C361.058 423.105 361.521 422.863 361.822 422.38C362.127 421.897 362.287 421.136 362.3 420.097V418.026ZM372.506 424H371.234V415.572L368.685 416.508V415.36L372.308 413.999H372.506V424ZM381.02 414.04V415.114H380.787C379.803 415.132 379.019 415.423 378.436 415.989C377.853 416.554 377.515 417.349 377.424 418.374C377.948 417.773 378.664 417.472 379.571 417.472C380.436 417.472 381.127 417.777 381.642 418.388C382.161 418.999 382.421 419.787 382.421 420.753C382.421 421.779 382.141 422.599 381.58 423.214C381.024 423.829 380.277 424.137 379.338 424.137C378.386 424.137 377.613 423.772 377.021 423.043C376.428 422.309 376.132 421.366 376.132 420.213V419.728C376.132 417.896 376.522 416.497 377.301 415.531C378.085 414.56 379.249 414.063 380.794 414.04H381.02ZM379.359 418.525C378.926 418.525 378.527 418.655 378.162 418.914C377.798 419.174 377.545 419.5 377.404 419.892V420.357C377.404 421.177 377.588 421.838 377.957 422.339C378.326 422.84 378.787 423.091 379.338 423.091C379.908 423.091 380.354 422.881 380.678 422.462C381.006 422.043 381.17 421.494 381.17 420.815C381.17 420.131 381.004 419.58 380.671 419.16C380.343 418.737 379.906 418.525 379.359 418.525ZM383.853 423.337C383.853 423.118 383.917 422.936 384.045 422.79C384.177 422.644 384.373 422.572 384.632 422.572C384.892 422.572 385.088 422.644 385.22 422.79C385.357 422.936 385.425 423.118 385.425 423.337C385.425 423.547 385.357 423.722 385.22 423.864C385.088 424.005 384.892 424.075 384.632 424.075C384.373 424.075 384.177 424.005 384.045 423.864C383.917 423.722 383.853 423.547 383.853 423.337ZM383.86 417.301C383.86 417.082 383.924 416.9 384.051 416.754C384.184 416.608 384.38 416.535 384.639 416.535C384.899 416.535 385.095 416.608 385.227 416.754C385.364 416.9 385.432 417.082 385.432 417.301C385.432 417.511 385.364 417.686 385.227 417.827C385.095 417.969 384.899 418.039 384.639 418.039C384.38 418.039 384.184 417.969 384.051 417.827C383.924 417.686 383.86 417.511 383.86 417.301ZM392.34 420.657H393.721V421.69H392.34V424H391.068V421.69H386.536V420.945L390.993 414.047H392.34V420.657ZM387.972 420.657H391.068V415.777L390.918 416.05L387.972 420.657ZM399.671 414.04V415.114H399.439C398.454 415.132 397.67 415.423 397.087 415.989C396.504 416.554 396.167 417.349 396.075 418.374C396.599 417.773 397.315 417.472 398.222 417.472C399.088 417.472 399.778 417.777 400.293 418.388C400.813 418.999 401.072 419.787 401.072 420.753C401.072 421.779 400.792 422.599 400.232 423.214C399.676 423.829 398.928 424.137 397.989 424.137C397.037 424.137 396.265 423.772 395.672 423.043C395.08 422.309 394.783 421.366 394.783 420.213V419.728C394.783 417.896 395.173 416.497 395.952 415.531C396.736 414.56 397.901 414.063 399.446 414.04H399.671ZM398.01 418.525C397.577 418.525 397.178 418.655 396.814 418.914C396.449 419.174 396.196 419.5 396.055 419.892V420.357C396.055 421.177 396.239 421.838 396.609 422.339C396.978 422.84 397.438 423.091 397.989 423.091C398.559 423.091 399.006 422.881 399.329 422.462C399.657 422.043 399.822 421.494 399.822 420.815C399.822 420.131 399.655 419.58 399.322 419.16C398.994 418.737 398.557 418.525 398.01 418.525Z" fill="#768093"/>
<path d="M119 447.965H435V449H119L119 447.965Z" fill="#E6E7EE"/>
<path fill-rule="evenodd" clip-rule="evenodd" d="M162 429C163.1 429 164 428.1 164 427V413C164 411.9 163.1 411 162 411H161V410C161 409.448 160.552 409 160 409C159.448 409 159 409.448 159 410V411H151V410C151 409.448 150.552 409 150 409C149.448 409 149 409.448 149 410V411H148C146.89 411 146.01 411.9 146.01 413L146 427C146 428.1 146.89 429 148 429H162ZM152 420V418H150V420H152ZM147.5 415H162.5V413.5C162.5 412.948 162.052 412.5 161.5 412.5H148.5C147.948 412.5 147.5 412.948 147.5 413.5V415ZM162.5 426.5C162.5 427.053 162.052 427.5 161.5 427.5H148.5C147.948 427.5 147.5 427.053 147.5 426.5V416.5H162.5V426.5ZM160 420V418H158V420H160ZM156 420H154V418H156V420Z" fill="#00A755"/>
</g>
<path d="M137.895 477H136.442V467.367L133.528 468.438V467.125L137.669 465.571H137.895V477ZM152.63 477H151.177V473.938C150.541 474.104 149.89 474.188 149.224 474.188C148.166 474.188 147.359 473.917 146.802 473.375C146.25 472.834 145.968 472.063 145.958 471.063V468.539H147.403V471.11C147.429 472.37 148.036 473 149.224 473C149.89 473 150.541 472.917 151.177 472.75V468.547H152.63V477ZM160.169 477C160.085 476.834 160.018 476.537 159.966 476.11C159.294 476.808 158.492 477.156 157.559 477.156C156.726 477.156 156.041 476.922 155.505 476.453C154.974 475.979 154.708 475.38 154.708 474.656C154.708 473.776 155.041 473.094 155.708 472.61C156.38 472.12 157.322 471.875 158.536 471.875H159.942V471.211C159.942 470.706 159.791 470.305 159.489 470.008C159.187 469.706 158.742 469.555 158.153 469.555C157.638 469.555 157.205 469.685 156.856 469.946C156.507 470.206 156.333 470.521 156.333 470.891H154.88C154.88 470.469 155.028 470.063 155.325 469.672C155.627 469.276 156.033 468.964 156.544 468.735C157.059 468.505 157.625 468.391 158.239 468.391C159.213 468.391 159.976 468.636 160.528 469.125C161.08 469.61 161.367 470.279 161.388 471.133V475.024C161.388 475.8 161.487 476.417 161.684 476.875V477H160.169ZM157.77 475.899C158.224 475.899 158.653 475.781 159.059 475.547C159.466 475.313 159.76 475.008 159.942 474.633V472.899H158.809C157.039 472.899 156.153 473.417 156.153 474.453C156.153 474.906 156.304 475.261 156.606 475.516C156.908 475.771 157.296 475.899 157.77 475.899ZM167.044 475.977C167.559 475.977 168.01 475.821 168.395 475.508C168.781 475.196 168.994 474.805 169.036 474.336H170.403C170.377 474.821 170.21 475.281 169.903 475.719C169.596 476.156 169.184 476.505 168.669 476.766C168.158 477.026 167.617 477.156 167.044 477.156C165.893 477.156 164.976 476.774 164.294 476.008C163.617 475.237 163.278 474.185 163.278 472.852V472.61C163.278 471.787 163.429 471.055 163.731 470.414C164.033 469.774 164.466 469.276 165.028 468.922C165.596 468.568 166.265 468.391 167.036 468.391C167.984 468.391 168.77 468.675 169.395 469.242C170.026 469.81 170.362 470.547 170.403 471.453H169.036C168.994 470.906 168.786 470.459 168.411 470.11C168.041 469.755 167.583 469.578 167.036 469.578C166.302 469.578 165.731 469.844 165.325 470.375C164.924 470.901 164.724 471.664 164.724 472.664V472.938C164.724 473.912 164.924 474.662 165.325 475.188C165.726 475.714 166.299 475.977 167.044 475.977Z" fill="black"/>
</g>
</g>
</g>
</g>
<g filter="url(#filter7_bd)">
<path fill-rule="evenodd" clip-rule="evenodd" d="M68.9023 189.61C68.9023 172.152 83.0544 158 100.512 158H454.805C472.262 158 486.414 172.152 486.414 189.61V234.39C486.414 251.848 472.262 266 454.805 266H100.512C83.0544 266 68.9023 251.848 68.9023 234.39V189.61Z" fill="white"/>
</g>
<g clip-path="url(#clip5)">
<path d="M222.254 185.147C222.141 186.346 221.698 187.282 220.926 187.956C220.155 188.625 219.128 188.96 217.847 188.96C216.952 188.96 216.162 188.749 215.478 188.327C214.799 187.9 214.274 187.295 213.904 186.513C213.533 185.731 213.34 184.823 213.325 183.789V182.739C213.325 181.68 213.513 180.746 213.888 179.938C214.264 179.13 214.802 178.508 215.501 178.071C216.206 177.633 217.019 177.415 217.94 177.415C219.18 177.415 220.178 177.752 220.934 178.426C221.69 179.099 222.13 180.051 222.254 181.281H220.309C220.216 180.473 219.98 179.892 219.599 179.537C219.224 179.177 218.67 178.997 217.94 178.997C217.091 178.997 216.438 179.308 215.98 179.93C215.527 180.548 215.295 181.456 215.285 182.655V183.65C215.285 184.864 215.501 185.79 215.933 186.428C216.371 187.066 217.009 187.385 217.847 187.385C218.614 187.385 219.19 187.213 219.576 186.868C219.962 186.523 220.206 185.95 220.309 185.147H222.254ZM228.049 183.442L230.303 177.569H232.471L228.559 186.891L228.204 187.594C227.689 188.509 226.856 188.967 225.703 188.967L224.901 188.921L224.916 187.377C225.04 187.398 225.258 187.408 225.572 187.408C226.128 187.408 226.519 187.172 226.745 186.698L227.147 185.749L223.303 177.569H225.433L228.049 183.442ZM236.492 177.569L239.733 186.181L242.967 177.569H245.49V188.805H243.546V185.101L243.739 180.146L240.42 188.805H239.023L235.713 180.154L235.906 185.101V188.805H233.961V177.569H236.492ZM250.337 177.569L253.578 186.181L256.812 177.569H259.335V188.805H257.39V185.101L257.583 180.146L254.265 188.805H252.868L249.557 180.154L249.75 185.101V188.805H247.806V177.569H250.337ZM268.079 186.189H263.726L262.816 188.805H260.786L265.03 177.569H266.782L271.034 188.805H268.997L268.079 186.189ZM264.274 184.615H267.531L265.902 179.954L264.274 184.615ZM285.087 177.569V188.805H283.143V179.143H279.701L279.5 183.488C279.423 184.846 279.256 185.901 278.999 186.652C278.746 187.398 278.379 187.943 277.895 188.288C277.411 188.633 276.763 188.805 275.95 188.805H275.456V187.246L275.765 187.223C276.213 187.182 276.557 187.025 276.799 186.752C277.046 186.48 277.231 186.068 277.355 185.518C277.483 184.962 277.573 184.147 277.625 183.071L277.841 177.569H285.087ZM294.325 177.569H296.277V188.805H294.325V180.802L289.394 188.805H287.441V177.569H289.394V185.579L294.325 177.569ZM301.147 177.569L304.388 186.181L307.622 177.569H310.145V188.805H308.201V185.101L308.394 180.146L305.075 188.805H303.678L300.368 180.154L300.561 185.101V188.805H298.616V177.569H301.147ZM319.344 177.569H321.297V188.805H319.344V180.802L314.413 188.805H312.46V177.569H314.413V185.579L319.344 177.569ZM331.522 179.143H328.018V188.805H326.081V179.143H322.609V177.569H331.522V179.143ZM338.367 186.189H334.015L333.104 188.805H331.074L335.319 177.569H337.071L341.323 188.805H339.286L338.367 186.189ZM334.563 184.615H337.819L336.191 179.954L334.563 184.615Z" fill="#768093"/>
<g clip-path="url(#clip6)">
<path d="M153.483 222.801L155.109 207.695H171.202V212.017H159.266L158.443 219.179C159.828 218.383 161.392 217.985 163.135 217.985C165.988 217.985 168.204 218.897 169.782 220.722C171.373 222.547 172.169 225.003 172.169 228.089C172.169 231.135 171.291 233.564 169.535 235.375C167.779 237.172 165.371 238.07 162.312 238.07C159.568 238.07 157.29 237.295 155.479 235.745C153.682 234.181 152.708 232.123 152.557 229.571H157.393C157.585 231.025 158.107 232.144 158.957 232.926C159.808 233.694 160.919 234.078 162.291 234.078C163.828 234.078 165.021 233.529 165.872 232.432C166.736 231.334 167.168 229.839 167.168 227.945C167.168 226.121 166.695 224.68 165.748 223.624C164.802 222.554 163.498 222.019 161.838 222.019C160.933 222.019 160.164 222.142 159.533 222.389C158.902 222.622 158.216 223.089 157.475 223.788L153.483 222.801ZM206.125 225.044C206.125 229.352 205.315 232.603 203.696 234.798C202.091 236.98 199.642 238.07 196.35 238.07C193.112 238.07 190.67 237.007 189.023 234.881C187.391 232.74 186.554 229.578 186.513 225.394V220.208C186.513 215.9 187.315 212.669 188.921 210.515C190.539 208.361 193.002 207.284 196.308 207.284C199.587 207.284 202.03 208.333 203.635 210.432C205.254 212.532 206.084 215.673 206.125 219.858V225.044ZM201.124 219.446C201.124 216.634 200.74 214.576 199.972 213.272C199.203 211.955 197.982 211.297 196.308 211.297C194.676 211.297 193.475 211.921 192.707 213.169C191.939 214.404 191.534 216.339 191.493 218.973V225.764C191.493 228.563 191.884 230.648 192.666 232.02C193.448 233.392 194.676 234.078 196.35 234.078C197.955 234.078 199.142 233.447 199.91 232.185C200.678 230.909 201.083 228.919 201.124 226.217V219.446ZM230.079 225.044C230.079 229.352 229.27 232.603 227.651 234.798C226.046 236.98 223.597 238.07 220.304 238.07C217.066 238.07 214.624 237.007 212.978 234.881C211.345 232.74 210.508 229.578 210.467 225.394V220.208C210.467 215.9 211.27 212.669 212.875 210.515C214.494 208.361 216.956 207.284 220.263 207.284C223.542 207.284 225.984 208.333 227.589 210.432C229.208 212.532 230.038 215.673 230.079 219.858V225.044ZM225.078 219.446C225.078 216.634 224.694 214.576 223.926 213.272C223.158 211.955 221.937 211.297 220.263 211.297C218.63 211.297 217.43 211.921 216.661 213.169C215.893 214.404 215.488 216.339 215.447 218.973V225.764C215.447 228.563 215.838 230.648 216.62 232.02C217.402 233.392 218.63 234.078 220.304 234.078C221.909 234.078 223.096 233.447 223.864 232.185C224.632 230.909 225.037 228.919 225.078 226.217V219.446ZM254.033 225.044C254.033 229.352 253.224 232.603 251.605 234.798C250 236.98 247.551 238.07 244.258 238.07C241.02 238.07 238.578 237.007 236.932 234.881C235.299 232.74 234.462 229.578 234.421 225.394V220.208C234.421 215.9 235.224 212.669 236.829 210.515C238.448 208.361 240.911 207.284 244.217 207.284C247.496 207.284 249.938 208.333 251.543 210.432C253.162 212.532 253.992 215.673 254.033 219.858V225.044ZM249.033 219.446C249.033 216.634 248.648 214.576 247.88 213.272C247.112 211.955 245.891 211.297 244.217 211.297C242.584 211.297 241.384 211.921 240.616 213.169C239.847 214.404 239.443 216.339 239.401 218.973V225.764C239.401 228.563 239.792 230.648 240.575 232.02C241.357 233.392 242.584 234.078 244.258 234.078C245.863 234.078 247.05 233.447 247.818 232.185C248.587 230.909 248.991 228.919 249.033 226.217V219.446Z" fill="#111111"/>
<path d="M267.797 207.566H289.376V210.854H267.797V207.566ZM280.483 237.659H276.69V217.429H267.797V214.141H289.376V217.429H280.483V237.659ZM294.06 240.231H290.129L301.921 207.695H305.852L294.06 240.231ZM309.412 233.666C310.798 232.116 311.724 230.648 312.19 229.262C312.671 227.863 312.959 226.08 313.055 223.912L313.343 215.392H328.798V233.666H331.885V244.285H326.905V237.659H312.623V244.285H307.56L307.581 233.666H309.412ZM315.277 233.666H323.818V219.693H318.2L318.055 223.953C317.863 228.041 316.937 231.279 315.277 233.666ZM345.261 238.07C342.092 238.07 339.52 237.076 337.544 235.086C335.582 233.083 334.601 230.422 334.601 227.102V226.484C334.601 224.262 335.027 222.279 335.877 220.537C336.741 218.781 337.949 217.416 339.499 216.442C341.049 215.468 342.778 214.98 344.685 214.98C347.717 214.98 350.056 215.948 351.703 217.882C353.363 219.817 354.193 222.554 354.193 226.093V228.11H339.643C339.794 229.948 340.405 231.403 341.475 232.473C342.559 233.543 343.917 234.078 345.549 234.078C347.841 234.078 349.706 233.152 351.147 231.3L353.843 233.872C352.951 235.203 351.757 236.239 350.262 236.98C348.78 237.707 347.113 238.07 345.261 238.07ZM344.664 218.993C343.293 218.993 342.181 219.474 341.331 220.434C340.494 221.394 339.959 222.732 339.725 224.447H349.254V224.076C349.144 222.403 348.698 221.141 347.916 220.29C347.134 219.426 346.05 218.993 344.664 218.993ZM376.953 237.659H371.953V228.666H363.289V237.659H358.288V215.392H363.289V224.673H371.953V215.392H376.953V237.659ZM387.675 222.471H392.573C394.398 222.471 395.989 222.787 397.347 223.418C398.706 224.049 399.735 224.934 400.434 226.073C401.148 227.211 401.504 228.535 401.504 230.044C401.504 232.336 400.695 234.174 399.076 235.56C397.457 236.945 395.303 237.645 392.614 237.659H382.674V215.392H387.675V222.471ZM387.675 226.484V233.666H392.552C393.773 233.666 394.734 233.365 395.434 232.761C396.147 232.144 396.504 231.272 396.504 230.147C396.504 229.022 396.154 228.137 395.454 227.493C394.768 226.834 393.835 226.498 392.655 226.484H387.675Z" fill="#BABFC9"/>
</g>
</g>
</g>
<defs>
<filter id="filter0_dii" x="39.3636" y="-25.0691" width="515.667" height="878.413" filterUnits="userSpaceOnUse" color-interpolation-filters="sRGB">
<feFlood flood-opacity="0" result="BackgroundImageFix"/>
<feColorMatrix in="SourceAlpha" type="matrix" values="0 0 0 0 0 0 0 0 0 0 0 0 0 0 0 0 0 0 127 0"/>
<feOffset dx="20" dy="20"/>
<feGaussianBlur stdDeviation="40"/>
<feColorMatrix type="matrix" values="0 0 0 0 0 0 0 0 0 0 0 0 0 0 0 0 0 0 0.15 0"/>
<feBlend mode="normal" in2="BackgroundImageFix" result="effect1_dropShadow"/>
<feBlend mode="normal" in="SourceGraphic" in2="effect1_dropShadow" result="shape"/>
<feColorMatrix in="SourceAlpha" type="matrix" values="0 0 0 0 0 0 0 0 0 0 0 0 0 0 0 0 0 0 127 0" result="hardAlpha"/>
<feOffset dx="-10" dy="-10"/>
<feGaussianBlur stdDeviation="10"/>
<feComposite in2="hardAlpha" operator="arithmetic" k2="-1" k3="1"/>
<feColorMatrix type="matrix" values="0 0 0 0 0 0 0 0 0 0 0 0 0 0 0 0 0 0 0.15 0"/>
<feBlend mode="normal" in2="shape" result="effect2_innerShadow"/>
<feColorMatrix in="SourceAlpha" type="matrix" values="0 0 0 0 0 0 0 0 0 0 0 0 0 0 0 0 0 0 127 0" result="hardAlpha"/>
<feOffset dy="4"/>
<feGaussianBlur stdDeviation="2"/>
<feComposite in2="hardAlpha" operator="arithmetic" k2="-1" k3="1"/>
<feColorMatrix type="matrix" values="0 0 0 0 0 0 0 0 0 0 0 0 0 0 0 0 0 0 0.07 0"/>
<feBlend mode="normal" in2="effect2_innerShadow" result="effect3_innerShadow"/>
</filter>
<filter id="filter1_i" x="96.6414" y="131.368" width="2.72151" height="33.1966" filterUnits="userSpaceOnUse" color-interpolation-filters="sRGB">
<feFlood flood-opacity="0" result="BackgroundImageFix"/>
<feBlend mode="normal" in="SourceGraphic" in2="BackgroundImageFix" result="shape"/>
<feColorMatrix in="SourceAlpha" type="matrix" values="0 0 0 0 0 0 0 0 0 0 0 0 0 0 0 0 0 0 127 0" result="hardAlpha"/>
<feOffset dy="4"/>
<feGaussianBlur stdDeviation="2"/>
<feComposite in2="hardAlpha" operator="arithmetic" k2="-1" k3="1"/>
<feColorMatrix type="matrix" values="0 0 0 0 0 0 0 0 0 0 0 0 0 0 0 0 0 0 0.25 0"/>
<feBlend mode="normal" in2="shape" result="effect1_innerShadow"/>
</filter>
<filter id="filter2_i" x="96.6414" y="183.219" width="2.72151" height="56.4581" filterUnits="userSpaceOnUse" color-interpolation-filters="sRGB">
<feFlood flood-opacity="0" result="BackgroundImageFix"/>
<feBlend mode="normal" in="SourceGraphic" in2="BackgroundImageFix" result="shape"/>
<feColorMatrix in="SourceAlpha" type="matrix" values="0 0 0 0 0 0 0 0 0 0 0 0 0 0 0 0 0 0 127 0" result="hardAlpha"/>
<feOffset dy="4"/>
<feGaussianBlur stdDeviation="2"/>
<feComposite in2="hardAlpha" operator="arithmetic" k2="-1" k3="1"/>
<feColorMatrix type="matrix" values="0 0 0 0 0 0 0 0 0 0 0 0 0 0 0 0 0 0 0.25 0"/>
<feBlend mode="normal" in2="shape" result="effect1_innerShadow"/>
</filter>
<filter id="filter3_i" x="96.6414" y="248.979" width="2.72151" height="56.4581" filterUnits="userSpaceOnUse" color-interpolation-filters="sRGB">
<feFlood flood-opacity="0" result="BackgroundImageFix"/>
<feBlend mode="normal" in="SourceGraphic" in2="BackgroundImageFix" result="shape"/>
<feColorMatrix in="SourceAlpha" type="matrix" values="0 0 0 0 0 0 0 0 0 0 0 0 0 0 0 0 0 0 127 0" result="hardAlpha"/>
<feOffset dy="4"/>
<feGaussianBlur stdDeviation="2"/>
<feComposite in2="hardAlpha" operator="arithmetic" k2="-1" k3="1"/>
<feColorMatrix type="matrix" values="0 0 0 0 0 0 0 0 0 0 0 0 0 0 0 0 0 0 0.25 0"/>
<feBlend mode="normal" in2="shape" result="effect1_innerShadow"/>
</filter>
<filter id="filter4_i" x="455.03" y="200.677" width="2.66619" height="87.4694" filterUnits="userSpaceOnUse" color-interpolation-filters="sRGB">
<feFlood flood-opacity="0" result="BackgroundImageFix"/>
<feBlend mode="normal" in="SourceGraphic" in2="BackgroundImageFix" result="shape"/>
<feColorMatrix in="SourceAlpha" type="matrix" values="0 0 0 0 0 0 0 0 0 0 0 0 0 0 0 0 0 0 127 0" result="hardAlpha"/>
<feOffset dy="4"/>
<feGaussianBlur stdDeviation="2"/>
<feComposite in2="hardAlpha" operator="arithmetic" k2="-1" k3="1"/>
<feColorMatrix type="matrix" values="0 0 0 0 0 0 0 0 0 0 0 0 0 0 0 0 0 0 0.25 0"/>
<feBlend mode="normal" in2="shape" result="effect1_innerShadow"/>
</filter>
<filter id="filter5_bd" x="91.1041" y="143.104" width="372.792" height="137.792" filterUnits="userSpaceOnUse" color-interpolation-filters="sRGB">
<feFlood flood-opacity="0" result="BackgroundImageFix"/>
<feGaussianBlur in="BackgroundImage" stdDeviation="13.9479"/>
<feComposite in2="SourceAlpha" operator="in" result="effect1_backgroundBlur"/>
<feColorMatrix in="SourceAlpha" type="matrix" values="0 0 0 0 0 0 0 0 0 0 0 0 0 0 0 0 0 0 127 0"/>
<feOffset dy="1"/>
<feGaussianBlur stdDeviation="1.5"/>
<feColorMatrix type="matrix" values="0 0 0 0 0.462745 0 0 0 0 0.501961 0 0 0 0 0.576471 0 0 0 0.2 0"/>
<feBlend mode="normal" in2="effect1_backgroundBlur" result="effect2_dropShadow"/>
<feBlend mode="normal" in="SourceGraphic" in2="effect2_dropShadow" result="shape"/>
</filter>
<filter id="filter6_bd" x="90.5999" y="361.1" width="372.8" height="357.8" filterUnits="userSpaceOnUse" color-interpolation-filters="sRGB">
<feFlood flood-opacity="0" result="BackgroundImageFix"/>
<feGaussianBlur in="BackgroundImage" stdDeviation="13.95"/>
<feComposite in2="SourceAlpha" operator="in" result="effect1_backgroundBlur"/>
<feColorMatrix in="SourceAlpha" type="matrix" values="0 0 0 0 0 0 0 0 0 0 0 0 0 0 0 0 0 0 127 0"/>
<feOffset dy="1"/>
<feGaussianBlur stdDeviation="2"/>
<feColorMatrix type="matrix" values="0 0 0 0 0.462745 0 0 0 0 0.501961 0 0 0 0 0.576471 0 0 0 0.2 0"/>
<feBlend mode="normal" in2="effect1_backgroundBlur" result="effect2_dropShadow"/>
<feBlend mode="normal" in="SourceGraphic" in2="effect2_dropShadow" result="shape"/>
</filter>
<filter id="filter7_bd" x="32.1615" y="121.259" width="490.994" height="181.482" filterUnits="userSpaceOnUse" color-interpolation-filters="sRGB">
<feFlood flood-opacity="0" result="BackgroundImageFix"/>
<feGaussianBlur in="BackgroundImage" stdDeviation="18.3704"/>
<feComposite in2="SourceAlpha" operator="in" result="effect1_backgroundBlur"/>
<feColorMatrix in="SourceAlpha" type="matrix" values="0 0 0 0 0 0 0 0 0 0 0 0 0 0 0 0 0 0 127 0"/>
<feOffset dy="1.31707"/>
<feGaussianBlur stdDeviation="1.97561"/>
<feColorMatrix type="matrix" values="0 0 0 0 0.462745 0 0 0 0 0.501961 0 0 0 0 0.576471 0 0 0 0.2 0"/>
<feBlend mode="normal" in2="effect1_backgroundBlur" result="effect2_dropShadow"/>
<feBlend mode="normal" in="SourceGraphic" in2="effect2_dropShadow" result="shape"/>
</filter>
<radialGradient id="paint0_radial" cx="0" cy="0" r="1" gradientUnits="userSpaceOnUse" gradientTransform="translate(313.722 63.7495) rotate(69.9659) scale(3.73704)">
<stop stop-color="#A792FE"/>
<stop offset="1" stop-color="#141023"/>
</radialGradient>
<clipPath id="clip0">
<rect width="588" height="494" fill="white" transform="translate(-0.00012207 0.000244141)"/>
</clipPath>
<clipPath id="clip1">
<rect width="68" height="13" fill="white" transform="translate(361.114 74.4894)"/>
</clipPath>
<clipPath id="clip2">
<rect width="318" height="606" fill="white" transform="translate(118 171)"/>
</clipPath>
<clipPath id="clip3">
<rect x="118.5" y="389" width="317" height="302" rx="26" fill="white"/>
</clipPath>
<clipPath id="clip4">
<rect width="316" height="48" fill="white" transform="translate(119 401)"/>
</clipPath>
<clipPath id="clip5">
<rect width="432" height="71.1219" fill="white" transform="translate(60.9998 173.805)"/>
</clipPath>
<clipPath id="clip6">
<rect width="254.195" height="43.4634" fill="white" transform="translate(149.902 201.464)"/>
</clipPath>
</defs>
</svg>
