<svg width="70" height="72" viewBox="0 0 70 72" fill="none" xmlns="http://www.w3.org/2000/svg">
<path d="M34.8867 0.381378C15.9057 0.169693 0.322039 34.948 0.147544 50.5943C-0.0494558 68.2586 68.297 69.0208 68.494 51.3565C68.6685 35.711 53.8678 0.593064 34.8867 0.381378Z" fill="white"/>
<path d="M53.0243 72.0002H14.7804C12.1403 72.0002 9.99988 69.8598 9.99988 67.2198V42.2214C9.99988 40.6606 10.7612 39.2001 12.0388 38.3062L33.9023 23.0002L55.7659 38.3062C57.0435 39.2001 57.8048 40.6606 57.8048 42.2214V67.2198C57.8048 69.8598 55.6643 72.0002 53.0243 72.0002Z" fill="#1D51A8"/>
<path d="M19.5602 36.1462H48.2431V62.4389H19.5602V36.1462Z" fill="white"/>
<path d="M53.0243 72.0001H14.7804C12.1403 72.0001 9.99988 69.8596 9.99988 67.2196V43.3171L33.9023 58.8537L57.8048 43.3171V67.2196C57.8048 69.8596 55.6643 72.0001 53.0243 72.0001Z" fill="#2D72E5"/>
<path d="M23.1463 42.1221H44.6585V44.5123H23.1463V42.1221ZM23.1463 46.9026H37.4878V49.2928H23.1463V46.9026Z" fill="#2196F3"/>
</svg>
