<svg width="70" height="69" viewBox="0 0 70 69" fill="none" xmlns="http://www.w3.org/2000/svg">
<path d="M34.8867 0.381378C15.9057 0.169693 0.32207 34.948 0.147575 50.5943C-0.0494253 68.2586 68.2971 69.0208 68.4941 51.3565C68.6686 35.711 53.8678 0.593064 34.8867 0.381378Z" fill="white"/>
<rect x="19.9999" y="19" width="28" height="49" rx="2" fill="#8BB6FF"/>
<path d="M45.9999 17H21.9999C19.7939 17 17.9999 18.794 17.9999 21V26C17.4469 26 16.9999 26.447 16.9999 27V30C16.9999 30.553 17.4469 31 17.9999 31V33C17.4469 33 16.9999 33.447 16.9999 34V39C16.9999 39.553 17.4469 40 17.9999 40V65C17.9999 67.206 19.7939 69 21.9999 69H45.9999C48.2059 69 49.9999 67.206 49.9999 65V21C49.9999 18.794 48.2059 17 45.9999 17ZM47.9999 65C47.9999 66.103 47.1029 67 45.9999 67H21.9999C20.8969 67 19.9999 66.103 19.9999 65V21C19.9999 19.897 20.8969 19 21.9999 19H25.9999C25.9999 20.104 26.8949 21 27.9999 21H39.9999C41.1049 21 41.9999 20.104 41.9999 19H45.9999C47.1029 19 47.9999 19.897 47.9999 21V65Z" fill="#2D72E5"/>
<rect x="22.9999" y="25" width="22" height="14" rx="3" fill="#2D72E5"/>
<rect x="22.9999" y="42" width="22" height="5" rx="1" fill="#2D72E5"/>
<rect x="22.9999" y="49" width="22" height="5" rx="1" fill="#2D72E5"/>
<rect x="22.9999" y="56" width="22" height="5" rx="1" fill="#2D72E5"/>
</svg>
